<?xml version="1.0" standalone="no"?>
<!DOCTYPE svg PUBLIC "-//W3C//DTD SVG 20010904//EN"
 "http://www.w3.org/TR/2001/REC-SVG-20010904/DTD/svg10.dtd">
<svg version="1.0" xmlns="http://www.w3.org/2000/svg"
 width="1080.000000pt" height="1080.000000pt" viewBox="0 0 1080.000000 1080.000000"
 preserveAspectRatio="xMidYMid meet">
<metadata>
Created by potrace 1.11, written by Peter Selinger 2001-2013
</metadata>
<g transform="translate(0.000000,1080.000000) scale(0.100000,-0.100000)"
fill="#000000" stroke="none">
<path d="M6369 9106 c-2 -2 -35 -7 -74 -10 -103 -9 -282 -43 -430 -81 -121
-31 -358 -109 -380 -125 -5 -3 -32 -15 -60 -25 -113 -41 -343 -166 -495 -269
-58 -39 -109 -73 -115 -75 -5 -2 -14 -10 -20 -17 -5 -6 -84 -69 -175 -139 -91
-70 -178 -138 -195 -151 -126 -98 -196 -152 -220 -169 -15 -11 -32 -25 -39
-30 -6 -6 -29 -24 -51 -40 -22 -17 -42 -32 -45 -36 -3 -3 -46 -37 -96 -75 -90
-68 -340 -261 -359 -276 -5 -5 -37 -29 -70 -54 -73 -55 -117 -90 -160 -126
-18 -16 -36 -28 -40 -28 -3 0 -13 -6 -20 -14 -8 -7 -69 -56 -136 -107 -158
-123 -370 -286 -389 -302 -9 -7 -51 -39 -95 -72 -44 -33 -87 -67 -97 -75 -22
-20 -32 -28 -98 -77 -30 -23 -77 -59 -105 -80 -27 -22 -122 -95 -210 -163 -88
-68 -173 -134 -190 -147 -16 -13 -34 -27 -40 -31 -42 -31 -232 -179 -242 -187
-16 -13 -42 -33 -133 -103 -42 -31 -82 -63 -90 -69 -23 -20 -270 -211 -298
-230 -14 -10 -39 -29 -56 -43 -17 -14 -49 -39 -71 -54 -22 -16 -44 -34 -50
-40 -5 -6 -31 -27 -58 -46 -26 -19 -56 -42 -66 -50 -10 -8 -33 -26 -51 -40
-34 -26 -211 -162 -265 -204 -182 -142 -227 -176 -235 -176 -6 0 -10 -3 -10
-8 0 -4 -33 -32 -72 -62 -40 -30 -75 -57 -78 -60 -3 -3 -23 -18 -45 -35 -22
-16 -42 -31 -45 -35 -3 -3 -22 -18 -42 -33 -21 -15 -38 -36 -38 -45 0 -15 -2
-15 -10 -2 -10 15 -8 -20 4 -115 3 -22 8 -62 11 -90 4 -27 9 -68 12 -90 3 -22
7 -56 8 -75 2 -19 6 -55 9 -80 14 -99 17 -117 20 -170 2 -30 7 -66 10 -80 3
-14 8 -50 11 -80 3 -30 7 -69 9 -85 3 -17 7 -53 10 -80 4 -28 9 -68 11 -90 3
-22 8 -56 10 -75 2 -19 6 -56 9 -82 3 -27 8 -67 11 -90 4 -37 9 -84 20 -163 1
-11 3 -34 4 -52 1 -34 13 -44 267 -228 169 -122 259 -190 262 -197 2 -5 8 -8
12 -8 8 0 108 -71 163 -116 9 -7 17 -12 17 -9 0 3 8 -3 18 -12 10 -10 71 -56
136 -103 222 -161 241 -175 244 -182 2 -5 10 -8 18 -8 8 0 14 -3 14 -7 0 -5
17 -19 38 -33 20 -14 43 -31 50 -37 7 -7 17 -13 20 -13 4 0 18 -10 32 -23 14
-12 45 -35 70 -52 25 -16 47 -33 50 -36 5 -6 321 -237 348 -254 17 -11 47 -34
66 -50 6 -5 34 -26 61 -45 28 -19 52 -38 53 -42 2 -4 10 -8 18 -8 8 0 14 -3
14 -7 0 -5 28 -27 63 -50 34 -23 72 -51 84 -62 12 -12 26 -21 31 -21 11 0 146
108 150 121 2 5 8 9 13 9 5 0 17 8 27 17 10 10 35 32 56 48 21 17 46 37 57 47
11 9 39 31 61 50 72 57 113 93 116 101 2 4 10 7 18 7 8 0 14 4 14 8 0 5 42 42
93 83 50 40 98 79 105 86 8 7 30 26 50 41 21 15 42 32 47 38 8 9 149 126 190
157 6 4 21 17 36 30 14 12 40 33 58 47 17 14 42 34 55 45 48 42 83 71 131 110
28 21 52 42 55 45 3 3 28 23 55 45 28 22 55 44 61 50 7 5 27 22 45 37 32 26
110 90 154 127 11 9 58 48 105 86 47 38 87 72 90 75 3 3 28 23 55 45 28 21 52
42 55 45 3 3 18 16 34 28 16 12 50 40 75 62 64 54 180 149 226 185 21 17 45
37 54 45 9 9 44 38 79 65 35 28 84 69 110 93 25 23 49 42 53 42 3 0 19 12 35
28 16 15 44 38 62 52 18 14 52 42 75 62 41 37 62 46 69 30 2 -4 31 -27 66 -51
34 -24 62 -48 62 -52 0 -5 6 -9 14 -9 7 0 25 -11 40 -25 15 -14 31 -25 36 -25
5 0 17 -8 27 -18 10 -11 61 -50 113 -88 52 -37 97 -71 100 -74 3 -3 28 -21 55
-39 28 -19 52 -38 55 -41 3 -3 70 -53 150 -112 200 -146 362 -266 383 -283 9
-8 20 -15 23 -15 6 0 24 -15 64 -52 15 -16 31 -28 35 -28 5 0 80 -55 95 -70
29 -29 280 -162 385 -204 39 -16 79 -32 90 -36 25 -10 151 -51 168 -54 7 -2
30 -8 53 -14 49 -14 134 -31 189 -38 22 -3 51 -7 65 -10 65 -12 91 -15 165
-19 176 -10 452 -1 541 19 12 2 45 7 74 11 57 7 63 8 130 24 25 5 58 12 73 15
86 15 308 88 467 153 214 88 539 275 695 400 6 4 44 35 85 68 68 54 98 80 180
155 15 14 40 37 56 51 56 50 218 231 284 317 14 18 32 42 41 52 21 26 47 60
67 91 9 15 34 52 55 83 20 31 37 61 37 66 0 6 4 10 9 10 5 0 13 10 17 23 4 12
10 24 14 27 21 14 210 408 225 470 3 8 20 61 39 118 20 56 38 113 40 125 3 12
7 32 10 45 4 12 8 32 12 45 8 36 15 70 19 97 2 14 4 26 6 28 3 3 5 14 13 72 4
30 10 64 13 75 10 37 11 500 2 570 -12 96 -18 137 -25 165 -7 31 -24 108 -29
135 -24 113 -135 385 -217 526 -23 40 -140 213 -154 229 -8 8 -40 46 -71 85
-53 63 -176 188 -230 232 -12 10 -39 32 -59 48 -43 35 -200 140 -311 208 -43
26 -157 102 -253 168 -96 66 -213 146 -260 177 -47 31 -87 59 -90 62 -3 3 -54
38 -115 79 -190 128 -388 263 -436 298 -26 18 -51 33 -57 33 -6 0 -12 4 -14 8
-1 5 -73 56 -158 113 -85 57 -157 107 -160 110 -3 3 -20 14 -37 24 -18 11 -33
23 -33 27 0 4 -4 8 -10 8 -8 0 -96 56 -110 70 -3 3 -45 32 -95 65 -49 33 -93
65 -97 70 -5 7 -8 7 -8 0 0 -6 -3 -6 -8 0 -9 14 -272 148 -272 139 0 -3 -6 -2
-12 3 -13 10 -155 66 -160 63 -2 -1 -16 4 -33 10 -33 14 -159 50 -190 55 -11
2 -21 4 -22 5 -4 3 -11 5 -68 15 -27 4 -57 10 -65 11 -27 6 -104 16 -136 18
-16 2 -34 5 -40 8 -10 5 -380 9 -385 4z"/>
</g>
</svg>
