<svg xmlns="http://www.w3.org/2000/svg" xmlns:xlink="http://www.w3.org/1999/xlink" width="48" height="48" viewBox="0 0 48 48"><defs><clipPath id="a"><circle cx="24" cy="24" r="24" transform="translate(164 652)" stroke="#707070" stroke-width="1"/></clipPath></defs><g transform="translate(-164 -652)"><g clip-path="url(#a)"><g transform="translate(164.389 652)"><path d="M23.963,21.371a25.814,25.814,0,0,1,8.71,2.568c2.454,1.346,3.9,3.116,3.9,5.143,0,2.508-2.251,4.644-5.887,6.066a35.2,35.2,0,0,1-12.4,2.024,35.286,35.286,0,0,1-12.4-2.024C2.251,33.729,0,31.593,0,29.085c0-2.057,1.485-3.845,4-5.2a26.4,26.4,0,0,1,8.916-2.553l.387,3.059A23.265,23.265,0,0,0,5.464,26.6c-1.491.8-2.369,1.667-2.369,2.481,0,1.1,1.5,2.242,3.918,3.186a32.134,32.134,0,0,0,11.272,1.806,32.134,32.134,0,0,0,11.272-1.806c2.42-.947,3.918-2.084,3.918-3.186,0-.8-.847-1.646-2.29-2.435a22.75,22.75,0,0,0-7.633-2.221l.411-3.059Zm-4.2-7.951V28.81H16.669V13.42a6.8,6.8,0,1,1,3.095,0Z" transform="translate(4.653 2.828)" fill="#cf151b"/></g></g></g></svg>