<svg xmlns="http://www.w3.org/2000/svg" xmlns:xlink="http://www.w3.org/1999/xlink" width="48" height="48" viewBox="0 0 48 48"><defs><clipPath id="a"><circle cx="24" cy="24" r="24" transform="translate(164 652)" stroke="#707070" stroke-width="1"/></clipPath></defs><g transform="translate(-164 -652)" clip-path="url(#a)"><g transform="translate(176.005 653.844)"><path d="M4.267,0H19.71a4.277,4.277,0,0,1,4.267,4.267V36.889a4.277,4.277,0,0,1-4.267,4.267H4.267A4.277,4.277,0,0,1,0,36.889V4.267A4.277,4.277,0,0,1,4.267,0Zm7.72,35.9a1.748,1.748,0,1,1-1.748,1.748A1.75,1.75,0,0,1,11.987,35.9ZM1.226,34.558H22.755V6.6H1.226v27.96Z" transform="translate(0 0)" fill="#cf151b" fill-rule="evenodd"/></g></g></svg>