<svg xmlns="http://www.w3.org/2000/svg" xmlns:xlink="http://www.w3.org/1999/xlink" width="56" height="30" viewBox="0 0 56 30"><defs><clipPath id="a"><rect width="56" height="30" transform="translate(160.701 680.19)" fill="#fff" stroke="#707070" stroke-width="1"/></clipPath></defs><g transform="translate(-160.701 -680.19)" clip-path="url(#a)"><g transform="translate(167.9 679.886)"><path d="M2.4,0H39.5a2.41,2.41,0,0,1,2.4,2.4V27.9a2.385,2.385,0,0,1-.416,1.347.924.924,0,0,1-.45.5,2.4,2.4,0,0,1-1.537.56H2.4A2.41,2.41,0,0,1,0,27.9V2.4A2.409,2.409,0,0,1,2.4,0Zm-.56,26.889,13-13.035-13-10.6V26.889ZM16.278,15.021,2.873,28.46H38.922L26.111,15.023l-4.223,3.6h0a.921.921,0,0,1-1.178.015l-4.433-3.615Zm11.236-1.192,12.55,13.164V3.137L27.514,13.829ZM3.024,1.844,21.277,16.727,38.747,1.844H3.024Z" fill="#cf151b"/></g></g></svg>