<svg xmlns="http://www.w3.org/2000/svg" xmlns:xlink="http://www.w3.org/1999/xlink" width="18" height="14" viewBox="0 0 18 14"><defs><clipPath id="a"><rect width="18" height="14" transform="translate(200 1576)" fill="none" stroke="#707070" stroke-width="1"/></clipPath></defs><g transform="translate(-200 -1576)" clip-path="url(#a)"><g transform="translate(200 1576.492)"><path d="M1.032,0H16.968A1.035,1.035,0,0,1,18,1.032V11.984a1.024,1.024,0,0,1-.179.579.4.4,0,0,1-.193.213,1.03,1.03,0,0,1-.66.241H1.032A1.035,1.035,0,0,1,0,11.984V1.032A1.035,1.035,0,0,1,1.032,0ZM.792,11.549l5.585-5.6L.792,1.4V11.549Zm6.2-5.1L1.234,12.224H16.718l-5.5-5.771L9.4,8h0A.4.4,0,0,1,8.9,8l-1.9-1.553Zm4.826-.512,5.391,5.654V1.347L11.818,5.94ZM1.3.792l7.84,6.392,7.5-6.392H1.3Z" fill="#fff"/></g></g></svg>