<?xml version="1.0" encoding="utf-8"?>
<!-- Generator: Adobe Illustrator 25.0.0, SVG Export Plug-In . SVG Version: 6.00 Build 0)  -->
<svg version="1.1" id="logo" xmlns="http://www.w3.org/2000/svg" xmlns:xlink="http://www.w3.org/1999/xlink" x="0px" y="0px"
	 viewBox="0 0 134.5 92.4" style="enable-background:new 0 0 134.5 92.4;" xml:space="preserve">
<style type="text/css">
	.st0{fill:#FFFFFF;}
	.st1{fill:#D8D9D8;}
	.st2{fill:#020202;}
	.st3{fill:#333333;}
	.st4{fill:#010101;}
</style>
<g id="whistle">
	<g id="main_whistle">
		<path id="top_main" class="st0" d="M75.6,0.6C70.2,1.6,65,3.8,60.5,7l0,0l-0.7,0.5c-0.5,0.4-1,0.8-1.5,1.2L57.9,9L0.2,53.6L3.7,73
			L29,91.8l34.9-28.3l15.7,11.7l0.3,0.3l0.3,0.3l0,0c11.1,7.8,27.9,6.4,40.5-4.2c14.6-12.3,18-32.3,7.6-44.8
			c-1.4-1.7-3.1-3.2-4.9-4.4l0,0L97,4.4C90.6,0.5,82.9-0.9,75.6,0.6z"/>
		<path id="side_round" class="st1" d="M87.1,24.1c15.6-10.1,33.5-8.7,42.8,4.7s4.2,33.3-11.3,44.6S83.2,82.9,74,69.5
			c-2.2-3.2-3.6-6.8-4.2-10.7"/>
		<path id="side" class="st1" d="M87.1,24.1l-61.5,49l3.4,19.4L71,57.9"/>
		<path id="blow_inner_lines" class="st2" d="M3.7,72.9l10.7-8.5"/>
		<path id="blow_shadow" class="st3" d="M0,53.7l25.8,19.2l3.3,19.6L2.3,72.9L0,53.7L0,53.7z"/>
		<path id="bottom_shadow" class="st4" d="M69.8,58.9l-5.9,4.8l15.7,11.6c-1.5-1.1-2.9-2.5-4.2-3.9C72.4,67.7,70.5,63.4,69.8,58.9z"
			/>
		<path id="air_part" class="st3" d="M81.8,22.1l-7.2,6.5L57.9,14.4L65.1,8L81.8,22.1L81.8,22.1z"/>
	</g>
	<g id="handle">
		<ellipse id="Ellipse_33" class="st3" cx="104" cy="50.5" rx="17.2" ry="15.3"/>
	</g>
</g>
</svg>
