<svg xmlns="http://www.w3.org/2000/svg" xmlns:xlink="http://www.w3.org/1999/xlink" width="53" height="48" viewBox="0 0 53 48"><defs><clipPath id="a"><ellipse cx="26.5" cy="24" rx="26.5" ry="24" transform="translate(-5.701 -1.934)" fill="#fff" stroke="#707070" stroke-width="1"/></clipPath><clipPath id="b"><circle cx="22.5" cy="22.5" r="22.5" transform="translate(0.437 0.221)" fill="#fff" stroke="#707070" stroke-width="1"/></clipPath></defs><g transform="translate(5.701 1.934)" clip-path="url(#a)"><g transform="translate(-0.138 -0.155)" clip-path="url(#b)"><path d="M5.922,19.194V15.5A3.855,3.855,0,0,1,6.9,13.731,3.261,3.261,0,0,1,9.413,12.9a1.486,1.486,0,0,0,1.37-.635,11.646,11.646,0,0,0,.783-1.162A16.47,16.47,0,0,1,21.834,3.281a25.12,25.12,0,0,1,12.638-.155,17.8,17.8,0,0,1,10.435,6.74c.6.793,1.121,1.641,1.687,2.468a1.234,1.234,0,0,0,1.1.576,3.088,3.088,0,0,1,3.226,3.284c0,.792.014,1.587,0,2.373a4.807,4.807,0,0,1-.138,1.038,4.273,4.273,0,0,1-1.55,2.073,4.747,4.747,0,0,1-3.244,1.431,30.392,30.392,0,0,0-3.411.275,2.229,2.229,0,0,0-2.115,2.4c0,1.112-.039,2.228.011,3.339a3.408,3.408,0,0,1-.91,2.644,2.385,2.385,0,0,0-.592,2.357c.208.792.317,1.608.509,2.4a5.922,5.922,0,0,1-.818,4.779c-.617.959-1.176,1.955-1.781,2.923a3.031,3.031,0,0,1-.638.77,2.529,2.529,0,0,1-3.134.176l-9.938-5.87a2.859,2.859,0,0,0-1.01-.4c-2.565-.353-5.137-.649-7.7-1.014a4.882,4.882,0,0,1-3.554-1.95,19.628,19.628,0,0,1-1.879-3.45A21.216,21.216,0,0,1,7.59,23.639a4.354,4.354,0,0,0-.555-2.223C6.648,20.682,6.292,19.935,5.922,19.194Zm24.385,6.221a3.572,3.572,0,0,0-.407.028c-1.96.331-3.924.647-5.879,1.008a2.034,2.034,0,0,0-1.728,2.579c.464,2.576.933,5.149,1.389,7.725a.853.853,0,0,0,.434.651q5.014,2.979,10.017,5.983c.487.291.716.233,1.012-.252q.993-1.629,1.973-3.267a3.447,3.447,0,0,0,.416-2.495c-.176-.9-.432-1.8-.547-2.708a4.452,4.452,0,0,0-1.86-3.1,3.282,3.282,0,0,1-1.089-1.507q-.587-1.513-1.22-3a2.644,2.644,0,0,0-2.51-1.648Zm6.375-9.091c-.132-.219-.22-.543-.416-.635a1.068,1.068,0,0,0-.763.088,1.682,1.682,0,0,0-.589.511,8.143,8.143,0,0,0-1.25,2.916.777.777,0,0,0,.256.911.758.758,0,0,0,.926-.153c1.16-.91,1.342-2.3,1.837-3.639ZM37.8,19.468c.136.229.219.557.414.651a1.151,1.151,0,0,0,.767-.09,1.475,1.475,0,0,0,.529-.448,7.686,7.686,0,0,0,1.317-3.069c.078-.314.044-.719-.307-.829a1.086,1.086,0,0,0-.839.145C38.476,16.707,38.3,18.126,37.8,19.468Z" transform="translate(-5.922 -1.513)" fill="#e31e25"/></g></g></svg>