<svg xmlns="http://www.w3.org/2000/svg" width="40.751" height="92.684" viewBox="0 0 40.751 92.684"><g transform="translate(-167.462 -999.529)"><path d="M278.631,219.728l-.437-.6-.583-1.02-.194-.34v-1.651l.194-.631.194-.729-.1-.826-.291-1.02v-5.78l.34-1.214-.049-.729.316.437,1.044.534,1.7.049,1.36-.146,1.214-.874,1.36-1.117.826-1.166,1.6-3.789.534-3.06v-.534l-.243-.923-.194-.486-.631-.388-.243-.34-.048-.486-.1-.291-.194-1.311.049-1.311.048-1.506-.534-1.506-.389-.728-.486-1.166-.194-1.02-.486-.486L283.2,183l-.656-.291-.656-.194h-.874l-.243-.971-.34-.972.146-.923-.729-.388-.923-.389h-.437s-.68-.834-.826-.66-.583,0-.583,0l.389-.943.777-.68.583-.68.68-.632.194-1.166.291-.874.243-.826s.243-1.554.243-1.7a15.141,15.141,0,0,1,.68-1.506v-1.166l-.049-.631-.194-.874-.146-.534-.1-.729-.194-.534-.1-.777-.389-.777-.34-.729-.777-1.263c-1.214-.729-6.023-1.02-6.023-1.02l-1.6.243-.826.194a3.693,3.693,0,0,0-.631.389c-.146.146-.874.728-.874.728a6.657,6.657,0,0,0-.68.486,7.707,7.707,0,0,0-.534.777l-.486.874-.437.826-.534,1.117v1.069l-.583.777v1.263l.243,1.02.388,1.811.534,1.2.049.729-.243.388-.388-.388-.583-.68v-1.846l-.631-.874V169.1l-.243-.777-.194-1.02v-1.117l-.534-.389v-2.04l-.291-.777v-.874l.437-.777.534-.777.243-.68.049-1.457.486-1.311.049-2.137.437-1.8.1-2.137.291-2.04.437-1.749-.049-1.506v-3.4l.1-.583v-.583l.243-.68.437-.437.68-.388.68-.389.534-.874.194-1.02.389-.777.243-.68.583-1.117v-.777h-1.02l-.243.291-.243.34-.1.243-.194.389-.1.388-.534.34.049-.923v-1.069l-.049-1.117.1-1.02.049-.874.291-1.117-.1-.874-.1-.486-.291-.291h-.243l-.146-.534v-.437l-.243-.243h-.729l-.048.437.048.437-.34-.146-.486.1-.1.437-.194.437v.437l-.291.1-.583.291a.957.957,0,0,0-.1.34,7.622,7.622,0,0,1-.146.777l-.194.34-.1.534-.1.486-.1.437-.1.534s-.1.68-.1.826a2.921,2.921,0,0,1-.34.68v1.166l-.243.729v1.02a1.889,1.889,0,0,0,0,.534,1.694,1.694,0,0,1-.021.534v.729l-.221.388v.243l-.243.146-.34.534s-.34.1-.34.291-.388.68-.388.68l-.874.437v.437a3.74,3.74,0,0,0-.291.729v.534c0,.146-.1.728,0,.874s-.135.583-.043.826.35.486-.022.583-1.63,1.894-1.63,1.894l-1.268,1.554a13.311,13.311,0,0,1-.729,1.409c-.146.146-.971,1.6-.971,1.6l-.729,1.263-.729,1.651-.243,2.137s.243,1.409,0,1.554-.291,1.457-.291,1.6v10.006l-.437,1.131v.617a2.334,2.334,0,0,1,0,1.026,2.748,2.748,0,0,0,0,1.111l-.065,1.117a6.377,6.377,0,0,1,0,1.263,4.964,4.964,0,0,0,0,1.117l.211.631V181.3l-.049,1.117-.2.923v8.743a4.486,4.486,0,0,0-.288.534c-.049.146-.68.729-.777.972s-.243.631-.243.631l-.34.777a.337.337,0,0,1,0,.243,4.278,4.278,0,0,0-.243.728,2.137,2.137,0,0,1-.291.583s.146.1,0,.243a3.646,3.646,0,0,0-.389.68v.486l-.34.534v.437l-.389,1.166s.146,1.02,0,1.166,0,1.166,0,1.166l-.065.631-.324.826V206.8s.243.631,0,.826a5.016,5.016,0,0,0-.534.534s.146.583,0,.777.146.534,0,.68a2.459,2.459,0,0,0-.243.826l.486.631.388.534.34.34-.243.923s-.534,1.7-.631,2.04-.486.534-.68,1.02-.68.631-1.02,1.166a3.4,3.4,0,0,0-.583,1.069,6.808,6.808,0,0,0,0,1.02l-.291.34.971.207,10.269-.255,14.065.255h6.411Z" transform="translate(-79.453 872.486)" fill="#b81217"/></g></svg>