<svg xmlns="http://www.w3.org/2000/svg" width="64.008" height="57.689" viewBox="0 0 64.008 57.689"><g transform="translate(-791.798 -365.247)"><path d="M810.11,414.154l.01-.286.052-3.609-.035-6.764-.279-2.388-.314-1.586s-.087.035-.889.418a8.658,8.658,0,0,0-1.918,1.743s-2.144,2.458-2.075,3.5a5.343,5.343,0,0,0,.436,1.935,7.675,7.675,0,0,1,1.029,2.824l.331.227a6.939,6.939,0,0,1,.68.941,6.71,6.71,0,0,1,1.534,1.447l.052.383-.1.157-.188.122.079.052,1.033.458.811.471a6.529,6.529,0,0,1,1.713,1.83s1.124,1.111,2.066,2.013c0,0,1.164,1.621,1.033,2.17a.845.845,0,0,1-.353.444s-.249.131-.706-.236c0,0,.236.5.353.824s-.091.484-.183.654a.289.289,0,0,1-.235.17,2.212,2.212,0,0,1-.536.078c-.2-.013-.34-.379-.34-.379a.245.245,0,0,1-.026.314c-.144.157-.209.17-.545.322a2.1,2.1,0,0,1-.907-.209,6.017,6.017,0,0,1-.837-.689l-.118.092a1.653,1.653,0,0,1-.823.157,3.4,3.4,0,0,1-1.465-.693l-.628-.68-.628-.628-.575-.418-.628-.471-.784-.732-.793-.993a11.532,11.532,0,0,0-1.665-1.325s-1.534-1.325-2.458-2.057l-.714-.313s-5.823-4.829-7.043-7.862c0,0-1.063-1.935-.628-3.277l.174-.7.383-.75.4-.575.54-.662.628-.819.68-.854.505-.715.331-.453.418-.471.907-.941.558-.645.854-.8,1-.85.667-.81.628-.811.484-.536.392-.353.51-.379.7-.462.941-.662.715-.454.889-.54,1.551-.645.924-.4L809,386.6l2.58-.733,1.255-.628,3.451-1.464.732-.523V381.87a8.126,8.126,0,0,1-1.046-2.222l-.131-.471a2.544,2.544,0,0,1-.758-.523,5.742,5.742,0,0,1-.68-2.074,5.09,5.09,0,0,1,.018-.819,8.359,8.359,0,0,1-.7-2.2s.175,0-.087-.14-.349-.68-.349-.68a.408.408,0,0,1,.139-.244,3.127,3.127,0,0,1-.261-.75,5.6,5.6,0,0,1,.959-2.632,9.393,9.393,0,0,1,6.555-3.87c4.655-.035,6.067,1.429,6.067,1.429a13.251,13.251,0,0,1,2.759,2.8,3.861,3.861,0,0,1,.807,2.11l0,.048a6.776,6.776,0,0,1-.657,3.2,10.275,10.275,0,0,1-.726,1.437,4.366,4.366,0,0,1-.391,2.286c-.837.889-1.011.889-1.011.889a7.879,7.879,0,0,0-.314,2.057l.1,1.238.279.061.418.061s2.319,1.09,2.815,1.325,2.589.889,2.589.889a26.987,26.987,0,0,0,3.242.968c1.491.314,2.432.575,3.138.784a15.809,15.809,0,0,1,3.5,1.543,32.376,32.376,0,0,1,3.844,2.746,24.18,24.18,0,0,1,3.478,3.269c1.2,1.464,1.8,2.092,1.8,2.092a14.768,14.768,0,0,1,2.955,4.6,7.241,7.241,0,0,1,.235,4.027,14.3,14.3,0,0,1-1.961,3.295c-1.177,1.386-3.295,3.765-3.295,3.765a44.109,44.109,0,0,1-3.138,3.19,8.8,8.8,0,0,1-1.839.959l-1.133.932-.863.558s-.523.68-.54.715-1.586,1.011-1.586,1.011l-2.109.932-.675.305-.379.183-1.111.628a5.6,5.6,0,0,1-.993.615,2.2,2.2,0,0,1-.9-.026c-.327-.131-.079-.641-.079-.641a4.778,4.778,0,0,1,1.308-1.347l1.608-1.007.118-.1v-.091l-.17.026-.288.209-.261.157-.562.34-.392.248-.366.275-.353.327-.5.392-.379.261-.549.431-.458.209-.405.066h-.288l-.3-.026a.49.49,0,0,1-.209-.654,4.586,4.586,0,0,1,1.294-1.268c1.085-.693,2.3-1.386,2.3-1.386l.275-.2.17-.209.013-.118-.131.1-.17.17-.837.523-.536.3-.68.444-.5.288-.327.222-.379.34-.471.536-.248.065-.353.013-.249-.026-.2-.118-.039-.17c-.052-.549.68-1.15.68-1.15,1.294-1.072,2.667-2.079,2.667-2.079l.288-.261.1-.17-.066-.078-.183.235-.392.274-.471.366-.34.261-.405.3-.576.444-.458.406-.222.235c-.327.17-.628-.17-.628-.17-.235-.405.131-.9.131-.9a17.1,17.1,0,0,1,1.922-1.9,13.285,13.285,0,0,1,1.961-1.49,5.215,5.215,0,0,1,1.425-.444c.745-.066,1.53-.209,1.53-.209a1.727,1.727,0,0,0,.758-.68l.366-.536c.667-.562,1.373-1.111,1.373-1.111.183-.249.052-.824.052-.824a2.728,2.728,0,0,1-.248-.641,4.869,4.869,0,0,1,.614-1.844,17.222,17.222,0,0,1,1.32-2.288,4.121,4.121,0,0,0,.209-1.87,6.362,6.362,0,0,0-1.111-2.2l-1.02-1.268-.471-.523-.1-.078v.353l-.065,1.36-.079.615-.131,1.151-.222,1.36c.052.641-.327,3.517-.327,3.517-.3,1.569-.34,1.648-.34,1.648l-.209,1.268-.1,1.83-.34,7.505-.17,1.752H810.172l.192-.423.314-.732.227-2.092-.139-1.883-.331-1.551-.227-1.342Z" fill="#b81217"/></g></svg>