<svg xmlns="http://www.w3.org/2000/svg" width="172.714" height="61.618" viewBox="0 0 172.714 61.618"><g transform="translate(0 -0.03)"><path d="M132.874,72.713a54.334,54.334,0,0,1-6.037,2.075,20.4,20.4,0,0,1-24.583-15.875,39.937,39.937,0,0,1-.488-4.605,7.587,7.587,0,0,0-7.463-6.9H80.747c-1.722,0-2.277-.56-2.277-2.277V36.424c0-1.452.607-2.074,2.074-2.074h29.785c1.374,0,2,.664,2.007,2.074v1.224h10.31c.041-.57.041-1.12.135-1.654a1.66,1.66,0,0,1,1.971-1.437,20.745,20.745,0,0,1,17.784,16.6A20.05,20.05,0,0,1,140.217,64.9c-.135.239-.27.472-.441.783a6.223,6.223,0,0,1,4.522,3.34,5.648,5.648,0,0,1,.519,3.708,6.073,6.073,0,0,1-5.777,5C136.1,77.878,133.745,75.912,132.874,72.713Zm5.943,1.634a2.7,2.7,0,0,0,2.759-2.593A2.79,2.79,0,0,0,138.921,69a2.718,2.718,0,0,0-2.728,2.65,2.593,2.593,0,0,0,2.624,2.692Z" transform="translate(-78.47 -34.32)" fill="#fff"/><circle cx="14.713" cy="14.713" r="14.713" transform="translate(29.852 7.457)" fill="#454545"/><g transform="translate(75.994 1.424)"><path d="M249.754,68.552v7.157H225V38.69h8.334V68.552Z" transform="translate(-225 -37.834)" fill="#e12429"/><path d="M293.86,37.87q8.329,0,12.768,2.961t4.434,9.216a10.417,10.417,0,0,1-1.794,6.332,11.768,11.768,0,0,1-5.155,3.817q1.13,1.39,2.355,3.179t2.427,3.739q1.2,1.95,2.323,4.061t2.075,4.149h-9.335q-1.037-1.815-2.074-3.687c-.7-1.245-1.411-2.453-2.147-3.63s-1.457-2.287-2.168-3.34a32.536,32.536,0,0,0-2.121-2.873h-4.1V75.309H283V38.829a48.437,48.437,0,0,1,5.637-.747Q291.562,37.875,293.86,37.87Zm.482,7.105a15.921,15.921,0,0,0-1.634.052l-1.359.109V55.176H293.7q4.7,0,6.742-1.177a4.211,4.211,0,0,0,2.028-4,4.071,4.071,0,0,0-2.074-3.874A12.692,12.692,0,0,0,294.342,44.975Z" transform="translate(-252.92 -37.439)" fill="#e12429"/><path d="M366.442,44.305q-5.819,0-8.412,3.231t-2.593,8.817a17.852,17.852,0,0,0,.643,4.942A10.8,10.8,0,0,0,358,65.112a8.662,8.662,0,0,0,3.205,2.5,10.683,10.683,0,0,0,4.486.882c.923,0,1.717,0,2.375-.052a11.78,11.78,0,0,0,1.737-.213V55.362h8.334V73.685a31.116,31.116,0,0,1-4.808,1.255,42.155,42.155,0,0,1-8.173.669,21.17,21.17,0,0,1-7.556-1.281,15.776,15.776,0,0,1-5.8-3.739,16.69,16.69,0,0,1-3.713-6.037,23.73,23.73,0,0,1-1.307-8.174,21.82,21.82,0,0,1,1.442-8.225,17.634,17.634,0,0,1,3.952-6.063,16.6,16.6,0,0,1,5.9-3.765,20.278,20.278,0,0,1,7.261-1.286,29.626,29.626,0,0,1,4.725.347,30.475,30.475,0,0,1,3.63.8,16.471,16.471,0,0,1,2.51.934q.985.482,1.416.747l-2.406,6.68A21.565,21.565,0,0,0,371.291,45,16.653,16.653,0,0,0,366.442,44.305Z" transform="translate(-283.623 -37.039)" fill="#e12429"/></g><g transform="translate(19.9 49.11)"><path d="M116.84,139.119V129.55h1.95v7.95h4.844v1.618Z" transform="translate(-116.84 -129.257)" fill="#fdfeff"/><path d="M131.767,137.781a3.755,3.755,0,0,1,.456-1.784,3.112,3.112,0,0,1,1.286-1.317,3.828,3.828,0,0,1,1.857-.451,3.511,3.511,0,0,1,2.593,1.037A3.568,3.568,0,0,1,139,137.859a3.63,3.63,0,0,1-1.037,2.635,3.464,3.464,0,0,1-2.593,1.037,4.051,4.051,0,0,1-1.836-.436,2.972,2.972,0,0,1-1.323-1.276A4.206,4.206,0,0,1,131.767,137.781Zm1.9.1a2.3,2.3,0,0,0,.493,1.592,1.608,1.608,0,0,0,2.432,0,2.339,2.339,0,0,0,.488-1.6,2.308,2.308,0,0,0-.488-1.582,1.608,1.608,0,0,0-2.432,0A2.308,2.308,0,0,0,133.665,137.88Z" transform="translate(-124.024 -131.509)" fill="#fdfeff"/><path d="M154.848,141.381H153v-3.568a5.307,5.307,0,0,0-.119-1.463,1.037,1.037,0,0,0-.384-.519,1.079,1.079,0,0,0-.622-.156,1.478,1.478,0,0,0-.861.259,1.327,1.327,0,0,0-.519.7,6.1,6.1,0,0,0-.14,1.608v3.138H148.5V134.4h1.717v1.037a2.806,2.806,0,0,1,2.308-1.182,2.836,2.836,0,0,1,1.12.218,1.882,1.882,0,0,1,.762.565,2,2,0,0,1,.363.773,5.809,5.809,0,0,1,.1,1.245Z" transform="translate(-132.08 -131.519)" fill="#fdfeff"/><path d="M170.385,139.046h-1.717v-1.037a2.743,2.743,0,0,1-1.011.892,2.593,2.593,0,0,1-1.177.3,2.676,2.676,0,0,1-2.074-.975,4.751,4.751,0,0,1,0-5.409,2.728,2.728,0,0,1,2.116-.923,2.593,2.593,0,0,1,2.028.975V129.4H170.4Zm-4.937-3.63a3.174,3.174,0,0,0,.311,1.618,1.4,1.4,0,0,0,1.25.726,1.369,1.369,0,0,0,1.089-.545,2.526,2.526,0,0,0,.446-1.623,2.728,2.728,0,0,0-.436-1.732,1.374,1.374,0,0,0-1.11-.519,1.39,1.39,0,0,0-1.1.519A2.381,2.381,0,0,0,165.448,135.416Z" transform="translate(-139.33 -129.185)" fill="#fdfeff"/><path d="M179.408,137.781a3.817,3.817,0,0,1,.456-1.784,3.112,3.112,0,0,1,1.286-1.317,3.848,3.848,0,0,1,1.862-.451,3.49,3.49,0,0,1,2.593,1.037,3.553,3.553,0,0,1,1.037,2.593,3.63,3.63,0,0,1-1.037,2.635,3.454,3.454,0,0,1-2.593,1.037,4.045,4.045,0,0,1-1.831-.436,2.982,2.982,0,0,1-1.328-1.276A4.263,4.263,0,0,1,179.408,137.781Zm1.9.1a2.323,2.323,0,0,0,.519,1.592,1.61,1.61,0,0,0,2.432,0,2.344,2.344,0,0,0,.493-1.6,2.313,2.313,0,0,0-.493-1.582,1.65,1.65,0,0,0-2.469,0A2.334,2.334,0,0,0,181.306,137.88Z" transform="translate(-146.958 -131.508)" fill="#fdfeff"/><path d="M202.474,141.381h-1.851v-3.568a5.528,5.528,0,0,0-.119-1.462,1.037,1.037,0,0,0-.384-.519,1.1,1.1,0,0,0-.643-.182,1.468,1.468,0,0,0-.861.259,1.328,1.328,0,0,0-.519.7,5.819,5.819,0,0,0-.145,1.608v3.164H196.1V134.4h1.717v1.037a2.878,2.878,0,0,1,3.423-.965,1.9,1.9,0,0,1,.768.565,2.075,2.075,0,0,1,.363.773,5.81,5.81,0,0,1,.1,1.245Z" transform="translate(-154.994 -131.52)" fill="#fdfeff"/><path d="M219.27,139.04v-9.646h4.1a7.1,7.1,0,0,1,2.251.259,2.22,2.22,0,0,1,1.12.928,2.738,2.738,0,0,1,.425,1.52,2.593,2.593,0,0,1-.638,1.794,3.112,3.112,0,0,1-1.914.892,4.407,4.407,0,0,1,1.037.809,11.856,11.856,0,0,1,1.11,1.556l1.188,1.888h-2.334l-1.405-2.074a14.4,14.4,0,0,0-1.037-1.416,1.555,1.555,0,0,0-.586-.4,3.225,3.225,0,0,0-.985-.109H221.2v4Zm1.934-5.565h1.442a7.205,7.205,0,0,0,1.753-.119,1.037,1.037,0,0,0,.519-.4,1.235,1.235,0,0,0,.2-.726,1.146,1.146,0,0,0-.259-.788,1.214,1.214,0,0,0-.731-.379c-.161,0-.633-.031-1.421-.031h-1.5Z" transform="translate(-166.147 -129.178)" fill="#fdfeff"/><path d="M241.544,139.149l1.846.311a3.055,3.055,0,0,1-1.125,1.556,3.3,3.3,0,0,1-1.919.519,3.112,3.112,0,0,1-2.7-1.193,4.009,4.009,0,0,1-.695-2.412,3.89,3.89,0,0,1,.908-2.723,3.008,3.008,0,0,1,2.3-.98,3.112,3.112,0,0,1,2.458,1.037,4.586,4.586,0,0,1,.866,3.158h-4.637a1.857,1.857,0,0,0,.446,1.281,1.4,1.4,0,0,0,1.068.456,1.115,1.115,0,0,0,.731-.239A1.431,1.431,0,0,0,241.544,139.149Zm.1-1.867a1.764,1.764,0,0,0-.415-1.224,1.255,1.255,0,0,0-.959-.415,1.281,1.281,0,0,0-1,.441,1.685,1.685,0,0,0-.389,1.2Z" transform="translate(-174.657 -131.507)" fill="#fdfeff"/><path d="M250.9,131.91h1.037v-.519a3.489,3.489,0,0,1,.187-1.317,1.5,1.5,0,0,1,.695-.711,2.635,2.635,0,0,1,1.271-.275,5.261,5.261,0,0,1,1.556.239l-.249,1.291a3.556,3.556,0,0,0-.851-.1.752.752,0,0,0-.576.187,1.063,1.063,0,0,0-.176.721v.493h1.385v1.457h-1.385V138.9h-1.852v-5.529h-1.037Z" transform="translate(-181.373 -129.034)" fill="#fdfeff"/><path d="M264.664,139.149l1.841.311a3.019,3.019,0,0,1-1.12,1.556,3.309,3.309,0,0,1-1.919.519,3.112,3.112,0,0,1-2.7-1.193,4.045,4.045,0,0,1-.69-2.412,3.889,3.889,0,0,1,.908-2.723,3,3,0,0,1,2.3-.98,3.112,3.112,0,0,1,2.464,1.037,4.545,4.545,0,0,1,.861,3.158h-4.631a1.857,1.857,0,0,0,.446,1.281,1.4,1.4,0,0,0,1.068.456,1.115,1.115,0,0,0,.731-.239A1.462,1.462,0,0,0,264.664,139.149Zm.1-1.867a1.763,1.763,0,0,0-.415-1.224,1.255,1.255,0,0,0-.959-.415,1.281,1.281,0,0,0-1,.441,1.685,1.685,0,0,0-.389,1.2Z" transform="translate(-185.787 -131.507)" fill="#fdfeff"/><path d="M277.281,141.371H275.43v-6.986h1.717v1a3.014,3.014,0,0,1,.793-.928,1.468,1.468,0,0,1,.8-.223,2.323,2.323,0,0,1,1.214.348l-.57,1.613a1.619,1.619,0,0,0-.871-.3,1.037,1.037,0,0,0-.659.213,1.478,1.478,0,0,0-.425.773,11.447,11.447,0,0,0-.15,2.344Z" transform="translate(-193.182 -131.51)" fill="#fdfeff"/><path d="M289.248,139.139l1.841.311a3.05,3.05,0,0,1-1.12,1.556,3.309,3.309,0,0,1-1.919.519,3.112,3.112,0,0,1-2.7-1.2,4.009,4.009,0,0,1-.69-2.412,3.863,3.863,0,0,1,.908-2.723,3,3,0,0,1,2.3-.98,3.112,3.112,0,0,1,2.463,1.037,4.569,4.569,0,0,1,.861,3.158h-4.631a1.857,1.857,0,0,0,.446,1.281,1.4,1.4,0,0,0,1.068.456,1.115,1.115,0,0,0,.726-.239,1.432,1.432,0,0,0,.446-.762Zm.1-1.867a1.763,1.763,0,0,0-.415-1.224,1.26,1.26,0,0,0-.959-.415,1.281,1.281,0,0,0-1,.441,1.686,1.686,0,0,0-.389,1.2Z" transform="translate(-197.623 -131.497)" fill="#fdfeff"/><path d="M303.734,139.149l1.841.311a3.049,3.049,0,0,1-1.12,1.556,3.309,3.309,0,0,1-1.919.519,3.112,3.112,0,0,1-2.7-1.193,4.008,4.008,0,0,1-.69-2.412,3.863,3.863,0,0,1,.908-2.723,3,3,0,0,1,2.3-.98,3.112,3.112,0,0,1,2.463,1.037,4.568,4.568,0,0,1,.861,3.158h-4.631a1.857,1.857,0,0,0,.446,1.281,1.4,1.4,0,0,0,1.068.456,1.116,1.116,0,0,0,.726-.239A1.432,1.432,0,0,0,303.734,139.149Zm.1-1.867a1.763,1.763,0,0,0-.415-1.224,1.26,1.26,0,0,0-.959-.415,1.281,1.281,0,0,0-1,.441,1.685,1.685,0,0,0-.389,1.2Z" transform="translate(-204.594 -131.507)" fill="#fdfeff"/><path d="M313.36,139.394l1.857-.285a1.374,1.374,0,0,0,.482.819,1.624,1.624,0,0,0,1.037.28,1.831,1.831,0,0,0,1.079-.265.586.586,0,0,0,.244-.493.488.488,0,0,0-.135-.347,1.4,1.4,0,0,0-.617-.244,10.129,10.129,0,0,1-2.837-.9,1.8,1.8,0,0,1-.83-1.556,1.944,1.944,0,0,1,.716-1.525,3.335,3.335,0,0,1,2.225-.617,3.9,3.9,0,0,1,2.137.467,2.407,2.407,0,0,1,.96,1.38l-1.743.327a1.094,1.094,0,0,0-.425-.628,1.556,1.556,0,0,0-.892-.218,2.018,2.018,0,0,0-1.037.2.446.446,0,0,0-.213.379.415.415,0,0,0,.187.337,7.067,7.067,0,0,0,1.727.519,5.094,5.094,0,0,1,2.074.825,1.706,1.706,0,0,1,.56,1.354,2.106,2.106,0,0,1-.8,1.649,3.547,3.547,0,0,1-2.375.695,3.9,3.9,0,0,1-2.266-.581A2.671,2.671,0,0,1,313.36,139.394Z" transform="translate(-211.44 -131.519)" fill="#fdfeff"/><path d="M340.518,135.3V133.66h4.2v3.848a5.336,5.336,0,0,1-1.774,1.037,6.478,6.478,0,0,1-2.355.451,5.3,5.3,0,0,1-2.64-.633,4.061,4.061,0,0,1-1.7-1.82,5.853,5.853,0,0,1-.565-2.593,5.559,5.559,0,0,1,.633-2.676,4.226,4.226,0,0,1,1.851-1.8,4.969,4.969,0,0,1,2.308-.482,4.616,4.616,0,0,1,2.811.757,3.423,3.423,0,0,1,1.3,2.075l-1.94.358a2.027,2.027,0,0,0-.768-1.12,2.3,2.3,0,0,0-1.405-.41,2.635,2.635,0,0,0-2.028.809,3.4,3.4,0,0,0-.757,2.4,3.755,3.755,0,0,0,.768,2.593,2.536,2.536,0,0,0,2,.861,3.444,3.444,0,0,0,1.224-.239,4.287,4.287,0,0,0,1.037-.586v-1.224Z" transform="translate(-222.189 -128.985)" fill="#fdfeff"/><path d="M358.226,141.371H356.38v-6.986H358.1v1a2.946,2.946,0,0,1,.793-.928,1.437,1.437,0,0,1,.8-.223,2.339,2.339,0,0,1,1.219.347l-.576,1.608a1.612,1.612,0,0,0-.866-.3,1.037,1.037,0,0,0-.659.213,1.442,1.442,0,0,0-.425.773,10.95,10.95,0,0,0-.156,2.344Z" transform="translate(-232.149 -131.51)" fill="#fdfeff"/><path d="M365.818,137.781a3.756,3.756,0,0,1,.456-1.784,3.112,3.112,0,0,1,1.286-1.317,3.827,3.827,0,0,1,1.857-.451,3.5,3.5,0,0,1,2.593,1.037,3.568,3.568,0,0,1,1.037,2.593,3.631,3.631,0,0,1-1.037,2.635,3.465,3.465,0,0,1-2.593,1.037,4.067,4.067,0,0,1-1.836-.436,2.972,2.972,0,0,1-1.307-1.281A4.207,4.207,0,0,1,365.818,137.781Zm1.9.1a2.3,2.3,0,0,0,.493,1.592,1.608,1.608,0,0,0,2.432,0,2.344,2.344,0,0,0,.493-1.6,2.313,2.313,0,0,0-.493-1.582,1.608,1.608,0,0,0-2.432,0A2.308,2.308,0,0,0,367.716,137.88Z" transform="translate(-236.692 -131.508)" fill="#fdfeff"/><path d="M387.088,141.506v-1.037a2.728,2.728,0,0,1-1.006.887,2.822,2.822,0,0,1-1.312.322,2.536,2.536,0,0,1-1.26-.311,1.825,1.825,0,0,1-.814-.866,3.916,3.916,0,0,1-.249-1.556V134.52h1.841v3.215a9.085,9.085,0,0,0,.1,1.8,1.006,1.006,0,0,0,.373.519,1.146,1.146,0,0,0,.685.192,1.473,1.473,0,0,0,.851-.259,1.333,1.333,0,0,0,.519-.643,7.431,7.431,0,0,0,.14-1.888V134.51H388.8v7Z" transform="translate(-244.695 -131.645)" fill="#fdfeff"/><path d="M398.31,134.4h1.722v1.037a2.593,2.593,0,0,1,.913-.856,2.506,2.506,0,0,1,1.271-.327,2.656,2.656,0,0,1,2.075.954,3.859,3.859,0,0,1,.851,2.661,3.962,3.962,0,0,1-.856,2.718,2.666,2.666,0,0,1-2.075.975,2.318,2.318,0,0,1-1.037-.233,3.374,3.374,0,0,1-.991-.788v3.521h-1.852Zm1.831,3.376a2.692,2.692,0,0,0,.467,1.743,1.432,1.432,0,0,0,1.136.565,1.344,1.344,0,0,0,1.074-.519,2.657,2.657,0,0,0,.43-1.7,2.563,2.563,0,0,0-.441-1.634,1.38,1.38,0,0,0-1.094-.519,1.426,1.426,0,0,0-1.125.519,2.323,2.323,0,0,0-.446,1.52Z" transform="translate(-252.333 -131.519)" fill="#fdfeff"/></g></g></svg>