<svg id="logo" xmlns="http://www.w3.org/2000/svg" viewBox="0 0 380.87 141.87">
  <g id="whistle">
    <g id="full_name" data-name="full name">
      <g id="logo_name" data-name="logo name">
        <path id="Path_834" data-name="Path 834" d="M112.83,165.06V142.53h4.61v18.73h11.4v3.81Z" transform="translate(-91.94 -29.5)" style="fill: #fff"/>
        <path id="Path_835" data-name="Path 835" d="M131.07,156.62a8.8,8.8,0,0,1,1.07-4.2,7.31,7.31,0,0,1,3-3.11,9.14,9.14,0,0,1,4.38-1.06,8.29,8.29,0,0,1,6.11,2.44,8.41,8.41,0,0,1,2.44,6.11,8.54,8.54,0,0,1-2.44,6.2,8.14,8.14,0,0,1-6.11,2.45,9.54,9.54,0,0,1-4.32-1,7,7,0,0,1-3.12-3A10,10,0,0,1,131.07,156.62Zm4.47.23a5.45,5.45,0,0,0,1.16,3.75,3.79,3.79,0,0,0,5.35.39,3.59,3.59,0,0,0,.39-.39,5.49,5.49,0,0,0,1.14-3.77,5.4,5.4,0,0,0-1.14-3.73,3.8,3.8,0,0,0-5.35-.39,3.59,3.59,0,0,0-.39.39,5.45,5.45,0,0,0-1.16,3.75Z" transform="translate(-91.94 -29.5)" style="fill: #fff"/>
        <path id="Path_836" data-name="Path 836" d="M166.47,165.06h-4.36v-8.4a12.78,12.78,0,0,0-.28-3.44,2.47,2.47,0,0,0-.91-1.22,2.5,2.5,0,0,0-1.46-.36,3.47,3.47,0,0,0-2,.61,3.15,3.15,0,0,0-1.22,1.65,14.2,14.2,0,0,0-.33,3.79v7.39h-4.37V148.62h4.05v2.45a6.76,6.76,0,0,1,8.07-2.27,4.4,4.4,0,0,1,1.8,1.33,4.62,4.62,0,0,1,.85,1.82,13.65,13.65,0,0,1,.25,2.93Z" transform="translate(-91.94 -29.5)" style="fill: #fff"/>
        <path id="Path_837" data-name="Path 837" d="M186,165.06h-4v-2.44a6.45,6.45,0,0,1-2.39,2.1,6.06,6.06,0,0,1-2.77.71,6.3,6.3,0,0,1-4.89-2.3,11.2,11.2,0,0,1,0-12.74,6.44,6.44,0,0,1,5-2.18,6.13,6.13,0,0,1,4.78,2.3v-8.15H186Zm-11.63-8.55a7.52,7.52,0,0,0,.73,3.82A3.3,3.3,0,0,0,178,162a3.22,3.22,0,0,0,2.56-1.29,6,6,0,0,0,1.07-3.82,6.45,6.45,0,0,0-1-4.08,3.2,3.2,0,0,0-2.61-1.22,3.27,3.27,0,0,0-2.61,1.22,5.63,5.63,0,0,0-1.06,3.66Z" transform="translate(-91.94 -29.5)" style="fill: #fff"/>
        <path id="Path_838" data-name="Path 838" d="M189.27,156.62a9,9,0,0,1,1.07-4.2,7.33,7.33,0,0,1,3-3.11,9.06,9.06,0,0,1,4.38-1.06,8.22,8.22,0,0,1,6.11,2.44,8.38,8.38,0,0,1,2.45,6.11,8.61,8.61,0,0,1-2.45,6.21,8.13,8.13,0,0,1-6.11,2.44,9.65,9.65,0,0,1-4.31-1,7.06,7.06,0,0,1-3.13-3A10.1,10.1,0,0,1,189.27,156.62Zm4.48.23A5.42,5.42,0,0,0,195,160.6a3.78,3.78,0,0,0,5.34.39,3.59,3.59,0,0,0,.39-.39,6.64,6.64,0,0,0,0-7.5,3.91,3.91,0,0,0-5.51-.31l-.31.31a5.54,5.54,0,0,0-1.13,3.74Z" transform="translate(-91.94 -29.5)" style="fill: #fff"/>
        <path id="Path_839" data-name="Path 839" d="M224.68,165.06h-4.36v-8.4a12.81,12.81,0,0,0-.28-3.44,2.4,2.4,0,0,0-.9-1.22,2.56,2.56,0,0,0-1.52-.43,3.44,3.44,0,0,0-2,.61,3.08,3.08,0,0,0-1.22,1.65,13.74,13.74,0,0,0-.35,3.78v7.45h-4.35V148.6h4v2.45a6.78,6.78,0,0,1,8.06-2.28,4.62,4.62,0,0,1,1.81,1.33,5.08,5.08,0,0,1,.86,1.82,13.79,13.79,0,0,1,.24,2.94Z" transform="translate(-91.94 -29.5)" style="fill: #fff"/>
        <path id="Path_840" data-name="Path 840" d="M238,165.06V142.34h9.66a17,17,0,0,1,5.3.61,5.21,5.21,0,0,1,2.64,2.19,6.55,6.55,0,0,1,1,3.58,6.13,6.13,0,0,1-1.51,4.23,7.37,7.37,0,0,1-4.51,2.1A10.26,10.26,0,0,1,253,157a27.64,27.64,0,0,1,2.61,3.66l2.8,4.45h-5.5l-3.3-4.89a33.28,33.28,0,0,0-2.45-3.34,3.67,3.67,0,0,0-1.38-1,7.52,7.52,0,0,0-2.32-.26h-.92v9.43Zm4.56-13.12h3.4a16.83,16.83,0,0,0,4.13-.28,2.45,2.45,0,0,0,1.22-.95,2.89,2.89,0,0,0,.46-1.71,2.67,2.67,0,0,0-.61-1.86,2.85,2.85,0,0,0-1.72-.89c-.38,0-1.49-.08-3.35-.08h-3.55Z" transform="translate(-91.94 -29.5)" style="fill: #fff"/>
        <path id="Path_841" data-name="Path 841" d="M270.4,159.84l4.35.73a7.13,7.13,0,0,1-2.65,3.66,7.76,7.76,0,0,1-4.52,1.23,7.35,7.35,0,0,1-6.35-2.81,9.42,9.42,0,0,1-1.64-5.68,9.18,9.18,0,0,1,2.13-6.41,7.08,7.08,0,0,1,5.42-2.31,7.31,7.31,0,0,1,5.79,2.44,10.79,10.79,0,0,1,2,7.45H264.05a4.38,4.38,0,0,0,1.06,3,3.3,3.3,0,0,0,2.52,1.06,2.56,2.56,0,0,0,1.72-.56A3.31,3.31,0,0,0,270.4,159.84Zm.25-4.4a4.14,4.14,0,0,0-1-2.88,3.15,3.15,0,0,0-4.62.06,3.93,3.93,0,0,0-.91,2.83Z" transform="translate(-91.94 -29.5)" style="fill: #fff"/>
        <path id="Path_842" data-name="Path 842" d="M276.62,148.61h2.44V147.4a8.36,8.36,0,0,1,.44-3.1,3.56,3.56,0,0,1,1.64-1.68,6.23,6.23,0,0,1,3-.65,12.31,12.31,0,0,1,3.66.56l-.59,3.05a7.89,7.89,0,0,0-2-.25,1.76,1.76,0,0,0-1.35.44,2.5,2.5,0,0,0-.42,1.7v1.16h3.26v3.43h-3.26v13h-4.36V152h-2.45Z" transform="translate(-91.94 -29.5)" style="fill: #fff"/>
        <path id="Path_843" data-name="Path 843" d="M298.65,159.84l4.34.73a7.11,7.11,0,0,1-2.64,3.66,7.8,7.8,0,0,1-4.52,1.23,7.37,7.37,0,0,1-6.37-2.81,9.57,9.57,0,0,1-1.63-5.68,9.18,9.18,0,0,1,2.13-6.41,7.1,7.1,0,0,1,5.42-2.31,7.35,7.35,0,0,1,5.8,2.44,10.73,10.73,0,0,1,2,7.45h-10.9a4.38,4.38,0,0,0,1.06,3,3.3,3.3,0,0,0,2.52,1.06,2.56,2.56,0,0,0,1.72-.56,3.43,3.43,0,0,0,1.07-1.82Zm.24-4.4a4.14,4.14,0,0,0-1-2.88,3.14,3.14,0,0,0-4.61.06,3.94,3.94,0,0,0-.92,2.83Z" transform="translate(-91.94 -29.5)" style="fill: #fff"/>
        <path id="Path_844" data-name="Path 844" d="M311,165.06h-4.36V148.61h4V151a7,7,0,0,1,1.87-2.19,3.42,3.42,0,0,1,1.89-.53,5.55,5.55,0,0,1,2.86.82l-1.36,3.81a3.78,3.78,0,0,0-2.05-.71,2.46,2.46,0,0,0-1.55.5,3.5,3.5,0,0,0-1,1.82,26.83,26.83,0,0,0-.36,5.52Z" transform="translate(-91.94 -29.5)" style="fill: #fff"/>
        <path id="Path_845" data-name="Path 845" d="M328.66,159.84l4.34.73a7.15,7.15,0,0,1-2.64,3.66,7.8,7.8,0,0,1-4.52,1.23,7.34,7.34,0,0,1-6.35-2.84,9.41,9.41,0,0,1-1.63-5.68,9.09,9.09,0,0,1,2.13-6.41,7.08,7.08,0,0,1,5.41-2.31,7.3,7.3,0,0,1,5.8,2.45,10.7,10.7,0,0,1,2,7.44H322.35a4.37,4.37,0,0,0,1.06,3,3.35,3.35,0,0,0,2.52,1.07,2.64,2.64,0,0,0,1.71-.56,3.33,3.33,0,0,0,1.06-1.8Zm.25-4.4a4.14,4.14,0,0,0-1-2.88,3.15,3.15,0,0,0-4.62.06,4,4,0,0,0-.92,2.83Z" transform="translate(-91.94 -29.5)" style="fill: #fff"/>
        <path id="Path_846" data-name="Path 846" d="M346.4,159.84l4.33.73a7.15,7.15,0,0,1-2.64,3.66,7.76,7.76,0,0,1-4.52,1.23,7.35,7.35,0,0,1-6.36-2.81,9.41,9.41,0,0,1-1.63-5.68,9.07,9.07,0,0,1,2.13-6.41,7.08,7.08,0,0,1,5.41-2.31,7.33,7.33,0,0,1,5.8,2.44,10.73,10.73,0,0,1,2,7.45H340a4.35,4.35,0,0,0,1.07,3,3.28,3.28,0,0,0,2.52,1.06,2.56,2.56,0,0,0,1.7-.56A3.4,3.4,0,0,0,346.4,159.84Zm.24-4.4a4.14,4.14,0,0,0-1-2.88,2.94,2.94,0,0,0-2.26-1,3,3,0,0,0-2.36,1,3.93,3.93,0,0,0-.91,2.83Z" transform="translate(-91.94 -29.5)" style="fill: #fff"/>
        <path id="Path_847" data-name="Path 847" d="M352.93,160.39l4.37-.67a3.27,3.27,0,0,0,1.14,1.93,3.83,3.83,0,0,0,2.44.66,4.29,4.29,0,0,0,2.54-.63,1.36,1.36,0,0,0,.57-1.16,1.14,1.14,0,0,0-.31-.82,3.41,3.41,0,0,0-1.46-.57,24.12,24.12,0,0,1-6.68-2.13,4.29,4.29,0,0,1-2-3.66,4.59,4.59,0,0,1,1.69-3.6,7.85,7.85,0,0,1,5.24-1.45,9.16,9.16,0,0,1,5,1.1,5.68,5.68,0,0,1,2.26,3.25l-4.1.77a2.59,2.59,0,0,0-1-1.48,3.68,3.68,0,0,0-2.1-.52,4.77,4.77,0,0,0-2.44.48,1,1,0,0,0-.5.89.94.94,0,0,0,.44.79,16.4,16.4,0,0,0,4.06,1.22,12,12,0,0,1,4.89,2,4,4,0,0,1,1.32,3.19,5,5,0,0,1-1.89,3.9,8.39,8.39,0,0,1-5.6,1.64,9.21,9.21,0,0,1-5.34-1.37A6.3,6.3,0,0,1,352.93,160.39Z" transform="translate(-91.94 -29.5)" style="fill: #fff"/>
        <path id="Path_848" data-name="Path 848" d="M391.58,156.72v-3.87h9.9v9.07a12.73,12.73,0,0,1-4.18,2.44,15,15,0,0,1-5.55,1.06,12.47,12.47,0,0,1-6.21-1.49,9.52,9.52,0,0,1-4-4.28,13.88,13.88,0,0,1-1.33-6.11,13.15,13.15,0,0,1,1.49-6.3,10,10,0,0,1,4.37-4.26,11.72,11.72,0,0,1,5.43-1.14,10.91,10.91,0,0,1,6.62,1.78,8,8,0,0,1,3.07,4.89l-4.57.84a4.82,4.82,0,0,0-1.8-2.64,5.45,5.45,0,0,0-3.32-1,6.16,6.16,0,0,0-4.77,1.9,8,8,0,0,0-1.78,5.66,8.86,8.86,0,0,0,1.81,6.1,6,6,0,0,0,4.72,2,8.11,8.11,0,0,0,2.88-.56,9.71,9.71,0,0,0,2.45-1.38v-2.88Z" transform="translate(-91.94 -29.5)" style="fill: #fff"/>
        <path id="Path_849" data-name="Path 849" d="M409.84,165.06h-4.35V148.61h4V151a6.93,6.93,0,0,1,1.87-2.19,3.41,3.41,0,0,1,1.88-.53,5.62,5.62,0,0,1,2.88.82l-1.36,3.79a3.75,3.75,0,0,0-2-.71,2.42,2.42,0,0,0-1.55.5,3.46,3.46,0,0,0-1,1.82,26.15,26.15,0,0,0-.35,5.52Z" transform="translate(-91.94 -29.5)" style="fill: #fff"/>
        <path id="Path_850" data-name="Path 850" d="M417,156.62a8.8,8.8,0,0,1,1.07-4.2,7.37,7.37,0,0,1,3-3.11,9.14,9.14,0,0,1,4.38-1.06,8.28,8.28,0,0,1,6.11,2.44A8.41,8.41,0,0,1,434,156.8,8.56,8.56,0,0,1,431.6,163a8.19,8.19,0,0,1-6.11,2.44,9.74,9.74,0,0,1-4.33-1,7.05,7.05,0,0,1-3.07-3A10,10,0,0,1,417,156.62Zm4.47.23a5.45,5.45,0,0,0,1.16,3.75A3.79,3.79,0,0,0,428,161a3.59,3.59,0,0,0,.39-.39,6.64,6.64,0,0,0,0-7.5,3.8,3.8,0,0,0-5.35-.39,3.59,3.59,0,0,0-.39.39,5.5,5.5,0,0,0-1.16,3.74Z" transform="translate(-91.94 -29.5)" style="fill: #fff"/>
        <path id="Path_851" data-name="Path 851" d="M448.28,165.06v-2.44a6.53,6.53,0,0,1-2.37,2.09,6.7,6.7,0,0,1-3.1.76,6,6,0,0,1-3-.73,4.32,4.32,0,0,1-1.92-2,9.37,9.37,0,0,1-.59-3.67V148.61h4.34v7.57a20.93,20.93,0,0,0,.23,4.26,2.35,2.35,0,0,0,.88,1.22,2.65,2.65,0,0,0,1.61.45,3.43,3.43,0,0,0,2-.61,3.18,3.18,0,0,0,1.22-1.51,17.52,17.52,0,0,0,.33-4.45v-6.95h4.35v16.48Z" transform="translate(-91.94 -29.5)" style="fill: #fff"/>
        <path id="Path_852" data-name="Path 852" d="M456.7,148.61h4.06v2.44a6,6,0,0,1,2.15-2,5.8,5.8,0,0,1,3-.77,6.25,6.25,0,0,1,4.89,2.25,9.09,9.09,0,0,1,2,6.26,9.35,9.35,0,0,1-2,6.41,6.29,6.29,0,0,1-4.89,2.29,5.41,5.41,0,0,1-2.44-.55,7.92,7.92,0,0,1-2.34-1.85v8.29h-4.36Zm4.31,7.95a6.36,6.36,0,0,0,1.1,4.1,3.37,3.37,0,0,0,2.68,1.33,3.14,3.14,0,0,0,2.52-1.22,6.26,6.26,0,0,0,1-4,6.06,6.06,0,0,0-1-3.85,3.28,3.28,0,0,0-2.58-1.22,3.35,3.35,0,0,0-2.65,1.22,5.47,5.47,0,0,0-1.06,3.58Z" transform="translate(-91.94 -29.5)" style="fill: #fff"/>
      </g>
    </g>
    <g id="main_whistle">
      <path id="top_main" d="M167.52,32a37.57,37.57,0,0,0-15.05,6.4h0l-.66.51c-.51.38-1,.77-1.53,1.19l-.44.34L92.18,85l3.43,19.39,25.32,18.81L155.8,94.91l15.72,11.7.32.25.33.26h0c11.12,7.77,27.93,6.41,40.54-4.18,14.63-12.27,18-32.33,7.62-44.76a25.15,25.15,0,0,0-4.94-4.44h0l-26.47-17.9A29.45,29.45,0,0,0,167.52,32Z" transform="translate(-91.94 -29.5)" style="fill: #fff"/>
      <path id="side_round" d="M179.06,55.51c15.6-10.06,33.54-8.74,42.75,4.66s4.17,33.34-11.28,44.58-35.41,9.51-44.62-3.88a26.06,26.06,0,0,1-4.24-10.68" transform="translate(-91.94 -29.5)" style="fill: #d8d9d8"/>
      <path id="side" d="M179.06,55.48l-61.5,49L121,123.84l41.93-34.57" transform="translate(-91.94 -29.5)" style="fill: #d8d9d8"/>
      <path id="blow_inner_lines" d="M95.66,104.31l10.69-8.47" transform="translate(-91.94 -29.5)" style="fill: #020202"/>
      <path id="blow_shadow" d="M91.94,85.1l25.79,19.17L121,123.84,94.23,104.26,92,85.1Z" transform="translate(-91.94 -29.5)" style="fill: #333"/>
      <path id="bottom_shadow" d="M161.69,90.26l-5.87,4.83,15.67,11.57a24.63,24.63,0,0,1-4.16-3.94A25.48,25.48,0,0,1,161.69,90.26Z" transform="translate(-91.94 -29.5)" style="fill: #010101"/>
      <path id="air_part" d="M173.74,53.51,166.59,60,149.8,45.85,157,39.38l16.78,14.14Z" transform="translate(-91.94 -29.5)" style="fill: #333"/>
    </g>
    <g id="handle">
      <ellipse id="Ellipse_33" data-name="Ellipse 33" cx="104" cy="52.37" rx="17.19" ry="15.28" style="fill: #333"/>
    </g>
  </g>
  <g id="LRG">
    <g id="lrg-2">
      <path id="Path_831" data-name="Path 831" d="M303.29,101.87v16.86H245V31.52h19.63v70.35Z" transform="translate(-91.94 -29.5)" style="fill: #e1282a"/>
      <path id="Path_832" data-name="Path 832" d="M341.43,30.52q19.62,0,30.08,7A24.24,24.24,0,0,1,382,59.2a24.59,24.59,0,0,1-4.23,14.92,27.7,27.7,0,0,1-12.15,9q2.67,3.27,5.55,7.49t5.72,8.81q2.83,4.61,5.47,9.58t4.89,9.77h-22q-2.45-4.28-4.89-8.68c-1.65-2.94-3.32-5.78-5.06-8.56s-3.43-5.38-5.1-7.86a77.23,77.23,0,0,0-5-6.77h-9.66v31.84H315.84v-86A113.84,113.84,0,0,1,329.12,31Q336,30.52,341.43,30.52Zm1.13,16.73q-1.92,0-3.84.12l-3.2.26V71.29h5.54a33.69,33.69,0,0,0,15.88-2.78,9.94,9.94,0,0,0,4.78-9.43A9.61,9.61,0,0,0,356.83,50a30,30,0,0,0-14.27-2.7Z" transform="translate(-91.94 -29.5)" style="fill: #e1282a"/>
      <path id="Path_833" data-name="Path 833" d="M440.08,46.62q-13.71,0-19.82,7.61A32.29,32.29,0,0,0,414.15,75a42,42,0,0,0,1.52,11.64,25.35,25.35,0,0,0,4.53,9,20.39,20.39,0,0,0,7.55,5.91,25.25,25.25,0,0,0,10.57,2.07c2.17,0,4,0,5.6-.12A26.88,26.88,0,0,0,448,103V72.67h19.63v43.16a72.48,72.48,0,0,1-11.32,3,99.44,99.44,0,0,1-19.26,1.58,50,50,0,0,1-17.8-3,37.32,37.32,0,0,1-13.66-8.81,39.22,39.22,0,0,1-8.74-14.23,55.75,55.75,0,0,1-3.08-19.25,51.31,51.31,0,0,1,3.4-19.38,41.53,41.53,0,0,1,9.31-14.28,39.19,39.19,0,0,1,13.9-8.87,48,48,0,0,1,17.11-3,70.4,70.4,0,0,1,11.13.82,71.72,71.72,0,0,1,8.55,1.9,37.82,37.82,0,0,1,5.91,2.2,35.13,35.13,0,0,1,3.33,1.77l-5.67,15.74a51.2,51.2,0,0,0-9.25-3.67A39.14,39.14,0,0,0,440.08,46.62Z" transform="translate(-91.94 -29.5)" style="fill: #e1282a"/>
    </g>
  </g>
  <g id="EST">
    <path id="E" d="M406.69,140.52V130h7.78v1.77H408.8v2.32h5.27v1.78H408.8v2.85h5.86v1.78Z" transform="translate(-91.94 -29.5)" style="fill: #e1282a"/>
    <path id="S" d="M415.91,137.11l2.07-.21a2.45,2.45,0,0,0,.75,1.53,2.28,2.28,0,0,0,1.54.49,2.41,2.41,0,0,0,1.54-.43,1.3,1.3,0,0,0,.52-1,1,1,0,0,0-.21-.64,1.77,1.77,0,0,0-.77-.45c-.25-.08-.81-.24-1.7-.46a5.59,5.59,0,0,1-2.44-1,2.74,2.74,0,0,1-1-2.13,2.79,2.79,0,0,1,1.77-2.55,5.21,5.21,0,0,1,2.06-.36,4.38,4.38,0,0,1,3,.87A3,3,0,0,1,424.1,133l-2.13.09a1.84,1.84,0,0,0-.59-1.16,2.11,2.11,0,0,0-1.34-.36,2.44,2.44,0,0,0-1.44.38.75.75,0,0,0-.35.66.84.84,0,0,0,.31.64,5.63,5.63,0,0,0,1.95.7,11.08,11.08,0,0,1,2.3.76,3.06,3.06,0,0,1,1.16,1.07,3.26,3.26,0,0,1,.41,1.67,3.21,3.21,0,0,1-1.92,2.91,6.11,6.11,0,0,1-2.28.38,4.55,4.55,0,0,1-3.06-.92A4,4,0,0,1,415.91,137.11Z" transform="translate(-91.94 -29.5)" style="fill: #e1282a"/>
    <path id="T" d="M428.59,140.52v-8.73h-3.1V130h8.34v1.77h-3.14v8.71Z" transform="translate(-91.94 -29.5)" style="fill: #e1282a"/>
    <path id="_2" data-name=" 2" d="M445.61,138.65v1.87h-7.05a4.78,4.78,0,0,1,.69-2,12.9,12.9,0,0,1,2.26-2.52,15.08,15.08,0,0,0,1.67-1.72,2.26,2.26,0,0,0,.41-1.22,1.41,1.41,0,0,0-.35-1,1.36,1.36,0,0,0-1-.36,1.42,1.42,0,0,0-1,.38,2,2,0,0,0-.43,1.22l-2-.19a3.25,3.25,0,0,1,1.12-2.45,3.82,3.82,0,0,1,2.36-.71,3.44,3.44,0,0,1,2.44.83,2.73,2.73,0,0,1,.89,2.09,3.67,3.67,0,0,1-.25,1.35,5.91,5.91,0,0,1-.81,1.34,11.13,11.13,0,0,1-1.32,1.34,15.6,15.6,0,0,0-1.22,1.22,4.36,4.36,0,0,0-.41.55Z" transform="translate(-91.94 -29.5)" style="fill: #e1282a"/>
    <path id="_0" data-name=" 0" d="M450.38,130a2.83,2.83,0,0,1,2.38,1.09,9.47,9.47,0,0,1,0,8.55,2.85,2.85,0,0,1-2.37,1.07,3,3,0,0,1-2.44-1.22A9.67,9.67,0,0,1,448,131,2.81,2.81,0,0,1,450.38,130Zm0,1.66a1,1,0,0,0-.66.23,1.56,1.56,0,0,0-.44.85,11.5,11.5,0,0,0-.21,2.62,11.27,11.27,0,0,0,.18,2.53,1.84,1.84,0,0,0,.47.93,1,1,0,0,0,.66.22,1,1,0,0,0,.64-.23,1.41,1.41,0,0,0,.44-.83,10.42,10.42,0,0,0,.21-2.61,11.36,11.36,0,0,0-.18-2.54,1.84,1.84,0,0,0-.47-.93,1,1,0,0,0-.64-.23Z" transform="translate(-91.94 -29.5)" style="fill: #e1282a"/>
    <path id="_0-2" data-name=" 0-2" d="M458.53,130a2.83,2.83,0,0,1,2.38,1.09,9.35,9.35,0,0,1,0,8.55,2.85,2.85,0,0,1-2.37,1.07,3,3,0,0,1-2.44-1.22,9.59,9.59,0,0,1,.08-8.47A2.86,2.86,0,0,1,458.53,130Zm0,1.66a1,1,0,0,0-.65.23,1.54,1.54,0,0,0-.45.85,11.5,11.5,0,0,0-.21,2.62,10.72,10.72,0,0,0,.19,2.53,1.73,1.73,0,0,0,.47.93,1,1,0,0,0,.65.22.9.9,0,0,0,.64-.23,1.5,1.5,0,0,0,.46-.83,12,12,0,0,0,.2-2.61,11.36,11.36,0,0,0-.19-2.54,1.82,1.82,0,0,0-.46-.93,1.05,1.05,0,0,0-.65-.23Z" transform="translate(-91.94 -29.5)" style="fill: #e1282a"/>
    <path id="_7" data-name=" 7" d="M463.28,132.08v-1.87h6.88v1.47a10.74,10.74,0,0,0-1.74,2.44,14.79,14.79,0,0,0-1.34,3.33,12.06,12.06,0,0,0-.45,3.16h-1.95a13.79,13.79,0,0,1,.91-4.44,14.74,14.74,0,0,1,2.26-4Z" transform="translate(-91.94 -29.5)" style="fill: #e1282a"/>
  </g>
</svg>
