<svg xmlns="http://www.w3.org/2000/svg" width="41.786" height="39.256" viewBox="0 0 41.786 39.256"><g transform="translate(-1.667 -2.368)"><path d="M2.833,37.973A1.687,1.687,0,0,0,2.858,41.1a5.529,5.529,0,0,0,2.6.524,7.636,7.636,0,0,0,2.277-.337l.129-.036.154.088.132-.025.6-.172L7.277,39.555l-.556.233.046.143a3.351,3.351,0,0,1-.559.151,4.829,4.829,0,0,1-.771.052,2.668,2.668,0,0,1-1.182-.212c-.319-.163-.319-.335-.319-.4s0-.24.342-.413a2.75,2.75,0,0,1,1.213-.222A4.22,4.22,0,0,1,6.511,39c.083.021.14.039.188.056l-.09.151.37.116.32.086,1.2-1.619L7.832,37.6,7.7,37.7l-.056.038-.725-.142a8.258,8.258,0,0,0-1.592-.157,5.085,5.085,0,0,0-2.494.539" fill="#fff" fill-rule="evenodd"/><path d="M12.01,39.011c.157.269.225.385.382.652h-.74Zm1.39-1.525H10.5v.655l.045,0L9.218,40.562l-.027.049-.005.011a.532.532,0,0,1-.27.282l-.2.067v.6h2.375v-.616l-.133-.034.054-.093h2.086c.026.046.03.054.054.1l-.076.015-.017.243v.388h2.507v-.623l-.23-.053a.083.083,0,0,1-.064-.041l-.006-.013-1.6-2.7.024,0,.012-.269v-.387h-.3" fill="#fff" fill-rule="evenodd"/><path d="M22.212,37.486H20.117v.627l.261.055v1l-1.588-1.16c.005-.067.012-.139.012-.139v-.387H15.919v.625l.247.054v2.729l-.23.043-.017.248v.388H18.27v-.633l-.248-.046V39.578l2.008,1.467c-.005.067-.011.139-.011.139v.388h2.488v-.626l-.261-.055V38.168l.243-.053.017-.242v-.387h-.3" fill="#fff" fill-rule="evenodd"/><path d="M26.139,39.011l.382.652h-.74C25.926,39.4,25.989,39.283,26.139,39.011Zm1.39-1.525h-2.9v.655l.045,0-1.324,2.417-.027.049-.005.011a.532.532,0,0,1-.27.282l-.2.067v.6h2.375v-.616l-.133-.034.054-.093h2.085c.027.046.03.054.054.1l-.076.015-.018.243v.388h2.507v-.623l-.23-.053a.083.083,0,0,1-.064-.041l-.006-.013-1.6-2.7.024,0,.012-.269v-.387h-.3" fill="#fff" fill-rule="evenodd"/><path d="M33.036,38.873a2.467,2.467,0,0,1,1.152.189.467.467,0,0,1,.253.456.475.475,0,0,1-.256.464,2.425,2.425,0,0,1-1.148.19H32.36v-1.3Zm-2.693-1.386h-.3v.625l.247.054v2.729l-.23.043-.017.248v.388h3a9.128,9.128,0,0,0,1.506-.095,3.231,3.231,0,0,0,.989-.332,1.958,1.958,0,0,0,.739-.682,1.755,1.755,0,0,0,.264-.939,1.719,1.719,0,0,0-.265-.928,1.968,1.968,0,0,0-.737-.678,3.19,3.19,0,0,0-.99-.337,9.143,9.143,0,0,0-1.506-.095h-2.7" fill="#fff" fill-rule="evenodd"/><path d="M39.9,39.011l.382.652h-.74Zm1.39-1.525h-2.9v.655l.045,0c-.1.18-1.324,2.417-1.324,2.417l-.026.049-.007.011a.531.531,0,0,1-.27.282l-.2.067v.6H38.98v-.616l-.133-.034.053-.093h2.086l.055.1-.076.015-.018.243v.388h2.506v-.623l-.229-.053a.081.081,0,0,1-.064-.041l-.006-.013-1.6-2.7.024,0,.012-.269v-.387h-.3" fill="#fff" fill-rule="evenodd"/><path d="M7.055,39.039a.159.159,0,0,0,.017-.028.069.069,0,0,0,.007-.029q0-.14-.5-.265a4.437,4.437,0,0,0-1.093-.126,3.013,3.013,0,0,0-1.346.255.763.763,0,0,0-.505.677.74.74,0,0,0,.481.662,2.935,2.935,0,0,0,1.316.244,5.1,5.1,0,0,0,.819-.056,3.627,3.627,0,0,0,.7-.193.389.389,0,0,0,.127-.061.088.088,0,0,0,.029-.066A.168.168,0,0,0,7.1,40.01c0-.016-.011-.035-.017-.054l.117-.049,1,1.083-.136.039a.745.745,0,0,0-.114-.063.211.211,0,0,0-.076-.02A1.24,1.24,0,0,0,7.644,41a7.3,7.3,0,0,1-2.189.324A5.22,5.22,0,0,1,3,40.84a1.4,1.4,0,0,1-.02-2.609,4.777,4.777,0,0,1,2.349-.5,7.868,7.868,0,0,1,1.535.152q.766.152.775.151a.306.306,0,0,0,.122-.024.678.678,0,0,0,.126-.083l.121.034-.825,1.112-.127-.034" fill="#e52229" fill-rule="evenodd"/><path d="M12,38.412l.906,1.547H11.153Zm3.266,2.864v-.091a.372.372,0,0,1-.254-.18.016.016,0,0,1-.005-.01l-1.666-2.807a1.315,1.315,0,0,1-.066-.128.243.243,0,0,1-.027-.078.091.091,0,0,1,.035-.078.246.246,0,0,1,.117-.029v-.091H10.793v.091a.249.249,0,0,1,.117.029.09.09,0,0,1,.034.078.234.234,0,0,1-.024.077c-.016.037-.037.08-.064.129L9.477,40.7c-.006.013-.016.031-.029.054a.8.8,0,0,1-.439.426v.091h1.784v-.091a.37.37,0,0,1-.159-.058.121.121,0,0,1-.051-.1.162.162,0,0,1,.01-.056.458.458,0,0,1,.029-.062l.214-.377h2.432l.209.377q.034.064.049.1a.17.17,0,0,1,.015.058.085.085,0,0,1-.047.077.419.419,0,0,1-.144.041v.091h1.916" fill="#e52229" fill-rule="evenodd"/><path d="M17.727,40.994a.164.164,0,0,0,.047.135.454.454,0,0,0,.2.056v.091h-1.76v-.091a.454.454,0,0,0,.2-.056.164.164,0,0,0,.047-.135V38.068a.163.163,0,0,0-.047-.134.49.49,0,0,0-.2-.061v-.091h2.292v.091a.5.5,0,0,0-.149.049c-.035.019-.052.04-.052.064s.038.066.113.121l.048.035,2.206,1.611V38.068a.158.158,0,0,0-.049-.134.538.538,0,0,0-.212-.061v-.091h1.8v.091a.542.542,0,0,0-.21.061.156.156,0,0,0-.051.134v2.926a.151.151,0,0,0,.051.13.555.555,0,0,0,.21.06v.091h-1.9v-.091a.4.4,0,0,0,.147-.044c.033-.019.049-.041.049-.064s-.046-.078-.137-.146a.081.081,0,0,0-.02-.014L17.727,39v2" fill="#e52229" fill-rule="evenodd"/><path d="M26.129,38.412l.906,1.547H25.282ZM29.4,41.276v-.091a.373.373,0,0,1-.254-.18.015.015,0,0,1,0-.01L27.47,38.187a1.314,1.314,0,0,1-.066-.128.243.243,0,0,1-.027-.078.091.091,0,0,1,.035-.078.246.246,0,0,1,.117-.029v-.091H24.921v.091a.25.25,0,0,1,.117.029.091.091,0,0,1,.035.078.274.274,0,0,1-.025.077c-.016.037-.037.08-.064.129L23.605,40.7c-.006.013-.016.031-.029.054a.8.8,0,0,1-.439.426v.091h1.784v-.091a.376.376,0,0,1-.159-.058.121.121,0,0,1-.051-.1.158.158,0,0,1,.01-.056.441.441,0,0,1,.029-.062l.214-.377H27.4l.21.377c.022.043.038.076.048.1a.151.151,0,0,1,.014.058.085.085,0,0,1-.046.077.426.426,0,0,1-.143.041v.091H29.4" fill="#e52229" fill-rule="evenodd"/><path d="M33.036,38.577a2.8,2.8,0,0,1,1.295.225.838.838,0,0,1,0,1.437,2.759,2.759,0,0,1-1.292.228h-.972V38.577Zm-2.693-.8v.091a.49.49,0,0,1,.2.061.16.16,0,0,1,.046.133v2.927a.163.163,0,0,1-.046.134.454.454,0,0,1-.2.056v.091h2.7a8.939,8.939,0,0,0,1.454-.09,2.926,2.926,0,0,0,.9-.3,1.651,1.651,0,0,0,.628-.578,1.449,1.449,0,0,0,.22-.783,1.423,1.423,0,0,0-.22-.771,1.669,1.669,0,0,0-.628-.576,2.873,2.873,0,0,0-.9-.3,8.938,8.938,0,0,0-1.454-.09h-2.7" fill="#e52229" fill-rule="evenodd"/><path d="M39.893,38.412l.907,1.547H39.045Zm3.265,2.864v-.091A.377.377,0,0,1,42.9,41a.021.021,0,0,1,0-.01l-1.667-2.807c-.025-.046-.048-.088-.066-.128a.233.233,0,0,1-.026-.078.09.09,0,0,1,.034-.078.25.25,0,0,1,.117-.029v-.091H38.684v.091a.246.246,0,0,1,.117.029.091.091,0,0,1,.035.078.248.248,0,0,1-.025.077c-.016.037-.037.08-.063.129L37.368,40.7c-.006.013-.016.031-.029.054a.8.8,0,0,1-.438.426v.091h1.784v-.091a.376.376,0,0,1-.159-.058.121.121,0,0,1-.051-.1.158.158,0,0,1,.01-.056.441.441,0,0,1,.029-.062l.214-.377H41.16l.21.377c.023.043.038.076.048.1a.152.152,0,0,1,.015.058.085.085,0,0,1-.047.077.418.418,0,0,1-.143.041v.091h1.915" fill="#e52229" fill-rule="evenodd"/><path d="M22.207,2.9l-3.455,6.9a.589.589,0,0,1-.316.188.71.71,0,0,1-.514-.008l-4.113-2.23,2.482,10.675s.019.078.019.078c.069.26.088.379-.162.512-.368.2-.533.092-.647-.034l-4.7-5.207s-1.118,2.556-1.123,2.571c-.279.559-.326.645-1.464.389l-5.221-1.2L4.816,21.4c.259.811-.1.958-.276,1.03L1.667,23.509l9.576,6.84c.329.237.342.379.213.661L9.6,35.064l12.867-2.5,12.867,2.5-1.852-4.053a.67.67,0,0,1-.076-.267c0-.133.082-.244.29-.394l9.575-6.84L40.4,22.428a.506.506,0,0,1-.359-.533,1.632,1.632,0,0,1,.09-.491l1.821-5.88-5.223,1.206c-1.134.254-1.182.169-1.461-.39l-1.125-2.571-4.7,5.207c-.113.126-.279.229-.647.034-.251-.133-.231-.253-.162-.512l.019-.076L31.135,7.744l-4.112,2.23a.713.713,0,0,1-.515.008.585.585,0,0,1-.319-.192L22.472,2.368l-.264.528" fill="#fff" fill-rule="evenodd"/><path d="M21.231,34.61v.325c0,.436.641.592,1.241.592s1.242-.156,1.242-.592V34.61c0-.436-.642-.592-1.242-.592s-1.241.156-1.241.592" fill="#fff" fill-rule="evenodd"/><path d="M33.528,30.109l9.125-6.518-2.36-.886c-.468-.191-.7-.6-.447-1.391l1.669-5.387-4.722,1.09c-1.292.29-1.453.136-1.8-.553l-.944-2.159-4.39,4.867a.744.744,0,0,1-1.006.1c-.516-.274-.348-.683-.292-.918l.375-1.612L11.815,30.623a.823.823,0,0,1-.089.511l-1.613,3.531,12.359-2.4,12.359,2.4-1.613-3.531a.724.724,0,0,1,.31-1.025" fill-rule="evenodd"/><path d="M28.74,16.739,30.7,8.318l-3.535,1.916a1.067,1.067,0,0,1-1.236-.306l-3.455-6.9-3.455,6.9a1.067,1.067,0,0,1-1.237.306L14.245,8.318l2.333,10.035c.057.235.224.644-.292.918a.744.744,0,0,1-1.006-.1l-4.39-4.867-.944,2.159c-.343.689-.5.843-1.8.553L3.43,15.928,5.1,21.314c.254.794.021,1.2-.447,1.391l-2.36.886,9.125,6.518a.884.884,0,0,1,.4.517L28.74,16.739" fill="#e52229" fill-rule="evenodd"/><path d="M27.455,12.886l-.157-.15a7.4,7.4,0,0,0-.751-.945l-.19.033-.875.029a1.5,1.5,0,0,0-.409-.062A3.42,3.42,0,0,0,24.4,13l-.054.088a5.876,5.876,0,0,0,.1,1.231l-.908.316v.121a3.629,3.629,0,0,0-.364.02,3.8,3.8,0,0,0-.627.192l-1.429.824-.526.755-.79,1.843a3.32,3.32,0,0,0-.062.41l.005.5-.192-.062-.757.691-.121.815-.808,1.181-1.739,2.859v.129l-.53.434v.287a2.724,2.724,0,0,0-.956.64l-.7.785-1.011,1.459-.4.307.024.567-.089.088v.133l-.186.222-.758.688a2.811,2.811,0,0,0-.165,1.049l-.3.989a3.98,3.98,0,0,1,.647-.3l.266-.047L13.507,30.5l2.468-2.041a2.886,2.886,0,0,0,.58-.942,1.336,1.336,0,0,1,.369-.182,3.066,3.066,0,0,0,.991-.517l.592-.62.574-.036a6,6,0,0,0,.514-.77l.544-.319.767-.862.574-.511a1.107,1.107,0,0,1,.417-.2l.116.653c.147.8-.006,1-.006,1l-.228.641a1.371,1.371,0,0,0-.067.339,2.037,2.037,0,0,0-.2.3l-.8,1.517L20.139,29.4l-.346.222-.157.342-.092-.074L18.693,31.3v.224l.163.191L18.6,32.4l.067.1.559-.348.356.191a1.253,1.253,0,0,0,.245-.218l.488-.629,2.518-2.554a4.4,4.4,0,0,0,.917-1.739,2.559,2.559,0,0,0,.574-.615l.834-1.355.816-1.973,1.163.937.183-.029-.92,7.911.039.313.13.136a15.205,15.205,0,0,0,1.571-.189,1.531,1.531,0,0,0,.459-.682l.118-.446-.157-.068L27.47,31.5l-.266.053a3.752,3.752,0,0,1-.005-.381l.825-7.022a1.723,1.723,0,0,0,.908-.683l-.157-.035.094-.3-.189-.289.252-.314-.121-.306-.349-.13-.225-.032.2-1.814a4.482,4.482,0,0,1,.485-.5,4.969,4.969,0,0,0,.616-.525l.684-.925-.033-.248.127-.219a2.134,2.134,0,0,0-.852-.626l.252-.408a3.359,3.359,0,0,1,.473-1.941l-.124-.44-.977-.875a3.106,3.106,0,0,0-.808-.109,1.923,1.923,0,0,0-.677.237l-.2.123.153-.283-.091-.062v-.562" fill="#fff" fill-rule="evenodd"/><path d="M27.309,19.813l.452.369L27.6,21.845l-1.127-.768a.8.8,0,0,1-.186-.206l.26-.348.287-.517.2-.479.272.286" fill-rule="evenodd"/><path d="M23.418,34.61c0-.163-.424-.3-.947-.3s-.946.133-.946.3v.325c0,.163.423.3.946.3s.947-.132.947-.3V34.61" fill-rule="evenodd"/></g></svg>