<svg xmlns="http://www.w3.org/2000/svg" xmlns:xlink="http://www.w3.org/1999/xlink" width="45" height="45" viewBox="0 0 45 45"><defs><clipPath id="a"><circle cx="22.5" cy="22.5" r="22.5" transform="translate(101.12 1554.022)" fill="#858585" stroke="#707070" stroke-width="1"/></clipPath></defs><g transform="translate(-101.12 -1554.022)" clip-path="url(#a)"><g transform="translate(104.622 1560.032)"><path d="M4.851,27.724a4.851,4.851,0,0,1,0-9.7A4.72,4.72,0,0,1,8.1,19.311l3-3.755a7.659,7.659,0,0,0,.3-.944.885.885,0,0,1-.329-.67,1.024,1.024,0,0,0-.015-.108c-.12-.22-.138-.573.356-1.063a11.589,11.589,0,0,1-.034-4.659,9,9,0,0,1,1.143-2,3.252,3.252,0,0,1,.034-3.047.213.213,0,0,1,.016-.024L12.61,3a.484.484,0,0,1,.383-.2.4.4,0,0,1,.174-.037.782.782,0,0,1,.2.032l.025.006a1.932,1.932,0,0,1,.475.125c.077-.019.14-.036.184-.051a.218.218,0,0,1,.035-.009l.069-.011.033,0,.18-.044a.606.606,0,0,1,.149-.019.576.576,0,0,1,.1.008.547.547,0,0,1,.07,0,.6.6,0,0,1,.507.311A3.53,3.53,0,0,0,16.247.715.218.218,0,0,1,16.464.5l.121,0A.217.217,0,0,1,16.8.723a4.908,4.908,0,0,0,1.664,3.1,3.619,3.619,0,0,0,.58.375.582.582,0,0,0,.125.014A.839.839,0,0,0,19.682,4a.326.326,0,0,1,.47.44.324.324,0,0,1-.028.12,4.68,4.68,0,0,0,.818.07,6.564,6.564,0,0,0,1.5-.188l.1-.024a.217.217,0,0,1,.257.276L21.612,8.5l3.855-1.182a.217.217,0,0,1,.28.229l-.009.089a2.583,2.583,0,0,0,.746,2.047,2.158,2.158,0,0,0,1.366.405,6.316,6.316,0,0,0,2.02-.407.217.217,0,0,1,.253.085l.063.1a.217.217,0,0,1-.022.268c-.013.014-1.408,1.569-1.165,2.959A2.162,2.162,0,0,0,30.261,14.6l.075.04a.217.217,0,0,1,.045.353l-4.516,4.1a.216.216,0,0,1,.045.133v.395a.217.217,0,0,1-.184.215l-.05.008c-.3.045-.439.07-.485.138a2.291,2.291,0,0,0-.078.841V21.8H27.35v-.976a1.87,1.87,0,0,0-.1-.828c-.058-.077-.211-.1-.523-.152l-.05-.008a.217.217,0,0,1-.184-.215v-.395a.217.217,0,0,1,.217-.217H29.85a.217.217,0,0,1,.217.217v.4a.217.217,0,0,1-.187.215l-.051.007c-.315.045-.482.072-.534.144a2.138,2.138,0,0,0-.082.835V24.24a2.14,2.14,0,0,0,.082.835c.051.072.218.1.534.144l.052.008a.217.217,0,0,1,.186.215v.4a.217.217,0,0,1-.217.217H26.656a.217.217,0,0,1-.217-.217v-.4a.217.217,0,0,1,.186-.215l.051-.007c.3-.043.5-.072.572-.157a1.753,1.753,0,0,0,.1-.823V22.865H25.113V24.24a2.138,2.138,0,0,0,.082.835c.052.072.219.1.534.144l.051.007a.217.217,0,0,1,.186.215v.4a.217.217,0,0,1-.217.217H22.613a.217.217,0,0,1-.217-.217v-.4a.217.217,0,0,1,.186-.215l.051-.007c.316-.045.483-.072.535-.144a2.137,2.137,0,0,0,.082-.835V22.511l-2.029.053-.006.034a.481.481,0,0,0-.2.222l-.005.032a.217.217,0,0,1-.195.181h-.02a.218.218,0,0,1-.192-.116l-.188,0a.217.217,0,0,1-.21-.16l-.113-.414a1.031,1.031,0,0,1-.245-.172c-.459,1.344-.9,2.7-1.3,3.917l-.013.041a.217.217,0,0,1-.207.15h-.043a1.758,1.758,0,0,1-.319-.037,1.087,1.087,0,0,0-.136-.02,1.347,1.347,0,0,0-.207.024,1.828,1.828,0,0,1-.305.033h-.045a.217.217,0,0,1-.21-.159l-.012-.044c-.407-1.477-.922-2.94-1.368-4.141-.206.606-.425,1.213-.652,1.846l-.007.02c-.266.74-.542,1.506-.8,2.288l-.013.04a.217.217,0,0,1-.206.149h-.043a1.8,1.8,0,0,1-.3-.032,1.3,1.3,0,0,0-.213-.019,1.276,1.276,0,0,0-.211.018,1.815,1.815,0,0,1-.3.032H12.89a.217.217,0,0,1-.21-.163l-.012-.045c-.413-1.61-.889-3.2-1.318-4.578a1.017,1.017,0,0,1-.11.117c-.01.049-.019.1-.025.161a1,1,0,0,1-.023.283.217.217,0,0,1-.117.14.217.217,0,0,1-.164.145.217.217,0,0,1-.2.122.225.225,0,0,1-.038,0,.217.217,0,0,1-.172-.158l-.091-.011a.217.217,0,0,1-.191-.216c0-.072,0-.142.007-.209a.721.721,0,0,0-.217-.39c-.62-.558-.226-1.551.009-2.145l.012-.031L9.026,20.492a4.882,4.882,0,0,1,.618,2.381A4.827,4.827,0,0,1,4.851,27.724ZM16.682,18.9a.217.217,0,0,1,.209.159l.012.044c.254.92.569,1.863.873,2.776l0,.009c.151.451.3.909.452,1.371l.052-.165c.3-.948.607-1.927.875-2.894a5.278,5.278,0,0,1-1.021-2.105c0-.014-.012-.345-1.069-1.4a8.192,8.192,0,0,1-1.426-2.564c-.137.145-.287.314-.439.5a5.391,5.391,0,0,0-.546.852,7.17,7.17,0,0,1-1.312,2.108.221.221,0,0,1-.03.021,2.644,2.644,0,0,0-.5.883c-.063.145-.123.284-.185.411h.012a.217.217,0,0,1,.211.166l.011.045c.314,1.3.657,2.577,1.02,3.929l.052.194c.138-.4.277-.8.413-1.182.357-1.015.694-1.974,1-2.959l.013-.042a.217.217,0,0,1,.207-.153ZM35.65,26.113a.217.217,0,0,1-.217-.217v-.465a.217.217,0,0,1,.217-.217h.32l-.459-1.377H33.732a8.084,8.084,0,0,0-.469,1.377H33.9a.217.217,0,0,1,.217.217V25.9a.217.217,0,0,1-.217.217H31.722A.217.217,0,0,1,31.5,25.9v-.465a.217.217,0,0,1,.217-.217h.43l0-.006c.4-1.092,1.437-3.5,2.437-5.837l.021-.048a.217.217,0,0,1,.131-.121l.027-.009a5.156,5.156,0,0,1,.886-.185.365.365,0,0,1,.393.393.471.471,0,0,1-.141.318l-.028.034a44.1,44.1,0,0,0,1.633,4.733c.26.728.315.728.478.728h.29a.217.217,0,0,1,.217.217V25.9a.217.217,0,0,1-.217.217H35.65Zm-.505-3.235-.481-1.346c-.2.465-.378.907-.544,1.346Z" transform="translate(0 -0.073)" opacity="0.3"/><path d="M4.851,27.22a4.851,4.851,0,0,1,0-9.7A4.72,4.72,0,0,1,8.1,18.807l3-3.755a7.659,7.659,0,0,0,.3-.944.885.885,0,0,1-.329-.67,1.024,1.024,0,0,0-.015-.108c-.12-.22-.138-.573.356-1.063a11.589,11.589,0,0,1-.034-4.659,9,9,0,0,1,1.143-2,3.252,3.252,0,0,1,.034-3.047.213.213,0,0,1,.016-.024L12.61,2.5a.484.484,0,0,1,.383-.2.4.4,0,0,1,.174-.037.782.782,0,0,1,.2.032l.025.006a1.932,1.932,0,0,1,.475.125c.077-.019.14-.036.184-.051a.218.218,0,0,1,.035-.009l.069-.011.033,0,.18-.044a.606.606,0,0,1,.149-.019.576.576,0,0,1,.1.008.547.547,0,0,1,.07,0,.6.6,0,0,1,.507.311A3.53,3.53,0,0,0,16.247.21.218.218,0,0,1,16.464,0l.121,0A.217.217,0,0,1,16.8.219a4.908,4.908,0,0,0,1.664,3.1,3.619,3.619,0,0,0,.58.375.582.582,0,0,0,.125.014.839.839,0,0,0,.513-.213.326.326,0,0,1,.47.44.324.324,0,0,1-.028.12,4.68,4.68,0,0,0,.818.07,6.564,6.564,0,0,0,1.5-.188l.1-.024a.217.217,0,0,1,.257.276L21.612,8l3.855-1.182a.217.217,0,0,1,.28.229l-.009.089a2.583,2.583,0,0,0,.746,2.047,2.158,2.158,0,0,0,1.366.405,6.316,6.316,0,0,0,2.02-.407.217.217,0,0,1,.253.085l.063.1a.217.217,0,0,1-.022.268c-.013.014-1.408,1.569-1.165,2.959A2.162,2.162,0,0,0,30.261,14.1l.075.04a.217.217,0,0,1,.045.353l-4.516,4.1a.216.216,0,0,1,.045.133v.395a.217.217,0,0,1-.184.215l-.05.008c-.3.045-.439.07-.485.138a2.291,2.291,0,0,0-.078.841V21.3H27.35V20.32a1.87,1.87,0,0,0-.1-.828c-.058-.077-.211-.1-.523-.152l-.05-.008a.217.217,0,0,1-.184-.215v-.395a.217.217,0,0,1,.217-.217H29.85a.217.217,0,0,1,.217.217v.4a.217.217,0,0,1-.187.215l-.051.007c-.315.045-.482.072-.534.144a2.138,2.138,0,0,0-.082.835v3.416a2.14,2.14,0,0,0,.082.835c.051.072.218.1.534.144l.052.008a.217.217,0,0,1,.186.215v.4a.217.217,0,0,1-.217.217H26.656a.217.217,0,0,1-.217-.217v-.4a.217.217,0,0,1,.186-.215l.051-.007c.3-.043.5-.072.572-.157a1.753,1.753,0,0,0,.1-.823V22.361H25.113v1.375a2.138,2.138,0,0,0,.082.835c.052.072.219.1.534.144l.051.007a.217.217,0,0,1,.186.215v.4a.217.217,0,0,1-.217.217H22.613a.217.217,0,0,1-.217-.217v-.4a.217.217,0,0,1,.186-.215l.051-.007c.316-.045.483-.072.535-.144a2.137,2.137,0,0,0,.082-.835V22.007l-2.029.053-.006.034a.481.481,0,0,0-.2.222l-.005.032a.217.217,0,0,1-.195.181h-.02a.218.218,0,0,1-.192-.116l-.188,0a.217.217,0,0,1-.21-.16l-.113-.414a1.031,1.031,0,0,1-.245-.172c-.459,1.344-.9,2.7-1.3,3.917l-.013.041a.217.217,0,0,1-.207.15h-.043a1.758,1.758,0,0,1-.319-.037,1.087,1.087,0,0,0-.136-.02,1.347,1.347,0,0,0-.207.024,1.828,1.828,0,0,1-.305.033h-.045a.217.217,0,0,1-.21-.159l-.012-.044c-.407-1.477-.922-2.94-1.368-4.141-.206.606-.425,1.213-.652,1.846l-.007.02c-.266.74-.542,1.506-.8,2.288l-.013.04a.217.217,0,0,1-.206.149h-.043a1.8,1.8,0,0,1-.3-.032,1.3,1.3,0,0,0-.213-.019,1.276,1.276,0,0,0-.211.018,1.815,1.815,0,0,1-.3.032H12.89a.217.217,0,0,1-.21-.163l-.012-.045c-.413-1.61-.889-3.2-1.318-4.578a1.017,1.017,0,0,1-.11.117c-.01.049-.019.1-.025.161a1,1,0,0,1-.023.283.217.217,0,0,1-.117.14.217.217,0,0,1-.164.145.217.217,0,0,1-.2.122.225.225,0,0,1-.038,0,.218.218,0,0,1-.172-.158l-.091-.011a.217.217,0,0,1-.191-.216c0-.072,0-.142.007-.209a.721.721,0,0,0-.217-.39c-.62-.558-.226-1.551.009-2.145l.012-.031L9.026,19.988a4.882,4.882,0,0,1,.618,2.381A4.827,4.827,0,0,1,4.851,27.22Zm11.832-8.829a.217.217,0,0,1,.209.159l.012.044c.254.92.569,1.863.873,2.776l0,.009c.151.451.3.909.452,1.371l.052-.165c.3-.948.607-1.927.875-2.894a5.278,5.278,0,0,1-1.021-2.105c0-.014-.012-.345-1.069-1.4a8.192,8.192,0,0,1-1.426-2.564c-.137.145-.287.314-.439.5a5.391,5.391,0,0,0-.546.852,7.17,7.17,0,0,1-1.312,2.108.221.221,0,0,1-.03.021,2.644,2.644,0,0,0-.5.883c-.063.145-.123.284-.185.411h.012a.217.217,0,0,1,.211.166l.011.045c.314,1.3.657,2.577,1.02,3.929l.052.194c.138-.4.277-.8.413-1.182.357-1.015.694-1.974,1-2.959l.013-.042a.217.217,0,0,1,.207-.152h1.113ZM35.65,25.609a.217.217,0,0,1-.217-.217v-.465a.217.217,0,0,1,.217-.217h.32l-.459-1.377H33.732a8.084,8.084,0,0,0-.469,1.377H33.9a.217.217,0,0,1,.217.217v.465a.217.217,0,0,1-.217.217H31.722a.217.217,0,0,1-.217-.217v-.465a.217.217,0,0,1,.217-.217h.43l0-.006c.4-1.092,1.437-3.5,2.437-5.837l.021-.048a.217.217,0,0,1,.131-.121l.027-.009a5.156,5.156,0,0,1,.886-.185.365.365,0,0,1,.393.393.471.471,0,0,1-.141.318l-.028.034a44.1,44.1,0,0,0,1.633,4.733c.26.728.315.728.478.728h.29a.217.217,0,0,1,.217.217v.465a.217.217,0,0,1-.217.217H35.65Zm-.505-3.235-.481-1.346c-.2.465-.378.907-.544,1.346Z" fill="#fff"/><g transform="translate(0.217 0.217)"><g transform="translate(14.052 0.002)"><path d="M18.877,13.922c0,.569,2.278,2.79,2.278,3.3,0,.968.683,1.594.968,2.278.569,1.31.911,2.335.911,2.335l4.327-.114L25.71,20.584l6.833-6.206c-3.132-1.651-.171-4.9-.171-4.9-4.9,1.708-4.5-2.334-4.5-2.334L23.6,8.456l1.31-4.214A4.555,4.555,0,0,1,18.934.256s-.057,2.278-1.708,2.9c-1.708.626,1.139,2.562,1.139,2.562l.512,8.2Z" transform="translate(-16.68 -0.256)" fill="#ed1c2e" fill-rule="evenodd"/></g><g transform="translate(13.993)"><path d="M22.981,21.9l-.014-.042c0-.01-.347-1.038-.909-2.33a4.692,4.692,0,0,0-.364-.656,3.064,3.064,0,0,1-.609-1.645A5.791,5.791,0,0,0,20,15.686a5.4,5.4,0,0,1-1.2-1.765h.119a5.927,5.927,0,0,0,1.17,1.689A5.075,5.075,0,0,1,21.2,17.224a2.929,2.929,0,0,0,.591,1.582,4.768,4.768,0,0,1,.373.673c.5,1.149.828,2.091.9,2.3l4.1-.108L25.6,20.59l6.826-6.2a2.442,2.442,0,0,1-1.362-1.7A4.325,4.325,0,0,1,32.178,9.6c-1.571.513-2.748.472-3.5-.121A2.783,2.783,0,0,1,27.8,7.228L23.5,8.545l1.312-4.222a4.751,4.751,0,0,1-4.159-.7,5.2,5.2,0,0,1-1.724-2.9,3.078,3.078,0,0,1-1.7,2.5c-.309.113-.478.277-.5.486-.1.772,1.637,1.96,1.655,1.972l-.067.1c-.074-.05-1.81-1.241-1.706-2.084.032-.257.227-.454.58-.583,1.594-.6,1.669-2.827,1.67-2.85l.119,0A5.064,5.064,0,0,0,20.73,3.525a4.686,4.686,0,0,0,4.159.659l.1-.024L23.683,8.366l4.248-1.3-.009.089a2.783,2.783,0,0,0,.828,2.239c.752.591,1.96.6,3.592.033l.063.1c-.015.016-1.482,1.646-1.22,3.145a2.367,2.367,0,0,0,1.374,1.66l.075.04-.063.057-6.777,6.156,1.589,1.1-.032.108Z" transform="translate(-16.61 -0.254)" fill="#00539f"/></g><g transform="translate(13.749 2.871)"><path d="M21.244,5.631a1.691,1.691,0,0,1-.99-.439L20.129,5.1a1.3,1.3,0,0,0-1.8.221A.978.978,0,0,1,17.6,5.6a2.129,2.129,0,0,1-1.247-.683.108.108,0,0,1,.161-.145,1.945,1.945,0,0,0,1.1.612.762.762,0,0,0,.572-.22,1.519,1.519,0,0,1,2.073-.236c.041.029.085.062.13.1.381.288.855.646,1.505.134a.108.108,0,0,1,.134.17A1.253,1.253,0,0,1,21.244,5.631Zm.289-.971a1.6,1.6,0,0,1-1-.479l-.065-.055c-.678-.532-1.208-.3-1.795.226-.7.6-1.6-.043-1.975-.464a.108.108,0,0,1,.161-.145c.01.011.964,1.051,1.671.446A1.447,1.447,0,0,1,20.6,3.958l.069.058c.349.3.827.7,1.506.17a.108.108,0,1,1,.133.17A1.245,1.245,0,0,1,21.533,4.66Z" transform="translate(-16.326 -3.61)" fill="#ffd65a"/></g><g transform="translate(13.92 3.026)"><path d="M21.432,5.119a1.788,1.788,0,0,1-1.109-.511c-.607-.477-1.16-.409-1.79.221-.7.6-1.6-.039-1.979-.46a.108.108,0,0,1,.161-.145c.009.01.87.949,1.562.526a1.771,1.771,0,0,1-1.609-.665.108.108,0,0,1,.161-.145c.009.011.963,1.052,1.671.446a1.407,1.407,0,0,1,2.073-.231l.032.027a1.124,1.124,0,0,0,1.546.2.108.108,0,0,1,.126.176c-.047.033-.093.063-.138.09a.108.108,0,0,1,.081.195A1.34,1.34,0,0,1,21.432,5.119Zm-1.89-1.043a1.48,1.48,0,0,1,.917.364,1.205,1.205,0,0,0,1.594.253,1.363,1.363,0,0,1-1.587-.345l-.03-.025a1.085,1.085,0,0,0-1.243-.193A1.17,1.17,0,0,1,19.542,4.076Z" transform="translate(-16.526 -3.791)" fill="#00539f"/></g><g transform="translate(13.636 3.197)"><path d="M21.059,6.114a1.664,1.664,0,0,1-1.039-.484l-.029-.025a1.205,1.205,0,0,0-1.7.1.108.108,0,0,1-.045.08,1.779,1.779,0,0,1-.185.117.87.87,0,0,1-.579.178,1.145,1.145,0,0,1-.264-.045,2.155,2.155,0,0,1-.77-.409l-.093-.067a.108.108,0,0,1-.045-.1c-.051-.05-.082-.083-.087-.089a.108.108,0,0,1,.161-.145,2.351,2.351,0,0,0,.881.6.95.95,0,0,0,.678-.1c.018-.014.035-.028.052-.044a1.479,1.479,0,0,1,2.133-.233l.032.027a1.124,1.124,0,0,0,1.546.2.108.108,0,1,1,.126.176A1.315,1.315,0,0,1,21.059,6.114Zm.395-.739a1.763,1.763,0,0,1-1.023-.439l-.093-.067c-.613-.481-1.166-.414-1.8.216-.7.6-1.6-.039-1.979-.46a.108.108,0,0,1,.107-.177,2.312,2.312,0,0,1-.164-.164.108.108,0,0,1,.161-.145c.01.011.965,1.051,1.671.446a1.408,1.408,0,0,1,2.073-.231l.09.066a1.158,1.158,0,0,0,1.545.159.108.108,0,1,1,.126.176,1.364,1.364,0,0,1-1.8-.161l-.092-.067c-.613-.482-1.166-.414-1.8.216a1.293,1.293,0,0,1-1.676-.178c.25.238,1,.86,1.586.36A1.408,1.408,0,0,1,20.468,4.7l.091.066a1.157,1.157,0,0,0,1.544.159.108.108,0,0,1,.126.176A1.323,1.323,0,0,1,21.453,5.375Z" transform="translate(-16.193 -3.991)" fill="#ffd65a"/></g><g transform="translate(13.635 4.165)"><path d="M17.552,6.121a2.019,2.019,0,0,1-1.332-.7.108.108,0,0,1,.161-.145c.009.011.964,1.052,1.671.446a1.407,1.407,0,0,1,2.073-.231,1.371,1.371,0,0,0,1.749.111A.108.108,0,0,1,22,5.773a1.6,1.6,0,0,1-2.011-.119c-.607-.477-1.16-.409-1.79.221A.97.97,0,0,1,17.552,6.121Z" transform="translate(-16.193 -5.122)" fill="#00539f"/></g><g transform="translate(13.806 4.449)"><path d="M17.463,6.139a1.608,1.608,0,0,1-1-.469l-.028-.023a.108.108,0,1,1,.139-.166L16.6,5.5a1.065,1.065,0,0,0,1.544.145.108.108,0,1,1,.134.17A1.308,1.308,0,0,1,17.463,6.139Z" transform="translate(-16.392 -5.454)" fill="#040607"/></g><g transform="translate(13.75 4.123)"><path d="M21.192,6.124a1.6,1.6,0,0,1-1-.479l-.065-.055c-.679-.533-1.209-.3-1.795.226a.964.964,0,0,1-.576.24A1.467,1.467,0,0,1,16.609,5.6l-.037-.032-.036-.03-.013-.013a2.367,2.367,0,0,1-.169-.169.108.108,0,1,1,.161-.145,1.925,1.925,0,0,0,1.221.634,1.152,1.152,0,0,0,.51-.248.108.108,0,0,1,.025-.015,1.405,1.405,0,0,1,1.988-.156l.069.058c.349.3.827.7,1.505.17a.108.108,0,0,1,.134.17A1.246,1.246,0,0,1,21.192,6.124Z" transform="translate(-16.326 -5.074)" fill="#00539f"/></g><g transform="translate(13.864 3.937)"><path d="M21.378,5.9a1.763,1.763,0,0,1-1.023-.439l-.092-.067c-.614-.482-1.167-.414-1.8.216a.993.993,0,0,1-.89.219,1.653,1.653,0,0,1-.773-.386c-.04-.031-.079-.063-.115-.1l-.019-.016-.012-.012a2.362,2.362,0,0,1-.17-.17A.108.108,0,0,1,16.648,5a2.262,2.262,0,0,0,.94.606,1.034,1.034,0,0,0,.794-.222,1.38,1.38,0,0,1,2.01-.169l.091.066a1.158,1.158,0,0,0,1.545.159.107.107,0,0,1,.151.025.108.108,0,0,1-.025.151A1.323,1.323,0,0,1,21.378,5.9Z" transform="translate(-16.459 -4.856)" fill="#ffd65a"/></g><g transform="translate(13.863 3.711)"><path d="M17.819,5.59a1.859,1.859,0,0,1-1.143-.519h0a.109.109,0,0,1-.019-.017,2.362,2.362,0,0,1-.17-.169.108.108,0,0,1,.161-.145,2.421,2.421,0,0,0,.2.189l.048.035a1.194,1.194,0,0,0,1.351.278.9.9,0,0,0,.073-.056,1.415,1.415,0,0,1,2.073-.231,1.322,1.322,0,0,0,1.745.114.108.108,0,1,1,.134.17,1.528,1.528,0,0,1-2.009-.111,1.13,1.13,0,0,0-1.651.091.107.107,0,0,1-.045.08,1.754,1.754,0,0,1-.212.131A.949.949,0,0,1,17.819,5.59Z" transform="translate(-16.459 -4.591)" fill="#00539f"/></g><g transform="translate(2.754 2.607)"><path d="M15.659,4.568a3.644,3.644,0,0,1-.228-.854s-.114-.455-.4-.4c-.171,0-.171.057-.285.057a2.329,2.329,0,0,1-.4.114,3.022,3.022,0,0,0-.626-.171c-.171,0-.114-.057-.228.057a2.843,2.843,0,0,0,.114,2.79,12.179,12.179,0,0,0-1.2,2.164,9.578,9.578,0,0,0,.114,4.726s-.626.455-.512.74c.114.228-.057.512.456.683a5.832,5.832,0,0,1-.456,1.481l-5.3,6.32a18.608,18.608,0,0,1-3.246-.74s.228,1.31.683,1.424L7,22.846l4.441-5.068s-.171,1.082-.285,1.48c-.114.455-.74,1.538-.285,2.05a.861.861,0,0,1,.342.911s0-.683.228-.74a1.514,1.514,0,0,0,.455-1.538,4.827,4.827,0,0,0,.683-.74c.228-.342.569-1.48.911-1.708a5.943,5.943,0,0,0,1.253-1.936c.114-.342,1.594-2.164,1.936-2.164a7.285,7.285,0,0,0,1.31,3.075c.911.968,1.2,1.423,1.2,1.765a5.333,5.333,0,0,0,1.025,1.936c.341.284.341,1.48.455,1.708a.619.619,0,0,0,.4.284l.228.627.114-.683s.626-.854.4-1.309a12.055,12.055,0,0,0-.683-1.2,18.258,18.258,0,0,0-.74-2.733l-.171-.285a9.945,9.945,0,0,0-.171-2.676,2.474,2.474,0,0,0-.171-.854c-.4-.74-.911-1.139-.626-1.538a2.95,2.95,0,0,0,.569-2.733c0-.171-.8-2.107-1.48-2.278L17.2,5.935a.978.978,0,0,1-.569-.171c-.171-.171-.968-1.2-.968-1.2Z" transform="translate(-3.474 -3.301)" fill="#00539f" fill-rule="evenodd"/></g><g transform="translate(0 17.518)"><path d="M4.958,29.65A4.214,4.214,0,1,0,.745,25.436,4.192,4.192,0,0,0,4.958,29.65Z" transform="translate(-0.325 -20.802)" fill="#fff" fill-rule="evenodd"/><path d="M4.887,30a4.634,4.634,0,1,1,4.577-4.634A4.639,4.639,0,0,1,4.887,30Zm0-8.428a3.794,3.794,0,1,0,3.737,3.794A3.8,3.8,0,0,0,4.887,21.571Z" transform="translate(-0.254 -20.731)" fill="#00539f"/></g><g transform="translate(2.336 2.284)"><path d="M3.656,23.467,2.985,21.79l3.127.813L11.718,15.6a8.135,8.135,0,0,0,.369-1.162.662.662,0,0,1-.364-.6.834.834,0,0,0-.03-.17c-.185-.3.154-.687.4-.91a11.355,11.355,0,0,1-.071-4.663,9.511,9.511,0,0,1,1.2-2.049A3,3,0,0,1,13.18,3.1l.035-.045c.091-.121.176-.121.381-.121l.069.011c.131.044.4.121.509.153.086-.018.264-.058.378-.1l.069-.011a1.007,1.007,0,0,0,.232-.05c.322-.082.528.249.6.556h0s.622,1.808.736,2.148a.217.217,0,1,1-.412.137c-.114-.341-.739-2.162-.739-2.162a.737.737,0,0,0-.112-.252,1.336,1.336,0,0,1-.273.056c-.182.057-.437.108-.449.11l-.051.01-.05-.014s-.358-.1-.545-.163h-.032a2.516,2.516,0,0,0,.131,2.562l.091.129-.095.126a10.3,10.3,0,0,0-1.219,2.041,10.7,10.7,0,0,0,.111,4.534l.05.143-.117.1a1.49,1.49,0,0,0-.4.464l.011.027a1.1,1.1,0,0,1,.065.3c.019.176.026.236.258.313l.191.064-.049.2a9.073,9.073,0,0,1-.48,1.483l-5.7,7.134h.064l4.663-5.505.381.164a8.785,8.785,0,0,1-.3,1.533c-.019.069-.065.186-.119.323-.173.437-.463,1.168-.168,1.431a1.646,1.646,0,0,1,.194.231.364.364,0,0,1,.144-.1,1.771,1.771,0,0,0,.326-1.322l-.008-.109.083-.071a3.113,3.113,0,0,0,.579-.683l.022-.031a3.57,3.57,0,0,0,.35-.7,2.954,2.954,0,0,1,.588-1.034l.031-.022a5.7,5.7,0,0,0,1.154-1.759c.095-.332,1.382-2.255,1.914-2.255h.161l.047.154a9.369,9.369,0,0,0,1.488,2.933c1.124,1.124,1.255,1.6,1.255,1.857a4.9,4.9,0,0,0,.947,1.77,2.216,2.216,0,0,1,.436,1.343,3.018,3.018,0,0,0,.075.435.4.4,0,0,0,.248.169l.122.026c.21-.318.46-.866.371-1.105a12.057,12.057,0,0,0-.663-1.155l-.03-.072a18.4,18.4,0,0,0-.708-2.658l-.176-.294a.217.217,0,1,1,.372-.223l.171.285a17.531,17.531,0,0,1,.758,2.761,11.55,11.55,0,0,1,.679,1.194c.192.513-.277,1.3-.4,1.483l-.162.648-.42,0-.14-.512a.771.771,0,0,1-.415-.359,2.113,2.113,0,0,1-.117-.571,2.52,2.52,0,0,0-.284-1.067,5.012,5.012,0,0,1-1.1-2.1c0-.127-.11-.533-1.132-1.555a8.922,8.922,0,0,1-1.513-2.867,7.991,7.991,0,0,0-1.371,1.862,5.943,5.943,0,0,1-1.333,2,3.236,3.236,0,0,0-.456.861,3.828,3.828,0,0,1-.4.795,3.408,3.408,0,0,1-.583.708,1.876,1.876,0,0,1-.581,1.641l-.019.009a.983.983,0,0,0-.079.344.881.881,0,0,1-.016.245l-.427-.053c0-.065,0-.139.008-.216a.922.922,0,0,0-.286-.541c-.513-.456-.167-1.329.062-1.907.048-.121.089-.224.111-.3a4.463,4.463,0,0,0,.17-.7l-4.3,5.077Zm.051-1.041.24.6,1.916-.04Z" transform="translate(-2.985 -2.924)" fill="#fff"/></g><g transform="translate(2.561 2.257)"><path d="M3.735,23.233l-.487-1.218,3.2.544,5.522-6.988a8.537,8.537,0,0,0,.394-1.287.6.6,0,0,1-.375-.548.508.508,0,0,0-.036-.161c-.191-.318.207-.7.413-.868a11.2,11.2,0,0,1-.081-4.658A10.565,10.565,0,0,1,13.5,5.928a2.964,2.964,0,0,1-.061-2.863c0-.009.009-.022.013-.032.071-.183.209-.147.33-.116l.044.011a2.2,2.2,0,0,1,.563.164c.086-.018.27-.059.39-.1l.05-.008a.455.455,0,0,1,.268-.057c.1-.018.273,0,.412.261a1.259,1.259,0,0,1,.1.256c0,.019.511,1.985.675,2.368a.157.157,0,0,1-.289.124c-.173-.4-.67-2.332-.691-2.414a.523.523,0,0,0-.152-.285l-.038.005a.326.326,0,0,0-.166.026.266.266,0,0,1-.087.029c-.179.057-.445.111-.456.113l-.048.01L14.311,3.4a2.056,2.056,0,0,0-.507-.158l-.093-.019a2.632,2.632,0,0,0,.11,2.621l.061.091-.064.088a11.33,11.33,0,0,0-1.23,2.118,10.8,10.8,0,0,0,.113,4.573l.036.109-.093.068c-.236.172-.467.442-.413.532a.768.768,0,0,1,.072.274c.019.157.031.252.3.341l.137.046-.033.14a9.29,9.29,0,0,1-.474,1.525L7.183,22.139l4.281-4.978.274.131c-.009.051-.23,1.263-.344,1.719l-.063.148c-.18.406-.6,1.357-.263,1.7a1.5,1.5,0,0,1,.23.293A.4.4,0,0,1,11.456,21c.137-.041.424-.553.369-1.328l-.005-.072.051-.051a5.882,5.882,0,0,0,.607-.716,3.993,3.993,0,0,0,.317-.641,2.47,2.47,0,0,1,.7-1.117,6.919,6.919,0,0,0,1.123-1.843c.089-.268,1.367-2.221,1.859-2.221H16.6l.034.111a9.435,9.435,0,0,0,1.5,2.956c1.027,1.027,1.239,1.492,1.239,1.873a5.37,5.37,0,0,0,.968,1.815c.25.165.334.664.416,1.3a2.747,2.747,0,0,0,.08.46.463.463,0,0,0,.29.2l.08.017.2.474a.157.157,0,1,1-.289.124l-.142-.33a.737.737,0,0,1-.424-.345,2.137,2.137,0,0,1-.11-.561c-.044-.341-.126-.976-.292-1.086a5.3,5.3,0,0,1-1.095-2.067c0-.249-.137-.641-1.15-1.654a9.038,9.038,0,0,1-1.523-2.918,8.391,8.391,0,0,0-1.462,1.946,6.992,6.992,0,0,1-1.244,2.007,2.447,2.447,0,0,0-.594.985,4.148,4.148,0,0,1-.347.694,5.768,5.768,0,0,1-.593.709c.036.76-.227,1.485-.578,1.573a.928.928,0,0,0-.1.393.817.817,0,0,1-.015.233l-.31-.038c0-.046,0-.12.01-.208a.974.974,0,0,0-.305-.593c-.491-.492-.025-1.541.2-2.046l.053-.12c.057-.232.151-.713.225-1.1l-4.561,5.3Zm.013-.813.2.49,2.179-.087Z" transform="translate(-3.248 -2.892)" fill="#00539f"/></g><g transform="translate(19.399 15.45)"><path d="M24.019,24.723l-.057-.171a.153.153,0,0,1,.1-.193l.008,0,.086-.394c.237-.346.515-.931.392-1.148a9.343,9.343,0,0,0-.679-1.246l-.021-.051a16.134,16.134,0,0,0-.71-2.613l-.188-.369a.153.153,0,0,1,.274-.137l.171.342a15.629,15.629,0,0,1,.747,2.686,8.994,8.994,0,0,1,.683,1.258c.24.416-.252,1.207-.4,1.423l-.108.595Z" transform="translate(-22.929 -18.314)" fill="#00539f"/></g><g transform="translate(31.504 18.503)"><path d="M38.917,26.225a7.424,7.424,0,0,0-.57,1.708c0,.228.114.228.285.228H39.2V28.5h-2.05v-.341h.341a.263.263,0,0,0,.285-.171c.4-1.082,1.424-3.473,2.449-5.865a5.056,5.056,0,0,1,.8-.171c.114,0,.114.057.114.114,0,.114-.171.171-.171.342,0,.342,1.082,3.3,1.651,4.84.285.8.4.911.74.911h.228V28.5H41.081v-.341h.4c.228,0,.228,0,.171-.228l-.57-1.708H38.917Zm1.139-2.79c-.341.8-.683,1.594-.968,2.391H40.91l-.854-2.391Z" transform="translate(-37.09 -21.892)" fill="#00539f" fill-rule="evenodd"/><path d="M43.638,28.554h-2.63v-.465h.461a.632.632,0,0,0,.147-.008c0-.008-.02-.076-.037-.143l-.554-1.661H38.947a7.339,7.339,0,0,0-.548,1.646c0,.166.047.166.223.166h.631v.465H37.08v-.465h.4a.2.2,0,0,0,.229-.137c.4-1.074,1.433-3.5,2.437-5.838l.021-.049.027-.009a5.1,5.1,0,0,1,.817-.174c.176,0,.176.123.176.176a.271.271,0,0,1-.088.175.25.25,0,0,0-.083.166,46.388,46.388,0,0,0,1.647,4.819c.282.79.381.87.682.87h.29v.465Zm-2.506-.124h2.381v-.217h-.166c-.386,0-.512-.151-.8-.952A50.364,50.364,0,0,1,40.894,22.4a.362.362,0,0,1,.113-.248c.036-.041.057-.067.057-.094a.147.147,0,0,0,0-.044s-.009-.008-.048-.008a5.158,5.158,0,0,0-.751.159c-1,2.34-2.04,4.759-2.436,5.836a.327.327,0,0,1-.343.212H37.2v.217h1.926v-.217h-.507c-.163,0-.347,0-.347-.29a7.33,7.33,0,0,1,.575-1.733l.016-.037h2.248L41.7,27.9c.035.139.052.206.011.258s-.107.052-.24.052h-.337v.217Zm-.145-2.552h-2l.03-.083c.285-.8.632-1.609.968-2.393H40.1Zm-1.822-.124h1.646l-.772-2.159C39.736,24.3,39.426,25.034,39.166,25.754Z" transform="translate(-37.08 -21.882)" fill="#fff"/></g><g transform="translate(10.654 18.391)"><path d="M12.792,21.821c.285,0,.512.057.8.057s.569-.057.854-.057c.4,1.651.854,3.3,1.31,5.011.569-1.708,1.2-3.359,1.708-5.011h1.025c.455,1.651,1.082,3.3,1.594,5.011.512-1.651,1.082-3.359,1.481-5.011h.911c-.854,2.278-1.594,4.555-2.334,6.833-.171,0-.342-.057-.455-.057-.171,0-.342.057-.512.057-.456-1.651-1.025-3.246-1.651-4.9-.512,1.594-1.139,3.189-1.708,4.9-.171,0-.342-.057-.512-.057s-.342.057-.512.057c-.569-2.221-1.253-4.385-1.936-6.548l-.057-.285Z" transform="translate(-12.719 -21.762)" fill="#00539f" fill-rule="evenodd"/><path d="M20.168,28.7h-.043a1.577,1.577,0,0,1-.283-.034,1.06,1.06,0,0,0-.172-.023,1.534,1.534,0,0,0-.247.028,1.619,1.619,0,0,1-.266.029h-.045L19.1,28.66c-.466-1.689-1.06-3.332-1.59-4.734-.262.8-.547,1.6-.848,2.431-.268.746-.546,1.517-.809,2.306l-.013.041H15.8a1.617,1.617,0,0,1-.266-.029,1.448,1.448,0,0,0-.493,0,1.62,1.62,0,0,1-.266.029h-.046l-.012-.045c-.569-2.22-1.263-4.419-1.935-6.545l-.073-.362h.072a3.591,3.591,0,0,1,.405.029,3.478,3.478,0,0,0,.392.028c.139,0,.283-.014.421-.028s.288-.029.433-.029h.047l.011.045c.315,1.306.66,2.59,1.025,3.948l.233.87c.211-.626.43-1.25.643-1.856.358-1.019.7-1.982,1-2.967l.013-.042h1.114l.012.044c.256.928.573,1.877.88,2.8.221.661.449,1.343.658,2.029q.128-.411.259-.826c.415-1.318.845-2.682,1.163-4l.011-.045h1.043l-.03.08c-.855,2.281-1.607,4.594-2.334,6.831Zm-4.883-.176a1.621,1.621,0,0,1,.266.03,1.873,1.873,0,0,0,.2.027c.259-.776.532-1.534.8-2.267.32-.89.623-1.732.9-2.588l.112,0c.541,1.426,1.158,3.116,1.641,4.858a1.911,1.911,0,0,0,.2-.026,1.237,1.237,0,0,1,.46,0,1.771,1.771,0,0,0,.219.031c.715-2.2,1.453-4.47,2.292-6.713H21.6c-.317,1.3-.742,2.654-1.154,3.959q-.16.508-.317,1.01h-.114c-.224-.746-.472-1.49-.713-2.21-.3-.905-.615-1.841-.87-2.758h-.936c-.3.973-.653,1.967-.991,2.929-.234.665-.476,1.353-.7,2.041l-.114,0q-.142-.534-.284-1.061c-.361-1.344-.7-2.613-1.015-3.905-.125,0-.252.015-.375.028-.141.014-.288.029-.433.029a3.591,3.591,0,0,1-.405-.029c-.1-.011-.208-.023-.319-.027l.042.212c.666,2.107,1.356,4.292,1.923,6.5a1.9,1.9,0,0,0,.2-.026A1.647,1.647,0,0,1,15.285,28.528Z" transform="translate(-12.707 -21.752)" fill="#fff"/></g><g transform="translate(22.396 18.505)"><path d="M31.457,24.744V23.492c0-1.082-.114-1.139-.854-1.253v-.285H33.62v.285c-.8.114-.854.171-.854,1.253v3.416c0,1.082.057,1.139.854,1.253v.284H30.545v-.284c.8-.114.911-.171.911-1.253V25.257h-2.79v1.651c0,1.082.057,1.139.854,1.253v.284H26.5v-.284c.8-.114.854-.171.854-1.253V23.492c0-1.082-.057-1.139-.854-1.253v-.285h2.961v.285c-.74.114-.8.171-.8,1.253v1.252Z" transform="translate(-26.443 -21.895)" fill="#00539f" fill-rule="evenodd"/><path d="M33.669,28.495H30.476v-.4l.051-.007c.746-.107.86-.123.86-1.194V25.306H28.716V26.9c0,1.079.061,1.088.8,1.194l.051.007v.4H26.433v-.4l.051-.007c.742-.106.8-.115.8-1.194V23.482c0-1.079-.061-1.088-.8-1.194l-.051-.007v-.4h3.079v.395l-.05.008c-.691.106-.747.115-.747,1.194v1.193h2.672V23.482c0-1.071-.107-1.087-.8-1.194l-.05-.008v-.395H33.67v.4l-.051.007c-.742.106-.8.115-.8,1.194V26.9c0,1.08.061,1.088.8,1.194l.051.007v.4Zm-3.075-.119h2.956V28.2c-.789-.117-.854-.233-.854-1.3V23.482c0-1.071.065-1.187.854-1.3V22h-2.9v.175c.734.117.854.235.854,1.3v1.312H28.6V23.482c0-1.069.061-1.186.8-1.3V22H26.552v.174c.789.117.854.233.854,1.3V26.9c0,1.071-.065,1.188-.854,1.3v.174h2.9V28.2c-.789-.117-.854-.233-.854-1.3V25.187h2.909V26.9c0,1.079-.116,1.187-.911,1.3v.174Z" transform="translate(-26.433 -21.885)" fill="#fff"/></g><g transform="translate(11.415 5.587)"><path d="M13.706,18.9a.109.109,0,0,1-.105-.133,3.277,3.277,0,0,1,.843-1.6A5.359,5.359,0,0,0,15.6,15.335a.108.108,0,0,1,.2.085c-.028.067-.7,1.632-1.243,1.931-.464.31-.742,1.456-.745,1.468A.108.108,0,0,1,13.706,18.9ZM20.2,16.91a.108.108,0,0,1-.078-.034,8.884,8.884,0,0,1-1.733-3.118.108.108,0,1,1,.207-.063,8.84,8.84,0,0,0,1.683,3.032.108.108,0,0,1-.078.183Zm-5.751-3.872a.108.108,0,0,1-.1-.077,6.826,6.826,0,0,1,1.1-6.138.108.108,0,1,1,.164.142,6.6,6.6,0,0,0-1.06,5.934.108.108,0,0,1-.072.135A.1.1,0,0,1,14.446,13.038Z" transform="translate(-13.597 -6.785)" fill="#fff"/></g><g transform="translate(25.471 10.591)"><path d="M30.087,19.073a.059.059,0,0,1-.039-.1l2.959-2.624a2.365,2.365,0,0,1-1.17-1.6,2.918,2.918,0,0,1,.654-2.1.059.059,0,1,1,.091.077,2.85,2.85,0,0,0-.627,2,2.29,2.29,0,0,0,1.182,1.555l.068.042-3.077,2.729A.059.059,0,0,1,30.087,19.073Z" transform="translate(-30.028 -12.634)" fill="#00539f"/></g><g transform="translate(16.438 6.682)"><path d="M19.622,12.47a.153.153,0,0,1-.056-.3c.648-.257,2.294-1.126,2.126-2.051a2.959,2.959,0,0,0-1.023-1.784.153.153,0,0,1,.184-.245,3.212,3.212,0,0,1,1.141,1.98c.246,1.355-2.211,2.343-2.316,2.385A.153.153,0,0,1,19.622,12.47Z" transform="translate(-19.469 -8.064)" fill="#fff"/></g><g transform="translate(16.434 6.392)"><path d="M19.621,12.426a.157.157,0,0,1-.051-.306c.708-.241,2.51-1.059,2.344-1.929a4.144,4.144,0,0,0-1.369-2.185.157.157,0,0,1,.2-.243,4.382,4.382,0,0,1,1.48,2.378c.249,1.307-2.439,2.238-2.554,2.277A.157.157,0,0,1,19.621,12.426Z" transform="translate(-19.463 -7.726)" fill="#00539f"/></g><g transform="translate(11.553 13.07)"><path d="M14.429,16.146a1.62,1.62,0,0,1-.586-.115.141.141,0,0,1,.111-.26.969.969,0,0,0,1.087-.186.142.142,0,1,1,.221.177A1.024,1.024,0,0,1,14.429,16.146Z" transform="translate(-13.758 -15.532)" fill="#00539f"/></g><g transform="translate(16.315 7.974)"><path d="M19.43,11.9a.105.105,0,0,1-.066-.187c.32-.26,1.143-1.036,1.1-1.5a.568.568,0,0,0-.2-.385.244.244,0,0,0-.179-.035.106.106,0,0,1-.128-.074.1.1,0,0,1,.072-.128.446.446,0,0,1,.343.057.755.755,0,0,1,.3.538c.061.672-1.049,1.592-1.176,1.695A.106.106,0,0,1,19.43,11.9Z" transform="translate(-19.325 -9.575)" fill="#fff"/></g><g transform="translate(12.053 5.701)"><path d="M14.838,17.5a.108.108,0,0,1-.065-.195,6.9,6.9,0,0,0,1.1-1.837.108.108,0,0,1,.2.088A7.278,7.278,0,0,1,14.9,17.477.108.108,0,0,1,14.838,17.5Zm5.637-.456a.108.108,0,0,1-.082-.038,9.98,9.98,0,0,1-1.673-3.171.108.108,0,1,1,.207-.063,9.954,9.954,0,0,0,1.63,3.092.108.108,0,0,1-.082.179Zm-5.751-3.929a.108.108,0,0,1-.1-.078,6.794,6.794,0,0,1,1.162-6.081.108.108,0,0,1,.162.143,6.572,6.572,0,0,0-1.116,5.877.108.108,0,0,1-.074.134A.1.1,0,0,1,14.724,13.114Z" transform="translate(-14.343 -6.919)" fill="#ffd65a"/></g><g transform="translate(16.543 8.038)"><path d="M19.7,12.025a.105.105,0,0,1-.068-.185c.32-.274,1.131-1.088,1.047-1.553s-.326-.428-.337-.427a.105.105,0,0,1-.032-.208c.006,0,.444-.065.576.6s-.99,1.643-1.117,1.752A.1.1,0,0,1,19.7,12.025Z" transform="translate(-19.591 -9.65)" fill="#ffd65a"/></g><g transform="translate(2.925 14.237)"><path d="M12.1,17.807,6.577,24.754l-2.9-.4.285.626,2.79-.057L13.467,16.9Z" transform="translate(-3.673 -16.896)" fill="#00539f" fill-rule="evenodd"/></g><g transform="translate(3.438 22.436)"><path d="M4.272,26.48v.512a1.88,1.88,0,0,0,2.05-.056V26.48Z" transform="translate(-4.272 -26.48)" fill="#00539f" fill-rule="evenodd"/></g><g transform="translate(3.401 22.399)"><path d="M5.309,27.309a2.217,2.217,0,0,1-1.063-.291l-.017-.011v-.533a.037.037,0,1,1,.073,0v.492a1.842,1.842,0,0,0,1.977-.054v-.438a.037.037,0,1,1,.073,0v.474l-.014.011A1.659,1.659,0,0,1,5.309,27.309Z" transform="translate(-4.229 -26.437)" fill="#00539f"/></g><g transform="translate(3.401 21.944)"><path d="M5.3,26.916c.569,0,1.025-.227,1.025-.512,0-.227-.456-.455-1.025-.455s-1.025.228-1.025.455c0,.285.456.512,1.025.512Z" transform="translate(-4.236 -25.911)" fill="#ed1c2e" fill-rule="evenodd"/><path d="M5.291,26.946c-.6,0-1.062-.242-1.062-.549,0-.262.5-.492,1.062-.492s1.062.23,1.062.492C6.353,26.7,5.886,26.946,5.291,26.946Zm0-.968c-.557,0-.988.225-.988.419,0,.262.443.476.988.476s.988-.213.988-.476C6.279,26.2,5.848,25.979,5.291,25.979Z" transform="translate(-4.229 -25.905)" fill="#00539f"/></g></g></g></g></svg>