<svg xmlns="http://www.w3.org/2000/svg" xmlns:xlink="http://www.w3.org/1999/xlink" width="45" height="45" viewBox="0 0 45 45"><defs><clipPath id="a"><circle cx="22.5" cy="22.5" r="22.5" transform="translate(36.12 1554.022)" fill="#858585" stroke="#707070" stroke-width="1"/></clipPath></defs><g transform="translate(-36.12 -1554.022)" clip-path="url(#a)"><g transform="translate(35.12 1557.929)"><path d="M6.34,29.981s-1.074-1.31.288-1.624c1.467-.55,3.719-1.257,4.06-3.117.55-3.117,1.86-16.449,1.86-16.449l.393.1c.052,1.807-1.257,14.406-1.86,18.492-.445,1.7-3.955,3.51-4.741,2.593Z" transform="translate(0 0.761)" fill="#ef3e33" fill-rule="evenodd"/><path d="M15.924,4.559c-3.8-1.31-6.627,3.9-4.453,6.548-.183-.733.183-1.022.733-.445.393.5.786-.052.341-.838-.786-1.362-.288-5.579,3.379-5.265Z" transform="translate(0.631 0.175)" fill="#fff" fill-rule="evenodd"/><path d="M15.618,5.467c-.1-.393.576-3.065,2.776-2.3C20.83,4,19.573,8.637,16.3,8.532,19.076,7.851,19.076,4.42,17.818,4c-.891-.314-1.86.236-2.2,1.467Z" transform="translate(1.277 0)" fill="#fff" fill-rule="evenodd"/><path d="M11.6,15.15a.5.5,0,0,1,.341.917c3.8.393,12-5.369,8.591-10.4,1.65,4.427-4.505,8.722-8.879,8.617-1.022-.052-.891,1.022.183.891H11.6Z" transform="translate(0.662 0.349)" fill="#fff" fill-rule="evenodd"/><path d="M14.121,19.2a10.616,10.616,0,0,1-1.65-.157,2.63,2.63,0,0,0,1.467.629c.367.079.471-.471.183-.471Z" transform="translate(0.863 2.115)" fill="#fff" fill-rule="evenodd"/><path d="M20.884,6.64c1.179,2.724,1.86,10.058-3.8,13.332-.393.157-1.231,1.467-.183,1.074,9.063-3.876,5.579-12.887,3.981-14.406Z" transform="translate(1.381 0.477)" fill="#fff" fill-rule="evenodd"/><path d="M11.638,26.409c3.038-3.615,6.5-7.465,6.679-12.31,0-1.074-1.991-.1-2.148.969-.288,2.593-1.886,7.1-4.531,11.341Z" transform="translate(0.753 1.401)" fill="#fff" fill-rule="evenodd"/><path d="M13.072,6.806c1.807-.341,3.8,1.755,4.3,3.9.1.786-1.257,1.572-1.362.838-.052-.681-.838-4.4-2.934-4.741Z" transform="translate(0.942 0.494)" fill="#fff" fill-rule="evenodd"/><path d="M24.437,9.1a44.075,44.075,0,0,0,5.186,1.7s-4.06-.445-5.029-.576c-1-.157-1.074-1.414-.157-1.126Z" transform="translate(2.359 0.796)" fill="#fff" fill-rule="evenodd"/><path d="M23.833,16.615c2.541-.55,10.687-1.519,12.6-1.572,1.65-.1-11.368,0-12.363.183-.969.21-1.2,1.624-.236,1.388Z" transform="translate(2.282 1.582)" fill="#fff" fill-rule="evenodd"/><path d="M24.291,11.894c2.593.445,15.139,1.231,18.361,1.231,0,0-17.025.288-18.02.157-.969-.157-1.31-1.572-.34-1.388Z" transform="translate(2.348 1.169)" fill="#fff" fill-rule="evenodd"/><path d="M21.337,22.939a3.278,3.278,0,0,1-3.326,2.7,2.239,2.239,0,0,1-2.436-2.7A3.345,3.345,0,0,1,18.9,20.267a2.27,2.27,0,0,1,2.436,2.672Zm-3.85.052a.771.771,0,0,0,.838.969,1.148,1.148,0,0,0,1.126-.969.8.8,0,0,0-.838-1.022,1.18,1.18,0,0,0-1.126,1.022Z" transform="translate(1.268 2.277)" fill="#ef3e33" fill-rule="evenodd"/><path d="M21.894,20.36h1.964l.288,2.724H24.2a4.133,4.133,0,0,1,.236-.681l.891-2.043h1.912l.052,5.186H25.483l.183-2.829h-.052a3.387,3.387,0,0,0-.183.55l-1.126,2.3H23.178l-.288-2.2a2.348,2.348,0,0,1-.052-.629h-.052c-.052.183-.1.445-.157.629l-.524,2.2h-1.86l1.65-5.212Z" transform="translate(1.89 2.29)" fill="#ef3e33" fill-rule="evenodd"/><path d="M27.445,20.36h1.807l-.314,1.755h1.179l.236-1.755h1.807l-.76,5.16H29.54l.288-1.807H28.7l-.288,1.807H26.607Z" transform="translate(2.73 2.29)" fill="#ef3e33" fill-rule="evenodd"/><path d="M32.874,25.52H30.91L33.5,20.36h2.1l1.021,5.16H34.629l-.052-.629H33.163Z" transform="translate(3.299 2.29)" fill="#ef3e33" fill-rule="evenodd"/><path d="M33.808,24.441l.1-.576s0,.052.629.183c-.1-.341.288-.445.917-.891-.576.052-.236-.288-.1-.55-.733.341-.55,0-.445-.183-1.179,1.414-.393-.052-.236-.5-.445.393-.445-.052-.5-.341-.157.288-.288.733-.576.341,0,.445.288,1.912-.445.5.052.183.1.55-.5.183.052.236.288.576-.288.55.5.445.891.55.629.891a3.367,3.367,0,0,0,.733-.183l-.1.576Z" transform="translate(3.491 2.452)" fill="#fff" fill-rule="evenodd"/><path d="M35.785,20.989h-.157v-.55h-.183V20.36h.5v.079h-.157Z" transform="translate(3.898 2.29)" fill="#fff" fill-rule="evenodd"/><path d="M36.556,20.989h-.1v-.55H36.4l-.1.55h-.079l-.157-.55h0v.55h-.1V20.36h.21l.1.471h0l.079-.471h.21Z" transform="translate(3.965 2.29)" fill="#fff" fill-rule="evenodd"/></g></g></svg>