<svg xmlns="http://www.w3.org/2000/svg" width="45" height="39.438" viewBox="0 0 45 39.438"><g transform="translate(-0.938 -0.906)"><path d="M34.829,12.27c-.011-.025-.022-.048-.035-.073,0,0-.1-.2-.194-.374-.043-.406-.293-2.7-.293-2.7a1.282,1.282,0,0,0-.135-.447,4.926,4.926,0,0,0-2.133-2.312,1.31,1.31,0,0,0-.252-.064,21.963,21.963,0,0,0-2.646-.23,1.511,1.511,0,0,0-.059-.191,1.234,1.234,0,0,0-.174-.324s-.457-.621-.561-.761c-.267-.491-.95-1.2-2.642-1-.037,0-.074.01-.111.017l-1.253.259a1.243,1.243,0,0,0-.528.244A2.93,2.93,0,0,0,22.622,6.17c0,.023,0,.045,0,.067l-.033,1.109v.038a1.28,1.28,0,0,0,.055.374,10.018,10.018,0,0,0-2.329,1.925,1.121,1.121,0,0,0-.115.176A4.673,4.673,0,0,0,19.732,12a6.054,6.054,0,0,0,.079.943,1.253,1.253,0,0,0-.175.172,4.013,4.013,0,0,0-.714,1.81,5.658,5.658,0,0,0-.433,2.219c0,.068,0,.139.005.208a25.551,25.551,0,0,0-.25,2.78c-.031.034-.063.066-.092.1-.315.394-1.207,2.2-1.527,5.767,0,.013,0,.027,0,.04a1.253,1.253,0,0,0-.157.418A5.358,5.358,0,0,0,15.108,28.3a1.02,1.02,0,0,0-.036.106,3.583,3.583,0,0,0-.133.968,2.877,2.877,0,0,0,.2,1.07,3.433,3.433,0,0,0-.046.508A1.328,1.328,0,0,0,17.163,32.1l.288-.188a2.153,2.153,0,0,0,1.611-.659,2.5,2.5,0,0,0,.465-.711,3.818,3.818,0,0,0,.748-1.458,2.488,2.488,0,0,0,.47-.631,16.218,16.218,0,0,0,1.747-1.8,2.738,2.738,0,0,0,1.928.613,3.375,3.375,0,0,0,1.59-.619c-.781,2.91-1.654,6.16-1.654,6.16l-.006.026a4.775,4.775,0,0,0-.145,1.023v.063a1.593,1.593,0,0,0,.331.946l.016.023a1.391,1.391,0,0,0,.476.438,1.285,1.285,0,0,0,.539.4,3.8,3.8,0,0,0,2.414.036,1.281,1.281,0,0,0,.879-1.2s0-.384.006-.487a2.275,2.275,0,0,0,.222-.869V33.16a1.424,1.424,0,0,0-.413-1.011,1.461,1.461,0,0,0-.7-.39c.489-1.83,1.579-5.921,1.909-7.161a2.086,2.086,0,0,0,1.463-1.949c0-.019,0-.04,0-.06.028-.061.065-.144.065-.144.013-.027.024-.052.035-.079a1.892,1.892,0,0,0,.122-.673,1.836,1.836,0,0,0-.033-.34,1.713,1.713,0,0,0,.061-.447,1.659,1.659,0,0,0-.383-1.055c.2-.781.435-1.648.6-2.278a1.284,1.284,0,0,0,.333-.208,11.163,11.163,0,0,0,2.5-2.983,1.287,1.287,0,0,0,.1-.452,1.414,1.414,0,0,0,.27-.848,1.98,1.98,0,0,0-.187-.812"/><path d="M41.719,13.977a1.286,1.286,0,0,0-1.959-1.093,9.975,9.975,0,0,1-3.538,1.351c-.022-.218-.048-.5-.048-.5a1.284,1.284,0,0,0-1.981-.949,41.61,41.61,0,0,1-3.807,2.222c.222-1.085.626-2.811,1.372-5.513a1.407,1.407,0,0,0,.046-.341,1.285,1.285,0,0,0-1.448-1.273,9.18,9.18,0,0,1-1.824.075A3.991,3.991,0,0,1,27.684,5.8a1.279,1.279,0,0,0-1.848-.937c-.322-.775-.733-1.8-.955-2.363l-.317-.788a1.278,1.278,0,0,0-2.375,0l-.305.759c-.208.522-.634,1.59-.967,2.392a1.279,1.279,0,0,0-1.848.937,4.485,4.485,0,0,1-.757,2.058,11.183,11.183,0,0,1-1.863-.72,1.286,1.286,0,0,0-1.8,1.5c.839,3.04,1.323,5.042,1.6,6.317a42.243,42.243,0,0,1-3.692-2.163,1.283,1.283,0,0,0-1.98.949s-.028.281-.049.5a10,10,0,0,1-3.538-1.351,1.284,1.284,0,0,0-1.957,1.093,1.248,1.248,0,0,0,.016.2,12.832,12.832,0,0,0,1.268,4.165,1.3,1.3,0,0,0-.354.786c0,.033,0,.065,0,.1a1.286,1.286,0,0,0,.355.889,15.049,15.049,0,0,1,1.625,1.943,5.654,5.654,0,0,1,.316.73,4.133,4.133,0,0,1-1.154.324,1.284,1.284,0,0,0-.662,2.278,32.925,32.925,0,0,0,4.986,2.557l.781.686a1.289,1.289,0,0,0,.7.311l.188.022c-.647,1.246-2.985,1.909-3.014,1.917a1.285,1.285,0,0,0-.953,1.185c0,.018,0,.037,0,.056a1.282,1.282,0,0,0,.843,1.206,25.818,25.818,0,0,0,5.675,1.22c.182.162.364.327.364.327a1.293,1.293,0,0,0,.9.326l.934-.034.126.218A1.283,1.283,0,0,0,19.3,36c1.446-.246,2.89-1.482,4.08-2.547,1.19,1.066,2.634,2.3,4.08,2.547a1.284,1.284,0,0,0,1.326-.622s.078-.137.126-.218l.935.034a1.3,1.3,0,0,0,.9-.326s.183-.165.365-.327a25.782,25.782,0,0,0,5.673-1.22,1.283,1.283,0,0,0,.844-1.206v-.056a1.289,1.289,0,0,0-.952-1.186c-.03-.007-2.368-.67-3.016-1.916l.189-.022a1.3,1.3,0,0,0,.7-.311l.781-.686a32.841,32.841,0,0,0,4.986-2.557,1.285,1.285,0,0,0-.661-2.278,4.134,4.134,0,0,1-1.154-.324,5.763,5.763,0,0,1,.317-.731,15.3,15.3,0,0,1,1.622-1.938,1.289,1.289,0,0,0,.359-.893c0-.031,0-.063,0-.094a1.3,1.3,0,0,0-.355-.788,12.84,12.84,0,0,0,1.27-4.165,1.511,1.511,0,0,0,.015-.2"/><path d="M40.858,14.042c0-.023,0-.044,0-.065a.428.428,0,0,0-.652-.364c-.844.521-3.244,1.724-4.766,1.449-.039-.395-.122-1.242-.122-1.242a.429.429,0,0,0-.661-.317A26.461,26.461,0,0,1,29.289,16.4a51.455,51.455,0,0,1,1.644-7.127.41.41,0,0,0,.015-.113.428.428,0,0,0-.483-.425,6.977,6.977,0,0,1-2.29.02c-.385-.18-1.057-1.079-1.337-2.815a.426.426,0,0,0-.652-.292,5,5,0,0,1-.77.407c-.291-.629-1-2.409-1.332-3.234l-.313-.779a.425.425,0,0,0-.791,0l-.3.752c-.332.833-1.05,2.63-1.34,3.262a4.973,4.973,0,0,1-.771-.407.427.427,0,0,0-.406-.031.433.433,0,0,0-.248.323c-.277,1.725-.944,2.623-1.33,2.81a7.108,7.108,0,0,1-2.509-.838.428.428,0,0,0-.614.385.437.437,0,0,0,.015.113c1.339,4.858,1.785,7.094,1.931,7.976A27.552,27.552,0,0,1,12.089,13.5a.429.429,0,0,0-.66.317s-.083.847-.12,1.242c-1.522.275-3.923-.929-4.766-1.449a.428.428,0,0,0-.653.364.464.464,0,0,0,.005.065,12.007,12.007,0,0,0,1.244,4.024,3.938,3.938,0,0,1,.2.435,1.655,1.655,0,0,1-.36.38.426.426,0,0,0-.166.308.305.305,0,0,0,0,.033.433.433,0,0,0,.119.3A15.844,15.844,0,0,1,8.7,21.656a5.975,5.975,0,0,1,.55,1.485,4.117,4.117,0,0,1-2.051.815.43.43,0,0,0-.365.305.44.44,0,0,0-.017.121.426.426,0,0,0,.16.334,35.522,35.522,0,0,0,4.915,2.493l.883.775a.429.429,0,0,0,.232.1l1.109.131c0,.037,0,.074,0,.111,0,2.337-3.781,3.363-3.821,3.373a.43.43,0,0,0-.319.395c0,.005,0,.012,0,.02a.428.428,0,0,0,.281.4A25.725,25.725,0,0,0,16,33.718l.575.514a.424.424,0,0,0,.3.109l1.447-.052.384.664a.428.428,0,0,0,.442.207c1.287-.218,2.713-1.5,3.858-2.526l.364-.323c.179.158.363.322.363.322,1.147,1.028,2.573,2.309,3.86,2.527a.426.426,0,0,0,.441-.207s.239-.414.385-.664l1.448.052a.428.428,0,0,0,.3-.109s.422-.379.574-.514a25.722,25.722,0,0,0,5.744-1.2.428.428,0,0,0,.283-.4V32.1a.433.433,0,0,0-.319-.395c-.041-.011-3.823-1.036-3.823-3.374,0-.036,0-.073,0-.11l1.109-.131a.429.429,0,0,0,.233-.1l.883-.775a35.518,35.518,0,0,0,4.914-2.493.423.423,0,0,0,.161-.334.385.385,0,0,0-.017-.121.43.43,0,0,0-.365-.305,4.112,4.112,0,0,1-2.051-.815,6.029,6.029,0,0,1,.55-1.486,16.235,16.235,0,0,1,1.763-2.135.429.429,0,0,0,.122-.3V19.19a.425.425,0,0,0-.168-.309,1.733,1.733,0,0,1-.361-.38,3.933,3.933,0,0,1,.2-.436,12.054,12.054,0,0,0,1.244-4.023" fill="#fff"/><path d="M39.512,19.221a1.714,1.714,0,0,1-.554-.7s.011-.044.035-.122a13.42,13.42,0,0,0,1.442-4.425s-3.374,2.086-5.386,1.432L34.9,13.863s-4.977,3.257-6.047,2.985c0,0-.23-.8,1.67-7.692a7.8,7.8,0,0,1-2.527-.019C27.419,8.867,26.7,7.791,26.416,6c0,0-.941.6-1.233.513-.12-.04-1.517-3.608-1.808-4.318-.291.71-1.688,4.278-1.808,4.318-.29.09-1.233-.513-1.233-.513-.288,1.787-1,2.864-1.575,3.134s-2.872-.844-2.872-.844c1.9,6.894,2.016,8.553,2.015,8.554-1.07.272-6.046-2.985-6.046-2.985L11.7,15.409c-2.01.654-5.387-1.432-5.387-1.432A13.464,13.464,0,0,0,7.759,18.4c.023.078.036.122.036.122a1.709,1.709,0,0,1-.555.7,16.68,16.68,0,0,1,1.837,2.235,5.9,5.9,0,0,1,.632,1.831,4.308,4.308,0,0,1-2.466,1.095,37.49,37.49,0,0,0,4.88,2.462l.933.819,1.445.172c.567,3.063-4.093,4.282-4.093,4.282A25.475,25.475,0,0,0,16.184,33.3l.68.609,1.7-.061.514.885c1.408-.238,3.121-1.989,4.295-3,1.173,1.008,2.888,2.759,4.295,3l.513-.885,1.7.061.681-.609a25.483,25.483,0,0,0,5.779-1.188s-4.662-1.22-4.1-4.282l1.446-.172.933-.819a37.408,37.408,0,0,0,4.879-2.462,4.311,4.311,0,0,1-2.465-1.095,5.887,5.887,0,0,1,.633-1.831,16.661,16.661,0,0,1,1.838-2.235" fill="#be3427"/><path d="M45.831,32.066a1.282,1.282,0,0,0-1.176-.771h-10.5a1.279,1.279,0,0,0-.757.249,1.276,1.276,0,0,0-.755-.249H28.863a1.287,1.287,0,0,0-1.2.834l-.6,1.6H26.78l.261-.7a1.253,1.253,0,0,0,.083-.451A1.284,1.284,0,0,0,25.841,31.3H22.059a1.284,1.284,0,0,0-1.2.834l-.059.157a3.039,3.039,0,0,0-2.52-.99H2.221a1.283,1.283,0,0,0-.937,2.16s.5.536.653.7c0,.013,0,.028,0,.042a1.284,1.284,0,0,0,.345.876s.5.537.653.7c0,.014,0,.029,0,.043a1.279,1.279,0,0,0,.346.876l.756.81a1.284,1.284,0,0,0,.939.408H6.785a2.333,2.333,0,0,0,.4,1.316A2.962,2.962,0,0,0,9.8,40.344h6.048a4.708,4.708,0,0,0,2.624-.731,1.217,1.217,0,0,0,.1.177,1.282,1.282,0,0,0,1.056.553h3.779a1.283,1.283,0,0,0,1.2-.833s.331-.878.6-1.6h.283c-.109.284-.263.695-.263.695a1.292,1.292,0,0,0,.148,1.182,1.283,1.283,0,0,0,1.055.553h3.781a1.287,1.287,0,0,0,.757-.248,1.281,1.281,0,0,0,.754.248H35.5a1.281,1.281,0,0,0,1.2-.833s.328-.878.6-1.6h3.516a1.285,1.285,0,0,0,.944-.413l1.494-1.621a1.283,1.283,0,0,0,.27-.46,1.289,1.289,0,0,0,.567-.348l1.5-1.62a1.274,1.274,0,0,0,.341-.873,1.243,1.243,0,0,0-.106-.513"/><path d="M32.994,32.336a.424.424,0,0,0-.35-.184H28.863a.429.429,0,0,0-.4.277l-.807,2.154H25.545l.7-1.853a.448.448,0,0,0,.026-.15.423.423,0,0,0-.428-.428H22.059a.428.428,0,0,0-.4.277L19.227,38.91a.427.427,0,0,0,.4.578h3.781a.426.426,0,0,0,.4-.277l.808-2.154h2.109c-.25.672-.694,1.853-.694,1.853a.424.424,0,0,0,.048.395.434.434,0,0,0,.352.184h3.781a.428.428,0,0,0,.4-.277l2.431-6.481a.426.426,0,0,0-.05-.394" fill="#fff"/><path d="M45.048,32.409a.431.431,0,0,0-.394-.258h-10.5a.43.43,0,0,0-.4.278L31.324,38.91a.426.426,0,0,0,.4.578h3.779a.428.428,0,0,0,.4-.277l.807-2.154h4.109a.429.429,0,0,0,.315-.138L42.631,35.3a.43.43,0,0,0,.113-.29.4.4,0,0,0-.037-.172.416.416,0,0,0-.209-.211h.657a.422.422,0,0,0,.313-.137l1.5-1.62a.431.431,0,0,0,.078-.462" fill="#fff"/><path d="M20.189,32.9a2.182,2.182,0,0,0-1.91-.746H2.222a.428.428,0,0,0-.313.721l.756.81a.432.432,0,0,0,.313.136h.056a.42.42,0,0,0-.209.212.414.414,0,0,0-.035.171.425.425,0,0,0,.115.291l.756.81a.43.43,0,0,0,.313.136h.056a.424.424,0,0,0-.129.675l.756.809a.427.427,0,0,0,.313.136H7.826l-.087.232a1.768,1.768,0,0,0-.1.6,1.489,1.489,0,0,0,.253.859,2.176,2.176,0,0,0,1.909.745h6.048a3.315,3.315,0,0,0,3.276-1.9l1.215-3.24a1.665,1.665,0,0,0-.151-1.454m-6,4.115h-1.51A.6.6,0,0,1,12.563,37c.119-.319.79-2.107.79-2.107.091-.246.536-.263.541-.263H15.4a.822.822,0,0,1,.132.017l-.789,2.106c-.092.243-.556.261-.561.261" fill="#fff"/><path d="M28.863,32.58l-.911,2.431H24.927l.913-2.431H22.059l-2.43,6.48h3.779l.911-2.43h3.023l-.911,2.43h3.781l2.431-6.48Z"/><path d="M43.154,34.2l1.5-1.619h-10.5L31.724,39.06h3.781l.911-2.43h4.405l1.494-1.62H37.023l.3-.811Z"/><path d="M18.279,32.58H2.221l.756.811H9.954a3.227,3.227,0,0,0-.6.809H3.217l.756.812H9.051l-.3.809H4.211l.756.811H8.443l-.3.809s-.608,1.62,1.66,1.62h6.048a2.91,2.91,0,0,0,2.877-1.62L19.939,34.2s.608-1.619-1.66-1.619M14.188,37.44H12.676s-.736,0-.534-.54l.811-2.159c.2-.542.939-.542.939-.542H15.4s.756,0,.553.542l-.81,2.159c-.2.54-.958.54-.958.54"/><path d="M29.2,33.069c-.181.481-.911,2.431-.911,2.431H24.222l.911-2.431H22.4c-.191.512-1.686,4.5-2.064,5.5H23.07c.179-.481.912-2.431.912-2.431h4.067s-.648,1.731-.911,2.431h2.735c.191-.512,1.685-4.5,2.066-5.5Z" fill="#4f7033"/><path d="M29.2,33.069c-.181.481-.911,2.431-.911,2.431H24.222l.911-2.431H22.4c-.191.512-1.686,4.5-2.064,5.5H23.07c.179-.481.912-2.431.912-2.431h4.067s-.648,1.731-.911,2.431h2.735c.191-.512,1.685-4.5,2.066-5.5Z" fill="none" stroke="#4f7033" stroke-width="0.086"/><path d="M34.494,33.069c-.191.512-1.687,4.5-2.063,5.5h2.735l.911-2.431h4.531c.1-.112.3-.322.594-.641H36.321l.67-1.788h5.951l.6-.643Z" fill="#4f7033"/><path d="M34.494,33.069c-.191.512-1.687,4.5-2.063,5.5h2.735l.911-2.431h4.531c.1-.112.3-.322.594-.641H36.321l.67-1.788h5.951l.6-.643Z" fill="none" stroke="#4f7033" stroke-width="0.086"/><path d="M18.93,35.5h0l.551-1.471a.955.955,0,0,0,.042-.23.6.6,0,0,0-.091-.383,1.44,1.44,0,0,0-1.153-.346H12.231a2.892,2.892,0,0,0-1.759.515l-.195.172A2.664,2.664,0,0,0,9.8,34.4c-.009.025-.023.065-.045.12,0,0-.579,1.545-.608,1.62L8.6,37.612a.975.975,0,0,0-.042.232.6.6,0,0,0,.091.382,1.44,1.44,0,0,0,1.154.346h6.048a2.887,2.887,0,0,0,1.759-.514l.195-.173a2.673,2.673,0,0,0,.477-.646c.009-.024.023-.064.044-.12,0,0,.58-1.545.608-1.62m-2.516-.587-.81,2.16a1.5,1.5,0,0,1-1.416.857H12.676a1.188,1.188,0,0,1-.939-.415.817.817,0,0,1-.071-.784l.809-2.161a1.5,1.5,0,0,1,1.417-.856H15.4a1.194,1.194,0,0,1,.939.414.823.823,0,0,1,.071.785" fill="#4f7033"/><path d="M18.93,35.5h0l.551-1.471a.955.955,0,0,0,.042-.23.6.6,0,0,0-.091-.383,1.44,1.44,0,0,0-1.153-.346H12.231a2.892,2.892,0,0,0-1.759.515l-.195.172A2.664,2.664,0,0,0,9.8,34.4c-.009.025-.023.065-.045.12,0,0-.579,1.545-.608,1.62L8.6,37.612a.975.975,0,0,0-.042.232.6.6,0,0,0,.091.382,1.44,1.44,0,0,0,1.154.346h6.048a2.887,2.887,0,0,0,1.759-.514l.195-.173a2.673,2.673,0,0,0,.477-.646c.009-.024.023-.064.044-.12C18.323,37.118,18.9,35.574,18.93,35.5Zm-2.516-.587-.81,2.16a1.5,1.5,0,0,1-1.416.857H12.676a1.188,1.188,0,0,1-.939-.415.817.817,0,0,1-.071-.784l.809-2.161a1.5,1.5,0,0,1,1.417-.856H15.4a1.194,1.194,0,0,1,.939.414A.823.823,0,0,1,16.414,34.911Z" fill="none" stroke="#4f7033" stroke-width="0.086"/><path d="M34.329,13.766a.989.989,0,0,0,.261-.684,1.554,1.554,0,0,0-.152-.639.433.433,0,0,0-.022-.048s-.148-.281-.233-.447c-.031-.285-.3-2.784-.3-2.784a.852.852,0,0,0-.089-.3,4.653,4.653,0,0,0-1.9-2.106.9.9,0,0,0-.168-.042,21.3,21.3,0,0,0-2.944-.225,1.828,1.828,0,0,0-.1-.473.811.811,0,0,0-.115-.216l-.576-.781c-.2-.379-.744-.983-2.233-.812-.026,0-.05.007-.076.012l-1.251.257a.868.868,0,0,0-.353.163A2.526,2.526,0,0,0,23.05,6.2c0,.016,0,.031,0,.046l-.033,1.11a.193.193,0,0,0,0,.025.852.852,0,0,0,.14.469s.023.037.041.063a10.578,10.578,0,0,0-2.545,2.03,1.046,1.046,0,0,0-.076.119,4.209,4.209,0,0,0-.416,1.929,5.621,5.621,0,0,0,.12,1.122l-.183.146a.781.781,0,0,0-.129.126,3.674,3.674,0,0,0-.634,1.667,5.117,5.117,0,0,0-.416,2.086c0,.077,0,.158.007.238a24.8,24.8,0,0,0-.253,2.943,1.074,1.074,0,0,0-.184.18c-.274.341-1.127,2.093-1.435,5.537a.623.623,0,0,0,0,.077c0,.02,0,.039,0,.059a.855.855,0,0,0-.186.453s0,.041,0,.054a5.118,5.118,0,0,0-1.355,1.77c-.009.024-.017.047-.024.072a3.168,3.168,0,0,0-.113.841,2.408,2.408,0,0,0,.21,1.019,3.5,3.5,0,0,0-.06.563.915.915,0,0,0,.248.684c.543.569,1.207.1,1.492-.1,0,0,.048-.036.069-.053a1.74,1.74,0,0,0,1.421-.516,2.029,2.029,0,0,0,.41-.65,3.414,3.414,0,0,0,.737-1.461,1.985,1.985,0,0,0,.509-.665,14.756,14.756,0,0,0,2.022-2.138,2.608,2.608,0,0,0,1.943.8,2.941,2.941,0,0,0,1.638-.739c.028,0,.057-.007.08-.01a.919.919,0,0,0,.6-.335l-1.925,7.161c0,.005,0,.011,0,.017a4.319,4.319,0,0,0-.135.919c0,.017,0,.035,0,.052a1.149,1.149,0,0,0,.248.706l.024.035a.977.977,0,0,0,.4.34.856.856,0,0,0,.411.335,3.417,3.417,0,0,0,2.126.03.859.859,0,0,0,.587-.8s.007-.562.007-.566a.029.029,0,0,0,0-.014,1.883,1.883,0,0,0,.222-.784.159.159,0,0,0,0-.033,1,1,0,0,0-.291-.711,1.1,1.1,0,0,0-.8-.313c-.022,0-.046,0-.07,0l-.067.006c.372-1.394,1.84-6.9,2.111-7.916a.92.92,0,0,0,.174-.026,1.668,1.668,0,0,0,1.2-1.566c0-.043-.007-.087-.009-.129l.113-.245c.009-.019.015-.035.022-.052a1.469,1.469,0,0,0,.091-.51,1.453,1.453,0,0,0-.05-.359,1.368,1.368,0,0,0,.081-.446,1.189,1.189,0,0,0-.035-.284,1.242,1.242,0,0,0-.4-.64c.189-.715.576-2.179.718-2.715.072-.03.174-.071.174-.071a.9.9,0,0,0,.237-.147,11,11,0,0,0,2.39-2.835.842.842,0,0,0,.074-.35.553.553,0,0,0,0-.083.221.221,0,0,0,.015-.016.079.079,0,0,0-.009.008"/><path d="M34.007,13.484a.561.561,0,0,0,.152-.4,1.13,1.13,0,0,0-.111-.463l-.013-.024s-.211-.407-.267-.518c-.017-.151-.313-2.865-.313-2.865a.4.4,0,0,0-.043-.149c-.137-.264-.855-1.6-1.668-1.9a.477.477,0,0,0-.085-.021,19.3,19.3,0,0,0-3.3-.207c0-.071.009-.144.009-.218a1.608,1.608,0,0,0-.085-.551.386.386,0,0,0-.057-.108s-.533-.722-.593-.8c-.111-.254-.5-.771-1.824-.62l-.037.005L24.515,4.9a.422.422,0,0,0-.175.08,2.231,2.231,0,0,0-.865,1.261v.022l-.033,1.11v.012a.414.414,0,0,0,.07.234l.139.215a.059.059,0,0,0,.007.008v.2a.351.351,0,0,0,.012.088,11.086,11.086,0,0,0-2.682,2.079.559.559,0,0,0-.039.059A3.884,3.884,0,0,0,20.588,12a5.266,5.266,0,0,0,.168,1.282l-.4.313a.509.509,0,0,0-.065.064,3.345,3.345,0,0,0-.553,1.524,4.685,4.685,0,0,0-.4,1.96c0,.083,0,.171.007.259a25.02,25.02,0,0,0-.254,2.963c0,.07,0,.133,0,.2a.649.649,0,0,0-.282.206,12.677,12.677,0,0,0-1.344,5.308c0,.013,0,.026,0,.039a.467.467,0,0,0,.007.077l.026.138-.038.026a.427.427,0,0,0-.177.31s-.01.114-.02.226A4.994,4.994,0,0,0,15.9,28.608a.378.378,0,0,0-.012.036,2.777,2.777,0,0,0-.1.724,1.892,1.892,0,0,0,.234.938,4.063,4.063,0,0,0-.081.661.455.455,0,0,0,.13.368c.291.3.651.074,1.135-.3a1.384,1.384,0,0,0,1.227-.371,1.634,1.634,0,0,0,.353-.589,2.965,2.965,0,0,0,.732-1.484,1.506,1.506,0,0,0,.528-.668,13.236,13.236,0,0,0,2.31-2.546,2.631,2.631,0,0,0,1.958,1.039,2.5,2.5,0,0,0,1.5-.731c.07,0,.146-.008.211-.016.176-.024.413-.056,1.028-1.389a11.151,11.151,0,0,0,.483-1.235c.1.085.183.167.257.236-.12.448-2.616,9.747-2.616,9.747a3.993,3.993,0,0,0-.124.826V33.9a.757.757,0,0,0,.165.467l.035.047a.625.625,0,0,0,.355.242.428.428,0,0,0,.257.273,3.034,3.034,0,0,0,1.84.025.431.431,0,0,0,.293-.4s.007-.559.007-.561a.43.43,0,0,0-.017-.089,1.57,1.57,0,0,0,.237-.722.058.058,0,0,0,0-.02.577.577,0,0,0-.165-.41.692.692,0,0,0-.489-.187l-.035,0-.685.071c.157-.59,2.194-8.233,2.355-8.834l.228.012a.426.426,0,0,0,.15-.019,1.243,1.243,0,0,0,.9-1.15,1.18,1.18,0,0,0-.02-.211l.161-.35c0-.009.007-.016.011-.025a1.031,1.031,0,0,0,.063-.363.965.965,0,0,0-.074-.372.986.986,0,0,0,.1-.423.792.792,0,0,0-.022-.187.846.846,0,0,0-.472-.558c.122-.46.761-2.875.85-3.213l.37-.151a.486.486,0,0,0,.12-.073,10.946,10.946,0,0,0,2.281-2.687.446.446,0,0,0,.037-.175c0-.015,0-.029,0-.044s-.011-.091-.02-.183c.067-.078.137-.155.137-.155s-.007,0-.009.008m-3.59-.513c-.17.176-.324.339-.394.413a1.676,1.676,0,0,0-.235.1c0-.084-.007-.16-.013-.214-.009-.152-.015-.293-.015-.424a2.444,2.444,0,0,1,.274-1.355h0a.072.072,0,0,0,0,.022,1.831,1.831,0,0,0,.244.95.352.352,0,0,0,.1.112l.039.036a.806.806,0,0,0-.026.186.7.7,0,0,0,.022.17m-1.4,3.558a.825.825,0,0,0,.287.192h0l.246.1c-.094.342-.239.887-.441,1.63l-.035-.072a.433.433,0,0,0-.317-.23l-.157-.024a6.513,6.513,0,0,0,.422-1.593" fill="#fff"/><path d="M27.841,7.417a16.138,16.138,0,0,1,3.753.147c.7.257,1.437,1.693,1.437,1.693l.32,2.945.307.588c.146.332.037.406.037.406l-.259.295.037.368A10.613,10.613,0,0,1,31.3,16.4l-.566.233-.98,3.706.233.172c.626.258.146.815.146.815a.575.575,0,0,1,.111.584l-.22.477a.809.809,0,0,1-.561,1l-.576-.031-2.531,9.5s-.02.264.141.249,1.089-.111,1.089-.111.222-.005.217.175a1.712,1.712,0,0,1-.389.818l.17.007-.009.554a2.6,2.6,0,0,1-1.553-.019l.02-.233c-.154-.026-.363-.026-.431-.125-.078-.116-.12-.138-.124-.285a3.633,3.633,0,0,1,.109-.741l2.681-9.982c-.222-.257-.989-.9-.989-.9a7.334,7.334,0,0,1-1.313,2.985,2.924,2.924,0,0,1-.348.017,2.022,2.022,0,0,1-1.36.73c-.921.111-2-1.392-2-1.392-.405,1.214-2.565,3.056-2.565,3.056-.258.626-.552.626-.552.626-.26,1.267-.736,1.546-.736,1.546a1.23,1.23,0,0,1-.291.545,1.073,1.073,0,0,1-1.021.2s-.665.515-.719.459a3.742,3.742,0,0,1,.091-.817,1.838,1.838,0,0,1-.176-1.459,4.972,4.972,0,0,1,1.378-1.655l.037-.4.258-.185-.073-.4a12.53,12.53,0,0,1,1.251-5.079c.147-.185.4-.038.4-.038a19.1,19.1,0,0,1,.222-3.569,4.227,4.227,0,0,1,.374-2.109,3.007,3.007,0,0,1,.472-1.388l.616-.486a4.07,4.07,0,0,1,.084-2.975A12.434,12.434,0,0,1,24.234,8.3l-.147-.258V7.637L24.01,7.6l-.14-.215L23.9,6.276c.037-.441.7-.958.7-.958l1.253-.257c1.287-.148,1.4.406,1.4.406l.626.846a2.4,2.4,0,0,1-.037,1.1m2.429,6.331.663-.7a.34.34,0,0,1-.074-.406s.074-.184-.22-.4a1.536,1.536,0,0,1-.15-1.031l-.146-.037s-.074-.516-.626.037c0,0-.478.514-.368,2.1,0,0,.111,1.068-.331,1.177,0,0,.061,1.325-.38,1.62A5.938,5.938,0,0,1,28,18.348l.209.147.479.074.539,1.073.831-3.078-.6-.24s-.441-.148-.074-.7c0,0-.111-.7.331-.995,0,0-.33-.625.552-.882"/></g></svg>