<svg xmlns="http://www.w3.org/2000/svg" xmlns:xlink="http://www.w3.org/1999/xlink" width="21" height="17" viewBox="0 0 21 17"><defs><clipPath id="a"><rect width="21" height="17" transform="translate(49.326 1512.356)" fill="none" stroke="#707070" stroke-width="1"/></clipPath></defs><g transform="translate(-49.326 -1512.356)" clip-path="url(#a)"><g transform="translate(54.885 1512.952)"><path d="M1.7,0H7.857a1.7,1.7,0,0,1,1.7,1.7v13a1.7,1.7,0,0,1-1.7,1.7H1.7A1.7,1.7,0,0,1,0,14.7V1.7A1.7,1.7,0,0,1,1.7,0ZM4.778,14.309a.7.7,0,1,1-.7.7.7.7,0,0,1,.7-.7ZM.489,13.775H9.07V2.63H.489V13.775Z" transform="translate(0)" fill="#f1f1f1" fill-rule="evenodd"/></g></g></svg>