<svg xmlns="http://www.w3.org/2000/svg" width="22.866" height="18.291" viewBox="0 0 22.866 18.291"><g transform="translate(-145.278 -1530.563)"><g transform="translate(-225.271 -1881.094)"><g transform="translate(370.549 3411.657)"><path d="M394.924,3414.849a9.485,9.485,0,0,1-2.98,1.122,4.714,4.714,0,0,0-3.423-1.458,4.655,4.655,0,0,0-4.69,4.618,4.6,4.6,0,0,0,.12,1.052,13.39,13.39,0,0,1-9.669-4.824,4.544,4.544,0,0,0-.636,2.322,4.6,4.6,0,0,0,2.088,3.843,4.734,4.734,0,0,1-2.125-.578V3421a4.641,4.641,0,0,0,3.763,4.528,4.8,4.8,0,0,1-2.119.08,4.689,4.689,0,0,0,4.382,3.206,9.511,9.511,0,0,1-5.827,1.977,9.718,9.718,0,0,1-1.119-.065,13.438,13.438,0,0,0,7.191,2.075,13.146,13.146,0,0,0,13.346-13.138c0-.2,0-.4-.012-.6a9.447,9.447,0,0,0,2.34-2.391,9.47,9.47,0,0,1-2.695.727A4.641,4.641,0,0,0,394.924,3414.849Z" transform="translate(-372.69 -3414.512)" fill="#fff"/></g></g></g></svg>