<svg xmlns="http://www.w3.org/2000/svg" xmlns:xlink="http://www.w3.org/1999/xlink" width="51" height="48" viewBox="0 0 51 48"><defs><clipPath id="a"><ellipse cx="25.5" cy="24" rx="25.5" ry="24" transform="translate(0 -0.412)" fill="#fff" stroke="#707070" stroke-width="1"/></clipPath></defs><g transform="translate(0 0.412)" clip-path="url(#a)"><g transform="translate(0.074 4.05)"><g transform="translate(0 0)"><path d="M32.881,19.417l2.143,2.7,5.814-3.493-2.6-2.477Z" transform="translate(-7.51 -9.122)" fill="#e31e25"/><path d="M50.906,29.794v-.016l-.01,0C50.089,28.87,37.448,14.554,31.571,9.85,25.937,5.515,15.647,5.79,6.05,13.566L4.723,14.623c-.076.056-.155.1-.227.161-5.552,4.379-6.027,13.034-1.061,19.327s13.491,7.849,19.042,3.471A16.384,16.384,0,0,0,25.463,33.5L36.934,47.1l13.772-9.1.2-8.166.023-.021Zm-2.922,7.078-6.7,4.092V39.05l6.7-4.09Zm-9.317-.158-15.014-18.3c-.04-.052-.072-.106-.114-.159-.1-.13-.216-.245-.322-.37l-.344-.42-.006.011a15.038,15.038,0,0,0-10.911-5.159c7.059-3.752,14.055-4.21,18.3-.815,5.293,4.234,16.709,17.031,18.763,19.348Z" transform="translate(0 -7.042)" fill="#e31e25"/></g></g></g></svg>