<svg xmlns="http://www.w3.org/2000/svg" viewBox="0 0 338.83 402.45">
  <defs>
    <style>
      .cls-1, .cls-8 {
        fill: #282828;
      }

      .cls-2, .cls-7 {
        fill: #fff;
      }

      .cls-3 {
        fill: #f37232;
      }

      .cls-4, .cls-5, .cls-6 {
        fill: none;
        stroke: #231f20;
        stroke-miterlimit: 10;
      }

      .cls-5 {
        stroke-width: 0.25px;
      }

      .cls-6 {
        stroke-width: 2px;
      }

      .cls-7, .cls-8 {
        fill-rule: evenodd;
      }

      .cls-9 {
        fill: #f9f9fa;
      }
    </style>
  </defs>
  <g id="shield_3">
    <g id="svgg">
      <g>
        <path class="cls-1" d="M343.42,59.73l-.05,8c-.14,25.56-3.2,84.13-5.3,101.86-2,16.53-9.24,48.14-14.95,65-9,26.43-15.3,40.16-29.27,63.41a373.76,373.76,0,0,1-26.5,38.25c-5,6.42-22.08,24.22-28.31,29.55-1.62,1.38-5.63,4.83-8.91,7.66C213,388.13,208.4,391.7,199,397.39c-3.57,2.17-7.39,4.52-8.49,5.23-4.36,2.82-15.1,7.87-16.74,7.87-1.93,0-10.92-4.28-16.27-7.75-1.73-1.12-5.41-3.39-8.18-5a88.25,88.25,0,0,1-9.95-6.47c-4.64-3.57-19.05-15.6-30.71-25.66-3.55-3.06-13.37-12.85-19.07-19-18.85-20.41-42.63-57-53.09-81.75C25.17,238,17.92,213.66,11.64,181.28c-1.39-7.19-1.85-11.43-3.27-30.08C6.76,130,4.59,82.42,4.59,68.24V60l.73-.31c1.22-.5,3-.85,10.8-2.08,36.42-5.76,52.79-8.94,68-13.22,24-6.74,53.46-18.66,81.11-32.77l6.92-3.53,1.94,0,1.94,0L183.86,12c17.32,8.66,40.3,18.83,52.35,23.17,28.71,10.33,44.54,14.21,81.43,20,8.08,1.26,19.23,3.25,24.94,4.45ZM331.07,79l.14-6.51-1.76-.36c-6.74-1.36-13.77-2.62-20.72-3.7-33.91-5.29-49.34-9-73.26-17.49-13.7-4.88-34.71-14.06-52.29-22.85l-6.92-3.46-1.52,0-1.52,0-7.76,3.91C143.2,39.77,121,49.09,102.31,55,82.43,61.31,71,63.75,31.94,70,23,71.4,20.08,71.92,19.15,72.22l-.83.28,0,8.59c0,9.06.15,12.88,1.14,34.16,1.31,28,1.75,35.15,3.24,52.82,1,11.27,1,11.38,4.22,26.73,7,32.87,17.91,64,30,85.31,2.87,5.07,3.74,6.54,8.46,14.36,8.48,14,21.24,31.63,29.19,40.24,7.12,7.72,15.87,16.57,19.61,19.83,3.5,3,18.47,15.69,22.26,18.8,7.65,6.27,9.24,7.4,16.31,11.57,2,1.19,5.1,3.09,6.84,4.23,5.55,3.59,13.48,7.29,15.1,7s11.17-4.72,13.82-6.45c.91-.6,4.53-2.83,8.05-5,7.36-4.47,8.19-5,10.9-7.15,10.91-8.63,27.36-22.76,33.19-28.51,13.51-13.32,19-19.68,29.63-34.42C294.57,281.1,309,250,318.71,210.55c5.09-20.75,6.94-31.06,8.24-46C328.53,146.33,330.51,105.25,331.07,79Z" transform="translate(-4.59 -8.04)"/>
        <path class="cls-1" d="M319.73,80.05l0,6.91c-.12,22-2.69,72.58-4.48,88.14-1.9,16.44-8.3,44-14.14,60.89-6,17.22-11.62,30.27-18,41.5C270,300.57,258,317.77,246,330.73c-5.34,5.75-12.62,13.18-14.9,15.19-14.72,13-26.2,22.63-29.88,25.1-.52.34-3.3,2.07-6.18,3.84s-6.09,3.77-7.13,4.47a93,93,0,0,1-13.48,6.52c-1.33.41-8.86-3.15-14.91-7.06-1.84-1.19-5.26-3.31-7.6-4.73-6.35-3.85-8.94-5.89-25.48-20.11-25.9-22.26-41.82-42.12-60.95-76-9.26-16.43-17.77-38.27-23.75-61-3-11.53-3.53-13.66-5.9-25.22-2.28-11.15-2.52-13.16-4-32.52-1.2-16-3-54.47-3.27-70.76l-.15-8,.73-.34c1.05-.5,1.59-.6,13.62-2.57,27.6-4.51,34.36-5.79,46.5-8.8,22.32-5.54,47.07-15.25,75.35-29.57,10.8-5.47,9-5.34,17.15-1.15,15.47,7.92,36.47,17.24,48.88,21.71,22.4,8.07,36.93,11.59,68.44,16.56,4.09.65,10.41,1.76,14,2.48Z" transform="translate(-4.59 -8.04)"/>
      </g>
    </g>
  </g>
  <g id="person">
    <g id="Layer_1" data-name="Layer 1">
      <g>
        <g>
          <path d="M259.58,210.53c2.4,8.4,1.94,17,.83,25.53a95.9,95.9,0,0,1-1.51,10.31c-.93,3.8-2.33,7.5-3.63,11.21-3.13,8.91-7.24,17.14-15.65,22.37a1.68,1.68,0,0,0-.56,1.18c-.25,4.19-.48,8.39-.65,12.59-.22,5.56-.42,11.11-.54,16.67-.09,4-.05,8-.06,12,0,2.85,0,5.7,0,8.56v4.42c11,0-9.61,1,2.91,1-59.28,1.75-72.6,1.46-131.88,1-.58.07-.43-.43-.24-.43.86,0-.25-.09-.2-1.08.69-13.91,1.55-27.8,2.08-41.71.39-10.07.17-20.16.54-30.23.37-9.91,1.16-19.8,1.72-29.71a2.93,2.93,0,0,0-.57-1.63,21.53,21.53,0,0,0-1.73-2,30,30,0,0,1-6.35,2.72l-.1-.33a.85.85,0,0,0,.53-1l-2.16-9.31,7.92,2.24c2.26-3.5,4.47-7.08,5.34-11.37.59-2.9,1.71-5.66,4.46-7.64-4-1.94-5-5.5-5.66-9.16-.86-5-3.44-9.12-6.73-12.76a60.9,60.9,0,0,0-5.4-5.12l4-13.36,3.7-14.81,4-17.12,2.69-11,2.53-8.84,1.45-3.6,1.69.67c1.91,1.84,3.85,3.68,5.74,5.57a4.7,4.7,0,0,1,1.54,4.05c-.19,1.69-.25,3.39-.37,5.08-.36,5.28-.89,10.56-1.05,15.84-.37,11.32-.55,22.65-.8,34a9.37,9.37,0,0,0,.11,1.14c4-2,8.18-1.88,12.34-1.81s8.42,0,12.62,0c1.3,0,2.4-.21,2.75-1.82.12-.54.87-1,1.41-1.37,2.65-1.83,5.29-3.67,8-5.4a36.75,36.75,0,0,1,3.76-1.75l1.32.3c-.35,1.55-.69,3.11-1,4.69a2.29,2.29,0,0,0,.06,1.35,56.22,56.22,0,0,0,3.31,6.8c2.07,3.29,4.49,6.35,6.65,9.59a20.48,20.48,0,0,1,2.06,4.17c1.52,4,4.42,5.63,8.28,4.07a11.83,11.83,0,0,0,3.62-2.85q5.51-5.38,10.87-10.92a17,17,0,0,0,2.16-3.05c1.76-2.91,1.93-4.57,1-8.06-2.09,1.39-4.15,2.86-6.31,4.17a25.93,25.93,0,0,1-10.14,3.75,13.38,13.38,0,0,1-4.1,0l.21-1.33a14,14,0,0,0,6-.5,34.94,34.94,0,0,0,11.94-6.17c2-1.55,3.61-3.28,3-6.25-.29.34-.56.64-.81,1a25.06,25.06,0,0,1-12.44,9,5.79,5.79,0,0,1-1,.17h0a59.79,59.79,0,0,0,7-3.91c5.71-4.22,8.82-10.22,10.64-16.93.62-2.29.44-4.9,1.46-6.95,1.18-2.4,1-4.85,1.37-7.25a8.29,8.29,0,0,0-.19-2.74l1.32,0,.53.26.57,1.12c-.7.27-.79.75-.39,1.72a4.54,4.54,0,0,1-.26,2.45,13.09,13.09,0,0,1-.76,1.87l.59.26c.71-1.57,1.41-3.13,2.08-4.63a3,3,0,0,1,.2,1l0,.13a15.25,15.25,0,0,1-1.75,3.41c-1.23,1.61-1.5,2.05-1.3,4.59l1,.83a11.1,11.1,0,0,1-1.2,1.17,1.1,1.1,0,0,0-.37.64c-.36,2.83-.69,5.65-1,8.48l3.16-1.15-7.39,10c1.59.66,3.1,1,4.2,1.81,3.34,2.54,6.56,5.26,9.74,8a1.77,1.77,0,0,1,.43,1.15,77.24,77.24,0,0,0-3.39,8.09c-1.85,3.76-3.76,7.5-5.66,11.28-1.68-.52-3.19-1.09-4.74-1.46-1-.23-1.94-.47-2.92-.69-3.05-.72-6.12-1.42-9.2-2a5.15,5.15,0,0,0-4.6,1.22l2-.34c-.57,3.15-1,6.17-1.68,9.14a51,51,0,0,0-.93,19.46c.09.53.55,1.32,1,1.43,2.77.72,5.56,1.31,8.36,1.89.93.19,1.43,0,1.63-1.22a8.77,8.77,0,0,0-.5-5,14.41,14.41,0,0,1-.32-11.63c.46-1.1.68-2.29,1.06-3.42,1-3.08,2.1-6.14,3.18-9.31l4.75,1.65L205.17,215l.43.16c.61,0,1,.07,1.39-.17,2.54-.33,3.64-3.42,4.08-5.69a42.14,42.14,0,0,1,4.26-12.86,62.82,62.82,0,0,0,3.89-8.92L220,186c.93-1.91,1.8-3.86,2.54-5.85a1.69,1.69,0,0,0,.08-.7c.28.07,1.86.76,2.24.9,4.06,1.43,8.17,2.72,12.16,4.33C248.92,189.4,256.13,198.41,259.58,210.53Zm-.55,26a65.88,65.88,0,0,0,.57-17.89c-.34.47-.55.71-.7,1-1.29,2.37-2.59,4.73-3.85,7.11a1.78,1.78,0,0,0-.26,1.24C256.18,230.85,257.66,233.72,259,236.49Zm-2.1-27.22a1.82,1.82,0,0,0,.22-1.29c-.51-1.5-1.15-2.95-1.72-4.39l-8.63,14.15,3.32,3.59c.77-1.31,1.52-2.52,2.23-3.77C253.89,214.81,255.43,212.05,256.93,209.27Zm-6.2-11.66c.5-1.16-1.22-3.34-2.47-3.13a11.71,11.71,0,0,0-3.74.89,5,5,0,0,0-2.18,2.58c-1.66,5.18-4.62,9.57-8.08,13.91,1.75.67,3.28,1.31,4.84,1.82a1.48,1.48,0,0,0,1.29-.28A57.1,57.1,0,0,0,250.73,197.61Zm-5.4-6.26c0-.14,0-.28.08-.41-1.78-1.14-3.55-2.3-5.35-3.4a1.3,1.3,0,0,0-1.11-.11c-3.86,2.39-8.08,4.29-11,7.92a3.22,3.22,0,0,0-.19.42Zm-5.47,78a2.5,2.5,0,0,0,1.88-2.67c0-1.45.12-2.9.2-4.58-1.24.71-2.26,1.39-3.36,1.91a43,43,0,0,1-14.65,4,214,214,0,0,1-47.26-1.14c-7.07-.9-14.08-2-20.72-4.75a52,52,0,0,1-6.71-3.27c-6.12-3.62-12.14-7.39-18.21-11.11-.21-.13-.44-.25-.65-.37l-.42.42a50.85,50.85,0,0,0,5,5c5.9,4.42,11.92,8.68,17.94,13a7.19,7.19,0,0,0,2.44.93c8.76,2.18,17.42,5.13,26.31,6.31,11.9,1.57,23.92,3.29,36,2.09a100.9,100.9,0,0,0,14-2.86C234.46,271.44,237.14,270.32,239.86,269.36Zm-1.6-19c.85-.12,1.73-.1,2.81-.15-1.85-3.89-4.68-6.72-7.82-9.39-4.08,3-8.8,4.37-13.59,5.48A60.07,60.07,0,0,1,200,248c-3.86-.38-7.7-1.1-11.57-1.5-5.52-.57-11.05-1.19-16.59-1.46-12-.58-22.92-4.1-32.46-11.59-2.29-1.78-4.75-3.33-7.26-5.06-.61,1.31-1.27,2.59-1.77,3.93-.11.3.26,1,.59,1.2,3.56,2.6,7.07,5.27,10.76,7.68,3.25,2.13,6.78,3.83,10.06,5.93a44.73,44.73,0,0,0,23.93,6.82c10.75.15,21.5.5,32.25.62a97.16,97.16,0,0,0,27.7-3.63A18.87,18.87,0,0,1,238.26,250.32Zm-13.19,84.92h7c-.29-17.25-.58-34.5-.88-52a26.59,26.59,0,0,0-3.81,1.05,2,2,0,0,0-.9,1.49c-.39,6.94-.8,13.89-1,20.84-.24,9-.27,18-.38,26.95C225.06,334.08,225.07,334.6,225.07,335.24Zm-3.26-137.35c4-4.44,7.7-9.1,12.83-12.88-2.48-.79-4.71-1.56-7-2.17-.35-.1-1,.39-1.33.77a31.61,31.61,0,0,0-5.78,10c-.79,2.23-1.74,4.4-2.61,6.59l.5.44A27.51,27.51,0,0,0,221.81,197.89Zm10,3.15c-2.14.93-4.3,1.83-6.41,2.81s-4.3,2.08-6.41,3.18a3.74,3.74,0,0,0-2.05,3.11c2.62,0,5.26,0,7.89,0a1.23,1.23,0,0,0,.76-.46A97.71,97.71,0,0,0,231.84,201Zm-8,33.58c-2.9-1.54-5.94-2.77-9.09-2.3-4.66.69-8.64-.84-12.47-2.94-2.53-1.38-5.24-1.53-7.91-2.07-6.41-1.27-12.82-2.57-19.27-3.68-2.49-.42-5.08-.22-7.6-.51-4.21-.51-8.42-1.09-12.59-1.84-3.37-.61-6.69-1.5-10-2.29a4.79,4.79,0,0,1-1.76-.62c-1.56-1.19-2.5,0-4,.95,6.06,3.67,11.76,7.38,17.72,10.63,4.55,2.49,9.76,2.84,14.85,3a162.68,162.68,0,0,1,33.51,4.88C211.79,239.51,218.06,238.9,223.82,234.62Zm-9.78,101c.62-17.09,1.22-33.82,1.83-50.86-2.86-.09-5.73-.21-8.61-.21-.25,0-.69.79-.7,1.22-.05,3.42,0,6.85,0,10.28,0,9.7,0,19.41,0,29.12,0,3.06.34,6.1.49,9.16,0,1,.49,1.34,1.48,1.3C210.47,335.54,212.38,335.59,214,335.59ZM208.45,165c2.3-3,2.73-6.38,3.12-9.88-1.06,2.33-2.2,4.54-3.06,6.85A9,9,0,0,0,208.45,165ZM189.27,335.57h6.42c-.12-1.95-.29-3.8-.32-5.66-.12-7.63-.25-15.26-.3-22.89s0-15.13,0-22.7c0-.81-.17-1.23-1.06-1.33a35.78,35.78,0,0,1-4.61-.78c-1.37-.34-1.75.15-1.78,1.44-.08,4.4-.33,8.81-.32,13.22,0,8.42,0,16.84.35,25.24C187.84,326.59,188.7,331.05,189.27,335.57Zm-4.62-132c0-1.51.13-3,.08-4.52,0-.37-.59-1.07-.74-1-1.79.51-3-.14-3.66-2l-.44.32c-.1,1.84-.28,3.67-.28,5.51,0,5.71.1,11.42.15,17.13,0,2.55.77,3.21,4.26,3.84C184.24,216.3,184.45,209.93,184.65,203.56ZM170.56,335.77H178c-.5-4.11-1.24-8-1.41-12-.3-7.2-.36-14.43-.32-21.64,0-6.95.35-13.91.52-20.87,0-.38-.26-1-.53-1.11-1.62-.47-3.29-.81-5.2-1.25C170.91,298,170.05,316.9,170.56,335.77Zm6.22-144c0-.11.07-.22.1-.33a5.09,5.09,0,0,0-1.82-.46,13.79,13.79,0,0,0-3.59.95q-4.2,1.84-8.36,3.77c-2,.92-4.05,1.86-6.07,2.79-1.18.54-1.71.35-1.81-1.11q-.49-6.58-.78-13.2c-.1-2.36,0-4.72,0-7.08-.26,0-.54,0-.8,0a97.39,97.39,0,0,0,1.31,22.57l2.26-.55c-1,5.29-2,10.41-3,15.72l4.61.87c.78-4.61,1.55-9.05,2.29-13.49a18.81,18.81,0,0,0,.47-3.39,2.7,2.7,0,0,1,1.71-2.72l.49-.21c1.67-.66,3.3-1.45,4.94-2.18l.52.21c-1.14,7.73-2.28,15.46-3.47,23.51l8.39,1.78a28.89,28.89,0,0,0,.32-3.3c-.06-4.1-.31-8.2-.26-12.31s.39-8,.61-12.07Zm-16.36,82a1.72,1.72,0,0,0-.54-1.28c-1.42-1-2.91-2-4.88-3.27-.88,22.59-4.95,44.52-5,66.83h9.18c0-.67,0-1.17,0-1.67q.31-17.92.65-35.84C160,290.3,160.25,282,160.42,273.78Zm-10.56-76.33c.36-4-.14-8.17-.41-12.24-.18-2.73-.64-5.44-1-8.22H141c3.91,12,4.45,24.29,3.24,36.84.67.15,1.21.28,1.77.38.75.14,1.12-.13,1.25-.94C148.16,208,149.38,202.75,149.86,197.45Zm-5.65,99a230.12,230.12,0,0,0,1.88-30.14,3.12,3.12,0,0,0-1-2c-1.79-1.55-3.71-2.94-5.67-4.46-3.16,25.56-1.88,51.22-6.64,76.57H141a12.35,12.35,0,0,0,.16-1.41C141.46,322.1,142.68,309.28,144.21,296.48Zm-7.68-107.84c-.77-4.06-1.47-7.73-2.22-11.7l-6.51,1.45Zm-7.83,64.6a7.71,7.71,0,0,0-1.29-5.59c-.38-.55-.54-1.25-.9-1.8a6.21,6.21,0,0,0-1.31-1.53c-1-.77-2.11-1.44-3.48-2.36-.54,31.79-2.71,63.24-5.58,94.71H124c.09-1.43.21-2.7.25-4,.35-10.33.58-20.67,1.07-31,.42-9.12,1.1-18.24,1.72-27.36C127.51,267.3,128,260.25,128.7,253.24Z" transform="translate(-4.59 -8.04)"/>
          <path class="cls-2" d="M259.6,218.6a65.88,65.88,0,0,1-.57,17.89c-1.37-2.77-2.85-5.64-4.24-8.56a1.78,1.78,0,0,1,.26-1.24c1.26-2.38,2.56-4.74,3.85-7.11C259.05,219.31,259.26,219.07,259.6,218.6Z" transform="translate(-4.59 -8.04)"/>
          <path class="cls-2" d="M257.15,208a1.82,1.82,0,0,1-.22,1.29c-1.5,2.78-3,5.54-4.58,8.29-.71,1.25-1.46,2.46-2.23,3.77l-3.32-3.59,8.63-14.15C256,205,256.64,206.48,257.15,208Z" transform="translate(-4.59 -8.04)"/>
          <path class="cls-2" d="M248.26,194.48c1.25-.21,3,2,2.47,3.13a57.1,57.1,0,0,1-10.34,15.79,1.48,1.48,0,0,1-1.29.28c-1.56-.51-3.09-1.15-4.84-1.82,3.46-4.34,6.42-8.73,8.08-13.91a5,5,0,0,1,2.18-2.58A11.71,11.71,0,0,1,248.26,194.48Z" transform="translate(-4.59 -8.04)"/>
          <path class="cls-2" d="M245.41,190.94c0,.13-.06.27-.08.41l-17.62,4.42a3.22,3.22,0,0,1,.19-.42c3-3.63,7.19-5.53,11-7.92a1.3,1.3,0,0,1,1.11.11C241.86,188.64,243.63,189.8,245.41,190.94Z" transform="translate(-4.59 -8.04)"/>
          <path class="cls-2" d="M241.74,266.69a2.5,2.5,0,0,1-1.88,2.67c-2.72,1-5.4,2.08-8.2,2.77a100.9,100.9,0,0,1-14,2.86c-12.09,1.2-24.11-.52-36-2.09-8.89-1.18-17.55-4.13-26.31-6.31a7.19,7.19,0,0,1-2.44-.93c-6-4.27-12-8.53-17.94-13a50.85,50.85,0,0,1-5-5l.42-.42c.21.12.44.24.65.37,6.07,3.72,12.09,7.49,18.21,11.11a52,52,0,0,0,6.71,3.27c6.64,2.73,13.65,3.85,20.72,4.75A214,214,0,0,0,223.93,268a43,43,0,0,0,14.65-4c1.1-.52,2.12-1.2,3.36-1.91C241.86,263.79,241.7,265.24,241.74,266.69Z" transform="translate(-4.59 -8.04)"/>
          <path class="cls-2" d="M241.07,250.17c-1.08.05-2,0-2.81.15a18.87,18.87,0,0,0-2.58.58,97.16,97.16,0,0,1-27.7,3.63c-10.75-.12-21.5-.47-32.25-.62a44.73,44.73,0,0,1-23.93-6.82c-3.28-2.1-6.81-3.8-10.06-5.93-3.69-2.41-7.2-5.08-10.76-7.68-.33-.24-.7-.9-.59-1.2.5-1.34,1.16-2.62,1.77-3.93,2.51,1.73,5,3.28,7.26,5.06,9.54,7.49,20.43,11,32.46,11.59,5.54.27,11.07.89,16.59,1.46,3.87.4,7.71,1.12,11.57,1.5a60.07,60.07,0,0,0,19.62-1.7c4.79-1.11,9.51-2.48,13.59-5.48C236.39,243.45,239.22,246.28,241.07,250.17Z" transform="translate(-4.59 -8.04)"/>
          <path class="cls-2" d="M232,335.24h-7c0-.64,0-1.16,0-1.67.11-9,.14-18,.38-26.95.19-6.95.6-13.9,1-20.84a2,2,0,0,1,.9-1.49,26.59,26.59,0,0,1,3.81-1.05C231.45,300.74,231.74,318,232,335.24Z" transform="translate(-4.59 -8.04)"/>
          <path class="cls-2" d="M234.64,185c-5.13,3.78-8.86,8.44-12.83,12.88a27.51,27.51,0,0,1-3.37,2.78l-.5-.44c.87-2.19,1.82-4.36,2.61-6.59a31.61,31.61,0,0,1,5.78-10c.33-.38,1-.87,1.33-.77C229.93,183.45,232.16,184.22,234.64,185Z" transform="translate(-4.59 -8.04)"/>
          <path class="cls-2" d="M225.43,203.85c2.11-1,4.27-1.88,6.41-2.81a97.71,97.71,0,0,1-6.22,8.63,1.23,1.23,0,0,1-.76.46c-2.63,0-5.27,0-7.89,0A3.74,3.74,0,0,1,219,207C221.13,205.93,223.27,204.86,225.43,203.85Z" transform="translate(-4.59 -8.04)"/>
          <path d="M169.62,121.58a0,0,0,0,0,0,0h0c-.95-.56-3.47.59-3.49,1.75-.1,4.34,0,8.68,0,13,0,.05.14.11.61.46a14.89,14.89,0,0,0,.94-3.81,32.23,32.23,0,0,1,1.4-10.25,2.79,2.79,0,0,1,.25-.56l.05-.11.14-.25Zm0,0c-.34,4.22-.63,8.44-1.07,12.66a18.83,18.83,0,0,1-1,2.94,4.38,4.38,0,0,0-.11,1.8c.43,2.55,1,5.07,1.41,7.61.54,3.12,1,6.25,1.54,9.35a20.25,20.25,0,0,0,7.29,12.5,36.38,36.38,0,0,0,6.69,4.76c1.76.87,4,.83,6,1.07A13.05,13.05,0,0,0,193,174h0a10.46,10.46,0,0,1-8.26.38,20.35,20.35,0,0,1-7.86-5.45,11.18,11.18,0,0,0-1.65-1.5c2.33,3.22,4.74,6.42,8.25,8.43a8.59,8.59,0,0,0,2.8,1l-.21,1.33a11.7,11.7,0,0,1-6.32-3.29c-3.92-3.81-7.31-7.95-9.21-13.14a3.72,3.72,0,0,0-.18-.38l-.69,3.13-1.32-.3a35.28,35.28,0,0,0,.58-5c0-3.33.18-6.78-3-9.13a7.14,7.14,0,0,1-2-2.4c-1.77-3.37-2.76-6.89-1.57-10.72a1.79,1.79,0,0,0-.22-1c-1.37-3.3-2.47-6.74-4.22-9.82-1.12-2-.91-3.82-.78-5.8a3.59,3.59,0,0,0,.06-.92c-.66-3.06.23-5.85,1.54-8.55,2.29-4.7,5.83-8.41,9.43-12.12,6-6.19,13.46-8.69,21.77-8.81,6.22-.09,12,1.94,17.59,4.64a12.94,12.94,0,0,1,3.48,2.59c2.42,2.5,4.76,5.09,7,7.71A23.3,23.3,0,0,1,223,115.42c.31,1.35-.08,2.86-.14,4.29-.11,2.36-.23,4.71-1.75,6.7a.68.68,0,0,0,0,.15c-.41,1.87-.87,3.73-1.21,5.61-.42,2.27-.81,4.56-1.1,6.86-.46,3.74-1.13,7.37-3.66,10.24l-1-.83a17.15,17.15,0,0,0,3.54-8.06,20.49,20.49,0,0,0,.21-3.36c-.65.19-1.13.37-1.63.48a3.88,3.88,0,0,0-.5.14l-.57-1.12c.4-.41,1.11-.77,1.16-1.21.3-2.72.54-5.46.62-8.2a4.11,4.11,0,0,0-2.31-3.83v13l-1.32,0a8.58,8.58,0,0,1-.14-1.23c-.11-3.37-.26-6.75-.18-10.12a3.81,3.81,0,0,0-2.39-4c-10.24-5.29-20.91-6-31.91-3.14-2.6.67-5.14,1.61-7.67,2.52C170.47,120.55,170.08,121.15,169.63,121.57Zm-2.44-13.11c15.24-6.44,31-6,46.61-1.46C204.26,100.34,176.27,100.21,167.19,108.46Zm.24,41.15-1.46-11c-.92.74-1.85,1.42-2.94.06C162.58,143.23,164.26,146.68,167.43,149.61Z" transform="translate(-4.59 -8.04)"/>
          <path d="M222.61,179.4a1.69,1.69,0,0,1-.08.7c-.74,2-1.61,3.94-2.54,5.85l-.77,1.54A77.24,77.24,0,0,1,222.61,179.4Z" transform="translate(-4.59 -8.04)"/>
          <path class="cls-2" d="M207,215c-.37.24-.78.15-1.39.17l-.43-.16,5.43-16.5-4.75-1.65.05-.2c1,.22,1.95.46,2.92.69,1.55.37,3.06.94,4.74,1.46,1.9-3.78,3.81-7.52,5.66-11.28a62.82,62.82,0,0,1-3.89,8.92,42.14,42.14,0,0,0-4.26,12.86C210.63,211.54,209.53,214.63,207,215Z" transform="translate(-4.59 -8.04)"/>
          <path class="cls-2" d="M217.84,137a20.49,20.49,0,0,1-.21,3.36l-.46-.07a3,3,0,0,0-.2-1c-.67,1.5-1.37,3.06-2.08,4.63l-.59-.26a13.09,13.09,0,0,0,.76-1.87,4.54,4.54,0,0,0,.26-2.45c-.4-1-.31-1.45.39-1.72a3.88,3.88,0,0,1,.5-.14C216.71,137.39,217.19,137.21,217.84,137Z" transform="translate(-4.59 -8.04)"/>
          <path class="cls-2" d="M217.17,140.31l.46.07a17.15,17.15,0,0,1-3.54,8.06c-.2-2.54.07-3,1.3-4.59a15.25,15.25,0,0,0,1.75-3.41Z" transform="translate(-4.59 -8.04)"/>
          <path class="cls-2" d="M214.61,123.28a4.11,4.11,0,0,1,2.31,3.83c-.08,2.74-.32,5.48-.62,8.2-.05.44-.76.8-1.16,1.21l-.53-.26Z" transform="translate(-4.59 -8.04)"/>
          <path class="cls-2" d="M214.73,232.32c3.15-.47,6.19.76,9.09,2.3-5.76,4.28-12,4.89-18.63,3.24A162.68,162.68,0,0,0,171.68,233c-5.09-.19-10.3-.54-14.85-3-6-3.25-11.66-7-17.72-10.63,1.51-1,2.45-2.14,4-.95a4.79,4.79,0,0,0,1.76.62c3.32.79,6.64,1.68,10,2.29,4.17.75,8.38,1.33,12.59,1.84,2.52.29,5.11.09,7.6.51,6.45,1.11,12.86,2.41,19.27,3.68,2.67.54,5.38.69,7.91,2.07C206.09,231.48,210.07,233,214.73,232.32Z" transform="translate(-4.59 -8.04)"/>
          <path class="cls-2" d="M215.87,284.73c-.61,17-1.21,33.77-1.83,50.86-1.66,0-3.57,0-5.47,0-1,0-1.43-.31-1.48-1.3-.15-3.06-.46-6.1-.49-9.16-.06-9.71,0-19.42,0-29.12,0-3.43,0-6.86,0-10.28,0-.43.45-1.22.7-1.22C210.14,284.52,213,284.64,215.87,284.73Z" transform="translate(-4.59 -8.04)"/>
          <path class="cls-2" d="M213.29,136.29a8.29,8.29,0,0,1,.19,2.74c-.41,2.4-.19,4.85-1.37,7.25-1,2.05-.84,4.66-1.46,6.95-1.82,6.71-4.93,12.71-10.64,16.93a59.79,59.79,0,0,1-7,3.91l0,0h0a13.05,13.05,0,0,1-2.63.23c-2-.24-4.26-.2-6-1.07a36.38,36.38,0,0,1-6.69-4.76,20.25,20.25,0,0,1-7.29-12.5c-.55-3.1-1-6.23-1.54-9.35-.44-2.54-1-5.06-1.41-7.61a4.38,4.38,0,0,1,.11-1.8,18.83,18.83,0,0,0,1-2.94c.44-4.22.73-8.44,1.07-12.66.45-.42.84-1,1.37-1.22,2.53-.91,5.07-1.85,7.67-2.52,11-2.82,21.67-2.15,31.91,3.14a3.81,3.81,0,0,1,2.39,4c-.08,3.37.07,6.75.18,10.12A8.58,8.58,0,0,0,213.29,136.29Z" transform="translate(-4.59 -8.04)"/>
          <path class="cls-2" d="M211.57,155.14c-.39,3.5-.82,6.91-3.12,9.88a9,9,0,0,1,.06-3C209.37,159.68,210.51,157.47,211.57,155.14Z" transform="translate(-4.59 -8.04)"/>
          <path class="cls-2" d="M193,174.08a5.79,5.79,0,0,0,1-.17,25.06,25.06,0,0,0,12.44-9c.25-.32.52-.62.81-1,.57,3-1,4.7-3,6.25a34.94,34.94,0,0,1-11.94,6.17,14,14,0,0,1-6,.5,8.59,8.59,0,0,1-2.8-1c-3.51-2-5.92-5.21-8.25-8.43a11.18,11.18,0,0,1,1.65,1.5,20.35,20.35,0,0,0,7.86,5.45A10.46,10.46,0,0,0,193,174l0,0Z" transform="translate(-4.59 -8.04)"/>
          <path class="cls-2" d="M206.65,170.35c1,3.49.81,5.15-1,8.06a17,17,0,0,1-2.16,3.05q-5.35,5.53-10.87,10.92a11.83,11.83,0,0,1-3.62,2.85c-3.86,1.56-6.76,0-8.28-4.07a20.48,20.48,0,0,0-2.06-4.17c-2.16-3.24-4.58-6.3-6.65-9.59a56.22,56.22,0,0,1-3.31-6.8,2.29,2.29,0,0,1-.06-1.35c.32-1.58.66-3.14,1-4.69l.69-3.13a3.72,3.72,0,0,1,.18.38c1.9,5.19,5.29,9.33,9.21,13.14a11.7,11.7,0,0,0,6.32,3.29,13.38,13.38,0,0,0,4.1,0,25.93,25.93,0,0,0,10.14-3.75C202.5,173.21,204.56,171.74,206.65,170.35Z" transform="translate(-4.59 -8.04)"/>
          <path class="cls-2" d="M205.9,196.62l-.05.2c-1.08,3.17-2.15,6.23-3.18,9.31-.38,1.13-.6,2.32-1.06,3.42a14.41,14.41,0,0,0,.32,11.63,8.77,8.77,0,0,1,.5,5c-.2,1.18-.7,1.41-1.63,1.22-2.8-.58-5.59-1.17-8.36-1.89-.42-.11-.88-.9-1-1.43a51,51,0,0,1,.93-19.46c.65-3,1.11-6,1.68-9.14l-2,.34a5.15,5.15,0,0,1,4.6-1.22C199.78,195.2,202.85,195.9,205.9,196.62Z" transform="translate(-4.59 -8.04)"/>
          <path class="cls-2" d="M195.69,335.57h-6.42c-.57-4.52-1.43-9-1.61-13.46-.33-8.4-.33-16.82-.35-25.24,0-4.41.24-8.82.32-13.22,0-1.29.41-1.78,1.78-1.44A35.78,35.78,0,0,0,194,283c.89.1,1.07.52,1.06,1.33,0,7.57-.06,15.13,0,22.7s.18,15.26.3,22.89C195.4,331.77,195.57,333.62,195.69,335.57Z" transform="translate(-4.59 -8.04)"/>
          <path class="cls-2" d="M213.8,107c-15.57-4.54-31.37-5-46.61,1.46C176.27,100.21,204.26,100.34,213.8,107Z" transform="translate(-4.59 -8.04)"/>
          <path class="cls-2" d="M184.73,199c.05,1.5,0,3-.08,4.52-.2,6.37-.41,12.74-.63,19.2-3.49-.63-4.23-1.29-4.26-3.84,0-5.71-.13-11.42-.15-17.13,0-1.84.18-3.67.28-5.51l.44-.32c.68,1.91,1.87,2.56,3.66,2C184.14,198,184.72,198.67,184.73,199Z" transform="translate(-4.59 -8.04)"/>
          <path class="cls-2" d="M178,335.77h-7.45c-.51-18.87.35-37.77.51-56.89,1.91.44,3.58.78,5.2,1.25.27.07.53.73.53,1.11-.17,7-.48,13.92-.52,20.87,0,7.21,0,14.44.32,21.64C176.77,327.72,177.51,331.66,178,335.77Z" transform="translate(-4.59 -8.04)"/>
          <path class="cls-2" d="M176.88,191.45c0,.11-.07.22-.1.33l-1.93-.2c-.22,4.11-.55,8.09-.61,12.07s.2,8.21.26,12.31a28.89,28.89,0,0,1-.32,3.3l-8.39-1.78c1.19-8,2.33-15.78,3.47-23.51l-.52-.21c-1.64.73-3.27,1.52-4.94,2.18l-.49.21-.2-.44q4.17-1.92,8.36-3.77a13.79,13.79,0,0,1,3.59-.95A5.09,5.09,0,0,1,176.88,191.45Z" transform="translate(-4.59 -8.04)"/>
          <path class="cls-2" d="M169.62,121.58h0A0,0,0,0,1,169.62,121.58Z" transform="translate(-4.59 -8.04)"/>
          <path class="cls-2" d="M169.61,121.59h0l-.15.28-.14.25-.05.11a2.79,2.79,0,0,0-.25.56,32.23,32.23,0,0,0-1.4,10.25,14.89,14.89,0,0,1-.94,3.81c-.47-.35-.61-.41-.61-.46,0-4.35-.07-8.69,0-13,0-1.16,2.54-2.31,3.49-1.75Z" transform="translate(-4.59 -8.04)"/>
          <path class="cls-2" d="M169.62,121.58l-.15.28Z" transform="translate(-4.59 -8.04)"/>
          <path class="cls-2" d="M169.47,121.86l-.14.25Z" transform="translate(-4.59 -8.04)"/>
          <path class="cls-2" d="M169.28,122.22a2,2,0,0,0-.13.25A2,2,0,0,1,169.28,122.22Z" transform="translate(-4.59 -8.04)"/>
          <path class="cls-2" d="M166,138.64l1.46,11c-3.17-2.93-4.85-6.38-4.4-10.91C164.12,140.06,165.05,139.38,166,138.64Z" transform="translate(-4.59 -8.04)"/>
          <path class="cls-2" d="M163.11,195.71l.2.44a2.7,2.7,0,0,0-1.71,2.72,18.81,18.81,0,0,1-.47,3.39c-.74,4.44-1.51,8.88-2.29,13.49l-4.61-.87c1-5.31,2-10.43,3-15.72l-2.26.55a97.39,97.39,0,0,1-1.31-22.57c.26,0,.54,0,.8,0,0,2.36-.08,4.72,0,7.08q.28,6.62.78,13.2c.1,1.46.63,1.65,1.81,1.11C159.06,197.57,161.08,196.63,163.11,195.71Z" transform="translate(-4.59 -8.04)"/>
          <path class="cls-2" d="M159.88,272.5a1.72,1.72,0,0,1,.54,1.28c-.17,8.26-.4,16.52-.57,24.77q-.36,17.93-.65,35.84c0,.5,0,1,0,1.67H150c0-22.31,4.1-44.24,5-66.83C157,270.53,158.46,271.46,159.88,272.5Z" transform="translate(-4.59 -8.04)"/>
          <path class="cls-2" d="M149.45,185.21c.27,4.07.77,8.2.41,12.24-.48,5.3-1.7,10.55-2.57,15.82-.13.81-.5,1.08-1.25.94-.56-.1-1.1-.23-1.77-.38,1.21-12.55.67-24.79-3.24-36.84h7.45C148.81,179.77,149.27,182.48,149.45,185.21Z" transform="translate(-4.59 -8.04)"/>
          <path class="cls-2" d="M146.09,266.34a230.12,230.12,0,0,1-1.88,30.14c-1.53,12.8-2.75,25.62-3,38.52a12.35,12.35,0,0,1-.16,1.41h-8.22c4.76-25.35,3.48-51,6.64-76.57,2,1.52,3.88,2.91,5.67,4.46A3.12,3.12,0,0,1,146.09,266.34Z" transform="translate(-4.59 -8.04)"/>
          <path d="M141.92,62.15c1.39.28,2.24,1.12,2,2.49a17.26,17.26,0,0,1-1.46,4.87A44.41,44.41,0,0,0,137,91a23.19,23.19,0,0,1-2.82,12,4.16,4.16,0,0,0-.17,1.48,11.72,11.72,0,0,1-.42,2.68c-1.08,2.78-2.3,5.53-3.43,8.3a19.24,19.24,0,0,0-.51,2.08c-2.15-2.85-4.27-5.34-7.27-6.75l-1.69-.67,3.26-8.14,1.43-4a3.7,3.7,0,0,0-1.75-1.09,12.59,12.59,0,0,0-1.62-.42l.09-.57a25.34,25.34,0,0,1,4.65,1,10.6,10.6,0,0,1,6.16,5.21,18.32,18.32,0,0,0,2.62-8.92,58.82,58.82,0,0,0,.21-6.07c-.19-5.41,1.35-10.34,3.69-15.12a61.73,61.73,0,0,0,2.55-6.18,5.24,5.24,0,0,0-.08-1.92c-.67.11-1.56,0-2,.36-2,1.91-4,3.92-5.86,6-1,1.09-1.86,2.32-2.86,3.42.44-2.18,3.86-6.25,8.11-9.79-2.3,0-3.76,1.36-5.1,2.9-.57.67-1.14,1.33-1.72,2s-1.26,1.17-1.89,1.76a72.51,72.51,0,0,0-7.09,9.92l-1.33-.82c.35-.56.71-1.12,1.08-1.67,1.45-2.16,3.08-4.21,4.36-6.45,2.2-3.87,5.75-6.29,9-9a3.91,3.91,0,0,1,1.49-.82,4.8,4.8,0,0,1,1.89,0C140.65,61.68,141.27,62,141.92,62.15Z" transform="translate(-4.59 -8.04)"/>
          <path class="cls-2" d="M141.86,63.89a5.24,5.24,0,0,1,.08,1.92A61.73,61.73,0,0,1,139.39,72c-2.34,4.78-3.88,9.71-3.69,15.12a58.82,58.82,0,0,1-.21,6.07,18.32,18.32,0,0,1-2.62,8.92,10.6,10.6,0,0,0-6.16-5.21,25.34,25.34,0,0,0-4.65-1c-1.11-.18-2.23-.33-3.34-.54.09-.53.22-1.18.3-1.84a33.67,33.67,0,0,1,4.46-13.06,72.51,72.51,0,0,1,7.09-9.92c-1.43,2.55-2.86,5.12-4.29,7.68-.27.48-.51,1-.77,1.44l.34.19,6.61-11.07c.58-.65,1.15-1.31,1.72-2,1.34-1.54,2.8-2.85,5.1-2.9-4.25,3.54-7.67,7.61-8.11,9.79,1-1.1,1.85-2.33,2.86-3.42,1.89-2,3.83-4,5.86-6C140.3,63.87,141.19,64,141.86,63.89Z" transform="translate(-4.59 -8.04)"/>
          <path class="cls-2" d="M134.31,176.94c.75,4,1.45,7.64,2.22,11.7l-8.73-10.25Z" transform="translate(-4.59 -8.04)"/>
          <path d="M132.46,68.72l-6.61,11.07-.34-.19c.26-.48.5-1,.77-1.44,1.43-2.56,2.86-5.13,4.29-7.68C131.2,69.89,131.84,69.31,132.46,68.72Z" transform="translate(-4.59 -8.04)"/>
          <path class="cls-2" d="M127.41,247.65a7.71,7.71,0,0,1,1.29,5.59c-.73,7-1.19,14.06-1.68,21.1-.62,9.12-1.3,18.24-1.72,27.36-.49,10.32-.72,20.66-1.07,31,0,1.28-.16,2.55-.25,4h-7.84c2.87-31.47,5-62.92,5.58-94.71,1.37.92,2.46,1.59,3.48,2.36a6.21,6.21,0,0,1,1.31,1.53C126.87,246.4,127,247.1,127.41,247.65Z" transform="translate(-4.59 -8.04)"/>
          <path class="cls-2" d="M125.34,97.92l-1.43,4-3.26,8.14-1.45,3.6-2.53,8.84-2.69,11-4,17.12-3.7,14.81-4,13.36L100,176.75a14.36,14.36,0,0,0-2.06-1.3c-1.25,2.3-1.89,2.77-3.2,2.68l2.77-2.43,0-.11L97.3,175h0L96,174.7h0l-1.33-.32.14-.36a.49.49,0,0,1,0-.11L99.61,153s0,0,0-.08l3.26-9.57,4.9-16.8,0-.08,4.09-10.2L116.66,106,120,98.2a1,1,0,0,0,.08-.14l.56-.79.05-.07c.5-.64.77-.84,1.29-.79a12.59,12.59,0,0,1,1.62.42A3.7,3.7,0,0,1,125.34,97.92Z" transform="translate(-4.59 -8.04)"/>
          <path d="M123.48,80.4A33.67,33.67,0,0,0,119,93.46c-.08.66-.21,1.31-.3,1.84,1.11.21,2.23.36,3.34.54l-.09.57c-.52,0-.79.15-1.29.79l-.05.07-.56.79a1,1,0,0,1-.08.14L116.66,106l-4.76,10.28-4.09,10.2,0,.08-4.9,16.8L99.62,153s0,0,0,.08l-4.8,20.86a.49.49,0,0,0,0,.11l-.14.36h0a25.1,25.1,0,0,0-2.56-.49c-1.2-.16-2.14,1.54-1.58,2.89a7.66,7.66,0,0,0,1.61,2.45l.46.46L89.3,188a50,50,0,0,1-7.6-3l4.8-22.67,13.8-37,4-9.65c.05-.12.11-.23.16-.34l3.7-6.81,2.19-.36v-.37l-1.83.09,1.11-2c.26-.4.68-1.06.94-1.45l5.1-6.75c.29-.36,2.36-1.94,1.73-2.15l-.22-.06a2.44,2.44,0,0,0-.56-.08,8.81,8.81,0,0,0,.73-3,29.69,29.69,0,0,1,4.75-12.77Z" transform="translate(-4.59 -8.04)"/>
          <path class="cls-3" d="M117.45,95.46c.63.21-1.44,1.79-1.73,2.15l-5.1,6.75c-.26.39-.68,1-.94,1.45l-1.11,2-2.8.13c0-.12-.07-.24-.1-.36l2.88-.91-2-.25c2.77-3,5-6.12,7.86-8.44a7.9,7.9,0,0,0,2.27-2.71,2.44,2.44,0,0,1,.56.08Z" transform="translate(-4.59 -8.04)"/>
          <path class="cls-2" d="M120.12,205.86c-2.75,2-3.87,4.74-4.46,7.64-.87,4.29-3.08,7.87-5.34,11.37l-7.92-2.24-3.47-15a1.34,1.34,0,0,1,0-.2l.15-16.87,2.47.63c.06,0,.16-.11.3-.21a15.24,15.24,0,0,0-2-4l2.45-8.24a60.9,60.9,0,0,1,5.4,5.12c3.29,3.64,5.87,7.73,6.73,12.76C115.08,200.36,116.17,203.92,120.12,205.86Z" transform="translate(-4.59 -8.04)"/>
          <path class="cls-3" d="M116.67,95.32A7.9,7.9,0,0,1,114.4,98c-2.85,2.32-5.09,5.4-7.86,8.44l2,.25-2.88.91-.08-.06,2.09-2.88.2-.24,2.63-3.07L113.45,98a7.27,7.27,0,0,1,.5-.61c1.38-1.45,1-1.14,1.56-1.69l.39-.24.6-.09h.17Z" transform="translate(-4.59 -8.04)"/>
          <path class="cls-3" d="M116.3,95.32c.19,0,.24,0,.21,0h-.21Z" transform="translate(-4.59 -8.04)"/>
          <path class="cls-3" d="M108.57,107.86l-.36.64c-1,.17-2,.35-3.07.56a3.38,3.38,0,0,0-.8.24c.1-.16.21-.3.32-.45l.93-1.28.08.06c0,.12.07.24.1.36Z" transform="translate(-4.59 -8.04)"/>
          <path class="cls-3" d="M108.21,108.5l-3.7,6.81c-.05.11-.11.22-.16.34l-4,9.65-13.8,37L81.7,185l-.27-.12c-.28-.14-.56-.29-.83-.45l3.75-20.83c0,.13-2.26,8-2.29,8.09l-1.8,12.56c-2.51-1.44-4.82-3.31-7.21-5-1.89-1.34-3.78-2.62-6.12-2.71l2-1.81c.49,0,1,0,1.5,0A31.93,31.93,0,0,1,72,170.59l2.27-3.33a2.39,2.39,0,0,1,.13-.21l8.5-14.48.66-1.19a146.33,146.33,0,0,0,9.68-18.23C96.28,126,99.77,119,103.08,112a1.76,1.76,0,0,0,.29-.86.22.22,0,0,1,0-.08l0-.08a13.19,13.19,0,0,1,1-1.68,3.38,3.38,0,0,1,.8-.24C106.16,108.85,107.19,108.67,108.21,108.5Z" transform="translate(-4.59 -8.04)"/>
          <path class="cls-2" d="M104.56,231.94a.85.85,0,0,1-.53,1l-.15,0-3.88.65a.78.78,0,0,1-.54-.09c-.9-.5-3.85-2.28-4.83-4.56-.12-.28-2.22-5.82-3.68-9.66l.82.25c3.53,1.05,7.08,2.06,10.63,3.07Z" transform="translate(-4.59 -8.04)"/>
          <path d="M104,232.93l.1.33a32.51,32.51,0,0,1-14,.89,34.65,34.65,0,0,1-17.21-7.5,45.67,45.67,0,0,0,6,3.58l3.06,1.35a.48.48,0,0,0,.65-.65L75.87,212.5l.14-.64A50.41,50.41,0,0,0,91,219.31c1.46,3.84,3.56,9.38,3.68,9.66,1,2.28,3.93,4.06,4.83,4.56a.78.78,0,0,0,.54.09l3.88-.65Z" transform="translate(-4.59 -8.04)"/>
          <path d="M104.34,109.3a13.19,13.19,0,0,0-1,1.68l0,.08A1.54,1.54,0,0,1,104.34,109.3Z" transform="translate(-4.59 -8.04)"/>
          <path class="cls-3" d="M103.37,111.14a1.76,1.76,0,0,1-.29.86c-3.31,7-6.8,14-9.88,21.15a146.33,146.33,0,0,1-9.68,18.23l5.12-9.27.1-.2L96.25,126l7.11-15A.22.22,0,0,0,103.37,111.14Z" transform="translate(-4.59 -8.04)"/>
          <path class="cls-2" d="M98.93,207.67l3.47,15c-3.55-1-7.1-2-10.63-3.07l-.82-.25-1.36-3.56a.71.71,0,0,1,0-.2L87.84,201.9a1.2,1.2,0,0,1,0-.38l1.47-4.27a.64.64,0,0,0,0-.34l-.6-7.38a.82.82,0,0,1,.06-.38L89.3,188c3.21,1,6.49,1.81,9.77,2.62l-.15,16.87A1.34,1.34,0,0,0,98.93,207.67Z" transform="translate(-4.59 -8.04)"/>
          <path class="cls-2" d="M102.33,178.82l-2.45,8.24a15.79,15.79,0,0,0-2.7-3c-1.58-1.39-3.14-2.83-4.63-4.34l.81-2.08,1.35.53c1.31.09,2-.38,3.2-2.68a14.36,14.36,0,0,1,2.06,1.3Z" transform="translate(-4.59 -8.04)"/>
          <path d="M101.84,191c-.14.1-.24.22-.3.21l-2.47-.63v-.67a1.05,1.05,0,0,1,0-.24l.78-2.63A15.24,15.24,0,0,1,101.84,191Z" transform="translate(-4.59 -8.04)"/>
          <path class="cls-2" d="M99.88,187.06l-.78,2.63a1.05,1.05,0,0,0,0,.24v.67c-3.28-.81-6.56-1.61-9.77-2.62l3.25-8.3c1.49,1.51,3,2.95,4.63,4.34A15.79,15.79,0,0,1,99.88,187.06Z" transform="translate(-4.59 -8.04)"/>
          <path class="cls-2" d="M97.45,175.59l0,.11-2.77,2.43-1.35-.53,1.26-3.23,1.34.32h0l1.27.3C97.33,175.2,97.39,175.4,97.45,175.59Z" transform="translate(-4.59 -8.04)"/>
          <path class="cls-2" d="M97.45,175.59c-.06-.19-.12-.39-.19-.59h0Z" transform="translate(-4.59 -8.04)"/>
          <path class="cls-2" d="M97.26,175h0L96,174.7Z" transform="translate(-4.59 -8.04)"/>
          <path class="cls-2" d="M94.63,174.37l1.33.32-1.34-.32Z" transform="translate(-4.59 -8.04)"/>
          <path class="cls-2" d="M94.62,174.37l-1.26,3.23-.81,2.08-.46-.46a7.66,7.66,0,0,1-1.61-2.45c-.56-1.35.38-3.05,1.58-2.89A25.1,25.1,0,0,1,94.62,174.37Z" transform="translate(-4.59 -8.04)"/>
          <path class="cls-2" d="M89.59,215.75,91,219.31A50.41,50.41,0,0,1,76,211.86l1.92-9.09q2,1.38,4.08,2.69c-1.28-1.18-2.59-2.32-3.92-3.44l1.58-7.44c1.84,1.34,3.71,2.65,5.56,4a5.16,5.16,0,0,0,1.12.5c-2-1.68-4.29-3-6.21-4.75l-.35-.32,1.91-9a50,50,0,0,0,7.6,3l-.46,1.17a.82.82,0,0,0-.06.38l.6,7.38a.64.64,0,0,1,0,.34l-1.47,4.27a1.2,1.2,0,0,0,0,.38l1.71,13.65A.71.71,0,0,0,89.59,215.75Z" transform="translate(-4.59 -8.04)"/>
          <path d="M86.35,199.07a5.16,5.16,0,0,1-1.12-.5c-1.85-1.34-3.72-2.65-5.56-4l.12-.58.35.32C82.06,196,84.32,197.39,86.35,199.07Z" transform="translate(-4.59 -8.04)"/>
          <path class="cls-3" d="M84.35,163.59,80.6,184.42l-.34-.18,1.8-12.56C82.09,171.55,84.31,163.72,84.35,163.59Z" transform="translate(-4.59 -8.04)"/>
          <path d="M83.52,151.38l-.66,1.19-8.5,14.48a2.39,2.39,0,0,0-.13.21L72,170.59c2-4.47,4.86-8.6,7.56-12.83C80.87,155.65,82.21,153.52,83.52,151.38Z" transform="translate(-4.59 -8.04)"/>
          <path class="cls-3" d="M82.58,230.93a.48.48,0,0,1-.65.65l-3.06-1.35a45.67,45.67,0,0,1-6-3.58l0,0-.51-.43-.05,0c-1.31-1.17-2.88-3-4.06-4.33a37,37,0,0,1-3.83-4.74,5.19,5.19,0,0,1-.31-.5c-.1-.16-.19-.33-.29-.5s-.22-.39-.33-.6l-.48-.92a22.38,22.38,0,0,1-2.27-12.42,3.75,3.75,0,0,0-.92-3l0,0,.28-1.86a39.36,39.36,0,0,0,3.33,3.51l.11.11c.32.31.66.61,1,.91l.15.14c2.65,2.26,5.1,4.74,7.7,7q1.76,1.56,3.62,2.91l-.14.64Z" transform="translate(-4.59 -8.04)"/>
          <path class="cls-2" d="M81.7,185l-1.91,9-.8-.71,1.61-8.87c.27.16.55.31.83.45Z" transform="translate(-4.59 -8.04)"/>
          <path class="cls-2" d="M80.6,184.42,79,193.29v0l1.28-9Z" transform="translate(-4.59 -8.04)"/>
          <path class="cls-2" d="M80.26,184.24l-1.28,9c-.52-.46-1-.93-1.54-1.4-.89-.81-1.78-1.62-2.66-2.44-1.94-1.8-3.86-3.61-5.78-5.41l-3.23-3a11.12,11.12,0,0,1-.9-1l.95-2.08a3.79,3.79,0,0,1,.84-1.15l.27-.25c2.34.09,4.23,1.37,6.12,2.71C75.44,180.93,77.75,182.8,80.26,184.24Z" transform="translate(-4.59 -8.04)"/>
          <path class="cls-3" d="M79.79,194l-.12.58-.8-.59.12-.7Z" transform="translate(-4.59 -8.04)"/>
          <path class="cls-2" d="M79.67,194.58,78.09,202c-1.43-1.22-2.88-2.41-4.34-3.6-4.34-3.55-8.62-7.16-11.92-11.72l2.24-4.91a13,13,0,0,1,1.47,1.09c3.41,2.87,6.7,5.9,10.18,8.69,1,.83,2.08,1.63,3.15,2.42Z" transform="translate(-4.59 -8.04)"/>
          <path d="M82,205.46q-2.08-1.31-4.08-2.69l.16-.75C79.42,203.14,80.73,204.28,82,205.46Z" transform="translate(-4.59 -8.04)"/>
          <path class="cls-3" d="M79,193.29l-.12.7.11-.72Z" transform="translate(-4.59 -8.04)"/>
          <path class="cls-3" d="M79,193.27l-.11.72c-1.07-.79-2.12-1.59-3.15-2.42-3.48-2.79-6.77-5.82-10.18-8.69a13,13,0,0,0-1.47-1.09l.79-1.75a4.43,4.43,0,0,0,.45.51L69,184c1.92,1.8,3.84,3.61,5.78,5.41.88.82,1.77,1.63,2.66,2.44C77.94,192.34,78.46,192.81,79,193.27Z" transform="translate(-4.59 -8.04)"/>
          <path class="cls-3" d="M78.09,202l-.16.75A86.18,86.18,0,0,1,61.48,188l.05-.29a3.68,3.68,0,0,1,.28-.95l0,0c3.3,4.56,7.58,8.17,11.92,11.72C75.21,199.61,76.66,200.8,78.09,202Z" transform="translate(-4.59 -8.04)"/>
          <path class="cls-2" d="M77.93,202.77,76,211.86q-1.86-1.35-3.62-2.91c-2.6-2.31-5-4.79-7.7-7l-.15-.14c-.28-.24-.62-.55-1-.91l-.11-.11a5.48,5.48,0,0,1-1.91-5.29,5.73,5.73,0,0,1,.92.58l10,9.34a3.56,3.56,0,0,0,.84.46l.25-.32-.64-.58-.57-.53a3.83,3.83,0,0,1-.29-.28c-.16-.15-.32-.32-.47-.49a58.06,58.06,0,0,0-7.32-7q-.42-.33-.75-.63c-.17-.15-.31-.29-.45-.44a3.22,3.22,0,0,1-.61-4.31s-.13-.1-.26-.22c-.37.6-.71,1.17-1.09,1.78l-.25-.35.66-4.43A86.18,86.18,0,0,0,77.93,202.77Z" transform="translate(-4.59 -8.04)"/>
          <path class="cls-3" d="M74.78,189.43c.88.82,1.77,1.63,2.66,2.44C76.55,191.06,75.66,190.25,74.78,189.43Z" transform="translate(-4.59 -8.04)"/>
          <path class="cls-3" d="M73.52,205.51l-.25.32a3.56,3.56,0,0,1-.84-.46l-10-9.34c-.27-.25-.59-.95-.9-1.15l-.84-1.17s0-.08,0-.12l.18-1.18.25.35a15.8,15.8,0,0,0,2,2.75c.14.15.28.29.45.44,2.87,2.69,5.69,5.44,8.54,8.17a3.83,3.83,0,0,0,.29.28l.57.53Z" transform="translate(-4.59 -8.04)"/>
          <path class="cls-3" d="M72.37,226.2l.51.43C72.72,226.5,72.54,226.36,72.37,226.2Z" transform="translate(-4.59 -8.04)"/>
          <path class="cls-2" d="M72.31,204.4l.57.53Z" transform="translate(-4.59 -8.04)"/>
          <path class="cls-3" d="M71.55,203.63c.15.17.31.34.47.49-2.85-2.73-5.67-5.48-8.54-8.17q.33.3.75.63A58.06,58.06,0,0,1,71.55,203.63Z" transform="translate(-4.59 -8.04)"/>
          <path class="cls-3" d="M69.77,173.8,72,170.59a31.93,31.93,0,0,0-1.55,4.16c-.51,0-1,0-1.5,0l.33-.31A3.41,3.41,0,0,0,69.77,173.8Z" transform="translate(-4.59 -8.04)"/>
          <path d="M68.26,221.83c1.18,1.31,2.75,3.16,4.06,4.33a40.32,40.32,0,0,1-4.74-4.77,36.36,36.36,0,0,1-3.15-4.3A37,37,0,0,0,68.26,221.83Z" transform="translate(-4.59 -8.04)"/>
          <path d="M68.91,174.72l-2,1.81a7.2,7.2,0,0,0-1.13,0,4,4,0,0,0-1.37.36,1.2,1.2,0,0,0-.25.16.45.45,0,0,0-.1.09,1,1,0,0,0-.27.85,1.65,1.65,0,0,0,.08.34,1.27,1.27,0,0,0,.08.23,4.66,4.66,0,0,0,.44.8l0,0,.14.2.28.39-.79,1.75c-.45-.29-.89-.56-1.34-.83-1.37-.84-2.82-.11-2.61,1.46a9.31,9.31,0,0,0,1.49,4l.22.3,0,0a3.68,3.68,0,0,0-.28.95l-.05.29,0-.07c-2.33.65-2.54,1.82-.61,4.5l-.18,1.18-.36-.78-.1.18-.35-.49c-.48-.53-1.42.09-1.68.82l-.06,0a5.17,5.17,0,0,1,.48-1c.16-.28-.11-.85-.26-1.26-.54-1.46-.67-2.9.53-4.06.68-.64.56-1.17.31-1.91-1.16-3.43-.56-4.79,2.69-6.24,0-2.44.8-3.68,3-4A22.29,22.29,0,0,1,68.91,174.72Z" transform="translate(-4.59 -8.04)"/>
          <path class="cls-3" d="M65.77,181,69,184l-3.69-3.47a4.43,4.43,0,0,1-.45-.51v0A11.12,11.12,0,0,0,65.77,181Z" transform="translate(-4.59 -8.04)"/>
          <path class="cls-2" d="M66.93,176.53l-.27.25a3.79,3.79,0,0,0-.84,1.15L64.87,180l-.29-.36-.14-.2a5.75,5.75,0,0,1-.47-.85,1.27,1.27,0,0,1-.08-.23,1.51,1.51,0,0,1-.08-.34,1,1,0,0,1,.27-.85l.1-.09a1.2,1.2,0,0,1,.25-.16,4,4,0,0,1,1.37-.36A7.2,7.2,0,0,1,66.93,176.53Z" transform="translate(-4.59 -8.04)"/>
          <path class="cls-2" d="M64.44,179.45l0,0a4.66,4.66,0,0,1-.44-.8A5.75,5.75,0,0,0,64.44,179.45Z" transform="translate(-4.59 -8.04)"/>
          <path class="cls-3" d="M63.83,216.09c.1.17.19.34.29.5C64,216.43,63.92,216.26,63.83,216.09Z" transform="translate(-4.59 -8.04)"/>
          <path class="cls-2" d="M64.07,181.79l-2.24,4.91-.22-.3a9.31,9.31,0,0,1-1.49-4c-.21-1.57,1.24-2.3,2.61-1.46C63.18,181.23,63.62,181.5,64.07,181.79Z" transform="translate(-4.59 -8.04)"/>
          <path class="cls-2" d="M63.81,178a1.51,1.51,0,0,0,.08.34A1.65,1.65,0,0,1,63.81,178Z" transform="translate(-4.59 -8.04)"/>
          <path class="cls-3" d="M63.53,200.85c.39.36.73.67,1,.91C64.19,201.46,63.85,201.16,63.53,200.85Z" transform="translate(-4.59 -8.04)"/>
          <path d="M63,214.57l.48.92C63.33,215.18,63.18,214.88,63,214.57Z" transform="translate(-4.59 -8.04)"/>
          <path class="cls-2" d="M62.16,191c.13.12.26.2.26.22a3.22,3.22,0,0,0,.61,4.31,15.8,15.8,0,0,1-2-2.75C61.45,192.15,61.79,191.58,62.16,191Z" transform="translate(-4.59 -8.04)"/>
          <path class="cls-3" d="M63,214.57A32.6,32.6,0,0,1,60.6,209c-.83-2.53-.65-5.65-.79-8.31a13.12,13.12,0,0,1,0-1.54v0l0,0a3.75,3.75,0,0,1,.92,3A22.38,22.38,0,0,0,63,214.57Z" transform="translate(-4.59 -8.04)"/>
          <path class="cls-2" d="M62.43,196a5.73,5.73,0,0,0-.92-.58.31.31,0,0,1,0-.08h0l0,.05c-.26-.58-.53-1.15-.79-1.72l.84,1.17C61.84,195.08,62.16,195.78,62.43,196Z" transform="translate(-4.59 -8.04)"/>
          <path class="cls-2" d="M61.53,195.37a.31.31,0,0,0,0,.08.2.2,0,0,1,0-.07Z" transform="translate(-4.59 -8.04)"/>
          <path class="cls-2" d="M61.52,195.38a.2.2,0,0,0,0,.07l0,0Z" transform="translate(-4.59 -8.04)"/>
          <path class="cls-2" d="M61.48,195.43l0,0c-.21.76-.43,1.52-.67,2.37a12.57,12.57,0,0,1-.66-1.18l.45-3,.06.08C61,194.28,61.22,194.85,61.48,195.43Z" transform="translate(-4.59 -8.04)"/>
          <path class="cls-2" d="M61.43,187.91l0,.07-.66,4.43C58.89,189.73,59.1,188.56,61.43,187.91Z" transform="translate(-4.59 -8.04)"/>
          <path class="cls-2" d="M61.51,195.45a5.48,5.48,0,0,0,1.91,5.29,39.36,39.36,0,0,1-3.33-3.51l.09-.59a12.57,12.57,0,0,0,.66,1.18C61.08,197,61.3,196.21,61.51,195.45Z" transform="translate(-4.59 -8.04)"/>
          <path class="cls-3" d="M60.69,193.71l-.06-.08v0S60.67,193.68,60.69,193.71Z" transform="translate(-4.59 -8.04)"/>
          <path class="cls-2" d="M60.28,192.81l.36.78v0l-.45-.64Z" transform="translate(-4.59 -8.04)"/>
          <path class="cls-2" d="M60.18,193l.45.64-.45,3A3.6,3.6,0,0,1,60.18,193Z" transform="translate(-4.59 -8.04)"/>
          <path class="cls-2" d="M60.18,196.64l-.09.59a8.83,8.83,0,0,1-2-3.39,1,1,0,0,1,0-.52c.26-.73,1.2-1.35,1.68-.82l.35.49A3.6,3.6,0,0,0,60.18,196.64Z" transform="translate(-4.59 -8.04)"/>
          <path d="M60.09,197.23l-.28,1.86c-1.35-1.73-2.48-3.59-1.72-5.79l.06,0a1,1,0,0,0,0,.52A8.83,8.83,0,0,0,60.09,197.23Z" transform="translate(-4.59 -8.04)"/>
        </g>
        <g>
          <path class="cls-4" d="M60.09,197.23l-.28,1.86v0a13.12,13.12,0,0,0,0,1.54c.14,2.66,0,5.78.79,8.31A32.6,32.6,0,0,0,63,214.57l.48.92c.11.21.21.41.33.6s.19.34.29.5a5.19,5.19,0,0,0,.31.5,37,37,0,0,0,3.83,4.74c1.18,1.31,2.75,3.16,4.06,4.33l.05,0c.17.16.35.3.51.43l0,0a45.67,45.67,0,0,0,6,3.58l3.06,1.35a.48.48,0,0,0,.65-.65L75.87,212.5l.14-.64" transform="translate(-4.59 -8.04)"/>
          <polyline class="cls-4" points="56.23 184.37 56.05 185.55 56.04 185.59"/>
          <path class="cls-4" d="M61.83,186.7l0,0a3.68,3.68,0,0,0-.28.95l-.05.29" transform="translate(-4.59 -8.04)"/>
          <polyline class="cls-4" points="60.28 171.97 60.27 172 59.48 173.75"/>
          <path class="cls-4" d="M116.5,95.32l-.6.09-.39.24c-.53.55-.18.24-1.56,1.69a7.27,7.27,0,0,0-.5.61l-2.94,3.43-2.63,3.07-.2.24-2.09,2.88-.93,1.28c-.11.15-.22.29-.32.45a13.19,13.19,0,0,0-1,1.68l0,.08-7.11,15-7.51,15.9-.1.2-5.12,9.27-.66,1.19-8.5,14.48a2.39,2.39,0,0,0-.13.21L72,170.59l-2.19,3.21a3.41,3.41,0,0,1-.53.61l-.33.31-2,1.81" transform="translate(-4.59 -8.04)"/>
          <path class="cls-4" d="M116.17,95.32h.13c.19,0,.24,0,.21,0" transform="translate(-4.59 -8.04)"/>
          <path class="cls-4" d="M81.7,185l4.8-22.67,13.8-37,4-9.65c.05-.12.11-.23.16-.34l3.7-6.81.36-.64,1.11-2c.26-.4.68-1.06.94-1.45l5.1-6.75c.29-.36,2.36-1.94,1.73-2.15l-.22-.06a2.44,2.44,0,0,0-.56-.08h-.37" transform="translate(-4.59 -8.04)"/>
          <line class="cls-4" x1="75.08" y1="186.54" x2="75.2" y2="185.96"/>
          <line class="cls-4" x1="73.34" y1="194.73" x2="73.51" y2="193.98"/>
          <path class="cls-5" d="M102.33,178.82l4-13.36,3.7-14.81,4-17.12,2.69-11,2.53-8.84,1.45-3.6,3.26-8.14,1.43-4a3.7,3.7,0,0,0-1.75-1.09,12.59,12.59,0,0,0-1.62-.42c-.52,0-.79.15-1.29.79l-.05.07-.56.79a1,1,0,0,1-.08.14L116.66,106l-4.76,10.28-4.09,10.2,0,.08-4.9,16.8L99.62,153s0,0,0,.08l-4.8,20.86a.49.49,0,0,0,0,.11l-.14.36" transform="translate(-4.59 -8.04)"/>
          <path class="cls-5" d="M99.07,190.6v-.67a1.05,1.05,0,0,1,0-.24l.78-2.63" transform="translate(-4.59 -8.04)"/>
          <path class="cls-5" d="M91,219.31c1.46,3.84,3.56,9.38,3.68,9.66,1,2.28,3.93,4.06,4.83,4.56a.78.78,0,0,0,.54.09l3.88-.65.15,0a.85.85,0,0,0,.53-1l-2.16-9.31" transform="translate(-4.59 -8.04)"/>
          <line class="cls-5" x1="87.96" y1="171.64" x2="84.71" y2="179.94"/>
          <path class="cls-6" d="M97.45,175.59,97.3,175h0L96,174.7h0l-1.33-.32h0a25.1,25.1,0,0,0-2.56-.49c-1.2-.16-2.14,1.54-1.58,2.89a7.66,7.66,0,0,0,1.61,2.45l.46.46c1.49,1.51,3,2.95,4.63,4.34a15.79,15.79,0,0,1,2.7,3,15.24,15.24,0,0,1,2,4c-.14.1-.24.22-.3.21l-2.47-.63c-3.28-.81-6.56-1.61-9.77-2.62a50,50,0,0,1-7.6-3l-.27-.12c-.28-.14-.56-.29-.83-.45l-.34-.18c-2.51-1.44-4.82-3.31-7.21-5-1.89-1.34-3.78-2.62-6.12-2.71a7.2,7.2,0,0,0-1.13,0,4,4,0,0,0-1.37.36,1.2,1.2,0,0,0-.25.16l-.1.09a1,1,0,0,0-.27.85,1.65,1.65,0,0,0,.08.34,1.27,1.27,0,0,0,.08.23,4.66,4.66,0,0,0,.44.8l0,0,.14.2.29.36a11.12,11.12,0,0,0,.9,1L69,184c1.92,1.8,3.84,3.61,5.78,5.41.88.82,1.77,1.63,2.66,2.44.5.47,1,.94,1.54,1.4v0l.8.71.35.32c1.92,1.72,4.18,3.07,6.21,4.75a5.16,5.16,0,0,1-1.12-.5c-1.85-1.34-3.72-2.65-5.56-4l-.8-.59c-1.07-.79-2.12-1.59-3.15-2.42-3.48-2.79-6.77-5.82-10.18-8.69a13,13,0,0,0-1.47-1.09c-.45-.29-.89-.56-1.34-.83-1.37-.84-2.82-.11-2.61,1.46a9.31,9.31,0,0,0,1.49,4l.22.3c3.3,4.56,7.58,8.17,11.92,11.72,1.46,1.19,2.91,2.38,4.34,3.6s2.64,2.26,3.92,3.44q-2.08-1.31-4.08-2.69A86.18,86.18,0,0,1,61.48,188l0-.07c-2.33.65-2.54,1.82-.61,4.5l.25.35" transform="translate(-4.59 -8.04)"/>
          <path class="cls-6" d="M61.07,192.76a15.8,15.8,0,0,0,2,2.75c.14.15.28.29.45.44s.47.41.75.63a58.06,58.06,0,0,1,7.32,7c.15.17.31.34.47.49a3.83,3.83,0,0,0,.29.28l.57.53.64.58-.25.32a3.56,3.56,0,0,1-.84-.46l-10-9.34c-.27-.25-.59-.95-.9-1.15l-.84-1.17-.06-.08-.45-.64-.35-.49c-.48-.53-1.42.09-1.68.82a1,1,0,0,0,0,.52,8.83,8.83,0,0,0,2,3.39,39.36,39.36,0,0,0,3.33,3.51l.11.11c.39.36.73.67,1,.91l.15.14c2.65,2.26,5.1,4.74,7.7,7q1.76,1.56,3.62,2.91A50.41,50.41,0,0,0,91,219.31l.82.25c3.53,1.05,7.08,2.06,10.63,3.07l7.92,2.24c2.26-3.5,4.47-7.08,5.34-11.37.59-2.9,1.71-5.66,4.46-7.64-4-1.94-5-5.5-5.66-9.16-.86-5-3.44-9.12-6.73-12.76a60.9,60.9,0,0,0-5.4-5.12L100,176.75a14.36,14.36,0,0,0-2.06-1.3c-1.25,2.3-1.89,2.77-3.2,2.68" transform="translate(-4.59 -8.04)"/>
        </g>
      </g>
    </g>
    <g id="band_1">
      <path class="cls-3" d="M206.53,215.75,210,215c14.16-2.69,28.27,2.22,28.27,2.22,11,3.24,20.45,23.15,20.45,23.15v3.33l-7,22.51L248,272.25l-1.85,2.25c.85-7.36-1.44-18.58-2.14-21.74l-.19-.86c-3.17-8.24-16.07-18.23-16.07-18.23-4.86-1.74-8.67-3-8.67-3a20.06,20.06,0,0,0-5.5.16,65.17,65.17,0,0,1-8.92-2.48c-.32-4.5-.64-7.67-.64-7.67C204.93,216.86,206.53,215.75,206.53,215.75Z" transform="translate(-4.59 -8.04)"/>
    </g>
  </g>
  <g id="box">
    <polygon class="cls-7" points="64.97 279.2 271.62 283.32 268.3 289.21 69.04 285.96 64.97 279.2"/>
    <polygon class="cls-7" points="100.09 325.44 235.83 328.69 230.56 334.14 105.62 330.98 100.09 325.44"/>
    <g id="black">
      <polyline class="cls-8" points="100.09 325.44 235.83 328.69 246.17 317.4 252.61 309.29 259.7 299.62 266.63 289.22 70.39 285.98 73.79 291.36 82.14 303.45 86.11 308.81 91.96 316.1"/>
    </g>
  </g>
  <g id="Name">
    <g>
      <path class="cls-2" d="M146.23,325.22l5.36-22.93,4.73.11-4.45,19.1,11.72.27-.89,3.84Z" transform="translate(-4.59 -8.04)"/>
      <path class="cls-2" d="M170.61,325.79l-4.75-.11,5.36-22.93,10.23.24a12.45,12.45,0,0,1,4.1.63,4.71,4.71,0,0,1,2.33,2.05,6.47,6.47,0,0,1,.82,3.52,6.92,6.92,0,0,1-1.87,4.81,8.45,8.45,0,0,1-5.39,2.24,9.25,9.25,0,0,1,1.67,2.2,58.6,58.6,0,0,1,3.36,7.72l-5.1-.12c-.37-1.31-1.13-3.36-2.26-6.14a7.06,7.06,0,0,0-2-3,4.46,4.46,0,0,0-2.35-.51l-1.94,0Zm3-12.94,2.51.06a17.6,17.6,0,0,0,5.08-.34,4,4,0,0,0,2-1.38,3.45,3.45,0,0,0,.76-2,2.08,2.08,0,0,0-1-1.91,6.2,6.2,0,0,0-2.71-.44l-5.22-.12Z" transform="translate(-4.59 -8.04)"/>
      <path class="cls-2" d="M202.12,314.21l10.31.23-2.3,9.84a17.72,17.72,0,0,1-4.52,1.89,18.1,18.1,0,0,1-5.42.7c-2.85-.07-5-.76-6.5-2.09q-3.06-2.71-2.94-7.72a16,16,0,0,1,1.49-6.42,13,13,0,0,1,4.69-5.64,11.89,11.89,0,0,1,7-1.89,10.19,10.19,0,0,1,6.36,2,9,9,0,0,1,3.08,5.48l-4.43.4a5.58,5.58,0,0,0-1.81-3,5.22,5.22,0,0,0-3.24-1.06,7.61,7.61,0,0,0-7.33,4.72,13.66,13.66,0,0,0-1.21,5.43,6.08,6.08,0,0,0,1.22,4.33,5.09,5.09,0,0,0,3.84,1.48,12.24,12.24,0,0,0,3.13-.36,13.71,13.71,0,0,0,2.79-1l.79-3.41-5.88-.13Z" transform="translate(-4.59 -8.04)"/>
    </g>
  </g>
  <g id="est">
    <g>
      <path class="cls-9" d="M152.33,362.82l1.65-7.88h5.84l-.28,1.32h-4.21l-.38,1.79H159l-.28,1.32h-4.07l-.5,2.13h4.58l-.28,1.32Z" transform="translate(-4.59 -8.04)"/>
      <path class="cls-9" d="M159.92,360.27l1.54-.08a1.75,1.75,0,0,0,.25,1,1.67,1.67,0,0,0,1.31.42,1.9,1.9,0,0,0,1.15-.28.85.85,0,0,0,.36-.69.75.75,0,0,0-.29-.59,5.88,5.88,0,0,0-1.12-.58,9.78,9.78,0,0,1-1.34-.66,2,2,0,0,1-.66-.69,2,2,0,0,1-.25-1,2.11,2.11,0,0,1,.72-1.64,3,3,0,0,1,2.09-.66,3.2,3.2,0,0,1,2.14.65,2.38,2.38,0,0,1,.84,1.73l-1.55.07a1.26,1.26,0,0,0-.41-.86,1.95,1.95,0,0,0-2-.07.76.76,0,0,0-.29.6.69.69,0,0,0,.26.55,5.12,5.12,0,0,0,1.17.62,6.59,6.59,0,0,1,1.73.95,1.84,1.84,0,0,1,.55,1.38,2.29,2.29,0,0,1-.82,1.78,3.3,3.3,0,0,1-2.3.74,4.19,4.19,0,0,1-1.76-.34,2.14,2.14,0,0,1-1.05-.95A2.84,2.84,0,0,1,159.92,360.27Z" transform="translate(-4.59 -8.04)"/>
      <path class="cls-9" d="M170.44,362.82h-1.63l1.38-6.56h-2.31l.27-1.32h6.21l-.28,1.32H171.8Z" transform="translate(-4.59 -8.04)"/>
      <path class="cls-9" d="M179.24,357.4l-1.51-.23a2.66,2.66,0,0,1,.85-1.67,2.45,2.45,0,0,1,1.67-.59,2.4,2.4,0,0,1,1.73.6,2,2,0,0,1,.63,1.51,2.43,2.43,0,0,1-.19.94,3.83,3.83,0,0,1-.64,1c-.21.24-.55.58-1,1l-1,.91c-.15.17-.3.34-.44.52h2.72l-.29,1.41H177a3.21,3.21,0,0,1,.34-1.1,5,5,0,0,1,.66-1c.27-.3.75-.79,1.46-1.46.53-.5.86-.84,1-1a3.13,3.13,0,0,0,.52-.72,1.44,1.44,0,0,0,.14-.56.88.88,0,0,0-.24-.64.75.75,0,0,0-.59-.25.86.86,0,0,0-.64.28A2,2,0,0,0,179.24,357.4Z" transform="translate(-4.59 -8.04)"/>
      <path class="cls-9" d="M183.16,360.26a7.61,7.61,0,0,1,.4-2.41,5.2,5.2,0,0,1,1.27-2.21,2.45,2.45,0,0,1,1.72-.73,2,2,0,0,1,1.57.7,2.93,2.93,0,0,1,.61,2,8,8,0,0,1-.44,2.55,4.93,4.93,0,0,1-1.22,2.07,2.45,2.45,0,0,1-1.71.71,2,2,0,0,1-1.58-.69A2.92,2.92,0,0,1,183.16,360.26Zm1.51.31a1.43,1.43,0,0,0,.21.89.64.64,0,0,0,.52.26,1,1,0,0,0,.77-.4,5.36,5.36,0,0,0,.79-2.09,9.9,9.9,0,0,0,.27-2,1.36,1.36,0,0,0-.21-.85.61.61,0,0,0-.53-.26.91.91,0,0,0-.72.39,5.28,5.28,0,0,0-.81,2A9.6,9.6,0,0,0,184.67,360.57Z" transform="translate(-4.59 -8.04)"/>
      <path class="cls-9" d="M189.28,360.26a7.61,7.61,0,0,1,.4-2.41,5.2,5.2,0,0,1,1.27-2.21,2.43,2.43,0,0,1,1.72-.73,2,2,0,0,1,1.57.7,2.93,2.93,0,0,1,.61,2,8,8,0,0,1-.45,2.55,4.92,4.92,0,0,1-1.21,2.07,2.47,2.47,0,0,1-1.72.71,2,2,0,0,1-1.57-.69A2.87,2.87,0,0,1,189.28,360.26Zm1.51.31a1.43,1.43,0,0,0,.21.89.64.64,0,0,0,.52.26,1,1,0,0,0,.76-.4,5.06,5.06,0,0,0,.79-2.09,9.34,9.34,0,0,0,.28-2,1.36,1.36,0,0,0-.21-.85.63.63,0,0,0-.53-.26.91.91,0,0,0-.72.39,5.28,5.28,0,0,0-.81,2A9.6,9.6,0,0,0,190.79,360.57Z" transform="translate(-4.59 -8.04)"/>
      <path class="cls-9" d="M195.82,356.48l.3-1.43h5.19l-.23,1.1a6.58,6.58,0,0,0-1.09,1.19,12.36,12.36,0,0,0-1.1,1.79,14.76,14.76,0,0,0-.83,1.87,11.81,11.81,0,0,0-.55,1.82H196a9.87,9.87,0,0,1,.46-1.62,14.92,14.92,0,0,1,1.1-2.45,13.68,13.68,0,0,1,1.59-2.27Z" transform="translate(-4.59 -8.04)"/>
    </g>
  </g>
</svg>
