<svg xmlns="http://www.w3.org/2000/svg" viewBox="0 0 332.99 118.82">
  <g id="whistle">
    <path d="M183.37,108.32c-3.94,1.39-7.7,3.12-11.64,4a39.33,39.33,0,0,1-47.4-30.61,77,77,0,0,1-.94-8.88A14.63,14.63,0,0,0,109,59.53H82.86c-3.32,0-4.39-1.08-4.39-4.39,0-5.6,0-11.2,0-16.79,0-2.8,1.17-4,4-4H139.9c2.65,0,3.86,1.28,3.87,4v2.36h19.88c.08-1.1.08-2.16.26-3.19a3.2,3.2,0,0,1,3.8-2.77A40,40,0,0,1,202,66.75a38.66,38.66,0,0,1-4.47,26.51c-.26.46-.52.91-.85,1.51a12,12,0,0,1,8.72,6.44,10.89,10.89,0,0,1,1,7.15A11.71,11.71,0,0,1,195.26,118C189.6,118.28,185.05,114.49,183.37,108.32Zm11.46,3.15a5.21,5.21,0,0,0,5.32-5,5.38,5.38,0,0,0-5.12-5.3,5.24,5.24,0,0,0-5.26,5.11A5,5,0,0,0,194.83,111.47Z" transform="translate(-78.47 -34.32)" style="fill: #fff"/>
    <circle cx="85.94" cy="42.66" r="26.4" style="fill: #454545"/>
  </g>
  <g id="LRG">
    <g id="lrg-2" data-name="lrg">
      <path d="M272.73,96.27v13.8H225V38.69h16.07V96.27Z" transform="translate(-78.47 -34.32)" style="fill: #e12429"/>
      <path d="M303.94,37.87q16.06,0,24.62,5.71t8.55,17.77q0,7.51-3.46,12.21a22.69,22.69,0,0,1-9.94,7.36q2.18,2.68,4.54,6.13t4.68,7.21q2.32,3.76,4.48,7.83t4,8h-18q-2-3.5-4-7.11c-1.35-2.4-2.72-4.73-4.14-7s-2.81-4.41-4.18-6.44S308.41,85.66,307,84H299.1v26.06H283V39.72a93.4,93.4,0,0,1,10.87-1.44Q299.51,37.88,303.94,37.87Zm.93,13.7c-1.17,0-2.22,0-3.15.1l-2.62.21V71.24h4.53q9.06,0,13-2.27t3.91-7.72q0-5.25-4-7.47T304.87,51.57Z" transform="translate(-78.47 -34.32)" style="fill: #e12429"/>
      <path d="M384.69,51.05q-11.22,0-16.22,6.23t-5,17a34.43,34.43,0,0,0,1.24,9.53,20.83,20.83,0,0,0,3.71,7.36A16.7,16.7,0,0,0,374.6,96a20.6,20.6,0,0,0,8.65,1.7c1.78,0,3.31,0,4.58-.1a22.71,22.71,0,0,0,3.35-.41V72.37h16.07V107.7a60,60,0,0,1-9.27,2.42,81.28,81.28,0,0,1-15.76,1.29,40.82,40.82,0,0,1-14.57-2.47,30.42,30.42,0,0,1-11.18-7.21,32.18,32.18,0,0,1-7.16-11.64,45.75,45.75,0,0,1-2.52-15.76,42.07,42.07,0,0,1,2.78-15.86,34,34,0,0,1,7.62-11.69,32,32,0,0,1,11.38-7.26,39.1,39.1,0,0,1,14-2.48,57.12,57.12,0,0,1,9.11.67,58.76,58.76,0,0,1,7,1.55,31.76,31.76,0,0,1,4.84,1.8q1.9.93,2.73,1.44l-4.64,12.88a41.58,41.58,0,0,0-7.57-3A32.11,32.11,0,0,0,384.69,51.05Z" transform="translate(-78.47 -34.32)" style="fill: #e12429"/>
    </g>
  </g>
  <g id="full_name">
    <g id="logo_name">
      <path d="M116.84,148V129.55h3.76v15.33h9.34V148Z" transform="translate(-78.47 -34.32)" style="fill: #fdfeff"/>
      <path d="M131.77,141.08a7.24,7.24,0,0,1,.88-3.44,6,6,0,0,1,2.48-2.54,7.38,7.38,0,0,1,3.58-.87,6.77,6.77,0,0,1,5,2,6.88,6.88,0,0,1,2,5,7,7,0,0,1-2,5.08,6.68,6.68,0,0,1-5,2,7.81,7.81,0,0,1-3.54-.84,5.73,5.73,0,0,1-2.55-2.46A8.11,8.11,0,0,1,131.77,141.08Zm3.66.19a4.43,4.43,0,0,0,.95,3.07,3.1,3.1,0,0,0,4.69,0,4.51,4.51,0,0,0,.94-3.09,4.45,4.45,0,0,0-.94-3.05,3.1,3.1,0,0,0-4.69,0A4.45,4.45,0,0,0,135.43,141.27Z" transform="translate(-78.47 -34.32)" style="fill: #fdfeff"/>
      <path d="M160.74,148h-3.57v-6.88a10.23,10.23,0,0,0-.23-2.82,2,2,0,0,0-.74-1A2.08,2.08,0,0,0,155,137a2.85,2.85,0,0,0-1.66.5,2.56,2.56,0,0,0-1,1.35,11.76,11.76,0,0,0-.27,3.1V148h-3.57V134.53h3.31v2a5.41,5.41,0,0,1,4.45-2.28,5.47,5.47,0,0,1,2.16.42,3.63,3.63,0,0,1,1.47,1.09,3.86,3.86,0,0,1,.7,1.49,11.2,11.2,0,0,1,.2,2.4Z" transform="translate(-78.47 -34.32)" style="fill: #fdfeff"/>
      <path d="M176.72,148h-3.31v-2a5.29,5.29,0,0,1-1.95,1.72,5,5,0,0,1-2.27.57,5.16,5.16,0,0,1-4-1.88,9.16,9.16,0,0,1,0-10.43,5.26,5.26,0,0,1,4.08-1.78,5,5,0,0,1,3.91,1.88V129.4h3.56Zm-9.52-7a6.12,6.12,0,0,0,.6,3.12,2.69,2.69,0,0,0,2.41,1.4,2.64,2.64,0,0,0,2.1-1.05,4.87,4.87,0,0,0,.86-3.13,5.26,5.26,0,0,0-.84-3.34,2.65,2.65,0,0,0-2.14-1,2.68,2.68,0,0,0-2.13,1A4.59,4.59,0,0,0,167.2,141Z" transform="translate(-78.47 -34.32)" style="fill: #fdfeff"/>
      <path d="M179.41,141.08a7.36,7.36,0,0,1,.88-3.44,6,6,0,0,1,2.48-2.54,7.42,7.42,0,0,1,3.59-.87,6.73,6.73,0,0,1,5,2,6.85,6.85,0,0,1,2,5,7,7,0,0,1-2,5.08,6.66,6.66,0,0,1-5,2,7.8,7.8,0,0,1-3.53-.84,5.75,5.75,0,0,1-2.56-2.46A8.22,8.22,0,0,1,179.41,141.08Zm3.66.19a4.48,4.48,0,0,0,1,3.07,3,3,0,0,0,2.35,1.07,3,3,0,0,0,2.34-1.07,4.52,4.52,0,0,0,.95-3.09,4.46,4.46,0,0,0-.95-3.05,3,3,0,0,0-2.34-1.07A3,3,0,0,0,184,138.2,4.5,4.5,0,0,0,183.07,141.27Z" transform="translate(-78.47 -34.32)" style="fill: #fdfeff"/>
      <path d="M208.39,148h-3.57v-6.88a10.66,10.66,0,0,0-.23-2.82,2,2,0,0,0-.74-1,2.13,2.13,0,0,0-1.24-.35,2.83,2.83,0,0,0-1.66.5,2.56,2.56,0,0,0-1,1.35,11.22,11.22,0,0,0-.28,3.1V148H196.1V134.53h3.31v2a5.55,5.55,0,0,1,6.6-1.86,3.67,3.67,0,0,1,1.48,1.09,4,4,0,0,1,.7,1.49,11.2,11.2,0,0,1,.2,2.4Z" transform="translate(-78.47 -34.32)" style="fill: #fdfeff"/>
      <path d="M219.27,148V129.4h7.9a13.69,13.69,0,0,1,4.34.5,4.28,4.28,0,0,1,2.16,1.79,5.28,5.28,0,0,1,.82,2.93,5,5,0,0,1-1.23,3.46,6,6,0,0,1-3.69,1.72,8.5,8.5,0,0,1,2,1.56,22.87,22.87,0,0,1,2.14,3L236,148h-4.5l-2.71-4a27.79,27.79,0,0,0-2-2.73,3,3,0,0,0-1.13-.78,6.22,6.22,0,0,0-1.9-.21H223V148ZM223,137.27h2.78a13.89,13.89,0,0,0,3.38-.23,2,2,0,0,0,1-.78,2.38,2.38,0,0,0,.38-1.4,2.21,2.21,0,0,0-.5-1.52,2.34,2.34,0,0,0-1.41-.73c-.31,0-1.22-.06-2.74-.06H223Z" transform="translate(-78.47 -34.32)" style="fill: #fdfeff"/>
      <path d="M245.81,143.72l3.56.6a5.89,5.89,0,0,1-2.17,3,6.36,6.36,0,0,1-3.7,1,6,6,0,0,1-5.2-2.3,7.73,7.73,0,0,1-1.34-4.65,7.5,7.5,0,0,1,1.75-5.25,5.8,5.8,0,0,1,4.44-1.89,6,6,0,0,1,4.74,2q1.74,2,1.67,6.09h-8.94a3.58,3.58,0,0,0,.86,2.47,2.7,2.7,0,0,0,2.06.88,2.15,2.15,0,0,0,1.41-.46A2.76,2.76,0,0,0,245.81,143.72Zm.2-3.6a3.4,3.4,0,0,0-.8-2.36,2.42,2.42,0,0,0-1.85-.8,2.47,2.47,0,0,0-1.93.85,3.25,3.25,0,0,0-.75,2.31Z" transform="translate(-78.47 -34.32)" style="fill: #fdfeff"/>
      <path d="M250.9,134.53h2v-1a6.73,6.73,0,0,1,.36-2.54,2.9,2.9,0,0,1,1.34-1.37,5.08,5.08,0,0,1,2.45-.53,10.14,10.14,0,0,1,3,.46l-.48,2.49a6.86,6.86,0,0,0-1.64-.2,1.45,1.45,0,0,0-1.11.36,2.05,2.05,0,0,0-.34,1.39v.95h2.67v2.81h-2.67V148h-3.57V137.34h-2Z" transform="translate(-78.47 -34.32)" style="fill: #fdfeff"/>
      <path d="M268.93,143.72l3.55.6a5.82,5.82,0,0,1-2.16,3,6.38,6.38,0,0,1-3.7,1,6,6,0,0,1-5.21-2.3,7.8,7.8,0,0,1-1.33-4.65,7.5,7.5,0,0,1,1.75-5.25,5.79,5.79,0,0,1,4.43-1.89,6,6,0,0,1,4.75,2c1.16,1.33,1.72,3.36,1.66,6.09h-8.93a3.58,3.58,0,0,0,.86,2.47,2.7,2.7,0,0,0,2.06.88,2.15,2.15,0,0,0,1.41-.46A2.82,2.82,0,0,0,268.93,143.72Zm.2-3.6a3.4,3.4,0,0,0-.8-2.36,2.42,2.42,0,0,0-1.85-.8,2.47,2.47,0,0,0-1.93.85,3.25,3.25,0,0,0-.75,2.31Z" transform="translate(-78.47 -34.32)" style="fill: #fdfeff"/>
      <path d="M279,148h-3.57V134.53h3.31v1.92a5.81,5.81,0,0,1,1.53-1.79,2.83,2.83,0,0,1,1.55-.43,4.48,4.48,0,0,1,2.34.67l-1.1,3.11a3.12,3.12,0,0,0-1.68-.58,2,2,0,0,0-1.27.41,2.85,2.85,0,0,0-.82,1.49,22.07,22.07,0,0,0-.29,4.52Z" transform="translate(-78.47 -34.32)" style="fill: #fdfeff"/>
      <path d="M293.51,143.72l3.55.6a5.88,5.88,0,0,1-2.16,3,6.38,6.38,0,0,1-3.7,1A6,6,0,0,1,286,146a7.73,7.73,0,0,1-1.33-4.65,7.45,7.45,0,0,1,1.75-5.25,5.79,5.79,0,0,1,4.43-1.89,6,6,0,0,1,4.75,2q1.74,2,1.66,6.09h-8.93a3.58,3.58,0,0,0,.86,2.47,2.69,2.69,0,0,0,2.06.88,2.15,2.15,0,0,0,1.4-.46A2.76,2.76,0,0,0,293.51,143.72Zm.2-3.6a3.4,3.4,0,0,0-.8-2.36,2.43,2.43,0,0,0-1.85-.8,2.47,2.47,0,0,0-1.93.85,3.25,3.25,0,0,0-.75,2.31Z" transform="translate(-78.47 -34.32)" style="fill: #fdfeff"/>
      <path d="M308,143.72l3.55.6a5.88,5.88,0,0,1-2.16,3,6.38,6.38,0,0,1-3.7,1,6,6,0,0,1-5.21-2.3,7.73,7.73,0,0,1-1.33-4.65,7.45,7.45,0,0,1,1.75-5.25,5.79,5.79,0,0,1,4.43-1.89,6,6,0,0,1,4.75,2q1.74,2,1.66,6.09h-8.93a3.58,3.58,0,0,0,.86,2.47,2.69,2.69,0,0,0,2.06.88,2.15,2.15,0,0,0,1.4-.46A2.76,2.76,0,0,0,308,143.72Zm.2-3.6a3.4,3.4,0,0,0-.8-2.36,2.43,2.43,0,0,0-1.85-.8,2.47,2.47,0,0,0-1.93.85,3.25,3.25,0,0,0-.75,2.31Z" transform="translate(-78.47 -34.32)" style="fill: #fdfeff"/>
      <path d="M313.36,144.17l3.58-.55a2.65,2.65,0,0,0,.93,1.58,3.13,3.13,0,0,0,2,.54,3.53,3.53,0,0,0,2.08-.51,1.13,1.13,0,0,0,.47-.95.94.94,0,0,0-.26-.67,2.7,2.7,0,0,0-1.19-.47,19.53,19.53,0,0,1-5.47-1.74,3.47,3.47,0,0,1-1.6-3,3.75,3.75,0,0,1,1.38-2.94,6.43,6.43,0,0,1,4.29-1.19,7.52,7.52,0,0,1,4.12.9,4.64,4.64,0,0,1,1.85,2.66l-3.36.63a2.11,2.11,0,0,0-.82-1.21,3,3,0,0,0-1.72-.42,3.89,3.89,0,0,0-2,.39.86.86,0,0,0-.41.73.8.8,0,0,0,.36.65,13.63,13.63,0,0,0,3.33,1,9.82,9.82,0,0,1,4,1.59A3.29,3.29,0,0,1,326,143.8a4.06,4.06,0,0,1-1.55,3.18,6.84,6.84,0,0,1-4.58,1.34,7.52,7.52,0,0,1-4.37-1.12A5.15,5.15,0,0,1,313.36,144.17Z" transform="translate(-78.47 -34.32)" style="fill: #fdfeff"/>
      <path d="M345,141.17V138h8.1v7.42a10.29,10.29,0,0,1-3.42,2,12.49,12.49,0,0,1-4.54.87,10.22,10.22,0,0,1-5.09-1.22,7.83,7.83,0,0,1-3.27-3.51,11.29,11.29,0,0,1-1.09-5,10.72,10.72,0,0,1,1.22-5.16,8.15,8.15,0,0,1,3.57-3.47,9.58,9.58,0,0,1,4.45-.93,8.9,8.9,0,0,1,5.42,1.46,6.6,6.6,0,0,1,2.51,4l-3.74.69a3.91,3.91,0,0,0-1.48-2.16,4.44,4.44,0,0,0-2.71-.79,5.08,5.08,0,0,0-3.91,1.56,6.56,6.56,0,0,0-1.46,4.63,7.24,7.24,0,0,0,1.48,5,4.89,4.89,0,0,0,3.86,1.66,6.64,6.64,0,0,0,2.36-.46,8.26,8.26,0,0,0,2-1.13v-2.36Z" transform="translate(-78.47 -34.32)" style="fill: #fdfeff"/>
      <path d="M359.94,148h-3.56V134.53h3.31v1.92a5.68,5.68,0,0,1,1.53-1.79,2.77,2.77,0,0,1,1.54-.43,4.51,4.51,0,0,1,2.35.67L364,138a3.11,3.11,0,0,0-1.67-.58,2,2,0,0,0-1.27.41,2.78,2.78,0,0,0-.82,1.49,21.11,21.11,0,0,0-.3,4.52Z" transform="translate(-78.47 -34.32)" style="fill: #fdfeff"/>
      <path d="M365.82,141.08a7.24,7.24,0,0,1,.88-3.44,6,6,0,0,1,2.48-2.54,7.38,7.38,0,0,1,3.58-.87,6.75,6.75,0,0,1,5,2,6.88,6.88,0,0,1,2,5,7,7,0,0,1-2,5.08,6.68,6.68,0,0,1-5,2,7.84,7.84,0,0,1-3.54-.84A5.73,5.73,0,0,1,366.7,145,8.11,8.11,0,0,1,365.82,141.08Zm3.66.19a4.43,4.43,0,0,0,.95,3.07,3.1,3.1,0,0,0,4.69,0,4.52,4.52,0,0,0,.95-3.09,4.46,4.46,0,0,0-.95-3.05,3.1,3.1,0,0,0-4.69,0A4.45,4.45,0,0,0,369.48,141.27Z" transform="translate(-78.47 -34.32)" style="fill: #fdfeff"/>
      <path d="M391.4,148v-2a5.26,5.26,0,0,1-1.94,1.71,5.44,5.44,0,0,1-2.53.62,4.89,4.89,0,0,1-2.43-.6,3.52,3.52,0,0,1-1.57-1.67,7.55,7.55,0,0,1-.48-3v-8.53H386v6.2a17.5,17.5,0,0,0,.19,3.48,1.94,1.94,0,0,0,.72,1,2.21,2.21,0,0,0,1.32.37,2.84,2.84,0,0,0,1.64-.5,2.57,2.57,0,0,0,1-1.24,14.32,14.32,0,0,0,.27-3.64v-5.69h3.56V148Z" transform="translate(-78.47 -34.32)" style="fill: #fdfeff"/>
      <path d="M398.31,134.53h3.32v2a5,5,0,0,1,1.76-1.65,4.83,4.83,0,0,1,2.45-.63,5.12,5.12,0,0,1,4,1.84,7.44,7.44,0,0,1,1.64,5.13,7.64,7.64,0,0,1-1.65,5.24,5.14,5.14,0,0,1-4,1.88,4.47,4.47,0,0,1-2-.45,6.51,6.51,0,0,1-1.91-1.52v6.79h-3.57Zm3.53,6.51a5.19,5.19,0,0,0,.9,3.36,2.76,2.76,0,0,0,2.19,1.09,2.59,2.59,0,0,0,2.07-1,5.12,5.12,0,0,0,.83-3.27,4.94,4.94,0,0,0-.85-3.15,2.66,2.66,0,0,0-2.11-1,2.75,2.75,0,0,0-2.17,1A4.48,4.48,0,0,0,401.84,141Z" transform="translate(-78.47 -34.32)" style="fill: #fdfeff"/>
    </g>
  </g>
  <g id="EST">
    <path id="E" d="M357.35,127.91v-8.59h6.37v1.46h-4.64v1.9h4.32v1.45h-4.32v2.34h4.8v1.44Z" transform="translate(-78.47 -34.32)" style="fill: #e12429"/>
    <path id="S" d="M364.91,125.12l1.69-.17a2,2,0,0,0,.62,1.25,1.85,1.85,0,0,0,1.26.4,2,2,0,0,0,1.26-.35,1.08,1.08,0,0,0,.42-.83.81.81,0,0,0-.17-.52,1.41,1.41,0,0,0-.63-.37c-.2-.07-.66-.2-1.39-.38a4.58,4.58,0,0,1-2-.85,2.23,2.23,0,0,1-.8-1.73,2.19,2.19,0,0,1,.38-1.22,2.17,2.17,0,0,1,1.07-.87,4.29,4.29,0,0,1,1.69-.3,3.56,3.56,0,0,1,2.43.71,2.45,2.45,0,0,1,.86,1.89l-1.73.07a1.54,1.54,0,0,0-.48-.95,1.76,1.76,0,0,0-1.1-.29,2,2,0,0,0-1.18.31.63.63,0,0,0-.28.54.68.68,0,0,0,.26.52,4.69,4.69,0,0,0,1.59.57,8.68,8.68,0,0,1,1.88.62,2.42,2.42,0,0,1,.95.87,2.65,2.65,0,0,1,.34,1.37,2.56,2.56,0,0,1-.41,1.38,2.5,2.5,0,0,1-1.16,1,4.84,4.84,0,0,1-1.87.31,3.71,3.71,0,0,1-2.5-.75A3.31,3.31,0,0,1,364.91,125.12Z" transform="translate(-78.47 -34.32)" style="fill: #e12429"/>
    <path id="T" d="M375.29,127.91v-7.13h-2.55v-1.46h6.83v1.46H377v7.13Z" transform="translate(-78.47 -34.32)" style="fill: #e12429"/>
    <path id="_2" data-name="2" d="M389.22,126.38v1.53h-5.77a4,4,0,0,1,.56-1.64,10.65,10.65,0,0,1,1.85-2.06,11.7,11.7,0,0,0,1.37-1.41,1.85,1.85,0,0,0,.34-1,1.14,1.14,0,0,0-.3-.85,1.1,1.1,0,0,0-.82-.3,1.14,1.14,0,0,0-.82.31,1.61,1.61,0,0,0-.35,1l-1.64-.16a2.66,2.66,0,0,1,.92-2,3.06,3.06,0,0,1,1.93-.59,2.82,2.82,0,0,1,2,.68,2.25,2.25,0,0,1,.73,1.71,3,3,0,0,1-.21,1.1,4.51,4.51,0,0,1-.66,1.1,10.32,10.32,0,0,1-1.08,1.1,11.77,11.77,0,0,0-1,1,2.66,2.66,0,0,0-.34.45Z" transform="translate(-78.47 -34.32)" style="fill: #e12429"/>
    <path id="_0" data-name="0" d="M393.12,119.29a2.33,2.33,0,0,1,1.95.89,7.75,7.75,0,0,1,0,7,2.32,2.32,0,0,1-1.94.88,2.48,2.48,0,0,1-2-1,5.74,5.74,0,0,1-.76-3.44,5.68,5.68,0,0,1,.84-3.49A2.33,2.33,0,0,1,393.12,119.29Zm0,1.36a.89.89,0,0,0-.54.19,1.31,1.31,0,0,0-.36.69,9.56,9.56,0,0,0-.17,2.15,9.42,9.42,0,0,0,.15,2.07,1.52,1.52,0,0,0,.38.76.88.88,0,0,0,.54.18.82.82,0,0,0,.53-.19,1.24,1.24,0,0,0,.36-.68,9,9,0,0,0,.17-2.14,9.52,9.52,0,0,0-.15-2.08,1.52,1.52,0,0,0-.38-.76A.88.88,0,0,0,393.12,120.65Z" transform="translate(-78.47 -34.32)" style="fill: #e12429"/>
    <path id="_0-2" data-name="0" d="M399.79,119.29a2.33,2.33,0,0,1,1.95.89,7.67,7.67,0,0,1,0,7,2.32,2.32,0,0,1-1.94.88,2.45,2.45,0,0,1-2-1,7.86,7.86,0,0,1,.07-6.93A2.35,2.35,0,0,1,399.79,119.29Zm0,1.36a.84.84,0,0,0-.53.19,1.31,1.31,0,0,0-.37.69,9.56,9.56,0,0,0-.17,2.15,8.66,8.66,0,0,0,.16,2.07,1.44,1.44,0,0,0,.38.76.83.83,0,0,0,.53.18.78.78,0,0,0,.53-.19,1.24,1.24,0,0,0,.37-.68,9.51,9.51,0,0,0,.17-2.14,9.34,9.34,0,0,0-.16-2.08,1.52,1.52,0,0,0-.38-.76A.84.84,0,0,0,399.79,120.65Z" transform="translate(-78.47 -34.32)" style="fill: #e12429"/>
    <path id="_7" data-name="7" d="M403.68,121v-1.53h5.63v1.2a8.88,8.88,0,0,0-1.42,2,12,12,0,0,0-1.1,2.73,10.33,10.33,0,0,0-.37,2.58h-1.59a11.19,11.19,0,0,1,.74-3.63,12.13,12.13,0,0,1,1.85-3.31Z" transform="translate(-78.47 -34.32)" style="fill: #e12429"/>
  </g>
</svg>
