<?xml version="1.0" encoding="UTF-8"?>
<svg xmlns="http://www.w3.org/2000/svg" xmlns:xlink="http://www.w3.org/1999/xlink" width="194pt" height="194pt" viewBox="0 0 194 194" version="1.1">
<g id="surface1">
<path style=" stroke:none;fill-rule:evenodd;fill:rgb(100%,100%,100%);fill-opacity:1;" d="M 0.257813 0.675781 L 193.015625 0.675781 L 193.015625 193.433594 L 0.257813 193.433594 L 0.257813 0.675781 "/>
<path style=" stroke:none;fill-rule:evenodd;fill:rgb(100%,100%,100%);fill-opacity:1;" d="M 12.136719 162.660156 C 9.179688 164.324219 7.679688 166.566406 7.679688 169.324219 C 7.679688 172.160156 9.214844 174.425781 12.242188 176.050781 C 15.015625 177.539063 18.757813 178.296875 23.367188 178.296875 C 26.769531 178.296875 30.050781 177.8125 33.121094 176.855469 C 33.117188 176.855469 33.460938 176.757813 33.675781 176.699219 C 33.761719 176.75 34.335938 177.074219 34.335938 177.074219 L 34.902344 176.964844 L 37.464844 176.230469 L 31.171875 169.433594 L 28.789063 170.429688 C 28.789063 170.429688 28.886719 170.738281 28.984375 171.042969 C 28.152344 171.335938 27.347656 171.5625 26.589844 171.6875 C 25.699219 171.835938 24.589844 171.910156 23.289063 171.910156 C 21.117188 171.910156 19.414063 171.605469 18.226563 171 C 16.859375 170.300781 16.859375 169.566406 16.859375 169.292969 C 16.859375 169.011719 16.859375 168.265625 18.324219 167.523438 C 19.582031 166.890625 21.332031 166.570313 23.519531 166.570313 C 25.109375 166.570313 26.582031 166.738281 27.890625 167.066406 C 28.246094 167.15625 28.492188 167.234375 28.695313 167.304688 C 28.503906 167.625 28.308594 167.953125 28.308594 167.953125 L 29.894531 168.449219 L 31.265625 168.816406 L 36.410156 161.878906 L 33.546875 161.074219 L 32.984375 161.46875 C 32.984375 161.46875 32.804688 161.59375 32.746094 161.632813 C 32.460938 161.578125 29.640625 161.023438 29.640625 161.023438 C 27.382813 160.578125 25.085938 160.351563 22.820313 160.351563 C 18.453125 160.351563 14.859375 161.128906 12.136719 162.660156 "/>
<path style=" stroke:none;fill-rule:evenodd;fill:rgb(100%,100%,100%);fill-opacity:1;" d="M 51.445313 167.105469 C 52.117188 168.257813 52.410156 168.753906 53.082031 169.898438 C 51.765625 169.898438 51.203125 169.898438 49.914063 169.898438 C 50.535156 168.765625 50.804688 168.269531 51.445313 167.105469 Z M 57.398438 160.574219 L 44.964844 160.574219 L 44.964844 163.378906 C 44.964844 163.378906 45.101563 163.390625 45.15625 163.394531 C 44.734375 164.164063 39.484375 173.75 39.484375 173.75 C 39.460938 173.792969 39.367188 173.960938 39.367188 173.960938 L 39.34375 174.007813 C 39.003906 174.664063 38.613281 175.070313 38.1875 175.214844 L 37.324219 175.503906 L 37.324219 178.074219 L 47.496094 178.074219 L 47.496094 175.433594 C 47.496094 175.433594 47.210938 175.359375 46.925781 175.289063 C 47.03125 175.105469 47.046875 175.082031 47.15625 174.890625 C 48.328125 174.890625 54.902344 174.890625 56.089844 174.890625 C 56.203125 175.089844 56.21875 175.121094 56.320313 175.308594 C 56.179688 175.339844 55.996094 175.375 55.996094 175.375 L 55.921875 176.414063 L 55.921875 178.074219 L 66.660156 178.074219 L 66.660156 175.40625 L 65.675781 175.179688 C 65.496094 175.140625 65.445313 175.074219 65.402344 175.003906 L 65.375 174.949219 C 65.375 174.949219 59.023438 164.25 58.511719 163.390625 C 58.53125 163.390625 58.613281 163.382813 58.613281 163.382813 L 58.664063 162.230469 L 58.664063 160.574219 L 57.398438 160.574219 "/>
<path style=" stroke:none;fill-rule:evenodd;fill:rgb(100%,100%,100%);fill-opacity:1;" d="M 95.144531 160.574219 L 86.171875 160.574219 L 86.171875 163.257813 C 86.171875 163.257813 87.28125 163.488281 87.289063 163.492188 C 87.289063 163.96875 87.289063 165.847656 87.289063 167.792969 C 85.007813 166.125 81.34375 163.449219 80.488281 162.824219 C 80.511719 162.539063 80.539063 162.230469 80.539063 162.230469 L 80.539063 160.574219 L 68.191406 160.574219 L 68.191406 163.25 C 68.191406 163.25 69.234375 163.476563 69.25 163.480469 C 69.25 164.222656 69.25 174.390625 69.25 175.167969 C 69.164063 175.183594 68.265625 175.351563 68.265625 175.351563 L 68.191406 176.414063 L 68.191406 178.074219 L 78.261719 178.074219 L 78.261719 175.363281 C 78.261719 175.363281 77.289063 175.183594 77.199219 175.167969 C 77.199219 174.628906 77.199219 171.863281 77.199219 169.535156 C 79.726563 171.382813 84.875 175.144531 85.800781 175.820313 C 85.777344 176.109375 85.753906 176.414063 85.753906 176.414063 L 85.753906 178.074219 L 96.410156 178.074219 L 96.410156 175.390625 C 96.410156 175.390625 95.300781 175.15625 95.292969 175.15625 C 95.292969 174.355469 95.292969 164.253906 95.292969 163.492188 C 95.300781 163.492188 96.335938 163.265625 96.335938 163.265625 L 96.410156 162.230469 L 96.410156 160.574219 L 95.144531 160.574219 "/>
<path style=" stroke:none;fill-rule:evenodd;fill:rgb(100%,100%,100%);fill-opacity:1;" d="M 111.964844 167.105469 C 112.640625 168.257813 112.929688 168.753906 113.601563 169.898438 C 112.285156 169.898438 111.722656 169.898438 110.433594 169.898438 C 111.054688 168.765625 111.324219 168.269531 111.964844 167.105469 Z M 117.917969 160.574219 L 105.484375 160.574219 L 105.484375 163.378906 C 105.484375 163.378906 105.621094 163.390625 105.675781 163.394531 C 105.253906 164.164063 100.003906 173.75 100.003906 173.75 C 99.980469 173.792969 99.886719 173.960938 99.886719 173.960938 L 99.863281 174.007813 C 99.523438 174.664063 99.132813 175.070313 98.707031 175.214844 L 97.84375 175.503906 L 97.84375 178.074219 L 108.015625 178.074219 L 108.015625 175.433594 C 108.015625 175.433594 107.730469 175.359375 107.445313 175.289063 C 107.550781 175.105469 107.566406 175.082031 107.675781 174.890625 C 108.847656 174.890625 115.421875 174.890625 116.609375 174.890625 C 116.722656 175.089844 116.738281 175.121094 116.839844 175.308594 C 116.699219 175.339844 116.515625 175.375 116.515625 175.375 L 116.441406 176.414063 L 116.441406 178.074219 L 127.179688 178.074219 L 127.179688 175.40625 L 126.195313 175.179688 C 126.015625 175.140625 125.964844 175.074219 125.921875 175.003906 L 125.894531 174.949219 C 125.894531 174.949219 119.542969 164.25 119.03125 163.390625 C 119.046875 163.390625 119.132813 163.382813 119.132813 163.382813 L 119.183594 162.230469 L 119.183594 160.574219 L 117.917969 160.574219 "/>
<path style=" stroke:none;fill-rule:evenodd;fill:rgb(100%,100%,100%);fill-opacity:1;" d="M 141.511719 166.511719 C 144.386719 166.511719 145.78125 166.953125 146.445313 167.320313 C 147.195313 167.734375 147.527344 168.339844 147.527344 169.273438 C 147.527344 170.226563 147.191406 170.839844 146.429688 171.261719 C 145.765625 171.636719 144.371094 172.078125 141.511719 172.078125 C 141.511719 172.078125 139.839844 172.078125 138.613281 172.078125 C 138.613281 170.609375 138.613281 167.980469 138.613281 166.511719 C 139.839844 166.511719 141.511719 166.511719 141.511719 166.511719 Z M 129.976563 160.574219 L 128.710938 160.574219 L 128.710938 163.25 C 128.710938 163.25 129.753906 163.476563 129.769531 163.480469 C 129.769531 164.234375 129.769531 174.386719 129.769531 175.167969 C 129.6875 175.183594 128.785156 175.351563 128.785156 175.351563 L 128.710938 176.414063 L 128.710938 178.074219 L 141.554688 178.074219 C 144.34375 178.074219 146.453125 177.941406 148.007813 177.667969 C 149.601563 177.386719 151.03125 176.910156 152.246094 176.246094 C 153.605469 175.5 154.667969 174.519531 155.410156 173.324219 C 156.160156 172.113281 156.539063 170.761719 156.539063 169.300781 C 156.539063 167.867188 156.160156 166.53125 155.40625 165.328125 C 154.667969 164.144531 153.605469 163.167969 152.25 162.421875 C 151.035156 161.75 149.605469 161.261719 148.007813 160.980469 C 146.449219 160.707031 144.339844 160.574219 141.554688 160.574219 L 129.976563 160.574219 "/>
<path style=" stroke:none;fill-rule:evenodd;fill:rgb(100%,100%,100%);fill-opacity:1;" d="M 170.917969 167.105469 C 171.59375 168.257813 171.882813 168.753906 172.554688 169.898438 C 171.238281 169.898438 170.675781 169.898438 169.386719 169.898438 C 170.007813 168.765625 170.28125 168.269531 170.917969 167.105469 Z M 176.871094 160.574219 L 164.4375 160.574219 L 164.4375 163.378906 C 164.4375 163.378906 164.578125 163.390625 164.628906 163.394531 C 164.210938 164.164063 158.957031 173.75 158.957031 173.75 C 158.933594 173.792969 158.84375 173.960938 158.84375 173.960938 L 158.816406 174.007813 C 158.476563 174.664063 158.085938 175.070313 157.660156 175.214844 L 156.796875 175.503906 L 156.796875 178.074219 L 166.972656 178.074219 L 166.972656 175.433594 C 166.972656 175.433594 166.683594 175.359375 166.402344 175.289063 C 166.507813 175.105469 166.519531 175.082031 166.628906 174.890625 C 167.804688 174.890625 174.378906 174.890625 175.5625 174.890625 C 175.675781 175.089844 175.691406 175.121094 175.796875 175.308594 C 175.652344 175.339844 175.472656 175.375 175.472656 175.375 L 175.398438 176.414063 L 175.398438 178.074219 L 186.132813 178.074219 L 186.132813 175.40625 L 185.152344 175.179688 C 184.96875 175.140625 184.921875 175.074219 184.878906 175.003906 L 184.851563 174.949219 C 184.851563 174.949219 178.496094 164.25 177.988281 163.390625 C 178.003906 163.390625 178.089844 163.382813 178.089844 163.382813 L 178.140625 162.230469 L 178.140625 160.574219 L 176.871094 160.574219 "/>
<path style=" stroke:none;fill-rule:evenodd;fill:rgb(89.7995%,13.299561%,16.099548%);fill-opacity:1;" d="M 30.21875 167.222656 C 30.25 167.183594 30.273438 167.140625 30.292969 167.101563 C 30.3125 167.058594 30.324219 167.019531 30.324219 166.976563 C 30.324219 166.578125 29.617188 166.199219 28.203125 165.839844 C 26.785156 165.480469 25.226563 165.300781 23.519531 165.300781 C 21.121094 165.300781 19.199219 165.667969 17.753906 166.394531 C 16.3125 167.121094 15.589844 168.085938 15.589844 169.292969 C 15.589844 170.484375 16.277344 171.429688 17.652344 172.128906 C 19.023438 172.828125 20.90625 173.175781 23.289063 173.175781 C 24.664063 173.175781 25.832031 173.097656 26.796875 172.9375 C 27.761719 172.777344 28.757813 172.503906 29.78125 172.113281 C 30.0625 172.015625 30.242188 171.929688 30.324219 171.851563 C 30.40625 171.773438 30.449219 171.679688 30.449219 171.570313 C 30.449219 171.515625 30.4375 171.453125 30.417969 171.382813 C 30.398438 171.3125 30.371094 171.234375 30.34375 171.152344 L 30.84375 170.941406 L 35.136719 175.578125 L 34.554688 175.746094 C 34.359375 175.621094 34.199219 175.53125 34.066406 175.476563 C 33.933594 175.421875 33.828125 175.390625 33.742188 175.390625 C 33.617188 175.390625 33.285156 175.476563 32.742188 175.644531 C 29.78125 176.570313 26.65625 177.03125 23.367188 177.03125 C 18.949219 177.03125 15.441406 176.332031 12.84375 174.9375 C 10.246094 173.539063 8.945313 171.671875 8.945313 169.324219 C 8.945313 167.046875 10.214844 165.191406 12.757813 163.761719 C 15.300781 162.332031 18.652344 161.617188 22.820313 161.617188 C 25.015625 161.617188 27.207031 161.832031 29.394531 162.265625 C 31.582031 162.699219 32.6875 162.914063 32.714844 162.914063 C 32.910156 162.914063 33.085938 162.878906 33.238281 162.8125 C 33.390625 162.742188 33.570313 162.621094 33.777344 162.457031 L 34.296875 162.601563 L 30.761719 167.367188 L 30.21875 167.222656 "/>
<path style=" stroke:none;fill-rule:evenodd;fill:rgb(89.7995%,13.299561%,16.099548%);fill-opacity:1;" d="M 51.40625 164.539063 L 55.289063 171.164063 L 47.773438 171.164063 Z M 65.394531 176.804688 L 65.394531 176.414063 C 64.90625 176.304688 64.542969 176.046875 64.308594 175.640625 C 64.292969 175.625 64.285156 175.609375 64.285156 175.597656 L 57.148438 163.574219 C 57.035156 163.378906 56.941406 163.195313 56.867188 163.027344 C 56.789063 162.859375 56.75 162.75 56.75 162.691406 C 56.75 162.539063 56.800781 162.425781 56.898438 162.355469 C 56.996094 162.289063 57.160156 162.246094 57.398438 162.230469 L 57.398438 161.839844 L 46.230469 161.839844 L 46.230469 162.230469 C 46.464844 162.246094 46.632813 162.289063 46.730469 162.355469 C 46.828125 162.425781 46.875 162.539063 46.875 162.691406 C 46.875 162.75 46.84375 162.859375 46.773438 163.019531 C 46.703125 163.179688 46.613281 163.363281 46.5 163.574219 L 40.59375 174.359375 C 40.566406 174.414063 40.523438 174.492188 40.46875 174.589844 C 39.96875 175.554688 39.339844 176.164063 38.589844 176.414063 L 38.589844 176.804688 L 46.230469 176.804688 L 46.230469 176.414063 C 45.921875 176.359375 45.699219 176.277344 45.550781 176.164063 C 45.40625 176.050781 45.332031 175.910156 45.332031 175.742188 C 45.332031 175.660156 45.347656 175.578125 45.375 175.503906 C 45.402344 175.425781 45.445313 175.339844 45.5 175.238281 L 46.417969 173.621094 L 56.835938 173.621094 L 57.730469 175.238281 C 57.828125 175.421875 57.898438 175.5625 57.941406 175.660156 C 57.980469 175.757813 58.003906 175.84375 58.003906 175.910156 C 58.003906 176.050781 57.9375 176.160156 57.804688 176.238281 C 57.671875 176.3125 57.46875 176.375 57.1875 176.414063 L 57.1875 176.804688 L 65.394531 176.804688 "/>
<path style=" stroke:none;fill-rule:evenodd;fill:rgb(89.7995%,13.299561%,16.099548%);fill-opacity:1;" d="M 75.933594 175.597656 C 75.933594 175.878906 76 176.070313 76.132813 176.175781 C 76.265625 176.28125 76.550781 176.359375 76.996094 176.414063 L 76.996094 176.804688 L 69.457031 176.804688 L 69.457031 176.414063 C 69.902344 176.359375 70.1875 176.28125 70.320313 176.175781 C 70.453125 176.070313 70.519531 175.878906 70.519531 175.597656 L 70.519531 163.066406 C 70.519531 162.789063 70.453125 162.597656 70.320313 162.492188 C 70.1875 162.386719 69.902344 162.300781 69.457031 162.230469 L 69.457031 161.839844 L 79.273438 161.839844 L 79.273438 162.230469 C 78.992188 162.289063 78.78125 162.355469 78.636719 162.441406 C 78.488281 162.523438 78.414063 162.613281 78.414063 162.714844 C 78.414063 162.824219 78.578125 162.996094 78.898438 163.234375 C 78.980469 163.292969 79.050781 163.339844 79.105469 163.382813 L 88.554688 170.285156 L 88.554688 163.066406 C 88.554688 162.789063 88.484375 162.597656 88.34375 162.492188 C 88.203125 162.386719 87.902344 162.300781 87.4375 162.230469 L 87.4375 161.839844 L 95.144531 161.839844 L 95.144531 162.230469 C 94.6875 162.300781 94.390625 162.386719 94.246094 162.492188 C 94.101563 162.597656 94.027344 162.789063 94.027344 163.066406 L 94.027344 175.597656 C 94.027344 175.863281 94.101563 176.050781 94.246094 176.15625 C 94.390625 176.257813 94.6875 176.34375 95.144531 176.414063 L 95.144531 176.804688 L 87.019531 176.804688 L 87.019531 176.414063 C 87.300781 176.375 87.511719 176.308594 87.648438 176.226563 C 87.789063 176.144531 87.859375 176.050781 87.859375 175.953125 C 87.859375 175.828125 87.664063 175.621094 87.273438 175.328125 C 87.242188 175.300781 87.214844 175.277344 87.1875 175.265625 L 75.933594 167.042969 L 75.933594 175.597656 "/>
<path style=" stroke:none;fill-rule:evenodd;fill:rgb(89.7995%,13.299561%,16.099548%);fill-opacity:1;" d="M 111.925781 164.539063 L 115.808594 171.164063 L 108.296875 171.164063 Z M 125.914063 176.804688 L 125.914063 176.414063 C 125.425781 176.304688 125.0625 176.046875 124.828125 175.640625 C 124.8125 175.625 124.808594 175.609375 124.808594 175.597656 L 117.667969 163.574219 C 117.554688 163.378906 117.460938 163.195313 117.386719 163.027344 C 117.308594 162.859375 117.269531 162.75 117.269531 162.691406 C 117.269531 162.539063 117.320313 162.425781 117.417969 162.355469 C 117.515625 162.289063 117.679688 162.246094 117.917969 162.230469 L 117.917969 161.839844 L 106.75 161.839844 L 106.75 162.230469 C 106.984375 162.246094 107.152344 162.289063 107.25 162.355469 C 107.347656 162.425781 107.398438 162.539063 107.398438 162.691406 C 107.398438 162.75 107.359375 162.859375 107.292969 163.019531 C 107.222656 163.179688 107.132813 163.363281 107.019531 163.574219 L 101.113281 174.359375 C 101.085938 174.414063 101.042969 174.492188 100.988281 174.589844 C 100.488281 175.554688 99.859375 176.164063 99.109375 176.414063 L 99.109375 176.804688 L 106.75 176.804688 L 106.75 176.414063 C 106.445313 176.359375 106.21875 176.277344 106.070313 176.164063 C 105.925781 176.050781 105.851563 175.910156 105.851563 175.742188 C 105.851563 175.660156 105.867188 175.578125 105.894531 175.503906 C 105.921875 175.425781 105.964844 175.339844 106.019531 175.238281 L 106.9375 173.621094 L 117.355469 173.621094 L 118.253906 175.238281 C 118.347656 175.421875 118.417969 175.5625 118.460938 175.660156 C 118.503906 175.757813 118.523438 175.84375 118.523438 175.910156 C 118.523438 176.050781 118.457031 176.160156 118.324219 176.238281 C 118.191406 176.3125 117.984375 176.375 117.710938 176.414063 L 117.710938 176.804688 L 125.914063 176.804688 "/>
<path style=" stroke:none;fill-rule:evenodd;fill:rgb(89.7995%,13.299561%,16.099548%);fill-opacity:1;" d="M 141.511719 165.246094 C 144.050781 165.246094 145.898438 165.570313 147.058594 166.210938 C 148.214844 166.855469 148.796875 167.875 148.796875 169.273438 C 148.796875 170.6875 148.214844 171.71875 147.046875 172.367188 C 145.882813 173.019531 144.039063 173.34375 141.511719 173.34375 L 137.347656 173.34375 L 137.347656 165.246094 Z M 129.976563 161.839844 L 129.976563 162.230469 C 130.421875 162.300781 130.707031 162.386719 130.839844 162.492188 C 130.972656 162.59375 131.039063 162.785156 131.039063 163.0625 L 131.039063 175.601563 C 131.039063 175.878906 130.972656 176.070313 130.839844 176.175781 C 130.707031 176.28125 130.421875 176.359375 129.976563 176.414063 L 129.976563 176.804688 L 141.554688 176.804688 C 144.238281 176.804688 146.316406 176.675781 147.785156 176.417969 C 149.253906 176.160156 150.539063 175.734375 151.640625 175.132813 C 152.808594 174.492188 153.707031 173.667969 154.332031 172.65625 C 154.960938 171.648438 155.273438 170.53125 155.273438 169.300781 C 155.273438 168.105469 154.960938 167.003906 154.332031 166 C 153.707031 164.996094 152.808594 164.175781 151.640625 163.53125 C 150.539063 162.921875 149.253906 162.484375 147.785156 162.226563 C 146.316406 161.96875 144.238281 161.839844 141.554688 161.839844 L 129.976563 161.839844 "/>
<path style=" stroke:none;fill-rule:evenodd;fill:rgb(89.7995%,13.299561%,16.099548%);fill-opacity:1;" d="M 170.882813 164.539063 L 174.765625 171.164063 L 167.25 171.164063 Z M 184.867188 176.804688 L 184.867188 176.414063 C 184.382813 176.304688 184.019531 176.046875 183.78125 175.640625 C 183.769531 175.625 183.761719 175.609375 183.761719 175.597656 L 176.621094 163.574219 C 176.511719 163.378906 176.414063 163.195313 176.339844 163.027344 C 176.261719 162.859375 176.226563 162.75 176.226563 162.691406 C 176.226563 162.539063 176.273438 162.425781 176.371094 162.355469 C 176.46875 162.289063 176.636719 162.246094 176.871094 162.230469 L 176.871094 161.839844 L 165.703125 161.839844 L 165.703125 162.230469 C 165.941406 162.246094 166.105469 162.289063 166.203125 162.355469 C 166.300781 162.425781 166.351563 162.539063 166.351563 162.691406 C 166.351563 162.75 166.316406 162.859375 166.246094 163.019531 C 166.175781 163.179688 166.085938 163.363281 165.976563 163.574219 L 160.066406 174.359375 C 160.039063 174.414063 159.996094 174.492188 159.941406 174.589844 C 159.441406 175.554688 158.8125 176.164063 158.0625 176.414063 L 158.0625 176.804688 L 165.703125 176.804688 L 165.703125 176.414063 C 165.398438 176.359375 165.171875 176.277344 165.023438 176.164063 C 164.878906 176.050781 164.804688 175.910156 164.804688 175.742188 C 164.804688 175.660156 164.820313 175.578125 164.847656 175.503906 C 164.875 175.425781 164.917969 175.339844 164.972656 175.238281 L 165.890625 173.621094 L 176.308594 173.621094 L 177.207031 175.238281 C 177.304688 175.421875 177.371094 175.5625 177.414063 175.660156 C 177.457031 175.757813 177.476563 175.84375 177.476563 175.910156 C 177.476563 176.050781 177.410156 176.160156 177.277344 176.238281 C 177.144531 176.3125 176.941406 176.375 176.664063 176.414063 L 176.664063 176.804688 L 184.867188 176.804688 "/>
<path style=" stroke:none;fill-rule:evenodd;fill:rgb(100%,100%,100%);fill-opacity:1;" d="M 95.125 12.40625 L 80.324219 41.953125 C 80.238281 42.121094 79.78125 42.511719 78.96875 42.757813 C 78.125 43.015625 77.277344 43.003906 76.765625 42.722656 L 59.148438 33.171875 L 69.78125 78.898438 C 69.78125 78.90625 69.863281 79.230469 69.863281 79.230469 C 70.160156 80.34375 70.242188 80.855469 69.167969 81.425781 C 67.59375 82.261719 66.882813 81.820313 66.394531 81.28125 L 46.273438 58.976563 C 46.273438 58.976563 41.484375 69.925781 41.460938 69.988281 C 40.265625 72.382813 40.0625 72.75 35.191406 71.65625 L 12.828125 66.496094 L 20.628906 91.675781 C 21.738281 95.148438 20.1875 95.78125 19.445313 96.085938 L 7.140625 100.703125 L 48.160156 130.003906 C 49.570313 131.019531 49.625 131.628906 49.074219 132.835938 L 41.140625 150.199219 C 41.140625 150.199219 95.78125 139.585938 96.257813 139.492188 C 96.734375 139.585938 151.375 150.199219 151.375 150.199219 L 143.441406 132.835938 C 143.238281 132.390625 143.117188 132.023438 143.117188 131.691406 C 143.117188 131.121094 143.46875 130.644531 144.359375 130.003906 C 144.367188 129.996094 185.375 100.703125 185.375 100.703125 L 173.039063 96.070313 C 172.503906 95.851563 171.5 95.445313 171.5 93.785156 C 171.5 93.238281 171.609375 92.550781 171.886719 91.683594 L 179.6875 66.496094 L 157.316406 71.660156 C 152.457031 72.75 152.253906 72.382813 151.058594 69.988281 C 151.03125 69.925781 146.242188 58.976563 146.242188 58.976563 L 126.121094 81.28125 C 125.636719 81.820313 124.925781 82.261719 123.347656 81.425781 C 122.273438 80.855469 122.359375 80.34375 122.652344 79.230469 L 122.734375 78.90625 L 133.367188 33.171875 L 115.753906 42.722656 C 115.238281 43.003906 114.390625 43.015625 113.546875 42.757813 C 112.738281 42.511719 112.277344 42.121094 112.179688 41.933594 L 96.257813 10.144531 L 95.125 12.40625 "/>
<path style=" stroke:none;fill-rule:evenodd;fill:rgb(100%,100%,100%);fill-opacity:1;" d="M 90.941406 148.253906 L 90.941406 149.644531 C 90.941406 151.511719 93.6875 152.179688 96.257813 152.179688 C 98.828125 152.179688 101.578125 151.511719 101.578125 149.644531 C 101.578125 149.644531 101.578125 148.253906 101.578125 148.253906 C 101.578125 146.386719 98.828125 145.71875 96.257813 145.71875 C 93.6875 145.71875 90.941406 146.386719 90.941406 148.253906 "/>
<path style=" stroke:none;fill-rule:evenodd;fill:rgb(0%,0%,0%);fill-opacity:1;" d="M 143.617188 128.972656 L 182.703125 101.050781 L 172.59375 97.257813 C 170.589844 96.441406 169.59375 94.703125 170.679688 91.300781 L 177.828125 68.226563 L 157.601563 72.894531 C 152.066406 74.136719 151.378906 73.476563 149.910156 70.527344 L 145.867188 61.28125 L 127.0625 82.128906 C 126.277344 83 124.96875 83.71875 122.753906 82.546875 C 120.542969 81.371094 121.261719 79.621094 121.503906 78.613281 L 123.109375 71.707031 L 50.609375 131.171875 C 50.746094 131.832031 50.601563 132.542969 50.226563 133.363281 L 43.316406 148.488281 L 96.257813 138.203125 L 149.199219 148.488281 L 142.289063 133.363281 C 141.480469 131.589844 141.738281 130.328125 143.617188 128.972656 "/>
<path style=" stroke:none;fill-rule:evenodd;fill:rgb(89.7995%,13.299561%,16.099548%);fill-opacity:1;" d="M 123.109375 71.703125 L 131.496094 35.628906 L 116.355469 43.835938 C 114.640625 44.765625 111.730469 43.808594 111.058594 42.523438 L 96.257813 12.972656 L 81.457031 42.523438 C 80.785156 43.808594 77.875 44.765625 76.160156 43.835938 L 61.019531 35.628906 L 71.011719 78.613281 C 71.253906 79.621094 71.972656 81.371094 69.761719 82.546875 C 67.550781 83.71875 66.238281 83 65.453125 82.128906 L 46.648438 61.28125 L 42.605469 70.527344 C 41.136719 73.476563 40.453125 74.136719 34.914063 72.894531 L 14.691406 68.226563 L 21.835938 91.300781 C 22.925781 94.703125 21.925781 96.441406 19.921875 97.257813 L 9.8125 101.050781 L 48.898438 128.972656 C 49.914063 129.707031 50.457031 130.414063 50.613281 131.1875 L 123.109375 71.703125 "/>
<path style=" stroke:none;fill-rule:evenodd;fill:rgb(100%,100%,100%);fill-opacity:1;" d="M 117.605469 55.195313 L 116.933594 54.550781 C 116.933594 54.550781 115.292969 52.082031 113.714844 50.503906 L 112.902344 50.644531 L 109.152344 50.769531 C 108.390625 50.507813 107.402344 50.503906 107.402344 50.503906 C 105.246094 52.96875 104.503906 55.703125 104.503906 55.703125 L 104.273438 56.082031 C 104.167969 58.828125 104.679688 61.355469 104.679688 61.355469 L 100.789063 62.710938 L 100.789063 63.230469 C 100.789063 63.230469 100.0625 63.226563 99.230469 63.316406 C 98.398438 63.410156 96.542969 64.140625 96.542969 64.140625 L 90.421875 67.671875 L 88.167969 70.90625 L 84.785156 78.800781 C 84.785156 78.800781 84.519531 80.082031 84.519531 80.558594 L 84.542969 82.683594 L 83.71875 82.417969 L 80.476563 85.378906 L 79.957031 88.871094 L 76.496094 93.929688 L 69.046875 106.175781 L 69.046875 106.730469 L 66.777344 108.589844 L 66.777344 109.820313 C 66.777344 109.820313 65 110.359375 62.683594 112.5625 L 59.679688 115.925781 L 55.347656 122.175781 L 53.613281 123.492188 L 53.714844 125.921875 L 53.332031 126.300781 L 53.332031 126.871094 L 52.535156 127.820313 L 49.289063 130.765625 C 48.882813 131.613281 48.464844 134.03125 48.582031 135.257813 L 47.277344 139.496094 C 48.449219 138.769531 50.050781 138.203125 50.050781 138.203125 L 51.191406 138 L 57.855469 130.652344 L 68.425781 121.910156 C 69.816406 120.730469 70.910156 117.875 70.910156 117.875 C 70.910156 117.875 71.714844 117.296875 72.492188 117.09375 C 73.484375 116.828125 75.953125 115.699219 76.738281 114.878906 L 79.273438 112.222656 L 81.730469 112.070313 C 81.730469 112.070313 82.96875 110.53125 83.933594 108.769531 L 86.265625 107.402344 L 89.550781 103.710938 L 92.007813 101.519531 C 92.539063 100.988281 93.792969 100.683594 93.792969 100.683594 L 94.289063 103.480469 C 94.917969 106.910156 94.261719 107.78125 94.261719 107.78125 L 93.285156 110.527344 C 93.046875 111.15625 92.996094 111.980469 92.996094 111.980469 C 92.996094 111.980469 92.546875 112.535156 92.160156 113.273438 L 88.738281 119.773438 L 86.265625 125.921875 L 84.785156 126.871094 L 84.113281 128.335938 L 83.71875 128.019531 L 80.070313 134.09375 L 80.070313 135.054688 L 80.769531 135.875 L 79.691406 138.773438 L 79.980469 139.203125 L 82.375 137.710938 L 83.898438 138.53125 C 83.898438 138.53125 84.570313 138.082031 84.949219 137.597656 L 87.039063 134.902344 L 97.824219 123.960938 C 97.824219 123.960938 100.050781 121.820313 101.753906 116.511719 C 101.753906 116.511719 103.296875 115.367188 104.210938 113.878906 L 107.785156 108.074219 L 111.28125 99.621094 L 116.261719 103.632813 L 117.046875 103.507813 L 113.105469 137.394531 L 113.269531 138.734375 L 113.828125 139.316406 C 115.953125 139.285156 120.558594 138.507813 120.558594 138.507813 C 120.847656 138.460938 122.203125 136.78125 122.523438 135.585938 L 123.027344 133.675781 L 122.355469 133.382813 L 117.667969 134.941406 L 116.527344 135.167969 C 116.527344 135.167969 116.460938 134.125 116.503906 133.535156 L 120.039063 103.457031 C 121.917969 102.847656 123.535156 101.367188 123.929688 100.53125 L 123.257813 100.382813 L 123.660156 99.078125 L 122.851563 97.839844 L 123.929688 96.496094 L 123.410156 95.183594 L 121.914063 94.625 L 120.949219 94.488281 L 121.785156 86.71875 C 121.785156 86.71875 122.746094 85.539063 123.863281 84.582031 C 124.984375 83.625 126.019531 82.984375 126.5 82.332031 L 129.429688 78.371094 L 129.289063 77.308594 L 129.832031 76.371094 C 129.832031 76.371094 128.972656 75.035156 126.183594 73.691406 L 127.261719 71.945313 C 127.316406 69.085938 127.25 67.410156 129.289063 63.632813 L 128.757813 61.75 L 124.574219 58.003906 C 124.574219 58.003906 122.464844 57.433594 121.113281 57.535156 C 119.765625 57.640625 118.214844 58.550781 118.214844 58.550781 L 117.339844 59.078125 L 117.996094 57.867188 L 117.605469 57.601563 L 117.605469 55.195313 "/>
<path style=" stroke:none;fill-rule:evenodd;fill:rgb(0%,0%,0%);fill-opacity:1;" d="M 116.976563 84.871094 L 118.914063 86.453125 L 118.21875 93.574219 L 113.390625 90.285156 C 112.949219 89.980469 112.59375 89.402344 112.59375 89.402344 L 113.707031 87.910156 L 114.9375 85.695313 L 115.8125 83.644531 L 116.976563 84.871094 "/>
<path style=" stroke:none;fill-rule:evenodd;fill:rgb(0%,0%,0%);fill-opacity:1;" d="M 100.3125 148.253906 C 100.3125 147.554688 98.496094 146.984375 96.257813 146.984375 C 94.019531 146.984375 92.207031 147.554688 92.207031 148.253906 L 92.207031 149.644531 C 92.207031 150.34375 94.019531 150.910156 96.257813 150.910156 C 98.496094 150.910156 100.3125 150.34375 100.3125 149.644531 L 100.3125 148.253906 "/>
</g>
</svg>
