<?xml version="1.0" encoding="utf-8"?>
<!-- Generator: Adobe Illustrator 23.0.3, SVG Export Plug-In . SVG Version: 6.00 Build 0)  -->
<svg version="1.1" id="Icons" xmlns="http://www.w3.org/2000/svg" xmlns:xlink="http://www.w3.org/1999/xlink" x="0px" y="0px"
	 viewBox="0 0 32 32" style="enable-background:new 0 0 32 32;" xml:space="preserve">
<style type="text/css">
	.st0{fill:none;stroke:#000000;stroke-width:2;stroke-linecap:round;stroke-linejoin:round;stroke-miterlimit:10;}
</style>
<path d="M24.3,5.6c-3-2.7-6.9-3.9-10.9-3.5C7,2.8,1.8,7.9,1.1,14.3c-0.4,3.3,0.3,6.5,2.1,9.2C3.4,23.8,3.7,24,4.1,24h8.4
	c1.3,0,2.5-0.9,2.9-2.2l1.2-4.1c0.1-0.4,0.5-0.7,1-0.7H28c0.6,0,1-0.4,1-1C29,12,27.3,8.2,24.3,5.6z M9,21c-2.2,0-4-1.8-4-4
	c0-2.2,1.8-4,4-4s4,1.8,4,4C13,19.2,11.2,21,9,21z"/>
<g>
	<path d="M26.6,30H18c-0.6,0-1-0.4-1-1v-7h-2c-0.6,0-1-0.4-1-1s0.4-1,1-1h15c0.6,0,1,0.4,1,1v4.6C31,28,29,30,26.6,30z M19,28h7.6
		c1.3,0,2.4-1.1,2.4-2.4V22H19V28z"/>
</g>
<g>
	<path d="M30,26H18c-0.6,0-1-0.4-1-1s0.4-1,1-1h12c0.6,0,1,0.4,1,1S30.6,26,30,26z"/>
</g>
</svg>
