<svg xmlns="http://www.w3.org/2000/svg" width="22.822" height="22.822" viewBox="0 0 22.822 22.822">
  <g id="insta" transform="translate(-199.178 -1528.178)">
    <g id="Group_103" data-name="Group 103" transform="translate(-1219.69 -1963.512)">
      <g id="Group_102" data-name="Group 102" transform="translate(8.178 -5.822)">
        <path id="Path_807" data-name="Path 807" d="M1429.1,3497.512h-14a4.413,4.413,0,0,0-4.409,4.41v14a4.414,4.414,0,0,0,4.409,4.41h14a4.416,4.416,0,0,0,4.411-4.41v-14A4.415,4.415,0,0,0,1429.1,3497.512Zm1.266,2.631.5,0v3.868l-3.855.013-.013-3.868Zm-11.523,6.438a4.008,4.008,0,1,1-.761,2.342A4.015,4.015,0,0,1,1418.844,3506.581Zm12.445,9.343a2.19,2.19,0,0,1-2.188,2.187h-14a2.189,2.189,0,0,1-2.187-2.187v-9.343h3.407a6.241,6.241,0,1,0,11.561,0h3.409Z" fill="#fff"/>
      </g>
    </g>
  </g>
</svg>
