<?xml version="1.0" encoding="utf-8"?>
<!-- Generator: Adobe Illustrator 14.0.0, SVG Export Plug-In . SVG Version: 6.00 Build 43363)  -->
<!DOCTYPE svg PUBLIC "-//W3C//DTD SVG 1.1//EN" "http://www.w3.org/Graphics/SVG/1.1/DTD/svg11.dtd">
<svg version="1.1" id="Layer_1" xmlns="http://www.w3.org/2000/svg" xmlns:xlink="http://www.w3.org/1999/xlink" x="0px" y="0px"
	 width="250px" height="220px" viewBox="0 0 250 220" enable-background="new 0 0 250 220" xml:space="preserve">
<g>
	<path d="M185.754,65.441c-0.058-0.134-0.115-0.255-0.186-0.389c0,0-0.557-1.067-1.032-1.995
		c-0.231-2.163-1.565-14.426-1.565-14.426c-0.093-0.835-0.336-1.641-0.719-2.383c-1.542-3.015-5.752-10.257-11.376-12.333
		c-0.44-0.156-0.893-0.278-1.345-0.342c-1.009-0.157-7.55-1.113-14.113-1.229c-0.081-0.348-0.186-0.684-0.313-1.021
		c-0.221-0.62-0.534-1.2-0.928-1.728c0,0-2.436-3.311-2.992-4.059c-1.426-2.621-5.067-6.384-14.09-5.346
		c-0.196,0.023-0.394,0.052-0.591,0.093l-6.683,1.38c-1.023,0.203-1.991,0.649-2.814,1.299c-1.783,1.374-5.958,5.114-6.355,9.944
		c-0.005,0.122-0.017,0.238-0.017,0.359l-0.177,5.914c0,0.07,0,0.139,0,0.203c0,0.678,0.099,1.357,0.295,1.995
		c-4.067,2.609-9.471,6.471-12.419,10.269c-0.232,0.295-0.441,0.609-0.612,0.939c-0.345,0.626-2.487,4.841-2.487,11.417
		c0,1.548,0.136,3.235,0.42,5.027c-0.339,0.278-0.652,0.574-0.934,0.916c-0.652,0.789-2.743,3.751-3.81,9.654
		c-0.849,1.96-2.311,6.152-2.311,11.834c0,0.36,0.018,0.742,0.029,1.107c-0.351,2.47-1.224,9.121-1.336,14.826
		c-0.166,0.18-0.336,0.354-0.493,0.545c-1.678,2.099-6.436,11.73-8.144,30.759c-0.006,0.069-0.006,0.145-0.006,0.215
		c-0.417,0.684-0.684,1.438-0.837,2.232c-2.322,2.139-5.642,5.705-7.239,9.793c-0.075,0.186-0.142,0.377-0.194,0.563
		c-0.197,0.666-0.707,2.661-0.707,5.16c0,1.745,0.261,3.745,1.049,5.705c-0.142,0.939-0.244,1.844-0.244,2.708
		c0,1.919,0.481,3.664,1.966,5.224c0.638,0.667,4.067,3.845,9.091,0.951c0,0,1.134-0.736,1.537-1.003
		c2.899,0.018,6.117-0.888,8.593-3.514c1.203-1.281,1.983-2.65,2.481-3.792c1.348-1.537,2.862-3.972,3.989-7.775
		c0.873-0.829,1.734-1.931,2.505-3.363c2.079-1.844,5.981-5.49,9.317-9.602c2.879,2.116,6.424,3.734,10.281,3.271
		c3.702-0.446,6.508-1.873,8.479-3.3c-4.163,15.522-8.822,32.853-8.822,32.853c-0.012,0.053-0.022,0.093-0.034,0.14
		c-0.238,0.974-0.774,3.38-0.774,5.456c0,0.115,0,0.231,0,0.336c0.078,2.441,0.977,3.978,1.766,5.045l0.084,0.121
		c0.742,1.09,1.635,1.832,2.54,2.337c0.742,0.922,1.716,1.67,2.875,2.116c5.973,2.272,11.782,0.563,12.872,0.191
		c2.771-0.922,4.65-3.484,4.686-6.401c0,0,0.022-2.047,0.034-2.598c0.626-1.362,1.125-2.934,1.183-4.633c0-0.087,0-0.174,0-0.255
		c0-2.041-0.776-3.954-2.203-5.393c-1.206-1.206-2.551-1.797-3.722-2.081c2.608-9.759,8.419-31.577,10.181-38.192
		c4.175-1.386,7.805-5.265,7.805-10.396c0-0.104-0.023-0.214-0.023-0.318c0.151-0.325,0.349-0.766,0.349-0.766
		c0.069-0.145,0.127-0.278,0.186-0.423c0.394-1.021,0.649-2.262,0.649-3.59c0-0.591-0.059-1.2-0.175-1.814
		c0.197-0.73,0.325-1.53,0.325-2.383c0-0.667-0.081-1.363-0.255-2.082c-0.209-0.917-0.72-2.25-1.786-3.543
		c1.09-4.163,2.319-8.79,3.2-12.147c0.649-0.278,1.241-0.649,1.774-1.107c1.693-1.479,10.321-9.185,13.336-15.91
		c0.336-0.76,0.499-1.577,0.545-2.412c0.858-1.166,1.438-2.696,1.438-4.522C186.752,68.474,186.462,67.024,185.754,65.441"/>
	<path d="M222.503,74.544c0-2.267-1.137-4.418-3.073-5.7c-2.215-1.479-5.091-1.525-7.375-0.127
		c-4.859,2.992-13.034,6.604-18.867,7.207c-0.116-1.16-0.255-2.656-0.255-2.656c-0.232-2.389-1.705-4.47-3.862-5.508
		c-2.156-1.032-4.708-0.87-6.702,0.447c-7.108,4.65-14.728,9.051-20.306,11.851c1.184-5.786,3.34-14.994,7.317-29.402
		c0.151-0.603,0.244-1.212,0.244-1.82c0-1.629-0.592-3.23-1.682-4.488c-1.496-1.734-3.769-2.592-6.042-2.302
		c-3.676,0.47-8.048,0.644-9.729,0.4c-0.881-0.806-3.339-4.169-4.522-11.509c-0.359-2.273-1.855-4.209-3.954-5.161
		c-1.901-0.846-4.059-0.771-5.902,0.163c-1.717-4.134-3.908-9.625-5.091-12.605l-1.693-4.204c-1.046-2.598-3.545-4.296-6.334-4.296
		c-2.798,0-5.297,1.705-6.335,4.302l-1.629,4.047c-1.11,2.783-3.383,8.482-5.158,12.756c-1.835-0.934-4.003-1.009-5.902-0.163
		c-2.102,0.951-3.586,2.888-3.955,5.161c-1.003,6.245-2.939,9.607-4.038,10.976c-2.221-0.533-6.41-2.128-9.938-3.838
		c-2.418-1.171-5.303-0.823-7.37,0.893c-1.583,1.328-2.461,3.27-2.461,5.271c0,0.603,0.076,1.218,0.241,1.815
		c4.473,16.211,7.054,26.892,8.538,33.693c-5.514-2.806-12.822-7.05-19.688-11.538c-2-1.316-4.546-1.479-6.708-0.447
		c-2.154,1.038-3.621,3.12-3.853,5.508c0,0-0.148,1.496-0.261,2.656c-5.824-0.603-14.005-4.215-18.87-7.207
		c-2.267-1.397-5.151-1.351-7.372,0.127c-1.931,1.281-3.064,3.433-3.064,5.7c0,0.348,0.029,0.696,0.084,1.043
		c1.864,12.106,4.833,18.392,6.761,22.213c-1.073,1.142-1.769,2.615-1.887,4.192c-0.012,0.174-0.018,0.348-0.018,0.516
		c0,1.757,0.67,3.467,1.893,4.743c2.992,3.12,7.665,8.454,8.668,10.362c0.748,1.443,1.29,2.76,1.687,3.891
		c-1.971,0.916-4.47,1.536-6.152,1.728c-2.748,0.308-5.053,2.25-5.818,4.905c-0.183,0.626-0.272,1.275-0.272,1.913
		c0,2.041,0.913,4.013,2.56,5.329c5.23,4.191,21.416,11.381,26.593,13.637c1.139,0.997,4.166,3.659,4.166,3.659
		c1.041,0.916,2.334,1.489,3.711,1.658c0,0,0.78,0.087,1.003,0.115c-3.45,6.646-15.922,10.182-16.073,10.223
		c-2.89,0.771-4.952,3.328-5.082,6.32c-0.006,0.098-0.006,0.196-0.006,0.301c0,2.864,1.783,5.444,4.497,6.431
		c11.587,4.209,24.848,5.938,30.266,6.505c0.968,0.864,1.942,1.746,1.942,1.746c1.319,1.171,3.047,1.803,4.815,1.739
		c0,0,2.511-0.093,4.981-0.18c0.249,0.435,0.672,1.165,0.672,1.165c1.435,2.476,4.256,3.798,7.071,3.316
		c7.711-1.311,15.412-7.902,21.761-13.585c6.346,5.683,14.046,12.274,21.758,13.585c2.817,0.481,5.636-0.841,7.073-3.316
		c0,0,0.417-0.73,0.673-1.165c2.47,0.087,4.986,0.18,4.986,0.18c1.763,0.063,3.49-0.568,4.813-1.739c0,0,0.974-0.882,1.948-1.746
		c5.415-0.567,18.682-2.296,30.255-6.505c2.713-0.986,4.499-3.566,4.499-6.431c0-0.104,0-0.203,0-0.301
		c-0.128-2.992-2.203-5.55-5.079-6.326c-0.162-0.035-12.629-3.571-16.084-10.217c0.231-0.028,1.009-0.115,1.009-0.115
		c1.368-0.169,2.667-0.742,3.711-1.658c0,0,3.026-2.662,4.163-3.659c5.184-2.256,21.36-9.445,26.59-13.637
		c1.646-1.316,2.563-3.288,2.563-5.329c0-0.638-0.093-1.287-0.278-1.913c-0.766-2.655-3.062-4.598-5.811-4.905
		c-1.681-0.191-4.186-0.812-6.157-1.728c0.406-1.131,0.939-2.453,1.693-3.896c0.974-1.844,5.693-7.265,8.65-10.338
		c1.229-1.275,1.913-2.992,1.913-4.76c0-0.163-0.011-0.336-0.022-0.504c-0.116-1.583-0.813-3.056-1.891-4.204
		c1.937-3.821,4.894-10.106,6.772-22.213C222.468,75.24,222.503,74.892,222.503,74.544"/>
	<path fill="#FFFFFF" d="M217.911,74.892c0.011-0.122,0.022-0.232,0.022-0.348c0-0.754-0.382-1.473-1.021-1.902
		c-0.742-0.493-1.704-0.504-2.458-0.041c-4.499,2.777-17.302,9.196-25.419,7.729c-0.209-2.105-0.649-6.622-0.649-6.622
		c-0.081-0.794-0.568-1.49-1.287-1.833c-0.719-0.348-1.565-0.29-2.238,0.145c-11.921,7.81-23.865,14.177-28.654,15.429
		c0.383-3.688,2.018-13.527,8.767-38.013c0.058-0.203,0.081-0.406,0.081-0.603c0-0.551-0.197-1.084-0.557-1.496
		c-0.498-0.58-1.252-0.87-2.018-0.771c-4.685,0.608-10.691,0.817-12.211,0.104c-2.053-0.962-5.636-5.757-7.132-15.011
		c-0.116-0.76-0.614-1.403-1.311-1.722c-0.707-0.313-1.519-0.255-2.168,0.163c-1.403,0.904-3.062,1.757-4.105,2.168
		c-1.554-3.352-5.343-12.849-7.103-17.25l-1.667-4.157c-0.351-0.864-1.183-1.438-2.113-1.438c-0.934,0-1.763,0.574-2.108,1.438
		l-1.615,4.012c-1.769,4.441-5.598,14.026-7.149,17.395c-1.058-0.412-2.702-1.264-4.114-2.168c-0.646-0.417-1.461-0.476-2.163-0.163
		c-0.698,0.319-1.197,0.962-1.322,1.722c-1.479,9.202-5.036,13.991-7.091,14.988c-1.429,0.383-7.665-1.693-13.382-4.47
		c-0.806-0.395-1.763-0.273-2.453,0.301c-0.534,0.441-0.823,1.084-0.823,1.751c0,0.203,0.029,0.412,0.081,0.603
		C89.67,70.741,92.05,82.667,92.827,87.37c-4.986-1.443-16.681-7.711-28.35-15.348c-0.664-0.435-1.513-0.493-2.232-0.145
		c-0.719,0.342-1.206,1.038-1.288,1.833c0,0-0.44,4.517-0.641,6.622c-8.117,1.467-20.925-4.952-25.419-7.729
		c-0.76-0.464-1.722-0.453-2.464,0.041c-0.641,0.429-1.021,1.148-1.021,1.902c0,0.116,0.012,0.226,0.029,0.348
		c1.858,12.049,4.844,17.934,6.633,21.459c0.493,0.968,0.878,1.745,1.076,2.319c-0.368,0.615-1.2,1.473-1.919,2.029
		c-0.516,0.395-0.837,0.992-0.884,1.641c-0.006,0.058-0.006,0.11-0.006,0.174c0,0.585,0.226,1.148,0.635,1.583
		c1.597,1.658,7.868,8.447,9.416,11.399c1.824,3.484,2.612,6.43,2.934,7.92c-3.099,2.894-8.831,4.122-10.938,4.349
		c-0.919,0.099-1.684,0.748-1.945,1.629c-0.061,0.215-0.09,0.43-0.09,0.644c0,0.685,0.302,1.334,0.855,1.78
		c5.064,4.059,23.433,12.089,26.213,13.295c0.487,0.424,4.708,4.135,4.708,4.135c0.345,0.301,0.777,0.498,1.235,0.551
		c0,0,3.8,0.452,5.914,0.701c0.011,0.197,0.023,0.395,0.023,0.592c0,12.466-20.163,17.934-20.377,17.991
		c-0.962,0.255-1.649,1.107-1.699,2.104c0,0.029-0.006,0.064-0.006,0.104c0,0.951,0.6,1.815,1.501,2.14
		c12.35,4.488,27.147,6.07,30.638,6.396c0.809,0.719,3.064,2.742,3.064,2.742c0.438,0.395,1.015,0.604,1.604,0.58
		c0,0,5.74-0.203,7.717-0.278c0.771,1.334,2.05,3.543,2.05,3.543c0.481,0.823,1.417,1.264,2.357,1.102
		c6.862-1.16,14.469-7.99,20.578-13.47c0,0,0.991-0.875,1.942-1.722c0.957,0.841,1.937,1.717,1.937,1.717
		c6.117,5.484,13.724,12.314,20.589,13.475c0.939,0.162,1.879-0.278,2.354-1.102c0,0,1.275-2.209,2.053-3.543
		c1.982,0.075,7.723,0.278,7.723,0.278c0.58,0.023,1.16-0.186,1.601-0.58c0,0,2.249-2.023,3.062-2.742
		c3.502-0.325,18.299-1.913,30.637-6.396c0.905-0.324,1.508-1.188,1.508-2.14c0-0.04,0-0.075,0-0.104
		c-0.058-0.997-0.742-1.85-1.704-2.104c-0.221-0.058-20.387-5.525-20.387-17.997c0-0.191,0.012-0.389,0.023-0.586
		c2.11-0.249,5.914-0.701,5.914-0.701c0.464-0.053,0.893-0.25,1.24-0.551c0,0,4.222-3.711,4.708-4.135
		c2.783-1.206,21.141-9.236,26.208-13.295c0.557-0.44,0.858-1.096,0.858-1.78c0-0.214-0.023-0.429-0.093-0.644
		c-0.255-0.881-1.032-1.53-1.948-1.629c-2.11-0.227-7.839-1.455-10.936-4.349c0.325-1.49,1.113-4.441,2.934-7.926
		c1.601-3.033,8.176-10.118,9.405-11.388c0.417-0.429,0.649-1.003,0.649-1.588c0-0.058,0-0.116,0-0.168
		c-0.047-0.649-0.371-1.252-0.894-1.646c-0.719-0.557-1.542-1.415-1.925-2.029c0.197-0.574,0.592-1.351,1.09-2.325
		C213.063,92.82,216.044,86.941,217.911,74.892"/>
	<path fill="#BE3427" d="M210.732,102.509c0,0-2.539-1.937-2.957-3.717c0,0,0.059-0.232,0.186-0.649
		c0.939-3.09,5.276-7.955,7.688-23.598c0,0-17.997,11.126-28.724,7.636l-0.813-8.245c0,0-26.544,17.371-32.249,15.922
		c0-0.006-1.229-4.25,8.906-41.022c0,0-10.402,1.345-13.475-0.099c-3.062-1.444-6.877-7.184-8.408-16.716
		c0,0-5.021,3.218-6.574,2.737c-0.639-0.214-8.092-19.244-9.64-23.03c-1.551,3.786-9.002,22.816-9.643,23.03
		c-1.545,0.481-6.578-2.737-6.578-2.737c-1.534,9.532-5.34,15.272-8.401,16.716c-3.07,1.444-15.319-4.5-15.319-4.5
		c10.135,36.766,10.753,45.614,10.747,45.62c-5.706,1.449-32.247-15.922-32.247-15.922l-0.809,8.245
		c-10.721,3.49-28.73-7.636-28.73-7.636c2.418,15.643,6.752,20.508,7.688,23.598c0.125,0.417,0.191,0.649,0.191,0.649
		c-0.415,1.78-2.958,3.717-2.958,3.717c0.012,0.012,7.831,8.181,9.796,11.921c2.861,5.479,3.372,9.764,3.372,9.764
		c-4.076,4.889-13.15,5.839-13.15,5.839c5.189,4.163,26.025,13.133,26.025,13.133l4.975,4.366l7.706,0.916
		c3.024,16.334-21.83,22.839-21.83,22.839c13.513,4.917,30.035,6.273,30.809,6.338l3.627,3.247l9.083-0.325l2.74,4.72
		c7.508-1.27,16.646-10.61,22.906-15.985c6.256,5.375,15.402,14.716,22.905,15.985l2.737-4.72l9.079,0.325l3.63-3.247
		c0.777-0.064,17.302-1.421,30.823-6.338c0,0-24.862-6.505-21.848-22.839l7.712-0.916l4.975-4.366c0,0,20.839-8.97,26.021-13.133
		c0,0-9.067-0.95-13.149-5.839c0,0,0.51-4.284,3.374-9.764C202.894,110.69,210.721,102.521,210.732,102.509"/>
	<path d="M244.432,171.02c-1.078-2.493-3.549-4.11-6.273-4.11h-55.999c-1.484,0-2.888,0.486-4.035,1.327
		c-1.16-0.847-2.552-1.327-4.024-1.327h-20.166c-2.853,0-5.403,1.779-6.412,4.447c0,0-1.751,4.679-3.189,8.522h-1.508
		c0.568-1.519,1.392-3.71,1.392-3.71c0.302-0.783,0.441-1.601,0.441-2.406c0-1.381-0.418-2.743-1.218-3.902
		c-1.275-1.844-3.387-2.951-5.624-2.951h-20.167c-2.855,0-5.41,1.779-6.407,4.447l-0.316,0.835
		c-2.783-3.503-7.303-5.282-13.44-5.282H11.844c-2.725,0-5.189,1.623-6.273,4.122C5.191,171.913,5,172.835,5,173.757
		c0,1.704,0.635,3.386,1.847,4.673c0,0,2.673,2.858,3.484,3.74c0,0.069-0.023,0.15-0.023,0.226c0,1.705,0.635,3.381,1.841,4.674
		c0,0,2.676,2.864,3.485,3.739c0,0.075-0.023,0.157-0.023,0.232c0,1.704,0.635,3.38,1.847,4.673l4.03,4.319
		c1.296,1.386,3.105,2.175,5.007,2.175h9.694c0.023,2.296,0.606,4.795,2.146,7.016c2.731,3.942,7.413,5.943,13.933,5.943h32.258
		c5.943,0,10.55-1.646,13.994-3.896c0.154,0.324,0.328,0.644,0.539,0.945c1.279,1.85,3.38,2.951,5.63,2.951h20.157
		c2.85,0,5.406-1.769,6.407-4.441c0,0,1.763-4.68,3.2-8.518h1.508c-0.58,1.514-1.403,3.705-1.403,3.705
		c-0.29,0.782-0.429,1.595-0.429,2.412c0,1.368,0.417,2.736,1.217,3.891c1.276,1.85,3.387,2.951,5.625,2.951h20.166
		c1.483,0,2.887-0.487,4.035-1.322c1.147,0.841,2.563,1.322,4.023,1.322h20.154c2.864,0,5.416-1.769,6.413-4.441
		c0,0,1.751-4.68,3.201-8.518h18.751c1.913,0,3.733-0.8,5.032-2.203l7.967-8.646c0.661-0.719,1.137-1.56,1.438-2.452
		c1.136-0.348,2.191-0.963,3.026-1.855l8.001-8.64c1.206-1.287,1.821-2.963,1.821-4.655C245,172.829,244.826,171.896,244.432,171.02
		"/>
	<path fill="#FFFFFF" d="M175.967,172.458c-0.417-0.615-1.125-0.98-1.867-0.98h-20.166c-0.95,0-1.797,0.592-2.134,1.479
		c0,0-3.432,9.161-4.302,11.486h-11.26c1.345-3.583,3.711-9.88,3.711-9.88c0.093-0.261,0.139-0.533,0.139-0.8
		c0-0.459-0.128-0.917-0.395-1.305c-0.429-0.615-1.136-0.98-1.89-0.98h-20.155c-0.951,0-1.806,0.592-2.136,1.479l-12.968,34.563
		c-0.261,0.701-0.159,1.483,0.261,2.104c0.426,0.608,1.128,0.979,1.876,0.979h20.163c0.951,0,1.8-0.591,2.131-1.479
		c0,0,3.438-9.155,4.311-11.486h11.249c-1.334,3.584-3.699,9.881-3.699,9.881c-0.093,0.255-0.151,0.527-0.151,0.8
		c0,0.458,0.14,0.91,0.406,1.305c0.429,0.608,1.137,0.979,1.879,0.979h20.166c0.95,0,1.797-0.591,2.133-1.479l12.965-34.563
		C176.5,173.86,176.396,173.078,175.967,172.458"/>
	<path fill="#FFFFFF" d="M240.257,172.846c-0.371-0.829-1.183-1.374-2.099-1.374h-55.999c-0.951,0-1.797,0.598-2.134,1.484
		l-12.965,34.563c-0.267,0.701-0.162,1.483,0.256,2.104c0.429,0.608,1.136,0.979,1.89,0.979h20.154c0.951,0,1.798-0.591,2.134-1.479
		c0,0,3.433-9.161,4.303-11.486h21.917c0.638,0,1.252-0.267,1.682-0.736l7.966-8.633c0.395-0.43,0.604-0.986,0.604-1.549
		c0-0.307-0.058-0.62-0.197-0.916c-0.221-0.516-0.626-0.893-1.113-1.125h3.502c0.638,0,1.241-0.261,1.67-0.73l8.014-8.639
		c0.394-0.43,0.603-0.986,0.603-1.548C240.442,173.449,240.385,173.136,240.257,172.846"/>
	<path fill="#FFFFFF" d="M107.673,175.449c-1.829-2.632-5.256-3.978-10.188-3.978H11.85c-0.913,0-1.733,0.545-2.096,1.38
		c-0.363,0.829-0.194,1.798,0.429,2.465l4.03,4.319c0.435,0.458,1.035,0.725,1.67,0.725h0.296c-0.487,0.227-0.89,0.615-1.116,1.131
		c-0.13,0.29-0.188,0.598-0.188,0.91c0,0.563,0.206,1.119,0.612,1.554l4.03,4.32c0.435,0.464,1.041,0.725,1.669,0.725h0.296
		c-0.487,0.237-0.89,0.62-1.116,1.131c-0.125,0.289-0.188,0.603-0.188,0.91c0,0.568,0.212,1.125,0.618,1.56l4.03,4.313
		c0.435,0.464,1.032,0.725,1.67,0.725H41.74c-0.191,0.505-0.464,1.235-0.464,1.235c-0.278,0.742-0.539,1.891-0.539,3.178
		c0,1.467,0.331,3.119,1.348,4.58c1.82,2.633,5.247,3.972,10.181,3.972h32.258c13.518,0,17.319-9.712,17.473-10.123l6.482-17.279
		C109.074,181.613,109.572,178.198,107.673,175.449 M75.653,197.396h-8.051c-0.186,0-0.403-0.035-0.6-0.075
		c0.635-1.699,4.215-11.237,4.215-11.237c0.487-1.311,2.861-1.403,2.884-1.403h8.048c0.217,0.006,0.479,0.047,0.705,0.093
		c-0.212,0.568-4.209,11.231-4.209,11.231C78.152,197.303,75.682,197.396,75.653,197.396"/>
	<polygon points="153.934,173.757 149.075,186.721 132.944,186.721 137.815,173.757 117.649,173.757 104.688,208.319 
		124.845,208.319 129.706,195.36 145.828,195.36 140.97,208.319 161.136,208.319 174.1,173.757 	"/>
	<polygon points="230.156,182.396 238.158,173.763 182.159,173.763 169.194,208.319 189.36,208.319 194.22,195.36 217.714,195.36 
		225.681,186.721 197.455,186.721 199.078,182.396 	"/>
	<path d="M97.489,173.757H11.847l4.033,4.325h37.21c-1.801,1.589-3.195,4.313-3.195,4.313H17.156l4.032,4.331h27.086l-1.621,4.314
		H22.458l4.033,4.325h18.54l-1.621,4.313c0,0-3.241,8.64,8.854,8.64h32.258c12.101,0,15.342-8.64,15.342-8.64l6.477-17.284
		C106.34,182.396,109.581,173.757,97.489,173.757 M75.667,199.68h-8.062c0,0-3.925,0-2.85-2.882l4.323-11.515
		c1.087-2.888,5.009-2.888,5.009-2.888h8.065c0,0,4.03,0,2.948,2.888l-4.322,11.515C79.7,199.68,75.667,199.68,75.667,199.68"/>
	<path fill="#4F7033" d="M155.743,176.365c-0.963,2.563-4.859,12.965-4.859,12.965h-21.699c0,0,3.459-9.23,4.861-12.965h-14.594
		c-1.021,2.731-8.993,23.976-11.008,29.351h14.594c0.957-2.563,4.865-12.965,4.865-12.965h21.693c0,0-3.455,9.23-4.858,12.965
		h14.588c1.021-2.73,8.987-23.981,11.017-29.351H155.743z"/>
	<path fill="none" stroke="#4F7033" stroke-width="0.4572" d="M155.743,176.365c-0.963,2.563-4.859,12.965-4.859,12.965h-21.699
		c0,0,3.459-9.23,4.861-12.965h-14.594c-1.021,2.731-8.993,23.976-11.008,29.351h14.594c0.957-2.563,4.865-12.965,4.865-12.965
		h21.693c0,0-3.455,9.23-4.858,12.965h14.588c1.021-2.73,8.987-23.981,11.017-29.351H155.743z"/>
	<path fill="#4F7033" d="M183.969,176.365c-1.021,2.731-8.999,23.976-11.005,29.351h14.588c0.962-2.563,4.858-12.965,4.858-12.965
		h24.167c0.557-0.597,1.577-1.716,3.166-3.421h-26.034l3.572-9.538h31.739c0.556-0.597,1.588-1.716,3.177-3.427H183.969z"/>
	<path fill="none" stroke="#4F7033" stroke-width="0.4572" d="M183.969,176.365c-1.021,2.731-8.999,23.976-11.005,29.351h14.588
		c0.962-2.563,4.858-12.965,4.858-12.965h24.167c0.557-0.597,1.577-1.716,3.166-3.421h-26.034l3.572-9.538h31.739
		c0.556-0.597,1.588-1.716,3.177-3.427H183.969z"/>
	<path fill="#4F7033" d="M100.962,189.324L100.962,189.324l2.94-7.845c0,0,0.183-0.533,0.223-1.229
		c0.038-0.638-0.041-1.402-0.487-2.041c-0.84-1.188-3.032-1.844-6.149-1.844H65.231c-4.389,0-7.387,1.287-9.381,2.749
		c-0.6,0.533-1.038,0.916-1.038,0.916c-1.104,0.974-2.157,2.725-2.542,3.444c-0.046,0.133-0.125,0.348-0.238,0.638
		c0,0-3.087,8.239-3.241,8.639l-2.939,7.845c0,0-0.183,0.534-0.226,1.235c-0.035,0.638,0.043,1.403,0.487,2.035
		c0.85,1.194,3.036,1.844,6.152,1.844h32.258c4.386,0,7.387-1.275,9.381-2.742c0.606-0.539,1.038-0.922,1.038-0.922
		c1.105-0.975,2.157-2.726,2.543-3.444c0.046-0.128,0.125-0.342,0.237-0.638C97.721,197.964,100.814,189.725,100.962,189.324
		 M87.542,186.193l-4.322,11.521c-1.354,3.611-5.384,4.568-7.552,4.568h-8.062c-0.583,0-3.557-0.104-5.01-2.215
		c-0.476-0.679-1.154-2.128-0.38-4.181l4.314-11.526c1.354-3.606,5.392-4.563,7.555-4.563h8.068c0.574,0,3.548,0.104,5.01,2.209
		C87.632,182.686,88.316,184.141,87.542,186.193"/>
	<path fill="none" stroke="#4F7033" stroke-width="0.4572" d="M100.962,189.324L100.962,189.324l2.94-7.845
		c0,0,0.183-0.533,0.223-1.229c0.038-0.638-0.041-1.402-0.487-2.041c-0.84-1.188-3.032-1.844-6.149-1.844H65.231
		c-4.389,0-7.387,1.287-9.381,2.749c-0.6,0.533-1.038,0.916-1.038,0.916c-1.104,0.974-2.157,2.725-2.542,3.444
		c-0.046,0.133-0.125,0.348-0.238,0.638c0,0-3.087,8.239-3.241,8.639l-2.939,7.845c0,0-0.183,0.534-0.226,1.235
		c-0.035,0.638,0.043,1.403,0.487,2.035c0.85,1.194,3.036,1.844,6.152,1.844h32.258c4.386,0,7.387-1.275,9.381-2.742
		c0.606-0.539,1.038-0.922,1.038-0.922c1.105-0.975,2.157-2.726,2.543-3.444c0.046-0.128,0.125-0.342,0.237-0.638
		C97.721,197.964,100.814,189.725,100.962,189.324z M87.542,186.193l-4.322,11.521c-1.354,3.611-5.384,4.568-7.552,4.568h-8.062
		c-0.583,0-3.557-0.104-5.01-2.215c-0.476-0.679-1.154-2.128-0.38-4.181l4.314-11.526c1.354-3.606,5.392-4.563,7.555-4.563h8.068
		c0.574,0,3.548,0.104,5.01,2.209C87.632,182.686,88.316,184.141,87.542,186.193z"/>
	<path d="M183.087,73.419c0.649-0.708,1.392-1.896,1.392-3.647c0-0.962-0.221-2.099-0.812-3.409
		c-0.035-0.082-0.069-0.174-0.116-0.255c0,0-0.788-1.501-1.24-2.383c-0.163-1.519-1.612-14.849-1.612-14.849
		c-0.058-0.551-0.221-1.09-0.476-1.589c-1.113-2.168-5.125-9.381-10.135-11.231c-0.29-0.104-0.592-0.18-0.894-0.226
		c-0.44-0.07-8.512-1.27-15.701-1.2c-0.081-0.858-0.231-1.722-0.533-2.522c-0.15-0.412-0.348-0.806-0.614-1.154
		c0,0-2.633-3.571-3.073-4.163c-1.044-2.023-3.966-5.241-11.909-4.331c-0.14,0.018-0.268,0.035-0.406,0.064l-6.671,1.368
		c-0.685,0.145-1.328,0.44-1.882,0.87c-1.536,1.2-5.154,4.407-5.473,8.326c-0.012,0.087-0.012,0.163-0.017,0.244l-0.174,5.92
		c-0.006,0.046-0.006,0.093-0.006,0.133c0,0.893,0.261,1.757,0.748,2.499c0,0,0.125,0.197,0.221,0.336
		c-3.978,2.435-10.367,6.714-13.574,10.825c-0.148,0.203-0.284,0.412-0.403,0.632c-0.308,0.563-2.221,4.325-2.221,10.286
		c0,1.803,0.197,3.815,0.641,5.983c-0.403,0.325-0.974,0.777-0.974,0.777c-0.255,0.197-0.484,0.423-0.687,0.673
		c-0.409,0.493-2.4,3.189-3.383,8.889c-0.725,1.6-2.221,5.537-2.221,11.126c0,0.412,0.018,0.841,0.035,1.27
		c-0.29,2.035-1.325,9.707-1.348,15.696c-0.351,0.272-0.678,0.585-0.979,0.962c-1.461,1.82-6.01,11.161-7.654,29.53
		c-0.017,0.139-0.017,0.272-0.017,0.411c0,0.104,0.017,0.209,0.023,0.313c-0.551,0.69-0.907,1.52-0.992,2.418
		c0,0-0.017,0.22-0.023,0.29c-2.107,1.861-5.659,5.433-7.225,9.439c-0.049,0.127-0.09,0.249-0.13,0.383
		c-0.107,0.359-0.6,2.174-0.6,4.487c0,1.676,0.267,3.606,1.122,5.433c-0.191,1.131-0.322,2.128-0.322,3.004
		c0,1.473,0.351,2.632,1.325,3.646c2.896,3.033,6.436,0.54,7.955-0.521c0,0,0.255-0.191,0.368-0.284
		c2.52,0.174,5.416-0.446,7.581-2.754c1.125-1.188,1.789-2.465,2.186-3.468c1.241-1.321,2.809-3.699,3.931-7.792
		c0.931-0.76,1.881-1.885,2.713-3.549c2.209-1.931,7.196-6.528,10.782-11.405c2.754,2.453,6.442,4.726,10.361,4.262
		c4.201-0.51,7.089-2.44,8.735-3.942c0.15-0.012,0.302-0.035,0.429-0.053c1.125-0.145,2.122-0.567,3.225-1.785
		c-4.163,15.492-10.264,38.192-10.264,38.192c0,0.028-0.011,0.058-0.011,0.093c-0.175,0.695-0.72,3.021-0.72,4.899
		c0,0.093,0.012,0.186,0.012,0.278c0.047,1.797,0.661,2.864,1.322,3.763l0.128,0.186c0.603,0.893,1.38,1.455,2.145,1.814
		c0.522,0.795,1.265,1.433,2.192,1.786c5.357,2.047,10.749,0.359,11.341,0.162c1.844-0.614,3.097-2.324,3.131-4.268
		c0,0,0.035-2.997,0.035-3.021c0-0.029,0-0.052-0.012-0.075c0.614-1.212,1.137-2.649,1.183-4.181
		c0.012-0.058,0.012-0.116,0.012-0.174c0-1.443-0.557-2.783-1.554-3.792c-1.542-1.56-3.502-1.693-4.279-1.67
		c-0.116,0-0.243,0.012-0.371,0.023c0,0-0.313,0.034-0.359,0.034c1.983-7.433,9.811-36.801,11.26-42.216
		c0.313-0.029,0.626-0.052,0.928-0.14c3.421-1.061,6.413-4.197,6.413-8.354c0-0.227-0.035-0.464-0.047-0.69
		c0.302-0.655,0.604-1.305,0.604-1.305c0.046-0.099,0.081-0.186,0.116-0.278c0.301-0.806,0.486-1.739,0.486-2.719
		c0-0.632-0.104-1.281-0.267-1.914c0.244-0.713,0.43-1.507,0.43-2.377c0-0.487-0.059-0.997-0.186-1.513
		c-0.209-0.864-0.754-2.232-2.111-3.415c1.01-3.815,3.073-11.62,3.827-14.478c0.383-0.162,0.928-0.377,0.928-0.377
		c0.452-0.186,0.881-0.458,1.264-0.783c0.998-0.87,9.869-8.697,12.745-15.122c0.267-0.585,0.394-1.223,0.394-1.867
		c0-0.145,0-0.295-0.022-0.44c0.011-0.006,0.081-0.087,0.081-0.087C183.122,73.391,183.099,73.402,183.087,73.419"/>
	<path fill="#FFFFFF" d="M181.371,71.917c0.383-0.4,0.812-1.072,0.812-2.157c0-0.667-0.15-1.484-0.592-2.47
		c-0.022-0.041-0.046-0.087-0.069-0.128c0,0-1.125-2.168-1.426-2.76c-0.093-0.806-1.67-15.278-1.67-15.278
		c-0.023-0.272-0.104-0.551-0.232-0.794c-0.73-1.409-4.558-8.529-8.895-10.135c-0.15-0.052-0.301-0.087-0.452-0.11
		c-0.476-0.069-10.263-1.531-17.626-1.102c0.022-0.377,0.046-0.766,0.046-1.16c0-0.997-0.116-2.035-0.452-2.939
		c-0.069-0.209-0.174-0.4-0.302-0.574c0,0-2.841-3.85-3.165-4.279c-0.592-1.356-2.69-4.111-9.729-3.305
		c-0.059,0.006-0.128,0.018-0.197,0.029l-6.677,1.375c-0.342,0.069-0.667,0.22-0.934,0.429c-0.728,0.568-4.343,3.531-4.612,6.726
		c0,0.041,0,0.075,0,0.116l-0.177,5.92c0,0.018,0,0.041,0,0.064c0,0.446,0.125,0.881,0.374,1.247l0.742,1.148
		c0.012,0.018,0.029,0.029,0.04,0.041v1.073c0,0.163,0.023,0.319,0.062,0.47c-3.517,2.087-10.961,6.79-14.304,11.086
		c-0.075,0.104-0.148,0.203-0.208,0.313c-0.104,0.203-1.928,3.647-1.928,9.243c0,2.012,0.261,4.319,0.896,6.836
		c-0.968,0.765-2.108,1.67-2.108,1.67c-0.125,0.104-0.237,0.214-0.345,0.342c-0.212,0.261-2.064,2.662-2.951,8.129
		c-0.54,1.136-2.125,4.928-2.125,10.454c0,0.441,0.011,0.911,0.038,1.38c-0.203,1.426-1.354,9.729-1.354,15.8
		c0,0.371,0.012,0.708,0.023,1.055c-0.554,0.209-1.07,0.557-1.502,1.096c-1.029,1.288-5.552,10.374-7.167,28.307
		c-0.006,0.069-0.006,0.139-0.006,0.208c0,0.14,0.012,0.272,0.035,0.412c0,0,0.073,0.4,0.136,0.736
		c-0.052,0.035-0.203,0.139-0.203,0.139c-0.539,0.389-0.884,0.986-0.942,1.653c0,0-0.055,0.608-0.107,1.206
		c-1.716,1.449-5.723,5.143-7.292,9.149c-0.023,0.058-0.046,0.121-0.066,0.191c-0.087,0.307-0.522,1.89-0.522,3.861
		c0,1.577,0.316,3.38,1.247,5.004c-0.296,1.641-0.432,2.76-0.432,3.525c0,1.072,0.261,1.507,0.693,1.965
		c1.551,1.618,3.473,0.395,6.051-1.577c1.913,0.284,4.626,0.064,6.543-1.977c1.052-1.107,1.603-2.337,1.881-3.143
		c1.053-1.003,2.763-3.247,3.902-7.915c0.89-0.563,1.916-1.623,2.815-3.56c1.87-1.618,8.793-7.833,12.318-13.579
		c2.447,2.632,6.43,6.023,10.445,5.543c4.16-0.499,6.793-2.639,8.011-3.896c0.371-0.012,0.776-0.041,1.125-0.087
		c0.938-0.128,2.203-0.296,5.484-7.41c0.604-1.311,1.74-3.932,2.574-6.587c0.511,0.452,0.975,0.888,1.369,1.258
		c-0.638,2.39-13.95,51.986-13.95,51.986c-0.093,0.325-0.661,2.708-0.661,4.407c0,0.069,0,0.145,0,0.208
		c0.046,1.235,0.44,1.879,0.881,2.488l0.186,0.249c0.499,0.73,1.206,1.09,1.891,1.293c0.208,0.655,0.695,1.2,1.368,1.455
		c4.708,1.792,9.602,0.197,9.811,0.134c0.928-0.313,1.542-1.166,1.565-2.134c0,0,0.035-2.98,0.035-2.992
		c0-0.168-0.059-0.313-0.093-0.476c0.626-1.072,1.229-2.452,1.264-3.85c0.012-0.035,0.012-0.069,0.012-0.104
		c0-0.835-0.313-1.612-0.882-2.186c-0.95-0.957-2.238-1.003-2.609-0.998c-0.058,0-0.127,0.006-0.186,0.012
		c0,0-1.959,0.203-3.652,0.377c0.835-3.148,11.7-43.909,12.559-47.115c0.58,0.028,1.218,0.063,1.218,0.063
		c0.278,0.018,0.545-0.023,0.8-0.099c2.134-0.661,4.801-2.76,4.801-6.135c0-0.359-0.034-0.742-0.104-1.124
		c0.336-0.736,0.857-1.867,0.857-1.867c0.023-0.047,0.035-0.087,0.059-0.134c0.186-0.476,0.336-1.165,0.336-1.937
		c0-0.632-0.116-1.316-0.395-1.982c0.302-0.633,0.557-1.403,0.557-2.256c0-0.33-0.034-0.661-0.115-0.997
		c-0.221-0.911-0.847-2.128-2.517-2.975c0.649-2.453,4.059-15.331,4.534-17.134c0.893-0.365,1.971-0.806,1.971-0.806
		c0.232-0.093,0.441-0.232,0.639-0.389c0.371-0.336,9.438-8.256,12.164-14.333c0.128-0.301,0.197-0.615,0.197-0.934
		c0-0.081-0.012-0.156-0.012-0.232c0,0-0.058-0.487-0.104-0.974c0.359-0.417,0.73-0.829,0.73-0.829
		C181.405,71.895,181.383,71.9,181.371,71.917 M162.226,69.181c-0.904,0.939-1.729,1.809-2.1,2.203
		c-0.452,0.163-0.869,0.348-1.252,0.557c-0.012-0.446-0.035-0.853-0.069-1.142c-0.047-0.812-0.081-1.565-0.081-2.261
		c0-5.016,1.299-6.987,1.461-7.225c0,0,0,0,0.012,0c-0.012,0.035-0.012,0.081-0.012,0.116c0,2.934,1.137,4.824,1.299,5.068
		c0.139,0.232,0.324,0.44,0.557,0.597c0.093,0.087,0.15,0.139,0.208,0.191c-0.081,0.336-0.139,0.672-0.139,0.991
		C162.109,68.589,162.155,68.891,162.226,69.181 M154.757,88.158c0.592,0.609,1.229,0.911,1.531,1.026c-0.012,0-0.012,0-0.023-0.006
		c0,0,0.673,0.272,1.311,0.522c-0.499,1.826-1.275,4.731-2.354,8.691c-0.022-0.046-0.186-0.383-0.186-0.383
		c-0.336-0.655-0.962-1.113-1.692-1.229c0,0-0.464-0.07-0.835-0.127C153.807,93.644,154.456,90.28,154.757,88.158"/>
	<path d="M148.483,39.558c7.063-1.177,20.016,0.783,20.016,0.783c3.734,1.369,7.665,9.028,7.665,9.028l1.705,15.707l1.635,3.137
		c0.777,1.768,0.197,2.163,0.197,2.163l-1.38,1.571l0.197,1.965c-2.552,5.694-11.585,13.539-11.585,13.539l-3.016,1.241
		l-5.229,19.766l1.241,0.916c3.339,1.375,0.776,4.349,0.776,4.349c1.299,1.299,0.592,3.113,0.592,3.113l-1.172,2.546
		c1.184,4.07-2.991,5.352-2.991,5.352l-3.073-0.163l-13.498,50.653c0,0-0.104,1.409,0.754,1.327c0.881-0.081,5.81-0.591,5.81-0.591
		s1.183-0.029,1.159,0.934c-0.069,2-2.075,4.36-2.075,4.36l0.904,0.04l-0.046,2.957c0,0-4.291,1.421-8.28-0.099l0.104-1.24
		c-0.823-0.14-1.937-0.14-2.296-0.667c-0.418-0.62-0.638-0.736-0.661-1.52c-0.047-1.443,0.58-3.954,0.58-3.954l14.298-53.238
		c-1.183-1.369-5.276-4.79-5.276-4.79c-0.591,5.103-5.833,15.766-7.004,15.922c-0.73,0.104-1.855,0.093-1.855,0.093
		s-2.343,3.306-7.251,3.891c-4.911,0.592-10.651-7.422-10.651-7.422c-2.16,6.477-13.681,16.299-13.681,16.299
		c-1.377,3.34-2.942,3.34-2.942,3.34c-1.386,6.755-3.926,8.245-3.926,8.245s-0.31,1.583-1.551,2.905
		c-2.041,2.162-5.444,1.084-5.444,1.084s-3.549,2.748-3.835,2.446c-0.29-0.301,0.487-4.359,0.487-4.359
		c-2.351-2.946-0.937-7.781-0.937-7.781c1.769-4.512,7.349-8.825,7.349-8.825l0.197-2.157l1.377-0.985l-0.391-2.157
		c1.565-17.47,5.888-26.108,6.674-27.089c0.783-0.985,2.154-0.203,2.154-0.203c-0.783-5.688,1.183-19.035,1.183-19.035
		c-0.394-6.871,1.995-11.249,1.995-11.249c0.783-5.3,2.517-7.404,2.517-7.404l3.285-2.592c-2.951-9.59,0.449-15.864,0.449-15.864
		c4.123-5.293,15.51-11.579,15.51-11.579l-0.785-1.374v-2.163l-0.409-0.197l-0.748-1.148l0.171-5.914
		c0.197-2.354,3.731-5.108,3.731-5.108l6.68-1.368c6.865-0.789,7.456,2.163,7.456,2.163l3.34,4.511
		C149.458,35.83,148.483,39.558,148.483,39.558 M161.437,73.321l3.537-3.728c0,0-0.985-0.789-0.395-2.163
		c0,0,0.395-0.98-1.171-2.157c0,0-1.38-2.157-0.8-5.497l-0.777-0.197c0,0-0.395-2.754-3.34,0.197c0,0-2.551,2.743-1.96,11.19
		c0,0,0.592,5.694-1.763,6.279c0,0,0.325,7.068-2.029,8.639c0,0-0.568,7.439-3.409,11.973l1.113,0.783l2.552,0.394l2.875,5.723
		l4.431-16.415l-3.178-1.281c0,0-2.354-0.789-0.395-3.728c0,0-0.591-3.729,1.763-5.306
		C158.491,78.029,156.729,74.695,161.437,73.321"/>
</g>
</svg>
