<?xml version="1.0" encoding="utf-8"?>
<!-- Generator: Adobe Illustrator 25.1.0, SVG Export Plug-In . SVG Version: 6.00 Build 0)  -->
<svg version="1.1" id="Layer_1" xmlns="http://www.w3.org/2000/svg" xmlns:xlink="http://www.w3.org/1999/xlink" x="0px" y="0px"
	 viewBox="0 0 196.3 134.8" style="enable-background:new 0 0 196.3 134.8;" xml:space="preserve">
<style type="text/css">
	.st0{fill-rule:evenodd;clip-rule:evenodd;fill:#FFFFFF;}
	.st1{display:none;fill-rule:evenodd;clip-rule:evenodd;}
	.st2{fill-rule:evenodd;clip-rule:evenodd;fill:#EF3E33;}
</style>
<g>
	<polygon class="st0" points="0,0 194.5,0 194.5,134.8 0,134.8 0,0 	"/>
	<path class="st1" d="M98,126.9c48.6,0,88-27.2,88-60.6c0-33.5-39.3-60.6-88-60.6c-48.5,0-87.8,27-87.8,60.6
		C10.3,99.7,49.6,126.9,98,126.9L98,126.9z"/>
	<path class="st2" d="M27.2,118.9c0,0-4.1-5,1.1-6.2c5.6-2.1,14.2-4.8,15.5-11.9C45.9,88.9,50.9,38,50.9,38l1.5,0.4
		c0.2,6.9-4.8,55-7.1,70.6C43.6,115.5,30.2,122.4,27.2,118.9L27.2,118.9z"/>
	<path class="st0" d="M66.2,19.6c-14.5-5-25.3,14.9-17,25c-0.7-2.8,0.7-3.9,2.8-1.7c1.5,1.9,3-0.2,1.3-3.2
		C50.3,34.5,52.2,18.4,66.2,19.6L66.2,19.6z"/>
	<path class="st0" d="M67.5,22.4c-0.4-1.5,2.2-11.7,10.6-8.8c9.3,3.2,4.5,20.9-8,20.5c10.6-2.6,10.6-15.7,5.8-17.3
		C72.5,15.6,68.8,17.7,67.5,22.4L67.5,22.4z"/>
	<path class="st0" d="M49.8,60.7c2.8,0,2.4,2.8,1.3,3.5c14.5,1.5,45.8-20.5,32.8-39.7C90.2,41.4,66.7,57.8,50,57.4
		c-3.9-0.2-3.4,3.9,0.7,3.4H49.8L49.8,60.7z"/>
	<path class="st0" d="M60.2,82.9c-2.6-0.2-5-0.2-6.3-0.6c1.3,1.1,3,2.1,5.6,2.4C60.9,85,61.3,82.9,60.2,82.9L60.2,82.9z"/>
	<path class="st0" d="M88,28.7c4.5,10.4,7.1,38.4-14.5,50.9c-1.5,0.6-4.7,5.6-0.7,4.1C107.4,68.9,94.1,34.5,88,28.7L88,28.7z"/>
	<path class="st0" d="M50.3,107.7c11.6-13.8,24.8-28.5,25.5-47c0-4.1-7.6-0.4-8.2,3.7C66.5,74.3,60.4,91.5,50.3,107.7L50.3,107.7z"
		/>
	<path class="st0" d="M56.5,29.4c6.9-1.3,14.5,6.7,16.4,14.9c0.4,3-4.8,6-5.2,3.2C67.5,44.9,64.5,30.7,56.5,29.4L56.5,29.4z"/>
	<path class="st0" d="M105.3,39.3c6.5,2.1,14.2,5.6,19.8,6.5c0,0-15.5-1.7-19.2-2.2C102.1,43,101.8,38.2,105.3,39.3L105.3,39.3z"/>
	<path class="st0" d="M102.7,71c9.7-2.1,40.8-5.8,48.1-6c6.3-0.4-43.4,0-47.2,0.7C99.9,66.5,99,71.9,102.7,71L102.7,71z"/>
	<path class="st0" d="M104.7,51.4c9.9,1.7,57.8,4.7,70.1,4.7c0,0-65,1.1-68.8,0.6C102.3,56.1,101,50.7,104.7,51.4L104.7,51.4z"/>
	<path class="st2" d="M89.3,97.8c-1.1,6.3-6.5,10.3-12.7,10.3c-6,0-10.3-3.9-9.3-10.3C68.4,91.7,74,87.6,80,87.6
		C85.9,87.6,90.2,91.7,89.3,97.8L89.3,97.8z M74.6,98c-0.4,2.2,0.9,3.7,3.2,3.7c2.1,0,3.9-1.5,4.3-3.7c0.4-2-0.7-3.9-3.2-3.9
		C76.6,94.1,74.9,96,74.6,98L74.6,98z"/>
	<path class="st2" d="M93.8,88h7.5l1.1,10.4h0.2c0.2-0.9,0.6-1.9,0.9-2.6l3.4-7.8h7.3l0.2,19.8h-6.9l0.7-10.8h-0.2
		c-0.2,0.7-0.6,1.3-0.7,2.1l-4.3,8.8h-4.3l-1.1-8.4c-0.2-0.7-0.2-1.5-0.2-2.4h-0.2c-0.2,0.7-0.4,1.7-0.6,2.4l-2,8.4h-7.1L93.8,88
		L93.8,88z"/>
	<polygon class="st2" points="118.2,88 125.1,88 123.9,94.7 128.4,94.7 129.3,88 136.2,88 133.3,107.7 126.2,107.7 127.3,100.8 
		123,100.8 121.9,107.7 115,107.7 118.2,88 	"/>
	<polygon class="st2" points="141.1,107.7 133.6,107.7 143.5,88 151.5,88 155.4,107.7 147.8,107.7 147.6,105.3 142.2,105.3 
		141.1,107.7 	"/>
	<path class="st0" d="M145.4,104.2l0.4-2.2c0,0,0,0.2,2.4,0.7c-0.4-1.3,1.1-1.7,3.5-3.4c-2.2,0.2-0.9-1.1-0.4-2.1
		c-2.8,1.3-2.1,0-1.7-0.7c-4.5,5.4-1.5-0.2-0.9-1.9c-1.7,1.5-1.7-0.2-1.9-1.3c-0.6,1.1-1.1,2.8-2.2,1.3c0,1.7,1.1,7.3-1.7,1.9
		c0.2,0.7,0.4,2.1-1.9,0.7c0.2,0.9,1.1,2.2-1.1,2.1c1.9,1.7,3.4,2.1,2.4,3.4c2.8-0.6,2.8-0.7,2.8-0.7l-0.4,2.2H145.4L145.4,104.2z"
		/>
	<polygon class="st0" points="154.5,90.4 153.9,90.4 153.9,88.3 153.2,88.3 153.2,88 155.1,88 155.1,88.3 154.5,88.3 154.5,90.4 	
		"/>
	<polygon class="st0" points="157.7,90.4 157.3,90.4 157.3,88.3 157.1,88.3 156.7,90.4 156.4,90.4 155.8,88.3 155.8,88.3 
		155.8,90.4 155.4,90.4 155.4,88 156.2,88 156.6,89.8 156.6,89.8 156.9,88 157.7,88 157.7,90.4 	"/>
</g>
</svg>
