<?xml version="1.0" encoding="utf-8"?>
<!-- Generator: Adobe Illustrator 16.0.0, SVG Export Plug-In . SVG Version: 6.00 Build 0)  -->
<!DOCTYPE svg PUBLIC "-//W3C//DTD SVG 1.1//EN" "http://www.w3.org/Graphics/SVG/1.1/DTD/svg11.dtd">
<svg version="1.1" id="Layer_1_copy" xmlns="http://www.w3.org/2000/svg" xmlns:xlink="http://www.w3.org/1999/xlink" x="0px"
	 y="0px" width="446.32px" height="365.229px" viewBox="0 0 446.32 365.229" enable-background="new 0 0 446.32 365.229"
	 xml:space="preserve">
<path opacity="0.3" d="M56.238,320.582C25.228,320.582,0,295.352,0,264.341C0,233.33,25.228,208.1,56.238,208.1
	c14.101,0,27.374,5.286,37.679,14.943l34.829-43.539c0.567-1.115,1.935-5.288,3.47-10.948c-3.24-2.513-3.594-5.735-3.818-7.77
	c-0.056-0.504-0.104-0.935-0.178-1.251c-1.388-2.552-1.595-6.642,4.132-12.323c-4.306-16.271-3.386-44.277-0.392-54.014
	c2.166-7.039,9.378-17.711,13.255-23.146c-9.75-17.275-0.033-34.574,0.397-35.322c0.056-0.097,0.118-0.19,0.187-0.279l0.4-0.521
	c1.365-1.818,2.969-2.229,4.444-2.336c0.607-0.285,1.282-0.428,2.015-0.428c0.882,0,1.676,0.206,2.313,0.371l0.285,0.072
	c1.386,0.119,3.235,0.606,5.509,1.451c0.891-0.217,1.621-0.42,2.138-0.593c0.131-0.044,0.265-0.077,0.401-0.099l0.797-0.128
	c0.128-0.021,0.258-0.031,0.388-0.032c0.235-0.046,0.954-0.226,2.089-0.51c0.567-0.144,1.15-0.219,1.723-0.219
	c0.378,0,0.756,0.033,1.129,0.097c0.271-0.035,0.542-0.053,0.812-0.053c1.378,0,3.882,0.491,5.873,3.608
	c11.501-8.839,12.241-27.492,12.247-27.691C188.406,6.082,189.523,5,190.881,5c0.011,0,1.407,0.018,1.407,0.018
	c1.379,0.018,2.488,1.141,2.488,2.52c0,2.708,3.597,23.501,19.293,35.926c2.099,1.662,4.359,3.123,6.72,4.347
	c0.487,0.106,0.963,0.158,1.447,0.158c1.888,0,3.834-0.808,5.949-2.471c0.663-0.52,1.49-0.806,2.332-0.806
	c1.165,0,2.247,0.525,2.968,1.44c0.624,0.797,0.9,1.785,0.78,2.785c-0.074,0.615-0.293,1.189-0.634,1.685
	c-0.019,0.479-0.128,0.952-0.326,1.392c3.02,0.537,6.199,0.809,9.485,0.809c5.397,0,11.237-0.732,17.354-2.175l1.176-0.277
	c0.191-0.045,0.385-0.067,0.577-0.067c0.69,0,1.36,0.284,1.843,0.802c0.617,0.662,0.832,1.603,0.563,2.466l-13.739,44.202
	l44.689-13.707c0.243-0.074,0.492-0.111,0.739-0.111c0.574,0,1.139,0.196,1.595,0.569c0.652,0.534,0.995,1.358,0.913,2.196
	L298.4,87.73c-0.013,0.142-1.312,15.911,8.646,23.737c3.967,3.12,9.296,4.701,15.84,4.701c6.572,0,14.451-1.586,23.419-4.713
	c0.272-0.095,0.553-0.141,0.83-0.141c0.827,0,1.625,0.409,2.102,1.13l0.735,1.112c0.642,0.97,0.536,2.252-0.254,3.104
	c-0.153,0.168-16.329,18.185-13.507,34.31c1.243,7.119,6.163,12.989,14.623,17.45l0.87,0.458c0.728,0.383,1.222,1.098,1.325,1.913
	c0.104,0.816-0.198,1.63-0.807,2.183l-52.351,47.552c0.328,0.425,0.522,0.958,0.522,1.537v4.579c0,1.244-0.908,2.302-2.138,2.491
	l-0.583,0.089c-3.424,0.527-5.093,0.815-5.618,1.602c-0.835,1.251-0.903,5.157-0.903,9.754v11.31h25.935v-11.31
	c0-4.863-0.191-8.355-1.124-9.596c-0.674-0.896-2.441-1.203-6.059-1.76l-0.582-0.089c-1.23-0.188-2.139-1.246-2.139-2.491v-4.579
	c0-1.392,1.128-2.52,2.52-2.52h36.363c1.392,0,2.521,1.128,2.521,2.52v4.586c0,1.255-0.925,2.32-2.168,2.495l-0.592,0.083
	c-3.653,0.521-5.589,0.833-6.186,1.664c-0.883,1.23-0.955,5.114-0.955,9.685v39.605c0,4.57,0.072,8.454,0.954,9.684
	c0.597,0.831,2.531,1.144,6.186,1.667l0.603,0.087c1.239,0.181,2.158,1.242,2.158,2.494v4.58c0,1.392-1.129,2.521-2.521,2.521
	h-37.024c-1.392,0-2.52-1.129-2.52-2.521v-4.58c0-1.252,0.918-2.313,2.156-2.494l0.591-0.086c3.519-0.503,5.839-0.835,6.629-1.815
	c0.986-1.225,1.188-4.697,1.188-9.536v-15.938h-25.935v15.938c0,4.57,0.072,8.453,0.955,9.683c0.599,0.832,2.535,1.145,6.195,1.669
	l0.597,0.086c1.238,0.181,2.157,1.242,2.157,2.494v4.58c0,1.392-1.129,2.521-2.521,2.521h-36.362c-1.392,0-2.521-1.129-2.521-2.521
	v-4.58c0-1.252,0.919-2.313,2.157-2.494l0.591-0.086c3.665-0.524,5.603-0.837,6.201-1.669c0.883-1.229,0.955-5.112,0.955-9.683
	v-20.037l-23.524,0.619l-0.07,0.389c-0.192,1.053-1.024,1.86-2.063,2.034c-0.071,0.191-0.164,0.371-0.276,0.536l-0.063,0.372
	c-0.188,1.129-1.114,1.989-2.255,2.095c-0.077,0.007-0.155,0.011-0.231,0.011c-0.936,0-1.793-0.521-2.228-1.343
	c0,0-2.168,0.023-2.177,0.023c-1.135,0.001-2.132-0.759-2.431-1.855l-1.31-4.796c-0.931-0.476-1.925-1.122-2.836-1.995
	c-5.32,15.578-10.44,31.335-15.014,45.408l-0.153,0.473c-0.337,1.038-1.305,1.742-2.397,1.742h-0.5
	c-1.366,0-2.659-0.237-3.698-0.427c-0.562-0.104-1.266-0.235-1.582-0.235c-0.712,0-1.497,0.13-2.404,0.278
	c-1.111,0.186-2.292,0.384-3.537,0.384h-0.523c-1.133,0-2.127-0.757-2.429-1.849l-0.14-0.505
	c-4.724-17.125-10.693-34.084-15.865-48.006c-2.392,7.028-4.922,14.061-7.563,21.401l-0.084,0.234
	c-3.088,8.585-6.282,17.462-9.305,26.529l-0.153,0.463c-0.341,1.033-1.306,1.731-2.393,1.731h-0.496
	c-1.246,0-2.427-0.198-3.47-0.372c-0.885-0.146-1.687-0.216-2.472-0.216s-1.585,0.069-2.446,0.212
	c-1.075,0.179-2.252,0.376-3.495,0.376h-0.533c-1.147,0-2.15-0.775-2.439-1.887l-0.134-0.517
	c-4.783-18.666-10.312-37.076-15.276-53.076c-0.41,0.506-0.836,0.959-1.276,1.354c-0.119,0.573-0.22,1.217-0.293,1.861
	c0.083,1.901-0.234,3.145-0.272,3.285c-0.198,0.734-0.705,1.313-1.351,1.62c-0.29,0.875-1.028,1.506-1.903,1.679
	c-0.422,0.871-1.307,1.418-2.265,1.418c-0.146,0-0.292-0.013-0.439-0.038c-0.984-0.173-1.75-0.904-1.998-1.832l-1.05-0.13
	c-1.263-0.155-2.212-1.229-2.212-2.501c0-0.836,0.028-1.65,0.082-2.427c-0.182-1.131-0.779-2.768-2.52-4.523
	c-7.187-6.471-2.623-17.98,0.107-24.865c0,0,0.128-0.323,0.14-0.354l-11.697,13.81c4.694,8.402,7.167,17.907,7.167,27.604
	C111.816,295.352,86.884,320.582,56.238,320.582z M193.41,218.223c1.132,0,2.125,0.755,2.428,1.847l0.14,0.505
	c2.94,10.662,6.594,21.602,10.127,32.182l0.036,0.106c1.746,5.227,3.521,10.541,5.239,15.897c0.201-0.638,0.402-1.276,0.604-1.916
	c3.465-10.992,7.043-22.346,10.147-33.547c-4.811-5.72-11.835-19.36-11.835-24.41c0-0.157-0.141-3.996-12.388-16.244
	c-7.501-7.966-13.21-20.851-16.534-29.721c-1.59,1.68-3.328,3.636-5.093,5.741c-3.624,4.96-5.911,8.697-6.325,9.874
	c-1.486,5.064-10.481,20.499-15.215,24.445c-0.108,0.09-0.223,0.17-0.344,0.241c-1.89,1.104-4.364,6.821-5.841,10.238
	c-0.726,1.676-1.427,3.295-2.14,4.762h0.143c1.163,0,2.174,0.795,2.449,1.925l0.128,0.526c3.636,15.068,7.614,29.877,11.825,45.556
	l0.604,2.253c1.604-4.644,3.212-9.221,4.787-13.699c4.139-11.77,8.047-22.887,11.591-34.304l0.153-0.489
	c0.329-1.052,1.303-1.768,2.405-1.768H193.41z M413.313,301.905c-1.392,0-2.52-1.128-2.52-2.52v-5.396c0-1.392,1.128-2.52,2.52-2.52
	h3.713l-5.326-15.964h-20.624c-2.664,6.302-5.061,13.343-5.438,15.964c0.004,0,7.332,0,7.332,0c1.392,0,2.52,1.128,2.52,2.52v5.396
	c0,1.392-1.128,2.52-2.52,2.52h-25.203c-1.392,0-2.52-1.128-2.52-2.52v-5.396c0-1.392,1.128-2.52,2.52-2.52h4.677
	c0.132,0,0.234-0.005,0.312-0.01c0.011-0.021,0.022-0.043,0.035-0.067c4.671-12.658,16.659-40.624,28.253-67.67l0.238-0.559
	c0.282-0.663,0.835-1.173,1.519-1.402l0.308-0.103c1.758-0.585,8.304-2.146,10.268-2.146c2.203,0,4.557,1.198,4.557,4.559
	c0,1.81-1.026,2.986-1.64,3.688c-0.106,0.123-0.246,0.285-0.328,0.395c0.159,1.409,2.136,9.502,18.928,54.87
	c3.019,8.445,3.655,8.445,5.546,8.445h3.363c1.392,0,2.52,1.128,2.52,2.52v5.396c0,1.392-1.128,2.52-2.52,2.52H413.313z
	 M407.458,264.4l-5.575-15.603c-2.279,5.389-4.388,10.513-6.312,15.603H407.458z"/>
<path fill="#FFFFFF" d="M56.238,315.582C25.228,315.582,0,290.352,0,259.341C0,228.33,25.228,203.1,56.238,203.1
	c14.101,0,27.374,5.286,37.679,14.943l34.829-43.539c0.567-1.115,1.935-5.288,3.47-10.948c-3.24-2.513-3.594-5.735-3.818-7.77
	c-0.056-0.504-0.104-0.935-0.178-1.251c-1.388-2.552-1.595-6.642,4.132-12.323c-4.306-16.271-3.386-44.277-0.392-54.014
	c2.166-7.039,9.378-17.711,13.255-23.146c-9.75-17.275-0.033-34.574,0.397-35.322c0.056-0.097,0.118-0.19,0.187-0.279l0.4-0.521
	c1.365-1.818,2.969-2.229,4.444-2.336c0.607-0.285,1.282-0.428,2.015-0.428c0.882,0,1.676,0.206,2.313,0.371l0.285,0.072
	c1.386,0.119,3.235,0.606,5.509,1.451c0.891-0.217,1.621-0.42,2.138-0.593c0.131-0.044,0.265-0.077,0.401-0.099l0.797-0.128
	c0.128-0.021,0.258-0.031,0.388-0.032c0.235-0.046,0.954-0.226,2.089-0.51c0.567-0.144,1.15-0.219,1.723-0.219
	c0.378,0,0.756,0.033,1.129,0.097c0.271-0.035,0.542-0.053,0.812-0.053c1.378,0,3.882,0.491,5.873,3.608
	c11.501-8.839,12.241-27.492,12.247-27.691C188.406,1.082,189.523,0,190.881,0c0.011,0,1.407,0.018,1.407,0.018
	c1.379,0.018,2.488,1.141,2.488,2.52c0,2.708,3.597,23.501,19.293,35.926c2.099,1.662,4.359,3.123,6.72,4.347
	c0.487,0.106,0.963,0.158,1.447,0.158c1.888,0,3.834-0.808,5.949-2.471c0.663-0.52,1.49-0.806,2.332-0.806
	c1.165,0,2.247,0.525,2.968,1.44c0.624,0.797,0.9,1.785,0.78,2.785c-0.074,0.615-0.293,1.189-0.634,1.685
	c-0.019,0.479-0.128,0.952-0.326,1.392c3.02,0.537,6.199,0.809,9.485,0.809c5.397,0,11.237-0.732,17.354-2.175l1.176-0.277
	c0.191-0.045,0.385-0.067,0.577-0.067c0.69,0,1.36,0.284,1.843,0.802c0.617,0.662,0.832,1.603,0.563,2.466l-13.739,44.202
	l44.689-13.707c0.243-0.074,0.492-0.111,0.739-0.111c0.574,0,1.139,0.196,1.595,0.569c0.652,0.534,0.995,1.358,0.913,2.196
	L298.4,82.73c-0.013,0.142-1.312,15.911,8.646,23.737c3.967,3.12,9.296,4.701,15.84,4.701c6.572,0,14.451-1.586,23.419-4.713
	c0.272-0.095,0.553-0.141,0.83-0.141c0.827,0,1.625,0.409,2.102,1.13l0.735,1.112c0.642,0.97,0.536,2.252-0.254,3.104
	c-0.153,0.168-16.329,18.185-13.507,34.31c1.243,7.119,6.163,12.989,14.623,17.45l0.87,0.458c0.728,0.383,1.222,1.098,1.325,1.913
	c0.104,0.816-0.198,1.63-0.807,2.183l-52.351,47.552c0.328,0.425,0.522,0.958,0.522,1.537v4.579c0,1.244-0.908,2.302-2.138,2.491
	l-0.583,0.089c-3.424,0.527-5.093,0.815-5.618,1.602c-0.835,1.251-0.903,5.157-0.903,9.754v11.31h25.935v-11.31
	c0-4.863-0.191-8.356-1.124-9.596c-0.674-0.896-2.441-1.203-6.059-1.76l-0.582-0.089c-1.23-0.188-2.139-1.246-2.139-2.491v-4.579
	c0-1.392,1.128-2.52,2.52-2.52h36.363c1.392,0,2.521,1.128,2.521,2.52v4.586c0,1.255-0.925,2.32-2.168,2.495l-0.592,0.083
	c-3.653,0.521-5.589,0.833-6.186,1.664c-0.883,1.229-0.955,5.114-0.955,9.685v39.605c0,4.57,0.072,8.454,0.954,9.684
	c0.597,0.831,2.531,1.144,6.186,1.667l0.603,0.087c1.239,0.181,2.158,1.242,2.158,2.494v4.58c0,1.392-1.129,2.521-2.521,2.521
	h-37.024c-1.392,0-2.52-1.129-2.52-2.521v-4.58c0-1.252,0.918-2.313,2.156-2.494l0.591-0.086c3.519-0.503,5.839-0.835,6.629-1.815
	c0.986-1.225,1.188-4.697,1.188-9.536v-15.938h-25.935v15.938c0,4.57,0.072,8.453,0.955,9.683c0.599,0.832,2.535,1.145,6.195,1.669
	l0.597,0.086c1.238,0.181,2.157,1.242,2.157,2.494v4.58c0,1.392-1.129,2.521-2.521,2.521h-36.362c-1.392,0-2.521-1.129-2.521-2.521
	v-4.58c0-1.252,0.919-2.313,2.157-2.494l0.591-0.086c3.665-0.524,5.603-0.837,6.201-1.669c0.883-1.229,0.955-5.112,0.955-9.683
	v-20.037l-23.524,0.619l-0.07,0.389c-0.192,1.053-1.024,1.86-2.063,2.034c-0.071,0.191-0.164,0.371-0.276,0.536l-0.063,0.372
	c-0.188,1.129-1.114,1.989-2.255,2.095c-0.077,0.007-0.155,0.011-0.231,0.011c-0.936,0-1.793-0.521-2.228-1.343
	c0,0-2.168,0.023-2.177,0.023c-1.135,0.001-2.132-0.759-2.431-1.855l-1.31-4.796c-0.931-0.476-1.925-1.122-2.836-1.995
	c-5.32,15.578-10.44,31.335-15.014,45.408l-0.153,0.473c-0.337,1.038-1.305,1.742-2.397,1.742h-0.5
	c-1.366,0-2.659-0.237-3.698-0.427c-0.562-0.104-1.266-0.235-1.582-0.235c-0.712,0-1.497,0.13-2.404,0.278
	c-1.111,0.186-2.292,0.384-3.537,0.384h-0.523c-1.133,0-2.127-0.757-2.429-1.849l-0.14-0.505
	c-4.724-17.125-10.693-34.084-15.865-48.006c-2.392,7.028-4.922,14.061-7.563,21.401l-0.084,0.234
	c-3.088,8.585-6.282,17.462-9.305,26.529l-0.153,0.463c-0.341,1.033-1.306,1.731-2.393,1.731h-0.496
	c-1.246,0-2.427-0.198-3.47-0.372c-0.885-0.146-1.687-0.216-2.472-0.216s-1.585,0.069-2.446,0.212
	c-1.075,0.179-2.252,0.376-3.495,0.376h-0.533c-1.147,0-2.15-0.775-2.439-1.887l-0.134-0.517
	c-4.783-18.666-10.312-37.076-15.276-53.076c-0.41,0.506-0.836,0.959-1.276,1.354c-0.119,0.573-0.22,1.217-0.293,1.861
	c0.083,1.901-0.234,3.145-0.272,3.285c-0.198,0.734-0.705,1.313-1.351,1.62c-0.29,0.875-1.028,1.506-1.903,1.679
	c-0.422,0.871-1.307,1.418-2.265,1.418c-0.146,0-0.292-0.013-0.439-0.038c-0.984-0.173-1.75-0.904-1.998-1.832l-1.05-0.13
	c-1.263-0.155-2.212-1.229-2.212-2.501c0-0.836,0.028-1.65,0.082-2.427c-0.182-1.131-0.779-2.768-2.52-4.523
	c-7.187-6.471-2.623-17.98,0.107-24.865c0,0,0.128-0.323,0.14-0.354l-11.697,13.81c4.694,8.402,7.167,17.907,7.167,27.604
	C111.816,290.352,86.884,315.582,56.238,315.582z M193.41,213.223c1.132,0,2.125,0.755,2.428,1.847l0.14,0.505
	c2.94,10.662,6.594,21.602,10.127,32.182l0.036,0.106c1.746,5.227,3.521,10.541,5.239,15.897c0.201-0.638,0.402-1.276,0.604-1.916
	c3.465-10.992,7.043-22.346,10.147-33.547c-4.811-5.72-11.835-19.36-11.835-24.41c0-0.157-0.141-3.996-12.388-16.244
	c-7.501-7.966-13.21-20.851-16.534-29.721c-1.59,1.68-3.328,3.636-5.093,5.741c-3.624,4.96-5.911,8.697-6.325,9.874
	c-1.486,5.064-10.481,20.499-15.215,24.445c-0.108,0.09-0.223,0.17-0.344,0.241c-1.89,1.104-4.364,6.821-5.841,10.238
	c-0.726,1.676-1.427,3.295-2.14,4.762h0.143c1.163,0,2.174,0.795,2.449,1.925l0.128,0.526c3.636,15.068,7.614,29.877,11.825,45.556
	l0.604,2.253c1.604-4.644,3.212-9.221,4.787-13.699c4.139-11.77,8.047-22.887,11.591-34.304l0.153-0.489
	c0.329-1.052,1.303-1.768,2.405-1.768H193.41z M413.313,296.905c-1.392,0-2.52-1.128-2.52-2.52v-5.396c0-1.392,1.128-2.52,2.52-2.52
	h3.713l-5.326-15.964h-20.624c-2.664,6.302-5.061,13.343-5.438,15.964c0.004,0,7.332,0,7.332,0c1.392,0,2.52,1.128,2.52,2.52v5.396
	c0,1.392-1.128,2.52-2.52,2.52h-25.203c-1.392,0-2.52-1.128-2.52-2.52v-5.396c0-1.392,1.128-2.52,2.52-2.52h4.677
	c0.132,0,0.234-0.005,0.312-0.01c0.011-0.021,0.022-0.043,0.035-0.067c4.671-12.658,16.659-40.624,28.253-67.67l0.238-0.559
	c0.282-0.663,0.835-1.173,1.519-1.402l0.308-0.103c1.758-0.585,8.304-2.146,10.268-2.146c2.203,0,4.557,1.198,4.557,4.559
	c0,1.81-1.026,2.986-1.64,3.688c-0.106,0.123-0.246,0.285-0.328,0.395c0.159,1.409,2.136,9.502,18.928,54.87
	c3.019,8.445,3.655,8.445,5.546,8.445h3.363c1.392,0,2.52,1.128,2.52,2.52v5.396c0,1.392-1.128,2.52-2.52,2.52H413.313z
	 M407.458,259.4l-5.575-15.603c-2.279,5.389-4.388,10.513-6.312,15.603H407.458z"/>
<g>
	<g>
		<path fill-rule="evenodd" clip-rule="evenodd" fill="#ED1C2E" d="M190.906,160.977c0,6.6,26.405,32.348,26.405,38.289
			c0,11.222,7.922,18.484,11.226,26.407c6.598,15.184,10.56,27.066,10.56,27.066l50.17-1.322l-19.142-13.204l79.215-71.955
			c-36.309-19.144-1.979-56.774-1.979-56.774c-56.772,19.807-52.153-27.065-52.153-27.065l-49.509,15.183l15.184-48.852
			c-58.755,13.864-69.315-40.27-69.315-46.211c0,0-0.661,26.407-19.805,33.668c-19.805,7.261,13.203,29.708,13.203,29.708
			L190.906,160.977L190.906,160.977z"/>
	</g>
	<g>
		<path fill="#00539F" d="M238.607,253.439l-0.164-0.482c-0.038-0.12-4.027-12.03-10.537-27.009
			c-1.059-2.541-2.597-5.004-4.224-7.611c-3.309-5.302-7.059-11.311-7.059-19.07c0-2.646-6.652-10.712-12.524-17.83
			c-7.139-8.653-13.881-16.826-13.881-20.459h1.376c0,3.14,7.207,11.876,13.566,19.585c6.888,8.352,12.839,15.564,12.839,18.704
			c0,7.364,3.482,12.944,6.849,18.341c1.658,2.658,3.224,5.166,4.321,7.802c5.794,13.325,9.601,24.247,10.417,26.631l47.553-1.252
			l-18.119-12.501l79.138-71.886c-9.06-5.002-14.367-11.647-15.786-19.764c-2.609-14.938,8.538-30.389,12.858-35.709
			c-18.217,5.943-31.864,5.471-40.598-1.404c-10.249-8.062-10.361-22.221-10.179-26.156l-49.797,15.271l15.215-48.953
			c-19.628,4.382-35.836,1.629-48.22-8.169c-12.874-10.189-18.178-25.378-19.982-33.624c-1.335,8.239-5.677,23.65-19.665,28.956
			c-3.577,1.311-5.541,3.208-5.842,5.64c-1.104,8.945,18.984,22.719,19.188,22.857l-0.774,1.135
			c-0.857-0.583-20.984-14.392-19.777-24.162c0.368-2.984,2.63-5.259,6.725-6.76c18.477-7.008,19.348-32.779,19.356-33.04
			l1.375,0.018c0,3.398,3.732,24.828,20.25,37.902c12.279,9.717,28.497,12.293,48.218,7.641l1.174-0.276l-15.156,48.758
			l49.252-15.105l-0.101,1.028c-0.016,0.171-1.544,17.208,9.596,25.963c8.718,6.855,22.727,6.983,41.646,0.385l0.735,1.112
			c-0.175,0.188-17.182,19.085-14.142,36.458c1.385,7.926,6.746,14.402,15.93,19.245l0.871,0.459l-0.727,0.659l-78.573,71.373
			l18.426,12.71l-0.369,1.256L238.607,253.439z"/>
	</g>
	<g>
		<path fill="#FFD65A" d="M218.944,59.232c-4.736,0-8.573-2.897-11.472-5.084c-0.503-0.381-0.988-0.745-1.45-1.077
			c-8.801-6.283-15.495-2.232-20.884,2.559c-2.436,2.263-5.286,3.342-8.438,3.204c-7.543-0.338-14.174-7.615-14.453-7.924
			c-0.462-0.515-0.422-1.309,0.094-1.773c0.511-0.465,1.304-0.426,1.773,0.093c0.06,0.068,6.217,6.81,12.707,7.096
			c2.506,0.095,4.658-0.725,6.629-2.554c5.342-4.748,13.625-10.176,24.029-2.741c0.48,0.342,0.982,0.719,1.505,1.114
			c4.417,3.334,9.915,7.485,17.454,1.559c0.539-0.43,1.328-0.334,1.763,0.212c0.428,0.546,0.333,1.334-0.212,1.764
			C224.686,58.275,221.666,59.232,218.944,59.232z M222.298,47.979c-5.105,0-9.09-3.386-11.639-5.554l-0.75-0.634
			c-7.866-6.172-14.009-3.425-20.808,2.615c-8.066,6.908-18.499-0.498-22.892-5.379c-0.463-0.516-0.422-1.309,0.093-1.771
			c0.513-0.468,1.303-0.426,1.773,0.092c0.111,0.122,11.179,12.189,19.375,5.167c6.357-5.653,14.202-10.399,24.037-2.675
			l0.797,0.673c4.051,3.441,9.588,8.153,17.458,1.967c0.54-0.424,1.33-0.336,1.762,0.212c0.427,0.544,0.334,1.333-0.215,1.763
			C228.012,47.033,224.999,47.979,222.298,47.979z"/>
	</g>
	<g>
		<path fill="#00539F" d="M220.788,52.995c-5.755,0-10.257-3.752-12.86-5.922c-7.042-5.531-13.454-4.74-20.753,2.564
			c-8.125,6.952-18.553-0.447-22.946-5.331c-0.463-0.516-0.422-1.309,0.093-1.773c0.511-0.464,1.304-0.426,1.773,0.093
			c0.105,0.117,10.082,11,18.107,6.095c-7.201,2.121-15.005-3.663-18.652-7.714c-0.462-0.515-0.422-1.309,0.093-1.773
			c0.51-0.465,1.307-0.426,1.773,0.093c0.108,0.125,11.167,12.197,19.373,5.167c5.138-5.148,13.309-11.103,24.037-2.675l0.375,0.313
			c3.878,3.245,9.742,8.142,17.923,2.294c0.56-0.406,1.349-0.28,1.753,0.292c0.4,0.563,0.272,1.347-0.291,1.75
			c-0.541,0.387-1.077,0.733-1.603,1.042c0.451-0.074,0.945,0.103,1.233,0.509c0.4,0.564,0.271,1.347-0.292,1.75
			C226.635,52.12,223.565,52.995,220.788,52.995z M198.877,40.903c3.192,0,6.742,1.167,10.628,4.219
			c4.959,4.133,10.85,8.068,18.484,2.934c-8.472,4.312-14.832-1.011-18.399-3.995l-0.344-0.288
			c-4.938-3.878-9.559-4.648-14.41-2.243C196.113,41.134,197.458,40.903,198.877,40.903z"/>
	</g>
	<g>
		<path fill="#FFD65A" d="M217.016,64.199c-5.331,0-9.437-3.433-12.047-5.614l-0.342-0.288c-7.875-6.184-14.159-3.464-19.729,1.112
			c-0.029,0.357-0.208,0.7-0.523,0.923c-0.729,0.523-1.444,0.97-2.146,1.353c-1.971,1.479-4.205,2.176-6.708,2.061
			c-1.038-0.049-2.064-0.237-3.065-0.527c-3.591-0.828-6.569-3.014-8.93-4.746l-1.073-0.782c-0.375-0.266-0.558-0.702-0.521-1.129
			c-0.591-0.576-0.945-0.964-1.005-1.032c-0.462-0.515-0.422-1.309,0.093-1.773c0.511-0.465,1.307-0.426,1.773,0.093
			c0.055,0.06,4.818,5.282,10.212,6.915c2.345,0.531,4.942,0.346,7.866-1.204c0.204-0.159,0.404-0.33,0.603-0.513
			c6.497-5.85,14.507-10.739,24.731-2.705l0.375,0.313c3.878,3.245,9.74,8.142,17.925,2.292c0.562-0.414,1.347-0.272,1.75,0.292
			c0.404,0.563,0.274,1.347-0.292,1.75C222.692,63.33,219.699,64.199,217.016,64.199z M221.59,55.635
			c-4.926,0.002-8.882-2.901-11.857-5.084l-1.073-0.781c-7.112-5.582-13.518-4.802-20.825,2.508
			c-8.121,6.956-18.555-0.449-22.946-5.329c-0.463-0.515-0.422-1.308,0.093-1.771c0.321-0.292,0.753-0.385,1.147-0.286
			c-0.718-0.651-1.355-1.297-1.901-1.903c-0.463-0.515-0.422-1.309,0.093-1.771c0.511-0.469,1.304-0.43,1.773,0.091
			c0.111,0.125,11.185,12.186,19.375,5.167c5.14-5.15,13.315-11.099,24.037-2.677l1.048,0.762
			c4.502,3.307,10.113,7.415,17.911,1.847c0.554-0.409,1.344-0.278,1.752,0.292c0.4,0.563,0.271,1.347-0.292,1.75
			c-9.283,6.639-16.247,1.521-20.856-1.864l-1.067-0.778c-7.111-5.583-13.521-4.798-20.827,2.51
			c-6.406,5.484-14.252,2.04-19.436-2.059c2.901,2.764,11.62,9.969,18.392,4.178c5.14-5.144,13.308-11.099,24.035-2.675l1.054,0.766
			c4.5,3.303,10.104,7.413,17.905,1.841c0.56-0.406,1.349-0.28,1.753,0.292c0.4,0.564,0.272,1.347-0.291,1.75
			C227.295,54.76,224.296,55.635,221.59,55.635z"/>
	</g>
	<g>
		<path fill="#00539F" d="M176.364,62.383c-6.198,0-12.329-4.719-15.438-8.173c-0.462-0.515-0.422-1.308,0.093-1.771
			c0.511-0.469,1.307-0.428,1.773,0.091c0.109,0.123,11.173,12.196,19.375,5.169c5.14-5.148,13.308-11.104,24.037-2.677
			c3.083,2.574,11.173,7.796,20.281,1.289c0.562-0.415,1.348-0.272,1.75,0.292c0.404,0.563,0.272,1.347-0.292,1.75
			c-10.814,7.737-20.584,0.904-23.317-1.378c-7.042-5.531-13.449-4.744-20.753,2.566C181.499,61.577,178.925,62.383,176.364,62.383z
			"/>
	</g>
	<g>
		<path fill="#040607" d="M174.998,62.031c-5.129,0-9.089-3.315-11.634-5.443l-0.327-0.272c-0.533-0.443-0.604-1.236-0.162-1.767
			c0.447-0.535,1.241-0.608,1.768-0.161l0.33,0.276c4.095,3.423,9.705,8.121,17.896,1.682c0.539-0.43,1.328-0.334,1.763,0.212
			c0.428,0.546,0.333,1.333-0.212,1.763C180.958,61.04,177.803,62.031,174.998,62.031z"/>
	</g>
	<g>
		<path fill="#00539F" d="M218.336,62.503c-5.105,0-9.089-3.386-11.638-5.554l-0.75-0.634c-7.872-6.18-14.015-3.427-20.81,2.615
			c-2.113,1.81-4.392,2.639-6.678,2.786c-5.852,0.869-10.42-2.934-13.255-5.344c-0.147-0.123-0.292-0.245-0.434-0.368l-0.414-0.35
			c-0.056-0.047-0.108-0.098-0.155-0.152c-0.737-0.668-1.394-1.332-1.954-1.954c-0.462-0.516-0.422-1.309,0.094-1.773
			c0.511-0.462,1.304-0.424,1.773,0.094c0.089,0.099,7.129,7.741,14.159,7.347c1.812-0.315,3.777-1.192,5.916-2.872
			c0.091-0.072,0.19-0.128,0.292-0.171c6.18-5.24,13.711-9.137,23.045-1.81l0.797,0.673c4.047,3.443,9.59,8.155,17.454,1.967
			c0.539-0.43,1.328-0.336,1.763,0.212c0.428,0.546,0.333,1.333-0.212,1.763C224.05,61.555,221.036,62.503,218.336,62.503z"/>
	</g>
	<g>
		<path fill="#FFD65A" d="M220.271,60.256c-4.927,0.002-8.883-2.902-11.857-5.084l-1.071-0.781
			c-7.113-5.585-13.525-4.802-20.827,2.508c-3.247,2.782-6.863,3.264-10.319,2.537c-3.704-0.558-6.723-2.669-8.957-4.47
			c-0.466-0.365-0.914-0.735-1.335-1.106l-0.224-0.187c-0.053-0.042-0.099-0.089-0.144-0.138c-0.743-0.673-1.404-1.34-1.967-1.966
			c-0.463-0.515-0.422-1.308,0.093-1.771c0.511-0.468,1.305-0.43,1.773,0.091c0.074,0.082,5.111,5.578,10.897,7.021
			c2.671,0.458,5.729-0.088,9.211-2.57c5.167-4.952,13.074-9.993,23.304-1.958l1.052,0.764c4.504,3.307,10.109,7.411,17.909,1.843
			c0.562-0.414,1.352-0.276,1.752,0.292c0.4,0.564,0.271,1.347-0.292,1.75C225.977,59.381,222.977,60.256,220.271,60.256z"/>
	</g>
	<g>
		<path fill="#00539F" d="M179.018,57.119c-4.958,0-9.888-3.035-13.253-6.019l-0.012-0.01c-0.082-0.056-0.153-0.123-0.218-0.194
			c-0.743-0.673-1.404-1.339-1.967-1.965c-0.463-0.516-0.422-1.309,0.093-1.771c0.511-0.47,1.305-0.43,1.773,0.092
			c0.029,0.033,0.9,0.981,2.313,2.187l0.56,0.408c4.059,2.976,9.015,6.612,15.66,3.221c0.284-0.196,0.564-0.412,0.842-0.649
			c6.175-5.564,13.661-10.831,24.037-2.675c3.983,2.842,11.48,8.196,20.234,1.32c0.54-0.424,1.33-0.336,1.762,0.212
			c0.428,0.546,0.334,1.333-0.214,1.763c-10.225,8.039-19.051,1.74-23.287-1.285c-7.403-5.823-12.806-4.206-19.144,1.05
			c-0.027,0.357-0.206,0.704-0.523,0.927c-0.838,0.601-1.658,1.104-2.459,1.521C183.223,56.574,181.118,57.119,179.018,57.119z"/>
	</g>
	<g>
		<path fill-rule="evenodd" clip-rule="evenodd" fill="#00539F" d="M175.723,47.429c-1.979-4.621-2.64-9.903-2.64-9.903
			s-1.32-5.28-4.621-4.619c-1.979,0-1.979,0.659-3.301,0.659c-1.32,0.659-4.621,1.32-4.621,1.32s-5.28-1.979-7.261-1.979
			c-1.979,0-1.32-0.661-2.64,0.659c0,0-9.243,17.165,1.32,32.348c0,0-11.223,16.504-13.861,25.087
			c-3.301,8.581-4.623,38.948,1.318,54.793c0,0-7.261,5.28-5.941,8.581c1.322,2.64-0.659,5.941,5.282,7.922
			c0,0-2.64,13.864-5.282,17.165l-61.393,73.277c0,0-30.365-4.619-37.628-8.585c0,0,2.642,15.188,7.922,16.509l33.009-1.321
			l51.49-58.755c0,0-1.981,12.543-3.301,17.164c-1.32,5.28-8.582,17.826-3.301,23.768c5.941,5.279,3.962,10.56,3.962,10.56
			s0-7.924,2.64-8.577c3.301-1.322,6.601-8.585,5.28-17.828c0,0,4.621-3.962,7.922-8.583c2.64-3.96,6.6-17.163,10.563-19.805
			c4.621-3.301,13.203-17.824,14.522-22.445c1.322-3.962,18.484-25.087,22.445-25.087c0,0,4.621,25.087,15.184,35.649
			c10.562,11.223,13.863,16.503,13.863,20.466c0,3.301,7.92,19.144,11.885,22.444c3.958,3.297,3.958,17.163,5.279,19.807
			c1.318,2.637,4.619,3.297,4.619,3.297l2.641,7.264l1.322-7.924c0,0,7.259-9.899,4.619-15.18
			c-1.979-4.624-7.921-13.866-7.921-13.866s-5.94-28.386-8.581-31.687c-1.979-3.301-1.979-3.301-1.979-3.301
			s1.317-20.465-1.983-31.028c0,0,0-5.28-1.981-9.901c-4.62-8.583-10.561-13.205-7.261-17.826
			c12.543-17.824,6.602-29.706,6.602-31.687c0-1.979-9.242-24.426-17.163-26.407l-13.205-6.601c0,0-4.621,0-6.6-1.981
			C184.965,59.312,175.723,47.429,175.723,47.429L175.723,47.429z"/>
	</g>
	<g>
		<path fill-rule="evenodd" clip-rule="evenodd" fill="#FFFFFF" d="M56.238,308.193c26.407,0,48.191-21.782,48.191-48.852
			c0-27.07-21.784-48.854-48.191-48.854c-27.066,0-48.85,21.783-48.85,48.854C7.388,286.411,29.172,308.193,56.238,308.193
			L56.238,308.193z"/>
		<path fill="#00539F" d="M56.238,313.061c-29.621,0-53.718-24.1-53.718-53.72c0-29.623,24.097-53.722,53.718-53.722
			c29.257,0,53.059,24.099,53.059,53.722C109.296,288.961,85.495,313.061,56.238,313.061z M56.238,215.355
			c-24.251,0-43.981,19.731-43.981,43.986c0,24.251,19.73,43.983,43.981,43.983c23.887,0,43.323-19.732,43.323-43.983
			C99.561,235.086,80.125,215.355,56.238,215.355z"/>
	</g>
	<g>
		<path fill="#FFFFFF" d="M37.386,267.172l-7.778-19.445l36.248,9.429l64.994-81.246c0.968-1.648,2.957-8.459,4.273-13.469
			c-3.674-1.97-3.983-4.789-4.219-6.931c-0.082-0.735-0.151-1.382-0.346-1.966c-2.145-3.499,1.784-7.967,4.633-10.549
			c-4.756-15.891-3.581-45.082-0.821-54.056c2.289-7.438,10.827-19.583,13.858-23.757c-10.401-16.5-0.854-33.458-0.43-34.195
			l0.4-0.521c1.05-1.398,2.035-1.398,4.421-1.398l0.797,0.13c1.515,0.505,4.604,1.404,5.9,1.777
			c1.001-0.214,3.058-0.673,4.388-1.118l0.797-0.128c0.348,0,0.348,0,2.689-0.585c3.738-0.951,6.122,2.889,7.012,6.449l0,0
			c0.01,0,7.212,20.959,8.529,24.904c0.439,1.318-0.274,2.743-1.592,3.183c-1.318,0.441-2.743-0.272-3.183-1.593
			c-1.318-3.956-8.573-25.063-8.573-25.063c-0.317-1.215-0.893-2.459-1.301-2.916c-2.057,0.513-2.527,0.626-3.169,0.647
			c-2.105,0.657-5.068,1.25-5.203,1.277l-0.597,0.119l-0.585-0.167c0,0-4.145-1.184-6.314-1.884c-0.138,0-0.263-0.002-0.375-0.002
			c-1.551,3.052-7.619,16.811,1.513,29.7l1.06,1.497l-1.101,1.466c-0.117,0.156-11.651,15.596-14.131,23.658
			c-2.627,8.536-3.685,38.256,1.292,52.566l0.578,1.659l-1.359,1.114c-2.212,1.814-4.367,4.318-4.668,5.385l0.128,0.317
			c0.509,1.277,0.64,2.459,0.754,3.501c0.224,2.043,0.3,2.731,2.986,3.627l2.21,0.737l-0.565,2.261
			c-0.346,1.388-3.453,13.669-5.566,17.188l-66.135,82.709l0.738-0.016l54.056-63.827l4.421,1.903
			c-0.054,0.498-1.376,12.257-3.443,17.769c-0.22,0.799-0.754,2.162-1.382,3.748c-2.008,5.066-5.37,13.546-1.942,16.591
			c0.896,0.898,1.637,1.796,2.245,2.683c0.465-0.505,1.017-0.898,1.67-1.136c1.252-0.866,4.413-6.527,3.785-15.329l-0.089-1.262
			l0.96-0.826c0.043-0.037,4.332-3.75,6.715-7.92l0.253-0.362c1.225-1.472,2.667-4.862,4.061-8.142
			c2.135-5.018,4.151-9.757,6.822-11.987l0.364-0.253c3.813-2.177,12.106-16.56,13.383-20.394
			c1.097-3.848,16.023-26.148,22.192-26.148h1.861l0.546,1.781c0.07,0.231,7.217,23.341,17.249,34
			c13.035,13.032,14.547,18.532,14.547,21.529c0,3.085,7.405,17.536,10.979,20.515c3.102,2.585,4.085,8.332,5.053,15.572
			c0.249,1.874,0.591,4.437,0.867,5.043c0.614,1.225,2.29,1.831,2.881,1.964l1.42,0.307c2.43-3.689,5.338-10.035,4.296-12.812
			c-1.835-4.27-7.624-13.296-7.683-13.385l-0.347-0.834c-2.422-11.319-6.576-28.363-8.213-30.818l-2.043-3.404
			c-0.713-1.192-0.327-2.735,0.865-3.451c1.19-0.715,2.733-0.326,3.451,0.865l1.979,3.301c2.625,3.931,7.582,26.418,8.787,32.008
			c1.171,1.841,6.043,9.581,7.874,13.844c2.231,5.953-3.208,15.027-4.6,17.197l-1.874,7.508l-4.868,0.055l-1.621-5.938
			c-1.485-0.587-3.624-1.8-4.806-4.164c-0.611-1.221-0.898-3.212-1.354-6.621c-0.506-3.787-1.444-10.837-3.288-12.373
			c-4.421-3.686-12.787-19.636-12.787-24.379c0-1.474-1.279-6.178-13.126-18.026c-8.809-9.357-15.236-26.492-17.536-33.234
			c-4.534,3.987-14.869,17.995-15.896,21.583c-1.238,3.725-9.815,19.606-15.456,23.135c-1.71,1.571-3.69,6.225-5.288,9.983
			c-1.563,3.672-3.041,7.146-4.682,9.213c-2.104,3.606-5.216,6.754-6.764,8.208c0.354,9.524-3.122,17.211-6.732,19.02l-0.218,0.108
			c-0.385,0.584-0.743,2.209-0.917,3.993c0.091,1.653-0.164,2.726-0.191,2.835l-4.955-0.61c0-0.751,0.023-1.606,0.095-2.508
			c-0.189-1.556-0.923-3.881-3.319-6.272c-5.953-5.287-1.94-15.409,0.716-22.106c0.554-1.4,1.034-2.598,1.285-3.468
			c0.77-2.067,1.441-5.173,1.967-8.154l-49.854,58.866L37.386,267.172z M37.979,255.107l2.786,6.964l22.209-0.463L37.979,255.107z"
			/>
	</g>
	<g>
		<path fill="#00539F" d="M37.86,264.512l-5.65-14.118l37.131,6.307l64.023-81.013c1.215-2.051,3.445-10.415,4.563-14.923
			c-3.791-1.791-4.11-4.394-4.349-6.352c-0.089-0.733-0.167-1.367-0.414-1.862c-2.218-3.687,2.405-8.123,4.788-10.063
			c-4.95-16.484-3.606-45.34-0.941-54.005c2.345-7.621,11.41-20.827,14.065-24.603c-9.979-16.235-1.102-32.488-0.711-33.188
			c0.051-0.105,0.107-0.253,0.152-0.37c0.82-2.117,2.42-1.709,3.822-1.345l0.515,0.13c1.959,0.105,5.144,1.33,6.528,1.897
			c0.993-0.212,3.134-0.688,4.522-1.151l0.577-0.093c0.393-0.3,1.221-0.638,3.105-0.659c1.188-0.206,3.165,0.006,4.777,3.027
			c0.756,1.419,1.133,2.911,1.148,2.973c0.057,0.218,5.926,23.012,7.829,27.455c0.396,0.925-0.033,1.999-0.96,2.395
			c-0.917,0.393-1.997-0.033-2.395-0.96c-2.01-4.695-7.765-27.042-8.01-27.991c-0.416-1.639-1.314-3.187-1.759-3.309l-0.436,0.058
			c-1.33,0-1.688,0.179-1.923,0.297c-0.218,0.109-0.552,0.276-1.011,0.338c-2.071,0.663-5.154,1.283-5.29,1.311l-0.556,0.111
			l-0.521-0.222c-1.777-0.762-4.778-1.835-5.883-1.835l-1.081-0.216c-0.885,1.663-8.164,16.226,1.279,30.387l0.702,1.052
			l-0.738,1.026c-0.119,0.163-11.739,16.36-14.26,24.558c-2.654,8.628-3.708,37.974,1.306,53.018l0.422,1.266l-1.077,0.786
			c-2.731,1.995-5.42,5.125-4.791,6.17c0.597,1.184,0.728,2.242,0.84,3.175c0.224,1.824,0.358,2.924,3.453,3.956l1.584,0.529
			l-0.387,1.623c-0.344,1.448-3.425,14.239-5.49,17.68l-58.521,74.07l49.631-57.714l3.178,1.516
			c-0.106,0.595-2.667,14.644-3.987,19.924l-0.725,1.712c-2.088,4.707-6.981,15.728-3.054,19.655
			c1.138,1.14,2.006,2.286,2.664,3.395c0.476-0.754,1.077-1.376,1.832-1.753c1.592-0.471,4.92-6.412,4.277-15.402l-0.06-0.832
			l0.589-0.589c0.047-0.045,4.53-4.543,7.034-8.301c1.174-1.647,2.391-4.454,3.676-7.429c2.343-5.412,4.765-11.01,8.16-12.95
			c3.311-2.795,11.731-16.865,13.016-21.362c1.033-3.103,15.851-25.748,21.558-25.748h1.35l0.395,1.291
			c0.072,0.233,7.263,23.491,17.406,34.271c11.912,11.908,14.359,17.296,14.359,21.713c0,2.683,7.555,17.985,11.226,21.045
			c2.9,1.918,3.872,7.701,4.821,15.049c0.272,2.1,0.61,4.713,0.926,5.338c0.894,1.793,3.332,2.33,3.359,2.334l0.925,0.197l2.36,5.49
			c0.396,0.926-0.031,1.999-0.956,2.396c-0.922,0.396-1.999-0.027-2.396-0.956l-1.641-3.83c-1.342-0.463-3.714-1.587-4.919-3.997
			c-0.56-1.124-0.836-3.103-1.275-6.505c-0.513-3.955-1.466-11.319-3.383-12.596c-4.467-3.711-12.695-20.073-12.695-23.965
			c0-2.891-1.584-7.43-13.331-19.173c-9.112-9.684-15.676-27.873-17.661-33.833c-4.458,3.369-15.753,18.982-16.945,22.558
			c-1.307,4.58-10.041,19.614-14.425,23.269c-2.601,1.518-4.977,7.004-6.884,11.414c-1.366,3.155-2.655,6.138-4.024,8.051
			c-2.145,3.223-5.525,6.824-6.876,8.22c0.412,8.809-2.636,17.215-6.705,18.233c-0.352,0.214-0.895,2.221-1.138,4.558
			c0.092,1.574-0.151,2.601-0.179,2.702l-3.593-0.443c0-0.528,0.018-1.392,0.113-2.407c-0.167-1.684-0.916-4.246-3.54-6.87
			c-5.698-5.7-0.295-17.868,2.302-23.716l0.612-1.396c0.661-2.694,1.753-8.27,2.605-12.759l-52.874,61.484L37.86,264.512z
			 M38.016,255.083l2.274,5.681l25.262-1.007L38.016,255.083z"/>
	</g>
	<g>
		<path fill="#00539F" d="M240.054,255.943l-0.661-1.983c-0.307-0.929,0.194-1.932,1.124-2.243c0.03-0.008,0.058-0.02,0.089-0.027
			l0.992-4.572c2.748-4.013,5.976-10.79,4.541-13.306c-2.01-5.302-7.815-14.352-7.874-14.443l-0.241-0.587
			c-2.43-11.342-6.594-28.238-8.234-30.29l-2.182-4.277c-0.438-0.877-0.084-1.942,0.793-2.379c0.871-0.439,1.94-0.088,2.38,0.793
			l1.979,3.962c2.512,3.074,7.516,25.787,8.666,31.135c1.023,1.61,6.063,9.643,7.913,14.584c2.784,4.821-2.92,13.99-4.6,16.494
			l-1.256,6.897L240.054,255.943z"/>
	</g>
	<g>
		<path fill-rule="evenodd" clip-rule="evenodd" fill="#00539F" d="M388.949,267.265c-2.641,5.941-6.603,16.502-6.603,19.799
			c0,2.645,1.322,2.645,3.302,2.645h6.602v3.958h-23.765v-3.958h3.958c1.983,0,2.641-0.661,3.302-1.983
			c4.623-12.543,16.505-40.267,28.388-67.995c1.979-0.659,7.92-1.979,9.242-1.979c1.318,0,1.318,0.659,1.318,1.32
			c0,1.32-1.979,1.981-1.979,3.96c0,3.962,12.544,38.293,19.142,56.117c3.302,9.238,4.623,10.561,8.582,10.561h2.644v3.958h-29.049
			v-3.958h4.623c2.64,0,2.64,0,1.979-2.645l-6.603-19.799H388.949L388.949,267.265z M402.149,234.916
			c-3.958,9.238-7.92,18.484-11.221,27.723h21.124L402.149,234.916L402.149,234.916z"/>
		<path fill="#FFFFFF" d="M443.801,294.385h-30.488v-5.396h5.343c0.75,0,1.528,0,1.707-0.094c-0.035-0.093-0.233-0.886-0.424-1.656
			l-6.424-19.254h-24.099c-2.66,6.069-6.35,16.066-6.35,19.079c0,1.925,0.548,1.925,2.582,1.925h7.321v5.396h-25.203v-5.396h4.677
			c1.688,0,2.107-0.482,2.66-1.586c4.58-12.446,16.614-40.531,28.256-67.688l0.24-0.564l0.308-0.103
			c1.897-0.632,8.002-2.016,9.468-2.016c2.037,0,2.037,1.429,2.037,2.039c0,0.861-0.54,1.483-1.019,2.032
			c-0.493,0.569-0.96,1.108-0.96,1.928c0,2.761,6.781,22.601,19.095,55.868c3.274,9.16,4.421,10.09,7.909,10.09h3.363V294.385z
			 M414.752,292.947h27.609v-2.52h-1.924c-4.472,0-5.941-1.753-9.258-11.038c-8.749-23.637-19.185-52.606-19.185-56.358
			c0-1.359,0.73-2.197,1.313-2.871c0.412-0.475,0.665-0.78,0.665-1.089c0-0.155,0-0.445-0.043-0.509c0,0-0.104-0.091-0.556-0.091
			c-1.158,0-6.548,1.184-8.71,1.845c-11.629,27.132-23.647,55.178-28.247,67.659c-0.786,1.578-1.673,2.453-3.975,2.453h-3.238v2.52
			h22.326v-2.52h-5.883c-1.886,0-4.021,0-4.021-3.363c0-3.476,3.978-14.044,6.664-20.09l0.19-0.428h26.066l6.766,20.292
			c0.404,1.606,0.6,2.384,0.129,2.99c-0.467,0.599-1.244,0.599-2.788,0.599h-3.903V292.947z M413.072,263.358H389.91l0.342-0.961
			c3.305-9.25,7.333-18.651,11.225-27.738l1.35,0.016L413.072,263.358z M391.951,261.919h19.083l-8.946-25.036
			C398.564,245.118,394.972,253.579,391.951,261.919z"/>
	</g>
	<g>
		<path fill-rule="evenodd" clip-rule="evenodd" fill="#00539F" d="M126.873,216.431c3.301,0,5.941,0.659,9.243,0.659
			c3.299,0,6.6-0.659,9.901-0.659c4.622,19.146,9.901,38.292,15.184,58.09c6.601-19.799,13.862-38.944,19.805-58.09
			c1.979,0,3.96,0,5.941,0c1.979,0,3.96,0,5.941,0c5.28,19.146,12.541,38.292,18.482,58.09c5.941-19.138,12.543-38.944,17.167-58.09
			c1.979,0,3.297,0,5.279,0c1.979,0,3.959,0,5.28,0c-9.903,26.409-18.484,52.81-27.065,79.218c-1.981,0-3.96-0.66-5.28-0.66
			c-1.981,0-3.962,0.66-5.941,0.66c-5.282-19.146-11.884-37.63-19.146-56.775c-5.941,18.484-13.202,36.969-19.805,56.775
			c-1.979,0-3.96-0.66-5.941-0.66c-1.98,0-3.96,0.66-5.941,0.66c-6.6-25.747-14.522-50.834-22.445-75.919L126.873,216.431
			L126.873,216.431z"/>
		<path fill="#FFFFFF" d="M212.531,296.337h-0.5c-1.153,0-2.286-0.21-3.286-0.393c-0.752-0.14-1.464-0.269-1.995-0.269
			c-0.933,0-1.868,0.156-2.86,0.319c-1,0.167-2.036,0.342-3.082,0.342h-0.523l-0.14-0.505
			c-5.403-19.585-12.291-38.634-18.432-54.883c-3.035,9.309-6.34,18.492-9.826,28.182c-3.111,8.647-6.328,17.587-9.378,26.735
			l-0.155,0.471h-0.496c-1.046,0-2.082-0.175-3.081-0.342c-1.983-0.327-3.739-0.327-5.718,0c-1.001,0.167-2.036,0.342-3.083,0.342
			h-0.533l-0.134-0.517c-6.596-25.74-14.647-51.231-22.433-75.885l-0.842-4.193h0.838c1.689,0,3.218,0.171,4.697,0.334
			c1.442,0.16,2.934,0.325,4.545,0.325c1.615,0,3.276-0.165,4.881-0.325c1.639-0.165,3.334-0.334,5.02-0.334h0.541l0.128,0.526
			c3.655,15.146,7.652,30.023,11.883,45.774c0.898,3.348,1.802,6.711,2.706,10.09c2.443-7.259,4.986-14.495,7.454-21.514
			c4.155-11.816,8.078-22.979,11.62-34.393l0.151-0.484h12.911l0.14,0.505c2.967,10.759,6.645,21.766,10.201,32.413
			c2.561,7.667,5.203,15.576,7.629,23.52c0.991-3.177,1.997-6.373,3.008-9.577c4.817-15.284,9.8-31.094,13.48-46.334l0.128-0.526
			h12.093l-0.347,0.929c-9.918,26.444-18.63,53.257-27.058,79.192L212.531,296.337z M155.918,294.3c1.048,0,2.084,0.175,3.085,0.342
			c0.817,0.137,1.594,0.265,2.366,0.308c3.005-8.998,6.167-17.781,9.227-26.284c3.713-10.323,7.223-20.075,10.413-30.002
			l1.299-0.035c6.268,16.529,13.42,36.122,19.021,56.317c0.762-0.043,1.53-0.171,2.336-0.304c1.624-0.272,3.202-0.436,5.329-0.05
			c0.791,0.147,1.672,0.307,2.541,0.357c8.284-25.491,16.85-51.826,26.57-77.831h-9.028c-3.678,15.122-8.608,30.764-13.379,45.896
			c-1.236,3.924-2.467,7.831-3.67,11.708l-1.316-0.004c-2.593-8.644-5.477-17.275-8.264-25.623
			c-3.507-10.495-7.129-21.345-10.083-31.978h-10.854c-3.515,11.284-7.566,22.809-11.486,33.956
			c-2.71,7.711-5.514,15.686-8.173,23.664l-1.316-0.039c-1.101-4.129-2.201-8.224-3.295-12.299
			c-4.184-15.576-8.138-30.297-11.764-45.276c-1.444,0.029-2.916,0.177-4.343,0.319c-1.639,0.165-3.334,0.334-5.018,0.334
			c-1.689,0-3.218-0.171-4.697-0.334c-1.188-0.132-2.409-0.269-3.704-0.312l0.492,2.463c7.718,24.426,15.718,49.757,22.299,75.35
			c0.76-0.043,1.526-0.171,2.329-0.304C153.836,294.475,154.87,294.3,155.918,294.3z"/>
	</g>
	<g>
		<path fill-rule="evenodd" clip-rule="evenodd" fill="#00539F" d="M320.295,250.095v-14.519c0-12.546-1.322-13.205-9.903-14.525
			v-3.301h34.986v3.301c-9.242,1.32-9.899,1.979-9.899,14.525v39.605c0,12.543,0.657,13.204,9.899,14.526v3.297H309.73v-3.297
			c9.242-1.322,10.564-1.983,10.564-14.526v-19.146h-32.35v19.146c0,12.543,0.66,13.204,9.902,14.526v3.297h-34.985v-3.297
			c9.242-1.322,9.903-1.983,9.903-14.526v-39.605c0-12.546-0.661-13.205-9.903-14.525v-3.301h34.325v3.301
			c-8.582,1.32-9.242,1.979-9.242,14.525v14.519H320.295L320.295,250.095z"/>
		<path fill="#FFFFFF" d="M346.066,293.694h-37.024v-4.58l0.591-0.086c8.645-1.236,9.974-1.427,9.974-13.846v-18.458h-30.974v18.458
			c0,12.512,0.704,12.613,9.313,13.846l0.591,0.086v4.58h-36.362v-4.58l0.591-0.086c8.608-1.232,9.313-1.334,9.313-13.846v-39.605
			c0-12.515-0.704-12.614-9.313-13.844l-0.591-0.083v-4.586h35.701v4.579l-0.583,0.089c-8.006,1.232-8.659,1.333-8.659,13.846v13.83
			h30.974v-13.83c0-12.412-1.24-12.602-9.319-13.846l-0.584-0.089v-4.579h36.363v4.586l-0.592,0.083
			c-8.604,1.229-9.308,1.33-9.308,13.844v39.605c0,12.516,0.703,12.613,9.308,13.846l0.592,0.086V293.694z M310.419,292.317h34.271
			v-2.014c-9.148-1.354-9.899-2.702-9.899-15.121v-39.605c0-12.419,0.755-13.767,9.899-15.12v-2.018H311.08v2.024
			c8.515,1.355,9.903,2.724,9.903,15.114v15.207h-33.727v-15.207c0-12.392,0.704-13.751,9.242-15.114v-2.024H263.55v2.018
			c9.149,1.353,9.903,2.7,9.903,15.12v39.605c0,12.419-0.754,13.768-9.903,15.121v2.014h33.61v-2.014
			c-9.149-1.354-9.903-2.702-9.903-15.121v-19.834h33.727v19.834c0,12.508-1.346,13.764-10.564,15.121V292.317z"/>
	</g>
	<g>
		<path fill="#FFFFFF" d="M136.117,207.783c-0.097,0-0.194-0.012-0.291-0.035c-0.675-0.16-1.093-0.838-0.932-1.511
			c0.14-0.587,3.486-14.393,9.768-18.578c4.652-2.589,11.249-16.204,13.402-21.235c0.274-0.638,1.015-0.925,1.648-0.661
			c0.638,0.274,0.934,1.013,0.661,1.648c-0.33,0.772-8.161,18.92-14.406,22.389c-5.383,3.593-8.599,16.885-8.632,17.017
			C137.2,207.395,136.685,207.783,136.117,207.783z M211.37,184.677c-0.331,0-0.663-0.13-0.91-0.391
			c-13.255-13.92-19.822-35.247-20.094-36.148c-0.2-0.663,0.173-1.363,0.838-1.565c0.649-0.212,1.363,0.173,1.565,0.838
			c0.066,0.214,6.674,21.666,19.511,35.146c0.478,0.501,0.458,1.296-0.045,1.775C211.992,184.563,211.681,184.677,211.37,184.677z
			 M144.697,139.788c-0.539,0-1.034-0.348-1.2-0.889c-12.602-41.118,12.538-70.871,12.792-71.166
			c0.455-0.527,1.244-0.583,1.771-0.13c0.525,0.453,0.583,1.246,0.13,1.771c-0.247,0.286-24.476,29.034-12.294,68.791
			c0.204,0.663-0.169,1.365-0.832,1.567C144.942,139.771,144.817,139.788,144.697,139.788z"/>
	</g>
	<g>
		<path fill="#00539F" d="M298.509,199.955c-0.19,0-0.377-0.08-0.513-0.231c-0.253-0.284-0.226-0.72,0.059-0.972l34.302-30.419
			c-7.851-5.068-12.411-11.288-13.563-18.494c-2.025-12.713,7.186-23.825,7.578-24.292c0.245-0.288,0.685-0.325,0.968-0.083
			c0.288,0.245,0.327,0.678,0.082,0.97c-0.09,0.108-9.199,11.112-7.267,23.197c1.123,7.026,5.734,13.092,13.702,18.024l0.785,0.486
			l-35.679,31.642C298.836,199.896,298.673,199.955,298.509,199.955z"/>
	</g>
	<g>
		<path fill="#FFFFFF" d="M194.869,131.065c-0.706,0-1.373-0.426-1.649-1.122c-0.361-0.912,0.086-1.942,0.996-2.302
			c7.518-2.979,26.601-13.055,24.651-23.78c-1.859-12.999-11.762-20.611-11.863-20.688c-0.78-0.589-0.938-1.701-0.348-2.482
			c0.591-0.785,1.705-0.933,2.48-0.354c0.455,0.342,11.171,8.529,13.232,22.956c2.857,15.707-25.633,27.167-26.847,27.646
			C195.306,131.024,195.086,131.065,194.869,131.065z"/>
	</g>
	<g>
		<path fill="#00539F" d="M194.869,131.115c-0.76,0-1.468-0.478-1.727-1.236c-0.325-0.955,0.185-1.991,1.137-2.315
			c8.212-2.799,29.104-12.273,27.181-22.359c-1.872-13.719-15.726-25.223-15.866-25.337c-0.778-0.64-0.892-1.789-0.255-2.568
			c0.636-0.777,1.787-0.895,2.566-0.255c0.616,0.504,15.102,12.513,17.155,27.572c2.889,15.152-28.275,25.95-29.605,26.401
			C195.261,131.084,195.063,131.115,194.869,131.115z"/>
	</g>
	<g>
		<path fill="#00539F" d="M144.24,161.171c-3.614,0-6.563-1.232-6.789-1.33c-0.832-0.355-1.215-1.316-0.861-2.148
			c0.352-0.832,1.313-1.225,2.15-0.867c0.332,0.138,8.175,3.379,12.598-2.156c0.564-0.706,1.594-0.823,2.306-0.257
			c0.708,0.565,0.822,1.598,0.257,2.306C151.099,160.221,147.413,161.171,144.24,161.171z"/>
	</g>
	<g>
		<path fill="#FFFFFF" d="M192.888,121.925c-0.354,0-0.706-0.153-0.947-0.451c-0.424-0.525-0.344-1.291,0.179-1.715
			c3.715-3.009,13.249-12.009,12.757-17.427c-0.398-2.166-1.211-3.748-2.333-4.467c-1.03-0.661-2.032-0.416-2.076-0.408
			c-0.653,0.159-1.313-0.222-1.487-0.861c-0.173-0.644,0.192-1.305,0.834-1.487c0.2-0.058,2.053-0.539,3.979,0.663
			c1.767,1.098,2.943,3.194,3.496,6.233c0.713,7.794-12.165,18.459-13.634,19.649C193.428,121.836,193.158,121.925,192.888,121.925z
			"/>
	</g>
	<g>
		<path fill="#FFD65A" d="M148,191.28c-0.383,0-0.76-0.173-1.005-0.501c-0.418-0.556-0.305-1.341,0.249-1.758
			c4.116-3.089,10.642-16.418,12.81-21.292c0.284-0.632,1.035-0.916,1.657-0.638c0.634,0.282,0.919,1.022,0.638,1.656
			c-0.329,0.741-8.119,18.169-13.595,22.279C148.525,191.198,148.26,191.28,148,191.28z M213.351,185.998
			c-0.352,0-0.702-0.147-0.951-0.436c-12.57-14.558-19.122-35.865-19.395-36.765c-0.2-0.663,0.173-1.363,0.838-1.565
			c0.655-0.212,1.361,0.173,1.565,0.838c0.066,0.214,6.676,21.706,18.893,35.852c0.453,0.525,0.395,1.318-0.13,1.771
			C213.935,185.896,213.643,185.998,213.351,185.998z M146.676,140.447c-0.544,0-1.046-0.357-1.205-0.906
			c-11.935-41.118,13.214-70.209,13.469-70.5c0.461-0.515,1.252-0.563,1.771-0.108c0.519,0.458,0.57,1.252,0.111,1.771
			c-0.245,0.28-24.479,28.384-12.94,68.137c0.194,0.665-0.19,1.363-0.855,1.555C146.909,140.432,146.791,140.447,146.676,140.447z"
			/>
	</g>
	<g>
		<path fill="#FFD65A" d="M195.527,123.246c-0.342,0-0.684-0.144-0.925-0.426c-0.437-0.511-0.379-1.281,0.132-1.719
			c3.708-3.181,13.115-12.613,12.137-18c-1.046-5.237-3.777-4.961-3.908-4.956c-0.653,0.103-1.271-0.375-1.367-1.032
			s0.338-1.268,0.992-1.375c0.066-0.012,5.146-0.758,6.678,6.906c1.406,7.747-11.472,19.044-12.946,20.308
			C196.091,123.148,195.81,123.246,195.527,123.246z"/>
	</g>
	<g>
		<polygon fill-rule="evenodd" clip-rule="evenodd" fill="#00539F" points="134.135,178.142 70.102,258.68 36.433,254.061 
			39.734,261.324 72.081,260.663 149.977,167.577 134.135,178.142 		"/>
	</g>
	<g>
		<path fill-rule="evenodd" clip-rule="evenodd" fill="#00539F" d="M42.375,262.638v5.941c0,0,12.543,7.924,23.767-0.653v-5.288
			H42.375L42.375,262.638z"/>
	</g>
	<g>
		<path fill="#00539F" d="M54.467,272.316c-6.857,0-12.238-3.324-12.32-3.375l-0.198-0.128v-6.175c0-0.237,0.19-0.428,0.426-0.428
			c0.235,0,0.426,0.19,0.426,0.428v5.7c1.629,0.938,12.864,6.905,22.915-0.626v-5.074c0-0.237,0.19-0.428,0.426-0.428
			s0.426,0.19,0.426,0.428v5.498l-0.167,0.128C62.398,271.325,58.213,272.316,54.467,272.316z"/>
	</g>
	<g>
		<path fill-rule="evenodd" clip-rule="evenodd" fill="#ED1C2E" d="M54.259,268.58c6.6,0,11.882-2.636,11.882-5.941
			c0-2.636-5.282-5.28-11.882-5.28c-6.603,0-11.884,2.645-11.884,5.28C42.375,265.944,47.656,268.58,54.259,268.58L54.259,268.58z"
			/>
		<path fill="#00539F" d="M54.259,269.007c-6.903,0-12.31-2.8-12.31-6.369c0-3.04,5.752-5.708,12.31-5.708
			s12.308,2.668,12.308,5.708C66.567,266.208,61.16,269.007,54.259,269.007z M54.259,257.786c-6.453,0-11.458,2.609-11.458,4.853
			c0,3.041,5.14,5.514,11.458,5.514c6.316,0,11.457-2.473,11.457-5.514C65.715,260.395,60.711,257.786,54.259,257.786z"/>
	</g>
</g>
</svg>
