<svg id="Layer_1" data-name="Layer 1" xmlns="http://www.w3.org/2000/svg" viewBox="0 0 99.5 307.01">
  <path d="M30.43,20.68A12,12,0,0,1,33,19c1.37-.46,2.42.53,2.57,2a42.08,42.08,0,0,0,.86,5.94c.62,2.4-.22,4.5-.85,6.67-.41,1.43-.84,2.85-1.32,4.25a6.69,6.69,0,0,1-.93,1.31c1.27,2.55,2.68,5.21,3.91,7.94a24.47,24.47,0,0,1,1.23,4.15c.91,3.62,1.86,7.24,2.66,10.9.47,2.17.36,4.51,1.07,6.59a116.08,116.08,0,0,0,9.32,19.84c.87,1.52,2.1,1.59,3.46.45.81-.69,1.48-1.78,3.15-1.22A18.33,18.33,0,0,0,58,83.41,12,12,0,0,0,56,80c-1.56-2.33-3-4.71-3-7.63,0-3.32-.4-6.67,0-9.94A16.66,16.66,0,0,1,58.83,52a6.46,6.46,0,0,1,1.89-.81c4.29-1.76,8.62-2.43,13.06-.53a9.29,9.29,0,0,0,1.58.47c2.77.67,4.34,3,5.55,5.07a16.9,16.9,0,0,1,2.63,9.69c-.25,3.18-.48,6.37-1,9.53A10.65,10.65,0,0,1,81,78.7c-.81,1.42-1.73,2.78-2.6,4.17-.11.18-.3.39-.28.57.14,1.41.32,2.82.5,4.27,1.49-.41,2.21.73,3.1,1.49.44.38.68,1.07,1.47.63a.28.28,0,0,1,.25,0c2.69,2.09,6,1.09,9,1.83a78,78,0,0,1,8.43,2.38,8.56,8.56,0,0,1,5.18,6.09,51.33,51.33,0,0,1,1.56,6.9,20.71,20.71,0,0,0,2.91,8.79,32.11,32.11,0,0,1,5,15.74c.37,4.87.6,9.76.89,14.64a.69.69,0,0,0,0,.13c.81,2.53.33,5.16.37,7.73a27.83,27.83,0,0,1-.9,6c-.56,2.65-1.18,5.29-2,7.88a44,44,0,0,1-2,4.25,48.85,48.85,0,0,0-2,5.08c-.77,2.62.59,5.15.54,7.76a49,49,0,0,1-.11,5.69,59.66,59.66,0,0,1-1.41,6.44c-.91,3.67-4.6,5.09-7.93,4.67a2.59,2.59,0,0,1-2.17-2c-.36-1.1-.6-2.24-.85-3.37-.14-.64-.21-1.29-.3-1.91-2-.32-2.22-.47-2.24-2.32a40.43,40.43,0,0,1,.38-6.88,36.51,36.51,0,0,1,1.82-5.87c1-2.76.65-5.63,1-8.44.27-2.26-.75-4.28-.44-6.5.42-3,.61-6.05.76-9.09.11-2.13-.1-4.27,0-6.41.06-1.59.52-3.19.49-4.77a18.88,18.88,0,0,0-.76-4.25c-.48-1.81-1.1-3.58-1.75-5.67l-.16,1c-.35,2.91-.72,5.81-1,8.73-.35,3.16-.46,6.36-1.08,9.47A70.6,70.6,0,0,1,92.19,161a7.61,7.61,0,0,0-.43,2.54c.2,5,.13,10,.89,15,.89,5.88,1.36,11.84,1.75,17.78.44,6.56.68,13.13.79,19.7,0,2.6-.57,5.2-.79,7.81-.6,7.42-1.1,14.84-1.74,22.24-.19,2.21-.82,4.38-1,6.58-.29,2.85-.36,5.72-.57,8.58-.37,5.21-.65,10.43-1.19,15.63-.57,5.5-1.48,11-2.1,16.47-.36,3.2-.46,6.43-.68,9.65,0,.22,0,.51-.09.64-1.13,1.19-.24,2,.45,3,.92,1.21,1.86,2.42,2.74,3.67a9,9,0,0,1,.91,1.74c1.22,3,.44,4.39-2.73,4.66-1.16.09-2,.27-2.37,1.49a1.67,1.67,0,0,1-1.33.78c-2.75,0-5.49-.19-8.24-.27a1.71,1.71,0,0,1-1.82-1.5,15.37,15.37,0,0,0-1-1.87,6.23,6.23,0,0,1-.85-2.65c.26-2.91.76-5.8,1.22-9l-2-.43-.59-9.69c-.22-3.65-.48-7.29-.65-10.94-.16-3.14-.28-6.28-.3-9.41s.15-6.19.19-9.28c.07-5.16.23-10.32.1-15.48-.09-3.75-.55-7.5-.9-11.25-.57-6.13-1.2-12.25-1.8-18.37a1.39,1.39,0,0,0-.44-1c-.18,1.52-.35,3-.56,4.55-.4,2.82-.88,5.63-1.23,8.45-.37,3-.7,6-.91,9-.25,3.55-.49,7.1-.52,10.65,0,6.69.15,13.39.11,20.08,0,2.82-.43,5.63-.6,8.44-.2,3.3-.32,6.59-.51,9.89-.22,3.81-.51,7.63-.73,11.44-.06,1,0,2,0,3.07a5.14,5.14,0,0,1-.74,0c-1-.18-1.18.22-1,1.17.5,2.35,1,4.72,1.3,7.1.23,1.71.05,3.35-1.73,4.33-.27.15-.41.65-.47,1A1.75,1.75,0,0,1,58,318.67c-2-.05-3.93,0-5.89.08a7.46,7.46,0,0,0-1.57.15,1.49,1.49,0,0,1-2.05-1,1.53,1.53,0,0,0-1.62-1.15c-3.4-.23-4.42-1.87-2.83-4.94a39.75,39.75,0,0,1,3.79-5.49c.58-.77.76-1.39.14-2.19a1.82,1.82,0,0,1-.38-1.08A49.8,49.8,0,0,0,46.9,293c-.81-5.67-1.41-11.38-1.95-17.08-.49-5.12-.83-10.26-1.16-15.4-.09-1.5.12-3,.06-4.53,0-.95-.32-1.89-.44-2.83-.52-4.2-1.14-8.39-1.51-12.6-.49-5.71-.76-11.44-1.17-17.15-.09-1.27-.54-2.52-.51-3.77.06-2.73.38-5.46.5-8.19.21-4.9.26-9.81.55-14.71.23-3.73.86-7.44,1.08-11.18.36-6,1.57-12,1.34-18.06a25.46,25.46,0,0,1,.2-3.14,9,9,0,0,0-1-4.37,32.77,32.77,0,0,1-2.59-11.17c-.07-2-.44-3.9-.61-5.86-.21-2.42-.28-4.86-.55-7.27-.59-5.22-1.12-10.46-2-15.63-.32-1.85-1.58-3.54-2.47-5.27S33,111.56,32.06,110a11.46,11.46,0,0,1-1.3-2.26c-1.2-4.34-2.31-8.7-3.42-13.07-.59-2.29-1.19-4.57-1.64-6.89a11.31,11.31,0,0,1-.12-3.53,11.88,11.88,0,0,0-.78-5.79c-1-2.74-2-5.48-3.09-8.2a10.77,10.77,0,0,1-.55-5.81,15.68,15.68,0,0,0-.3-6.64,12,12,0,0,1,1.58-9.95,2.07,2.07,0,0,0,.49-1,74,74,0,0,0-.66-8.17,12.81,12.81,0,0,0-1.87-4,20.42,20.42,0,0,1-2.25-16.44,15,15,0,0,1,2.21-4.43c1.57-2.21,3.95-2.3,6-.55a11.35,11.35,0,0,1,3.1,4.95C29.83,19.05,30.16,20,30.43,20.68Zm79.76,151.43a43.76,43.76,0,0,0,2-4.61c.67-2.2,1.08-4.49,1.66-6.73.33-1.3,1.06-2.57,1.11-3.88a64,64,0,0,0-.1-10,50.4,50.4,0,0,1-.31-11.51,4.08,4.08,0,0,0-.14-1.43,25.11,25.11,0,0,1-.73-2.9,32.2,32.2,0,0,0-5-14.79,19.76,19.76,0,0,1-2.74-8.16,63.75,63.75,0,0,0-1.49-7.06c-1.24-4.66-5.13-6.39-9.5-6.84.35,1.36.82,2.69,1,4.06A12.26,12.26,0,0,0,99,104.81a8.6,8.6,0,0,1,1.36,2.23,122.28,122.28,0,0,1,7.91,23c.53,2.44,1.52,4.85,1.58,7.29a153.83,153.83,0,0,1-.41,16.07c-.41,5.21-1.35,10.38-2.06,15.57-.09.64-.19,1.28-.29,2ZM86,161.28c2.43.2,2.61.16,3.15-2,.71-2.8,1.4-5.61,1.85-8.45.82-5.09,1.45-10.21,2.17-15.32.68-4.81,1.45-9.6,2-14.42a49.71,49.71,0,0,0-1.14-18.38c-.63-2.52-.45-5.23-1.9-7.58-.48-.79-.85-1.38-1.85-1.22s-.86,1-.9,1.64c-.25,4.15-.42,8.31-.68,12.47-.33,5.24-.8,10.48-1.06,15.73-.42,8.1-.71,16.2-1.06,24.3C86.4,152.45,86.19,156.83,86,161.28ZM64.71,67.12c-1.32,0-2.63,0-3.95,0A2.42,2.42,0,0,0,58,69.8c0,1.58.16,3.16.12,4.73A14.55,14.55,0,0,0,62.78,86c2,1.94,5.36,3.79,8.53,1.74,3.73-2.41,6.43-5.56,6.77-10.16.2-2.69.09-5.4.06-8.11a2.31,2.31,0,0,0-2.29-2.31Zm-4.55,94.46,3.65.28c.79,0,1.1-.3,1-1.1,0-1,0-1.92,0-2.88.25-10.32.55-20.64.75-31,.12-5.89.16-11.78,0-17.67a16.74,16.74,0,0,0-1.23-5.41,11.51,11.51,0,0,0-2.16-2.76c-1.58.52-2.54,1.31-2.5,3.2.07,3-.21,6-.22,9s.08,5.94.19,8.91c.1,2.65.33,5.29.4,7.93.05,1.45-.15,2.89-.15,4.34.05,8.28.13,16.56.19,24.84C60.17,160,60.16,160.73,60.16,161.58Zm15.35,0V160c0-5.57-.07-11.13-.07-16.7q0-7,.08-14.05c0-1.6.17-3.2.25-4.8.19-4.16.78-8.28.29-12.48a39.57,39.57,0,0,1,.17-7.61c.16-2.07,0-2.57-1.77-3.16-3.36,2.39-3.86,6-4.18,9.55-.28,3-.29,6-.31,9q0,6.1.1,12.21c.07,3.84.25,7.68.34,11.53.13,5.25.27,10.5.31,15.75,0,2.65-.07,2.65,2.63,2.47ZM25.6,47.3a8.75,8.75,0,0,0-1.5,1.33,9.63,9.63,0,0,0-1.67,7.87A25.87,25.87,0,0,1,23,65a14.5,14.5,0,0,0,.59,4.87,35.77,35.77,0,0,0,1.73,4.62c1.37,3.47,2.67,7,2.07,10.82a6.32,6.32,0,0,0,.17,2.48c1,4,2,8,3,12,.37,1.48.5,3,1,4.48.72,2.06,1.64,4,2.52,6a9.28,9.28,0,0,0,2.54,3.93c.83-1.81,1.68-3.52,2.37-5.28a4.53,4.53,0,0,0,.25-2.33c-.28-1.59-.92-3.12-1.11-4.71-.28-2.5-1.42-4.65-2.27-6.94-1.58-4.25-3.16-8.53-4.36-12.89a153.53,153.53,0,0,1-3.8-15.85c-.64-4-1.41-7.93-2-11.9A20.44,20.44,0,0,1,25.6,47.3Zm72.61,79.77-.27,0a7.6,7.6,0,0,0-.18,2.3c.8,3.41,1.79,6.77,2.57,10.18a25.31,25.31,0,0,1,.76,5.53c0,2.3-.81,4.67-.45,6.88.5,3.12-.67,6-.5,9.05.13,2.34,0,4.7.11,7,0,.89,2.65,2.32,3.49,2a.7.7,0,0,0,.41-.43c.67-3.08,1.42-6.14,1.91-9.24a45.64,45.64,0,0,0,.27-6c.11-4.1.83-8.19.15-12.31-.48-2.89-.62-5.85-1.25-8.7a83.34,83.34,0,0,0-2.48-8.07c-1.16-3.56-2.37-7.1-3.64-10.92a7.24,7.24,0,0,0,0,.83,7,7,0,0,1,.28,1.94c-.32,2-.87,3.94-1.15,5.93A29,29,0,0,0,98.21,127.07ZM47,98.48l-.36-.08c-.2.58-.36,1.16-.59,1.72-1.09,2.76-2.07,5.58-3.36,8.24a6.86,6.86,0,0,0-.81,3.86c.56,5.7,1.18,11.4,1.61,17.12.23,3-.21,6.14.24,9.12.88,5.78.49,11.71,2.15,17.39.38,1.29.64,2.61,1,3.9a2,2,0,0,0,2.77,1.52Q48.31,129.88,47,98.48Zm-17.7-52c.11,1.28.18,2.41.32,3.53.59,4.91,1.31,9.8,1.77,14.72a25.88,25.88,0,0,0,1.48,7.4,21.84,21.84,0,0,1,.73,2.51c.46,1.63.8,3.3,1.39,4.88.88,2.37,1.9,4.7,2.94,7,1.7,3.74,3.46,7.45,5.23,11.28,1.24-2.58,2.41-5,3.5-7.39A1.87,1.87,0,0,0,46.53,89c-1-1.89-2.05-3.76-3.15-5.59-4.7-7.82-7.11-16.38-8.47-25.33C34.3,54,33.34,50,32.51,45.77Zm-4.48-7c2.16-1.52,4.86-1.63,7.46-1.57.49-1.48,1-2.79,1.35-4.13.47-1.68,1.23-3.4,1.16-5.07a66.11,66.11,0,0,0-1.35-8.08c-.26.26-.77.56-.92,1a5,5,0,0,0-.2,1.94c.15,3-1.35,5.19-3.5,7-.44.36-1.23.3-1.85.44l-.28-.47a24.71,24.71,0,0,0,2.39-2.85c.56-.91,1.35-2.19,1.08-3a74.1,74.1,0,0,0-3.48-8.36,3.81,3.81,0,0,0-3.19-2.46c-1.46,0-2.15,1.47-2.8,2.68a8.66,8.66,0,0,0-.48,1.08A17.45,17.45,0,0,0,20.26,30C21.46,33.2,23.24,36.24,24.8,39.45Zm28.89,122.1c.45,0,1.1.07,1.75.16.93.12,1.23-.27,1.2-1.19,0-1.4.09-2.81,0-4.21-.18-5.78-.45-11.56-.6-17.34-.24-9.46-.42-18.92-.61-28.38,0-2.54-.06-5.07-.06-7.61a11.07,11.07,0,0,0,.13-2.28c-.6-2.67-1.33-5.31-2-8a13,13,0,0,1-1.25.52,1.66,1.66,0,0,0-1.33,2c.21,3.28.22,6.57.39,9.85.39,7.6.86,15.21,1.24,22.82.22,4.37.41,8.75.48,13.14.1,5.69,0,11.39.1,17.09A23.91,23.91,0,0,0,53.69,161.55Zm28.56-.13c.29-11.26.41-22.54.91-33.8s1.4-22.68,2.13-34.06l-2.35-.17c-.58,2-1.24,4-1.71,6.06a28.06,28.06,0,0,0-.64,4.58c-.09,1.34.12,2.71.06,4.06-.29,7.44-.69,14.88-.93,22.33-.3,9.54-.5,19.09-.7,28.65C79,162.07,79.11,162.13,82.25,161.42Zm15.18,30.69c1.4,0,1.82,1,2,2.31a28.16,28.16,0,0,0,.86,4.1c.23.68,1,1.7,1.47,1.71,2.4,0,4.86-.86,5.5-3.62.3-1.28.75-2.51,1.11-3.77a6.82,6.82,0,0,0,.51-2c-.08-2.48-.24-5-.46-7.44-.13-1.51-.42-3-.6-4.28L100,177.68C99,182.41,96.1,186.75,97.43,192.11ZM68,102.94l.47,0c.77-1.65,1.55-3.3,2.3-5A3.76,3.76,0,0,1,73,95.9a8.92,8.92,0,0,0,4.38-4,1.22,1.22,0,0,0,.26-.72c-.37-1.84-.78-3.68-1.19-5.55-2.1,2.73-4.68,4.83-8.15,4.84s-6.06-2.18-8.13-4.77c-.38,1.73-.76,3.38-1.09,5a1.44,1.44,0,0,0,.14,1.08c1.33,1.36,2.55,3,4.15,3.88a6,6,0,0,1,2.78,3.08C66.7,100.19,67.38,101.56,68,102.94Z" transform="translate(-17.34 -11.98)"/>
</svg>
