<svg xmlns="http://www.w3.org/2000/svg" width="41.751" height="94.959" viewBox="0 0 41.751 94.959">
  <path id="stage_2_icon" d="M260.927,144.525a2.267,2.267,0,0,0,.2-.886.587.587,0,0,1,.016-.126c.05-.189.3-.746.3-.746h0c.046-.066.085-.128.119-.186a1.8,1.8,0,0,1,.737-.69l.039-.019s.4-.5.4-.7.348-.3.348-.3l.348-.547.249-.149v-.249l.227-.4v-.746a1.737,1.737,0,0,0,.022-.547,1.934,1.934,0,0,1,0-.547v-1.045l.249-.746v-1.194a2.993,2.993,0,0,0,.348-.7c0-.149.1-.846.1-.846l.1-.548.1-.448.1-.5.1-.547.2-.348a7.806,7.806,0,0,0,.149-.8.98.98,0,0,1,.1-.348l.6-.3.3-.1v-.448l.2-.448.1-.448.5-.1.348.149-.05-.448.05-.448h.746l.249.249v.448l.149.547h.249l.3.3.1.5.1.9-.3,1.145-.05.9-.1,1.045.05,1.145V135.3l-.05.945.548-.349.1-.4.2-.4.1-.249.249-.348.249-.3h1.045v.8l-.6,1.144-.249.7-.4.8-.2,1.045-.547.9-.7.4-.7.4-.448.448-.249.7v.6l-.1.6V146.2l.05,1.543-.448,1.792-.3,2.09-.1,2.19-.448,1.841-.05,2.19-.5,1.344-.05,1.493-.249.7-.547.8-.448.8v.9l.3.8v2.09l.547.4V168.3l.2,1.045.249.8v1.194l.647.9v1.891l.6.7.4.4.249-.4-.05-.746-.547-1.229-.4-1.856-.249-1.045v-1.294l.6-.8v-1.095l.547-1.144.448-.846.5-.9a7.9,7.9,0,0,1,.547-.8,6.818,6.818,0,0,1,.7-.5s.746-.6.9-.746a3.783,3.783,0,0,1,.647-.4l.846-.2,1.642-.249s4.927.3,6.171,1.045l.8,1.294.348.746.4.8.1.8.2.547.1.746.149.547.2.9.05.647v1.194a15.512,15.512,0,0,0-.7,1.542c0,.149-.249,1.742-.249,1.742l-.249.846-.3.9-.2,1.194-.7.647-.6.7-.8.7-.4.966s.448.178.6,0,.846.676.846.676h.448l.945.4.746.4-.149.945.348,1,.249,1h.9l.672.2.672.3.846.6.5.5.2,1.045.5,1.194.4.746.547,1.543-.05,1.543-.05,1.344.2,1.343.1.3.05.5.249.348.647.4.2.5.249.946v.547l-.547,3.135-1.642,3.882-.846,1.194-1.393,1.144-1.244.9-1.393.149-1.742-.05-1.07-.547-.324-.448.05.746-.348,1.244v5.922l.3,1.045.1.846-.2.746-.2.647V220l.2.348.6,1.045.448.61h-6.569l-14.41-.261L247.91,222l-1-.212.3-.348a6.967,6.967,0,0,1,0-1.045,3.48,3.48,0,0,1,.6-1.095c.348-.547.846-.7,1.045-1.194s.6-.7.7-1.045.647-2.09.647-2.09l.249-.945-.348-.348-.4-.547-.5-.647a2.52,2.52,0,0,1,.249-.846c.149-.149-.149-.5,0-.7s0-.8,0-.8A5.137,5.137,0,0,1,250,209.6c.249-.2,0-.846,0-.846v-2.986l.332-.846.066-.647s-.149-1.045,0-1.194,0-1.194,0-1.194l.4-1.194v-.448l.348-.547v-.5a3.736,3.736,0,0,1,.4-.7c.149-.149,0-.249,0-.249a2.189,2.189,0,0,0,.3-.6,4.382,4.382,0,0,1,.249-.746.345.345,0,0,0,0-.249l.348-.8s.149-.4.249-.647.746-.846.8-1a4.6,4.6,0,0,1,.295-.547v-8.957l.2-.945.05-1.144V179.89l-.216-.647a5.084,5.084,0,0,1,0-1.144,6.538,6.538,0,0,0,0-1.294l.066-1.145a2.816,2.816,0,0,1,0-1.138,2.391,2.391,0,0,0,0-1.051v-.632l.448-1.159V161.429c0-.149.05-1.493.3-1.642s0-1.593,0-1.593l.249-2.189.746-1.692.746-1.294s.846-1.493,1-1.642a13.647,13.647,0,0,0,.746-1.443l1.3-1.592.691-1.592.324-.945.224-.647.274-.622Z" transform="translate(-246.915 -127.043)" fill="#b81217"/>
</svg>
