<?xml version="1.0" encoding="utf-8"?>
<!-- Generator: Adobe Illustrator 25.2.0, SVG Export Plug-In . SVG Version: 6.00 Build 0)  -->
<svg version="1.1" id="Capa_1" xmlns="http://www.w3.org/2000/svg" xmlns:xlink="http://www.w3.org/1999/xlink" x="0px" y="0px"
	 viewBox="0 0 33.3 31.6" style="enable-background:new 0 0 33.3 31.6;" xml:space="preserve">
<style type="text/css">
	.st0{fill:#E31E25;}
</style>
<g>
	<g>
		<polygon class="st0" points="16.6,9.8 17.9,11.4 21.5,9.3 19.9,7.7 		"/>
		<path class="st0" d="M32.5,17.5L32.5,17.5L32.5,17.5c-0.5-0.6-8.4-9.5-12-12.4c-3.5-2.7-9.9-2.5-15.9,2.3L3.8,8.1
			c0,0-0.1,0.1-0.1,0.1c-3.4,2.7-3.7,8.1-0.7,12c3.1,3.9,8.4,4.9,11.8,2.2c0.7-0.6,1.4-1.8,1.9-2.5l7.1,8.4l8.6-5.6L32.5,17.5
			L32.5,17.5C32.5,17.5,32.5,17.5,32.5,17.5z M30.6,21.9l-4.2,2.5v-1.2l4.2-2.5V21.9z M24.8,21.8l-9.3-11.4c0,0,0-0.1-0.1-0.1
			c-0.1-0.1-0.1-0.2-0.2-0.2L15,9.8l0,0c-1.9-2.1-4.4-3.2-6.8-3.2C12.6,4.3,17,4,19.6,6.1c3.3,2.6,10.4,10.6,11.7,12L24.8,21.8z"/>
	</g>
</g>
</svg>
