<?xml version="1.0" encoding="iso-8859-1"?>
<!-- Generator: Adobe Illustrator 16.0.0, SVG Export Plug-In . SVG Version: 6.00 Build 0)  -->
<!DOCTYPE svg PUBLIC "-//W3C//DTD SVG 1.1//EN" "http://www.w3.org/Graphics/SVG/1.1/DTD/svg11.dtd">
<svg version="1.1" id="Capa_1" xmlns="http://www.w3.org/2000/svg" xmlns:xlink="http://www.w3.org/1999/xlink" x="0px" y="0px"
	 width="31.636px" height="31.636px" viewBox="0 0 31.636 31.636" style="enable-background:new 0 0 31.636 31.636;"
	 xml:space="preserve">
<g>
	<g>
		<polygon points="15.761,9.771 17.092,11.45 20.704,9.28 19.086,7.741 		"/>
		<path d="M31.623,17.509v-0.01l-0.006,0.003c-0.501-0.567-8.354-9.46-12.005-12.382c-3.5-2.693-9.892-2.522-15.854,2.308
			L2.934,8.085C2.887,8.12,2.838,8.147,2.793,8.185c-3.449,2.72-3.744,8.097-0.659,12.006c3.084,3.911,8.381,4.876,11.829,2.156
			c0.705-0.555,1.416-1.793,1.855-2.535l7.126,8.449l8.555-5.65l0.123-5.073l0.014-0.013C31.633,17.521,31.626,17.513,31.623,17.509
			z M29.808,21.906l-4.161,2.542v-1.189l4.161-2.541V21.906z M24.02,21.808l-9.327-11.37c-0.025-0.032-0.045-0.066-0.071-0.099
			c-0.064-0.081-0.134-0.152-0.2-0.23l-0.214-0.261l-0.004,0.007C12.351,7.784,9.846,6.676,7.426,6.65
			c4.385-2.331,8.731-2.615,11.368-0.506c3.288,2.63,10.38,10.58,11.656,12.019L24.02,21.808z"/>
	</g>
</g>
<g>
</g>
<g>
</g>
<g>
</g>
<g>
</g>
<g>
</g>
<g>
</g>
<g>
</g>
<g>
</g>
<g>
</g>
<g>
</g>
<g>
</g>
<g>
</g>
<g>
</g>
<g>
</g>
<g>
</g>
</svg>
