<svg xmlns="http://www.w3.org/2000/svg" width="22.239" height="22.239" viewBox="0 0 22.239 22.239">
  <g id="youtube" transform="translate(-257.09 -1527.089)">
    <g id="Group_64" data-name="Group 64" transform="translate(-1323.272 -1882.094)">
      <g id="Group_63" data-name="Group 63" transform="translate(1580.362 3409.183)">
        <path id="Path_400" data-name="Path 400" d="M1605.538,3431.7a.443.443,0,0,0-.384.159.86.86,0,0,0-.117.516v.582h.995v-.582a.869.869,0,0,0-.119-.516A.43.43,0,0,0,1605.538,3431.7Z" transform="translate(-1588.471 -3416.735)" fill="#fff"/>
        <g id="Group_62" data-name="Group 62">
          <path id="Path_401" data-name="Path 401" d="M1600.317,3431.675a.548.548,0,0,0-.239.056.815.815,0,0,0-.231.176v3.585a1,1,0,0,0,.266.205.654.654,0,0,0,.272.062.365.365,0,0,0,.3-.123.647.647,0,0,0,.1-.4v-2.972a.708.708,0,0,0-.117-.443A.431.431,0,0,0,1600.317,3431.675Z" transform="translate(-1587.128 -3416.728)" fill="#fff"/>
          <g id="Group_61" data-name="Group 61">
            <path id="Path_402" data-name="Path 402" d="M1600.866,3425.512h-14.114a4.3,4.3,0,0,0-4.062,4.369v3.338a4.109,4.109,0,0,0,4.063,4.154h14.114a4.109,4.109,0,0,0,4.063-4.154v-3.338A4.3,4.3,0,0,0,1600.866,3425.512Zm-11.148,2.813h-1.312v6.666h-1.268v-6.666h-1.31v-1.133h3.89Zm3.706,6.666H1592.3v-.631a2.383,2.383,0,0,1-.649.532,1.33,1.33,0,0,1-.654.185.688.688,0,0,1-.586-.258,1.259,1.259,0,0,1-.2-.771v-4.811h1.125v4.415a.5.5,0,0,0,.069.294.274.274,0,0,0,.232.092.641.641,0,0,0,.314-.121,1.526,1.526,0,0,0,.347-.309v-4.372h1.125Zm4.083-1.188a1.451,1.451,0,0,1-.265.937.923.923,0,0,1-.764.325,1.319,1.319,0,0,1-.589-.125,1.469,1.469,0,0,1-.48-.389v.44h-1.136v-7.8h1.136v2.511a1.788,1.788,0,0,1,.482-.4,1.078,1.078,0,0,1,.52-.138.96.96,0,0,1,.815.368,1.739,1.739,0,0,1,.282,1.075Zm3.9-1.55h-2.152v1.084a1.274,1.274,0,0,0,.11.631.413.413,0,0,0,.382.175.46.46,0,0,0,.391-.149,1.274,1.274,0,0,0,.111-.657v-.261h1.157v.295a1.866,1.866,0,0,1-.425,1.334,1.654,1.654,0,0,1-1.261.445,1.532,1.532,0,0,1-1.191-.474,1.861,1.861,0,0,1-.434-1.3v-2.585a1.639,1.639,0,0,1,.479-1.22,1.67,1.67,0,0,1,1.23-.47,1.558,1.558,0,0,1,1.188.437,1.75,1.75,0,0,1,.414,1.254Z" transform="translate(-1582.69 -3415.134)" fill="#fff"/>
            <path id="Path_403" data-name="Path 403" d="M1588.373,3411.511l1.7,5.19v3.4h1.426v-3.565l1.661-5.028h-1.451l-.882,3.436h-.09l-.927-3.436Z" transform="translate(-1584.16 -3411.511)" fill="#fff"/>
            <path id="Path_404" data-name="Path 404" d="M1595.474,3414.773a1.469,1.469,0,0,0-.509,1.174v3.285a1.707,1.707,0,0,0,.5,1.285,1.853,1.853,0,0,0,1.332.479,1.907,1.907,0,0,0,1.357-.463,1.676,1.676,0,0,0,.491-1.276v-3.274a1.545,1.545,0,0,0-.5-1.187,1.842,1.842,0,0,0-1.29-.46A2.061,2.061,0,0,0,1595.474,3414.773Zm1.877,1.125v3.454a.539.539,0,0,1-.152.4.573.573,0,0,1-.41.145.5.5,0,0,1-.387-.143.565.565,0,0,1-.134-.4V3415.9a.436.436,0,0,1,.143-.336.554.554,0,0,1,.378-.126.614.614,0,0,1,.405.126A.417.417,0,0,1,1597.351,3415.9Z" transform="translate(-1585.865 -3412.243)" fill="#fff"/>
            <path id="Path_405" data-name="Path 405" d="M1604.924,3420.892v-6.338h-1.267v4.812a1.737,1.737,0,0,1-.39.341.727.727,0,0,1-.354.133.3.3,0,0,1-.258-.1.533.533,0,0,1-.081-.325v-4.859h-1.265v5.3a1.351,1.351,0,0,0,.223.847.79.79,0,0,0,.661.285,1.559,1.559,0,0,0,.734-.2,2.679,2.679,0,0,0,.73-.591v.7Z" transform="translate(-1587.507 -3412.299)" fill="#fff"/>
          </g>
        </g>
      </g>
    </g>
  </g>
</svg>
